<svg xmlns="http://www.w3.org/2000/svg" xmlns:xlink="http://www.w3.org/1999/xlink" xmlns:fi="http://pattern.flaticon.com/" x="0" y="0" width="1920" height="960" viewBox="0 0 1920 960"><rect x="0px" y="0px" width="100%" height="100%" opacity="1" fill="#ffffff"/><defs><g transform="matrix(0.78125 0 0 0.78125 150 325)" id="L1_4"><g fill="#ff826e"><circle cx="52" cy="6" r="4"/><circle cx="32" cy="24" r="4"/><circle cx="12" cy="42" r="4"/></g><path d="m62 43v6l-2.49.64c-.32 1.18-.79 2.3-1.38 3.34l1.31 2.21-4.25 4.24-2.21-1.3c-1.04.59-2.16 1.06-3.34 1.38l-.64 2.49h-6l-.64-2.49c-1.18-.32-2.3-.79-3.34-1.38l-2.21 1.3-4.25-4.24 1.31-2.21c-.59-1.04-1.06-2.16-1.38-3.34l-2.49-.64v-6l2.49-.64c.23-.82.52-1.61.87-2.36h4.64c-1.26 1.67-2 3.75-2 6 0 5.52 4.48 10 10 10s10-4.48 10-10-4.48-10-10-10c-1.42 0-2.78.3-4 .83v-6.83h7l.64 2.49c1.18.32 2.3.79 3.34 1.38l2.21-1.31 4.25 4.25-1.31 2.21c.59 1.04 1.06 2.16 1.38 3.34z" fill="#ffc729"/><path d="m46 36c5.52 0 10 4.48 10 10s-4.48 10-10 10-10-4.48-10-10c0-2.25.74-4.33 2-6h2c1.1 0 2-.9 2-2v-1.17c1.22-.53 2.58-.83 4-.83zm4 10c0-2.21-1.79-4-4-4s-4 1.79-4 4 1.79 4 4 4 4-1.79 4-4z" fill="#fcd770"/><path d="m62 12v8c0 1.1-.9 2-2 2h-16c-1.1 0-2-.9-2-2v-8c0-1.1.9-2 2-2h8 8c1.1 0 2 .9 2 2z" fill="#e6e9ed"/><path d="m42 30v6.83 1.17c0 1.1-.9 2-2 2h-2-4.64-9.36c-1.1 0-2-.9-2-2v-8c0-1.1.9-2 2-2h8 8c1.1 0 2 .9 2 2z" fill="#e6e9ed"/><path d="m2 56v-8c0-1.1.9-2 2-2h8 8c1.1 0 2 .9 2 2v8c0 1.1-.9 2-2 2h-16c-1.1 0-2-.9-2-2z" fill="#e6e9ed"/><path d="m44 9c-1.654 0-3 1.346-3 3v8c0 1.654 1.346 3 3 3h16c1.654 0 3-1.346 3-3v-8c0-1.654-1.346-3-3-3h-4.026c.635-.838 1.026-1.87 1.026-3 0-2.757-2.243-5-5-5-2.414 0-4.434 1.721-4.899 4h-11.101c-2.757 0-5 2.243-5 5v9.101c-1.956.399-3.5 1.943-3.899 3.899h-11.101c-2.757 0-5 2.243-5 5v9.101c-2.279.465-4 2.485-4 4.899 0 1.13.391 2.162 1.026 3h-4.026c-1.654 0-3 1.346-3 3v8c0 1.654 1.346 3 3 3h16c1.654 0 3-1.346 3-3v-8c0-1.654-1.346-3-3-3h-4.026c.635-.838 1.026-1.87 1.026-3 0-2.414-1.721-4.434-4-4.899v-9.101c0-1.654 1.346-3 3-3h11.101c.152.743.482 1.416.924 2h-4.025c-1.654 0-3 1.346-3 3v8c0 1.654 1.346 3 3 3h7.88c-.063.177-.13.352-.186.532l-2.694.693v7.551l2.694.692c.269.864.614 1.698 1.03 2.492l-1.415 2.391 5.34 5.34 2.391-1.414c.795.416 1.63.762 2.493 1.03l.691 2.693h7.552l.691-2.693c.863-.269 1.697-.614 2.493-1.03l2.391 1.414 5.34-5.34-1.415-2.391c.416-.794.761-1.628 1.03-2.492l2.694-.693v-7.551l-2.694-.692c-.269-.864-.614-1.698-1.03-2.492l1.415-2.391-5.34-5.34-2.391 1.415c-.794-.417-1.629-.761-2.493-1.03l-.691-2.694h-6.96c-.414-1.161-1.514-2-2.816-2h-4.026c.635-.838 1.026-1.87 1.026-3 0-2.414-1.721-4.434-4-4.899v-9.101c0-1.654 1.346-3 3-3h11.101c.152.743.482 1.416.924 2zm-23 39v8c0 .552-.449 1-1 1h-16c-.551 0-1-.448-1-1v-8c0-.552.449-1 1-1h16c.551 0 1 .448 1 1zm-6-6c0 1.654-1.346 3-3 3s-3-1.346-3-3 1.346-3 3-3 3 1.346 3 3zm33.817-8.69.563.151c1.09.293 2.133.724 3.098 1.28l.506.292 2.049-1.213 3.146 3.146-1.212 2.051.292.506c.556.963.987 2.005 1.28 3.097l.152.563 2.309.592v4.449l-2.309.593-.152.563c-.293 1.092-.725 2.134-1.28 3.097l-.292.506 1.212 2.051-3.146 3.145-2.049-1.212-.506.292c-.966.557-2.008.988-3.097 1.28l-.564.151-.593 2.31h-4.448l-.593-2.31-.564-.151c-1.089-.292-2.131-.724-3.097-1.28l-.506-.292-2.049 1.212-3.146-3.145 1.212-2.051-.292-.506c-.556-.963-.987-2.005-1.28-3.097l-.152-.563-2.309-.592v-4.449l2.309-.593.152-.563c.149-.555.346-1.093.565-1.619h2.176c-.788 1.536-1.202 3.235-1.202 4.999 0 6.065 4.935 11 11 11s11-4.935 11-11-4.935-11-11-11c-1.027 0-2.029.151-3 .426v-4.426h5.224zm-5.817 4.69v-.478c.96-.34 1.965-.522 3-.522 4.962 0 9 4.037 9 9s-4.038 9-9 9-9-4.037-9-9c0-1.803.529-3.519 1.523-5h1.477c1.654 0 3-1.346 3-3zm-2-8v8c0 .552-.449 1-1 1h-16c-.551 0-1-.448-1-1v-8c0-.551.449-1 1-1h16c.551 0 1 .449 1 1zm-6-6c0 1.654-1.346 3-3 3s-3-1.346-3-3 1.346-3 3-3 3 1.346 3 3zm26-12v8c0 .551-.449 1-1 1h-16c-.551 0-1-.449-1-1v-8c0-.551.449-1 1-1h16c.551 0 1 .449 1 1zm-12-6c0-1.654 1.346-3 3-3s3 1.346 3 3-1.346 3-3 3-3-1.346-3-3z"/><path d="m45 13h14v2h-14z"/><path d="m45 17h14v2h-14z"/><path d="m25 31h14v2h-14z"/><path d="m25 35h14v2h-14z"/><path d="m5 49h14v2h-14z"/><path d="m5 53h14v2h-14z"/><path d="m46 51c2.757 0 5-2.243 5-5s-2.243-5-5-5-5 2.243-5 5 2.243 5 5 5zm0-8c1.654 0 3 1.346 3 3s-1.346 3-3 3-3-1.346-3-3 1.346-3 3-3z"/></g><g transform="matrix(1.09375 0 0 1.09375 315 315)" id="L1_5"><path d="m44 58v4h-24v-4c0-2.21 1.79-4 4-4h2 12 2c2.21 0 4 1.79 4 4z" fill="#969faa"/><path d="m61.41 46.59c.37.36.59.86.59 1.41 0 1.1-.9 2-2 2h-22v-4h10 4 8c.55 0 1.05.22 1.41.59z" fill="#b27946"/><path d="m26 46v4h-22c-.55 0-1.05-.22-1.41-.59-.37-.36-.59-.86-.59-1.41 0-1.1.9-2 2-2h8 4z" fill="#b27946"/><path d="m38 50v4h-12v-4-4-2c0-1.1.9-2 2-2h8c1.1 0 2 .9 2 2v2z" fill="#cf9e76"/><circle cx="32" cy="48" r="2" fill="#fcd770"/><path d="m26 18v14c0 1.1-.9 2-2 2h-20c-1.1 0-2-.9-2-2v-14c0 3.31 2.69 6 6 6h3v1c0 .55.45 1 1 1h4c.55 0 1-.45 1-1v-1h3c3.31 0 6-2.69 6-6z" fill="#d3a06c"/><path d="m24 16c1.1 0 2 .9 2 2 0 3.31-2.69 6-6 6h-3v-1c0-.55-.45-1-1-1h-4c-.55 0-1 .45-1 1v1h-3c-3.31 0-6-2.69-6-6 0-1.1.9-2 2-2h4 12z" fill="#dfb28b"/><path d="m17 24v1c0 .55-.45 1-1 1h-4c-.55 0-1-.45-1-1v-1-1c0-.55.45-1 1-1h4c.55 0 1 .45 1 1z" fill="#fcd770"/><path d="m4 38h20c0 4.42-3.58 8-8 8h-4c-2.21 0-4.21-.9-5.66-2.34-1.44-1.45-2.34-3.45-2.34-5.66z" fill="#ccd1d9"/><path d="m52 38h8c0 4.42-3.58 8-8 8h-4c-2.21 0-4.21-.9-5.66-2.34-1.44-1.45-2.34-3.45-2.34-5.66h8z" fill="#ccd1d9"/><path d="m50 24v12c0 1.1-.9 2-2 2-.55 0-1.05-.22-1.41-.59-.37-.36-.59-.86-.59-1.41v-10-2z" fill="#cf9e76"/><path d="m54 26v10c0 .55-.22 1.05-.59 1.41-.36.37-.86.59-1.41.59-1.1 0-2-.9-2-2v-12h4z" fill="#cf9e76"/><path d="m58 23c0 1.66-1.34 3-3 3h-1v-2h-4-4v2h-1c-1.66 0-3-1.34-3-3v-3c0-3.96 2.88-7.25 6.66-7.89l-.66 5.89 2 3 2-3-.66-5.89c1.67.29 3.17 1.09 4.32 2.23 1.44 1.45 2.34 3.45 2.34 5.66z" fill="#b4dd7f"/><path d="m51.34 12.11.66 5.89-2 3-2-3 .66-5.89c.44-.07.88-.11 1.34-.11s.9.04 1.34.11z" fill="#e6e9ed"/><circle cx="50" cy="7" r="5" fill="#f0d0b4"/><path d="m60 45h-2.356c2.044-1.651 3.356-4.174 3.356-7v-1h-6.184c.112-.314.184-.648.184-1v-9c2.206 0 4-1.794 4-4v-3c0-3.672-2.214-6.833-5.374-8.231 1.439-1.097 2.374-2.824 2.374-4.769 0-3.309-2.691-6-6-6s-6 2.691-6 6c0 1.945.935 3.672 2.374 4.769-3.16 1.398-5.374 4.559-5.374 8.231v3c0 2.206 1.794 4 4 4v9c0 .352.072.686.184 1h-6.184v1c0 2.826 1.312 5.349 3.356 7h-3.356v-1c0-1.654-1.346-3-3-3h-8c-1.654 0-3 1.346-3 3v1h-3.356c2.044-1.651 3.356-4.174 3.356-7v-1h-22v1c0 2.826 1.312 5.349 3.356 7h-2.356c-1.654 0-3 1.346-3 3s1.346 3 3 3h21v2h-1c-2.757 0-5 2.243-5 5v5h26v-5c0-2.757-2.243-5-5-5h-1v-2h21c1.654 0 3-1.346 3-3s-1.346-3-3-3zm-9-9v-11h2v11c0 .552-.449 1-1 1s-1-.448-1-1zm-.034-18.252-.966 1.449-.966-1.449.525-4.726c.147-.009.292-.022.441-.022s.294.013.441.022zm-4.966-10.748c0-2.206 1.794-4 4-4s4 1.794 4 4-1.794 4-4 4-4-1.794-4-4zm-3 16v-3c0-2.977 1.872-5.519 4.497-6.529l-.531 4.781 3.034 4.551 3.034-4.551-.532-4.781c2.626 1.01 4.498 3.552 4.498 6.529v3c0 1.103-.897 2-2 2v-6h-2v4h-6v-4h-2v6c-1.103 0-2-.897-2-2zm4 13v-11h2v11c0 .552-.449 1-1 1s-1-.448-1-1zm-5.929 3h17.857c-.487 3.388-3.408 6-6.929 6h-4c-3.52 0-6.441-2.612-6.928-6zm-36 0h17.857c-.487 3.388-3.408 6-6.929 6h-4c-3.52 0-6.441-2.612-6.928-6zm-1.071 10c-.551 0-1-.448-1-1s.449-1 1-1h8 4 9v2zm39 9v3h-22v-3c0-1.654 1.346-3 3-3h16c1.654 0 3 1.346 3 3zm-16-5v-9c0-.552.449-1 1-1h8c.551 0 1 .448 1 1v9zm33-4h-21v-2h9 4 8c.551 0 1 .448 1 1s-.449 1-1 1z"/><path d="m32 45c-1.654 0-3 1.346-3 3s1.346 3 3 3 3-1.346 3-3-1.346-3-3-3zm0 4c-.551 0-1-.448-1-1s.449-1 1-1 1 .448 1 1-.449 1-1 1z"/><path d="m23 57h2v2h-2z"/><path d="m27 57h2v2h-2z"/><path d="m31 57h2v2h-2z"/><path d="m4 35h20c1.654 0 3-1.346 3-3v-14c0-1.654-1.346-3-3-3h-3v-1c0-3.859-3.14-7-7-7s-7 3.141-7 7v1h-3c-1.654 0-3 1.346-3 3v14c0 1.654 1.346 3 3 3zm5-21c0-2.757 2.243-5 5-5s5 2.243 5 5v1h-10zm-5 3h20c.551 0 1 .448 1 1 0 2.757-2.243 5-5 5h-2c0-1.103-.897-2-2-2h-4c-1.103 0-2 .897-2 2h-2c-2.757 0-5-2.243-5-5 0-.552.449-1 1-1zm12.001 8h-4.001v-2h4zm-8.001 0h2c0 1.103.897 2 2 2h4c1.103 0 2-.897 2-2h2c1.958 0 3.728-.81 5-2.111v9.111c0 .552-.449 1-1 1h-20c-.551 0-1-.448-1-1v-9.111c1.272 1.301 3.042 2.111 5 2.111z"/></g><g transform="matrix(0.78125 0 0 0.78125 237.5 150)" id="L1_6"><path d="m26 5v12c0 1.657-1.343 3-3 3h-5v4s-7-4-7-4h-6c-1.657 0-3-1.343-3-3v-12c0-1.657 1.343-3 3-3h18c1.657 0 3 1.343 3 3z" fill="#e6e9ed"/><path d="m14.92 14h-.92-.92c-3.51 0-6.5 2.54-7.08 6h5l7 4v-4h4c-.58-3.46-3.57-6-7.08-6z" fill="#b4dd7f"/><path d="m38 15v12c0 1.657 1.343 3 3 3h7v4l6-4h5c1.657 0 3-1.343 3-3v-12c0-1.657-1.343-3-3-3h-18c-1.657 0-3 1.343-3 3z" fill="#e6e9ed"/><g fill="#b4dd7f"><path d="m50.92 24h-.92-.92c-2.88 0-5.42 1.71-6.55 4.24.31.57.57 1.15.79 1.76h4.68v4l6-4h4c-.58-3.46-3.57-6-7.08-6z"/><circle cx="50" cy="20" r="4"/><circle cx="14" cy="10" r="4"/></g><path d="m6 47h4v15h-4z" fill="#b27946"/><path d="m54 47h4v15h-4z" fill="#b27946"/><path d="m25 43v4h-15-4-4v-6h18.54c.69 1.2 1.98 2 3.46 2z" fill="#cf9e76"/><path d="m62 41v6h-4-4-15v-4h1c1.48 0 2.77-.8 3.46-2z" fill="#cf9e76"/><path d="m29 38.04c1.69.24 3 1.7 3 3.46v17c0 .96-.39 1.84-1.03 2.47-.63.64-1.51 1.03-2.47 1.03-1.93 0-3.5-1.57-3.5-3.5v-11.5-4-1.5c0-1.93 1.57-3.5 3.5-3.5.17 0 .34.01.5.04z" fill="#838f9b"/><path d="m39 47v11.5c0 .96-.39 1.84-1.03 2.47-.63.64-1.51 1.03-2.47 1.03-1.93 0-3.5-1.57-3.5-3.5v-17c0-1.76 1.31-3.22 3-3.46.16-.03.33-.04.5-.04 1.93 0 3.5 1.57 3.5 3.5v1.5z" fill="#838f9b"/><path d="m43.32 30c-.22-.61-.48-1.19-.79-1.76-2.03-3.72-5.98-6.24-10.53-6.24-3.32 0-6.32 1.34-8.49 3.51s-3.51 5.17-3.51 8.49v5c0 .73.2 1.41.54 2 .69 1.2 1.98 2 3.46 2h1v-1.5c0-1.93 1.57-3.5 3.5-3.5.17 0 .34.01.5.04h6c.16-.03.33-.04.5-.04 1.93 0 3.5 1.57 3.5 3.5v1.5h1c1.48 0 2.77-.8 3.46-2 .34-.59.54-1.27.54-2v-5c0-1.4-.24-2.75-.68-4z" fill="#fcd770"/><path d="m35 38.04c-1.69.24-3 1.7-3 3.46 0-1.76-1.31-3.22-3-3.46v-10.04h6z" fill="#e6e9ed"/><path d="m38.72 13.05c.18.62.28 1.27.28 1.95 0 3.87-3.13 7-7 7-2.73 0-5.09-1.56-6.24-3.83-.49-.95-.76-2.03-.76-3.17 0-1.32.36-2.55 1-3.6 1.22-2.04 3.45-3.4 6-3.4 3.19 0 5.88 2.13 6.72 5.05z" fill="#f0d0b4"/><path d="m54.303 31h4.697c2.206 0 4-1.794 4-4v-12c0-2.206-1.794-4-4-4h-18c-.65 0-1.272.171-1.835.463-1.309-2.64-4.025-4.463-7.165-4.463-1.891 0-3.629.663-5 1.765v-3.765c0-2.206-1.794-4-4-4h-18c-2.206 0-4 1.794-4 4v12c0 2.206 1.794 4 4 4h5.734l8.266 4.724v-4.724h4c1.03 0 1.99-.396 2.715-1.067.558.71 1.233 1.321 1.996 1.809-5.064 1.778-8.711 6.594-8.711 12.258v5c0 .342.035.677.101 1h-18.101v8h4v15h6v-15h13v10.5c0 2.481 2.019 4.5 4.5 4.5 1.421 0 2.675-.675 3.5-1.706.825 1.031 2.079 1.706 3.5 1.706 2.481 0 4.5-2.019 4.5-4.5v-10.5h13v15h6v-15h4v-8h-18.101c.066-.323.101-.658.101-1v-5c0-1.034-.134-2.035-.363-3h2.363v4.868zm-13.303-18h18c1.103 0 2 .897 2 2v12c0 1.103-.897 2-2 2h-.202c-.724-2.636-2.692-4.682-5.198-5.547.863-.898 1.4-2.112 1.4-3.453 0-2.757-2.243-5-5-5s-5 2.243-5 5c0 1.348.542 2.568 1.412 3.468-1.564.543-2.929 1.549-3.915 2.895-1.541-2.112-3.697-3.739-6.208-4.62 2.227-1.423 3.711-3.91 3.711-6.743 0-.555-.057-1.096-.165-1.62.337-.242.742-.38 1.165-.38zm6 7c0-1.654 1.346-3 3-3s3 1.346 3 3-1.346 3-3 3-3-1.346-3-3zm-15-11c3.309 0 6 2.691 6 6s-2.691 6-6 6-6-2.691-6-6 2.691-6 6-6zm-15 10v3.276l-5.734-3.276h-3.96c.89-2.373 3.154-4 5.777-4h1.835c2.623 0 4.887 1.627 5.777 4zm-3-6c-1.654 0-3-1.346-3-3s1.346-3 3-3 3 1.346 3 3-1.346 3-3 3zm9 6h-.202c-.724-2.636-2.692-4.682-5.198-5.547.863-.898 1.4-2.112 1.4-3.453 0-2.757-2.243-5-5-5s-5 2.243-5 5c0 1.341.537 2.555 1.4 3.453-2.507.865-4.474 2.911-5.198 5.547h-.202c-1.103 0-2-.897-2-2v-12c0-1.103.897-2 2-2h18c1.103 0 2 .897 2 2v6.136c-.636 1.147-1 2.463-1 3.864 0 1.107.226 2.161.634 3.121-.368.537-.965.879-1.634.879zm-2 15c0-6.065 4.935-11 11-11s11 4.935 11 11v5c0 1.654-1.346 3-3 3v-.5-11.5h-2v7.762c-.583-.391-1.268-.629-2-.711v-10.051h-8v10.051c-.732.082-1.417.32-2 .711v-7.762h-2v11.5.5c-1.654 0-3-1.346-3-3zm11 4.706c-.518-.648-1.204-1.146-2-1.43v-8.276h4v8.276c-.796.284-1.482.783-2 1.43zm-23 22.294h-2v-13h2zm2-15h-6-2v-4h17.026c.914 1.207 2.348 2 3.974 2v2zm17.5 15c-1.378 0-2.5-1.121-2.5-2.5v-15.5-1.5c0-1.379 1.122-2.5 2.5-2.5s2.5 1.121 2.5 2.5v17c0 1.379-1.122 2.5-2.5 2.5zm9.5-2.5c0 1.379-1.122 2.5-2.5 2.5s-2.5-1.121-2.5-2.5v-17c0-1.379 1.122-2.5 2.5-2.5s2.5 1.121 2.5 2.5v1.5zm19 2.5h-2v-13h2zm4-19v4h-2-6-13v-2c1.627 0 3.061-.793 3.974-2zm-17.003-13c-.105-.25-.228-.491-.347-.733 1.069-1.992 3.147-3.267 5.433-3.267h1.835c2.623 0 4.887 1.627 5.777 4h-2.997l-4.698 3.132v-3.132z"/><path d="m57 15h2v2h-2z"/><path d="m57 19h2v2h-2z"/><path d="m5 5h2v2h-2z"/><path d="m5 9h2v2h-2z"/></g><g transform="matrix(0.78125 0 0 0.78125 62.5 150)" id="L1_7"><path d="m19 34v25c0 .83-.34 1.58-.88 2.12s-1.29.88-2.12.88c-1.66 0-3-1.34-3-3v-25z" fill="#cf9e76"/><path d="m13 34v25c0 1.66-1.34 3-3 3-.83 0-1.58-.34-2.12-.88s-.88-1.29-.88-2.12v-22-3z" fill="#cf9e76"/><path d="m7 34v3h-2c-1.66 0-3-1.34-3-3v-10c0-4.42 3.58-8 8-8h1.8l-.8 10 2 2 2-2-.8-10.02 10.8-.98v-10.5c0-.69.28-1.32.73-1.77s1.08-.73 1.77-.73c1.38 0 2.5 1.12 2.5 2.5v11.85c0 2.07-1.58 3.79-3.64 3.98l-7.36.67v13h-6z" fill="#ff826e"/><path d="m14 16 .2-.02.8 10.02-2 2-2-2 .8-10h1.2z" fill="#e6e9ed"/><circle cx="13" cy="10" r="6" fill="#f0d0b4"/><path d="m38 60v-4c0-1.1.9-2 2-2h9 9c1.1 0 2 .9 2 2v4c0 1.1-.9 2-2 2h-18c-1.1 0-2-.9-2-2z" fill="#e6e9ed"/><path d="m36 46v-8c0-1.1.9-2 2-2h11 11c1.1 0 2 .9 2 2v8c0 1.1-.9 2-2 2h-11-11c-1.1 0-2-.9-2-2z" fill="#ffeaa7"/><path d="m54 26v2c0 1.1-.9 2-2 2h-3-3c-1.1 0-2-.9-2-2v-2c0-1.1.9-2 2-2h3 3c1.1 0 2 .9 2 2z" fill="#b4dd7f"/><path d="m36 16v-8c0-1.1.9-2 2-2h22c1.1 0 2 .9 2 2v8c0 1.1-.9 2-2 2h-11-11c-1.1 0-2-.9-2-2z" fill="#ffeaa7"/><path d="m27.5 1c-1.93 0-3.5 1.57-3.5 3.5v9.587l-5.748.525c1.085-1.233 1.748-2.845 1.748-4.612 0-3.859-3.141-7-7-7s-7 3.141-7 7c0 2.047.889 3.886 2.294 5.167-4.149.8-7.294 4.454-7.294 8.833v10c0 2.206 1.794 4 4 4h1v21c0 2.206 1.794 4 4 4 1.201 0 2.266-.542 3-1.382.734.84 1.799 1.382 3 1.382 2.206 0 4-1.794 4-4v-37.087l6.453-.586c2.592-.236 4.547-2.377 4.547-4.98v-11.847c0-1.93-1.57-3.5-3.5-3.5zm-13.533 24.619-.967.967-.967-.967.69-8.622h.221c.019 0 .037.003.056.003s.038-.003.058-.003h.218zm-5.967-15.619c0-2.757 2.243-5 5-5s5 2.243 5 5-2.243 5-5 5-5-2.243-5-5zm2 51c-1.103 0-2-.897-2-2v-24h4v24c0 1.103-.897 2-2 2zm6 0c-1.103 0-2-.897-2-2v-24h4v24c0 1.103-.897 2-2 2zm13-44.653c0 1.562-1.173 2.847-2.729 2.988l-8.271.752v12.913h-10v-12h-2v15h-1c-1.103 0-2-.897-2-2v-10c0-3.859 3.141-7 7-7l.716-.001-.75 9.382 3.034 3.033 3.033-3.033-.76-9.492 10.727-.976v-11.413c0-.827.673-1.5 1.5-1.5s1.5.673 1.5 1.5z"/><path d="m41 57h2v2h-2z"/><path d="m45 57h12v2h-12z"/><path d="m39 43h2v2h-2z"/><path d="m43 43h16v2h-16z"/><path d="m39 39h20v2h-20z"/><path d="m60 19c1.654 0 3-1.346 3-3v-8c0-1.654-1.346-3-3-3h-22c-1.654 0-3 1.346-3 3v8c0 1.654 1.346 3 3 3h10v4h-2c-1.654 0-3 1.346-3 3v2c0 1.654 1.346 3 3 3h2v4h-10c-1.654 0-3 1.346-3 3v8c0 1.654 1.346 3 3 3h10v4h-8c-1.654 0-3 1.346-3 3v4c0 1.654 1.346 3 3 3h18c1.654 0 3-1.346 3-3v-4c0-1.654-1.346-3-3-3h-8v-4h10c1.654 0 3-1.346 3-3v-8c0-1.654-1.346-3-3-3h-10v-4h2c1.654 0 3-1.346 3-3v-2c0-1.654-1.346-3-3-3h-2v-4zm-1 37v4c0 .552-.448 1-1 1h-18c-.552 0-1-.448-1-1v-4c0-.552.448-1 1-1h18c.552 0 1 .448 1 1zm2-18v8c0 .552-.448 1-1 1h-22c-.552 0-1-.448-1-1v-8c0-.552.448-1 1-1h22c.552 0 1 .448 1 1zm-8-12v2c0 .552-.448 1-1 1h-6c-.552 0-1-.448-1-1v-2c0-.552.448-1 1-1h6c.552 0 1 .448 1 1zm-16-10v-8c0-.552.448-1 1-1h22c.552 0 1 .448 1 1v8c0 .552-.448 1-1 1h-22c-.552 0-1-.448-1-1z"/><path d="m39 13h2v2h-2z"/><path d="m43 13h16v2h-16z"/><path d="m39 9h20v2h-20z"/></g></defs><g fi:class="KUsePattern"><pattern id="pattern_L1_4" width="350" height="350" patternUnits="userSpaceOnUse"><use xlink:href="#L1_4" x="-350" y="-350"/><use xlink:href="#L1_4" x="0" y="-350"/><use xlink:href="#L1_4" x="350" y="-350"/><use xlink:href="#L1_4" x="-350" y="0"/><use xlink:href="#L1_4" x="0" y="0"/><use xlink:href="#L1_4" x="350" y="0"/><use xlink:href="#L1_4" x="-350" y="350"/><use xlink:href="#L1_4" x="0" y="350"/><use xlink:href="#L1_4" x="350" y="350"/></pattern><rect x="0" y="0" width="100%" height="100%" fill="url(#pattern_L1_4)"/></g><g fi:class="KUsePattern"><pattern id="pattern_L1_5" width="350" height="350" patternUnits="userSpaceOnUse"><use xlink:href="#L1_5" x="-350" y="-350"/><use xlink:href="#L1_5" x="0" y="-350"/><use xlink:href="#L1_5" x="350" y="-350"/><use xlink:href="#L1_5" x="-350" y="0"/><use xlink:href="#L1_5" x="0" y="0"/><use xlink:href="#L1_5" x="350" y="0"/><use xlink:href="#L1_5" x="-350" y="350"/><use xlink:href="#L1_5" x="0" y="350"/><use xlink:href="#L1_5" x="350" y="350"/></pattern><rect x="0" y="0" width="100%" height="100%" fill="url(#pattern_L1_5)"/></g><g fi:class="KUsePattern"><pattern id="pattern_L1_6" width="350" height="350" patternUnits="userSpaceOnUse"><use xlink:href="#L1_6" x="-350" y="-350"/><use xlink:href="#L1_6" x="0" y="-350"/><use xlink:href="#L1_6" x="350" y="-350"/><use xlink:href="#L1_6" x="-350" y="0"/><use xlink:href="#L1_6" x="0" y="0"/><use xlink:href="#L1_6" x="350" y="0"/><use xlink:href="#L1_6" x="-350" y="350"/><use xlink:href="#L1_6" x="0" y="350"/><use xlink:href="#L1_6" x="350" y="350"/></pattern><rect x="0" y="0" width="100%" height="100%" fill="url(#pattern_L1_6)"/></g><g fi:class="KUsePattern"><pattern id="pattern_L1_7" width="350" height="350" patternUnits="userSpaceOnUse"><use xlink:href="#L1_7" x="-350" y="-350"/><use xlink:href="#L1_7" x="0" y="-350"/><use xlink:href="#L1_7" x="350" y="-350"/><use xlink:href="#L1_7" x="-350" y="0"/><use xlink:href="#L1_7" x="0" y="0"/><use xlink:href="#L1_7" x="350" y="0"/><use xlink:href="#L1_7" x="-350" y="350"/><use xlink:href="#L1_7" x="0" y="350"/><use xlink:href="#L1_7" x="350" y="350"/></pattern><rect x="0" y="0" width="100%" height="100%" fill="url(#pattern_L1_7)"/></g></svg>