<?xml version="1.0" encoding="UTF-8" standalone="no"?>
<svg
   xmlns:dc="http://purl.org/dc/elements/1.1/"
   xmlns:cc="http://creativecommons.org/ns#"
   xmlns:rdf="http://www.w3.org/1999/02/22-rdf-syntax-ns#"
   xmlns:svg="http://www.w3.org/2000/svg"
   xmlns="http://www.w3.org/2000/svg"
   xmlns:sodipodi="http://sodipodi.sourceforge.net/DTD/sodipodi-0.dtd"
   xmlns:inkscape="http://www.inkscape.org/namespaces/inkscape"
   inkscape:version="1.0 (4035a4fb49, 2020-05-01)"
   sodipodi:docname="popeye-finished.svg"
   id="svg8"
   version="1.1"
   viewBox="0 0 443.85727 382.50705"
   height="800"
   width="1260">
  <sodipodi:namedview
     inkscape:pagecheckerboard="true"
     units="px"
     fit-margin-bottom="0"
     fit-margin-right="0"
     fit-margin-left="0"
     fit-margin-top="0"
     scale-x="0.10001"
     viewbox-height="185.84343"
     viewbox-width="419.68796"
     inkscape:current-layer="hat"
     inkscape:window-maximized="1"
     inkscape:window-y="222"
     inkscape:window-x="-8"
     inkscape:cy="636.30705"
     inkscape:cx="1258.3956"
     inkscape:zoom="0.32"
     showgrid="false"
     id="namedview889"
     inkscape:window-height="987"
     inkscape:window-width="1680"
     inkscape:pageshadow="2"
     inkscape:pageopacity="0"
     guidetolerance="10"
     gridtolerance="10"
     objecttolerance="10"
     borderopacity="1"
     bordercolor="#666666"
     pagecolor="#ffffff" />
  <defs
     id="defs2">
    <filter
       style="color-interpolation-filters:sRGB"
       id="filter988"
       x="-3.2901564e-05"
       width="1.0000658"
       y="-6.2882777e-05"
       height="1.0001258">
      <feGaussianBlur
         stdDeviation="0.0060546034"
         id="feGaussianBlur990" />

    </filter>
    <filter id="dropShadow">
      <feDropShadow 
         dx='0.2' dy='0.4' stdDeviation='0.2'
         flood-color='black' flood-opacity='0.7'/>
    </filter>
  </defs>
  <metadata
     id="metadata5">
    <rdf:RDF>
      <cc:Work
         rdf:about="">
        <dc:format>image/svg+xml</dc:format>
        <dc:type
           rdf:resource="http://purl.org/dc/dcmitype/StillImage" />
        <dc:title></dc:title>
      </cc:Work>
    </rdf:RDF>
  </metadata>
  <g
     id="circles"
     style="display:inline"
     transform="translate(185.92163,166.30741)">
    <ellipse
       style="filter:url(#dropshadow);fill:#2286d9;fill-opacity:1;stroke:#2286d9;stroke-width:0;stroke-linecap:round;stroke-linejoin:round;stroke-miterlimit:4;stroke-dasharray:none;stroke-opacity:1"
       id="outerCircle-bg"
       cx="42.710796"
       cy="24.946114"
       rx="190.87556"
       ry="191.25352" />
    <ellipse
       style="fill:#faff9d;fill-opacity:1;stroke:#2286d9;stroke-width:0;stroke-linecap:round;stroke-linejoin:round;stroke-miterlimit:4;stroke-dasharray:none;stroke-opacity:1"
       id="innerCircle-bg"
       cx="43.311741"
       cy="24.299006"
       rx="155.72423"
       ry="151.52649" />
  </g>
  <g
     transform="translate(-53.489232,-16.859847)"
     inkscape:label="popeye"
     inkscape:groupmode="layer"
     id="popeye"
     style="display:inline">
    <g
       id="rightArm">
      <path
         id="rightArmBody"
         d="m 380.82119,94.466506 c -5.58931,0.19842 -11.95285,2.05444 -14.82648,7.261604 -1.50612,4.01596 -0.74339,8.44228 -1.15204,12.63542 -0.57329,1.96834 2.27378,1.13023 3.44526,1.65396 4.22052,0.69648 8.55239,0.41455 12.64028,-0.82428 1.2153,-0.26276 0.90262,1.90739 -0.19055,1.79726 -5.41561,1.87513 -11.24031,0.89328 -16.76781,0.21454 -4.95307,0.85577 -9.90736,4.64176 -10.16289,9.99691 -0.22648,5.02742 1.29729,9.98147 2.74155,14.71582 4.49924,-0.43431 9.2399,-1.19255 13.12828,-3.6539 0.83575,-0.47796 2.01612,-2.19626 2.98078,-1.22214 -0.17219,2.12607 -2.63262,3.16108 -4.3222,4.01525 -4.31168,2.03415 -9.27501,1.79239 -13.62008,3.6483 -3.03293,1.74025 -6.93893,4.03171 -6.938,8.00858 0.30614,5.36379 4.11083,9.64004 7.26748,13.68147 0.70315,0.46621 1.42143,2.54483 2.38593,1.34651 4.55758,-3.34311 8.59036,-7.44529 13.35079,-10.4735 1.2558,0.71554 -0.38801,2.098 -1.02882,2.62803 -4.25466,3.95537 -9.16331,7.21572 -13.10446,11.49375 -2.62839,4.02713 -5.19408,9.34995 -2.92009,14.09777 2.87037,5.21172 9.15655,7.07397 14.67773,7.80918 4.88121,0.4954 10.1001,0.25406 14.57749,-1.8719 -0.83893,-1.97732 -2.72266,-3.451 -3.85454,-5.31121 -1.1414,-1.31927 -1.94212,-3.19689 -3.25761,-4.19947 -3.23865,-0.26214 -6.87091,-0.90711 -9.2198,-3.30818 -0.46981,-1.18935 1.2865,-1.22404 1.8599,-0.56846 1.66619,0.74325 3.47166,1.87087 5.29887,1.81605 -0.81943,-2.62484 -1.7956,-5.36061 -1.56578,-8.20068 0.17451,-1.90296 -0.17002,-4.18459 0.96754,-5.80208 1.09203,-0.42198 1.48104,0.72913 1.13277,1.58532 -0.67259,4.03779 -0.84731,8.80376 1.83222,12.17366 0.61494,0.82855 2.33497,-0.16286 2.21697,1.33111 0.24767,2.45769 2.44326,4.23423 3.79669,6.17115 3.27553,3.93173 6.94608,7.55669 11.10964,10.52882 0.84337,0.7998 -0.44688,1.65959 -1.19328,0.99754 -2.23975,-0.82526 -3.73984,-3.08036 -6.00618,-3.72554 -0.72183,0.8929 0.009,2.46428 -0.11954,3.5726 0.7209,7.41302 1.14608,15.27081 5.22744,21.75234 4.2268,9.79174 10.04528,19.19804 18.60101,25.78804 5.94892,4.69557 12.52352,8.59272 19.34233,11.87205 1.47167,0.20545 2.99864,-0.3999 4.51744,-0.10075 1.80068,0.26302 4.05019,-0.0386 5.48731,1.20949 0.50207,1.48352 -1.69487,0.98076 -2.47224,0.87227 -2.04594,-0.16509 -4.42478,-1.06403 -6.33452,-0.0287 0.12867,2.26266 2.3196,3.84868 3.51206,5.6439 0.93947,0.71844 0.26987,1.97654 -0.82371,1.43082 -2.19451,-1.77319 -3.99175,-4.28055 -4.64534,-7.03871 -2.92335,-2.04644 -6.32053,-3.41116 -9.31475,-5.39113 -9.04475,-5.29877 -17.56536,-12.037 -22.99679,-21.15924 -1.62182,-2.54779 -3.08892,-5.18906 -4.54821,-7.83196 -2.92382,0.10823 -5.97747,-0.20384 -8.82385,0.1544 -3.22399,1.88555 -6.39424,4.69604 -6.77208,8.64659 -0.36004,3.59268 0.5698,7.25599 1.91106,10.54919 1.62484,1.13738 3.88506,0.30407 5.75459,0.56115 1.74548,-0.30816 3.22806,0.34279 4.60953,1.36273 17.51115,10.32128 35.27392,21.03827 55.16221,26.07042 8.61718,2.11455 18.16749,2.58 26.29081,-1.52916 2.0379,-0.77673 3.62125,-2.8059 5.81489,-3.04804 1.14724,1.06678 -0.92479,2.08266 -1.58952,2.73427 -0.57837,0.29792 -1.09224,1.52414 -0.007,1.39114 5.9903,-0.1782 12.21399,-0.0254 17.91934,-2.11307 2.75285,-0.94646 4.14901,-4.28855 2.83503,-6.91552 -1.00747,-3.03745 -2.80677,-5.72074 -4.60671,-8.33588 3.82919,-11.23081 6.57122,-23.05215 5.86812,-34.99225 -0.3729,-15.15207 -6.97896,-29.55856 -16.38504,-41.22709 -7.01952,-8.89134 -15.3689,-16.61257 -23.57934,-24.37662 -0.41912,-0.56709 -1.7098,-1.5773 -1.81134,-0.24377 -0.47109,1.5393 0.032,3.51709 -0.94641,4.80348 -1.5343,0.43608 -1.15129,-1.70822 -1.02207,-2.58027 0.32898,-5.53699 0.30178,-11.19971 -0.88415,-16.63997 -2.95025,-12.59166 -11.69933,-23.15305 -22.37751,-30.12991 -13.69247,-8.94219 -29.82388,-13.955244 -46.09079,-15.148694 -0.66029,-0.0284 -1.32118,-0.0412 -1.98205,-0.0308 z"
         style="fill:#ffcca9;fill-rule:evenodd;stroke:#0f0702;stroke-width:2.67265;stroke-linecap:round;stroke-linejoin:round;stroke-dashoffset:99.9999;paint-order:markers stroke fill" />
      <path
         d="m 474.81373,214.28304 c -5.08123,-33.02743 -17.61239,-37.70231 -22.1985,-39.20411 m 28.42745,43.61745 c 0,2.62022 -2.12276,4.74503 -4.74298,4.74757 -2.62021,0.003 -4.74708,-2.11816 -4.75216,-4.73837 -0.005,-2.62022 2.11356,-4.74915 4.73377,-4.75676 2.62021,-0.008 4.75119,2.10897 4.76134,4.72917 m -12.5919,-8.44662 4.77654,-4.27846 3.45409,-3.01667 m -21.72639,-9.95923 c -2.24427,-6.51817 -3.55586,-12.65891 1.94358,-16.04347 2.73954,-2.13693 5.73638,-3.67975 12.71028,3.96075"
         style="fill:none;stroke:#030303;stroke-width:1.45545;stroke-linecap:round;stroke-linejoin:round;stroke-miterlimit:4;stroke-dasharray:none;stroke-opacity:1"
         id="rightArm-tattoo" />
    </g>
    <g
       inkscape:label="torso"
       id="shirt">
      <path
         d="m 1221.8294,757.60886 c -3.053,-0.14936 0.3421,3.80885 0.3066,5.29032 5.0132,17.96593 1.5407,37.01478 -2.2409,54.88662 -5.9296,25.52585 -17.3328,49.65102 -32.0052,71.28195 -18.0498,25.53648 -42.6042,47.20787 -71.4911,59.35187 -29.9786,-0.28118 -60.0412,-0.01 -89.9677,-0.63179 -36.49212,-9.97825 -70.72322,-27.86604 -99.60958,-52.31169 -38.03176,-31.03465 -65.21035,-72.85302 -101.89728,-105.25335 -9.80282,-8.02935 -20.53686,-15.72308 -32.70377,-19.52512 -11.92187,3.40964 -22.29958,10.89527 -32.54918,17.67928 -2.59782,2.39169 -7.05773,4.2235 -7.82387,7.86624 5.45085,3.28648 12.45004,3.47989 18.2764,6.2724 36.08415,14.45963 63.72602,42.96401 91.65286,68.96771 29.63439,27.65179 57.99621,58.28592 94.95546,76.27337 25.93371,11.85696 53.75536,21.1049 82.45166,22.12796 22.0733,0.34366 44.9786,-1.09469 65.2513,-10.6059 6.5251,-4.13105 13.3414,-8.80913 21.5114,-7.89065 5.6874,-0.73698 11.2209,2.02097 16.7722,1.40059 15.1307,-7.23409 28.3117,-18.14058 40.3946,-29.66873 27.4988,-26.62276 51.7414,-57.54632 66.6448,-93.03058 8.0155,-19.91752 12.9887,-42.85095 5.7322,-63.72755 -3.8027,-5.24064 -11.2836,-5.74609 -17.094,-7.38678 -5.4726,-0.84407 -11.0243,-1.43959 -16.5669,-1.36617 z m 73.2579,37.80952 c -2.8876,0.23794 -8.3197,-1.15224 -7.7687,3.63874 -5.835,24.34956 -18.6864,46.32864 -32.0548,67.24257 -27.7142,41.79285 -63.8818,78.00653 -105.8144,105.492 -5.3546,7.88645 -7.1629,19.61994 -17.376,22.91753 -9.9218,2.52558 -18.1103,-6.05294 -24.6796,-12.23875 -2.7973,-3.73092 -7.7378,0.53884 -11.5712,0.60027 -34.7085,8.2184 -71.3506,11.78199 -106.53289,4.42545 -26.34726,-6.6832 -50.33926,-20.47688 -72.51668,-35.86536 -44.34065,-31.60621 -80.47145,-73.0744 -124.18485,-105.43923 -18.57114,-13.17738 -38.79697,-24.96739 -61.08206,-30.37665 -4.8441,0.69168 -6.56537,6.67404 -9.8807,9.69031 -3.08081,4.51339 -7.40384,8.73961 -9.26716,13.81441 6.29362,7.14257 13.24056,13.93308 17.63153,22.55522 9.22005,16.00903 13.7389,34.5047 13.026,52.96137 0.46454,5.98518 -1.12138,12.12058 -0.50835,17.97771 3.22733,0.53129 5.79059,-3.42227 8.85322,-4.32689 18.70505,-8.84088 40.36196,-11.23841 60.70715,-7.94195 4.35376,1.37358 10.79521,1.55179 13.01885,6.14807 0.12144,4.61583 -5.53738,2.7346 -8.12523,1.76898 -10.51005,-3.87176 -22.0026,-2.45754 -32.96095,-2.28188 -5.44694,0.90148 -11.72484,1.12857 -16.4334,3.86632 9.00511,10.71851 19.5801,20.19574 27.30546,32.00579 27.18221,39.58149 40.25617,86.75829 49.63194,133.30759 13.44361,68.7002 16.72999,138.8356 18.28503,208.6633 -0.48894,4.7302 -2.69776,17.0414 2.92016,17.4787 39.09523,16.475 123.24876,30.0886 186.23023,34.0634 24.912,0.6382 49.886,0.2786 74.7745,-0.9909 53.9663,-4.8586 107.1654,-18.422 156.5044,-40.9081 4.8832,-0.9981 7.3566,-3.9116 7.1708,-8.9385 13.0314,-68.8888 29.0176,-137.566 33.4613,-207.7215 0.7158,-28.3963 1.313,-56.8876 -0.7581,-85.2371 -3.2295,-31.80091 -8.7294,-63.50025 -17.89,-94.13847 -2.0856,-3.68712 -7.0099,-4.43491 -9.6613,-7.76792 -7.7563,-6.76899 -14.8189,-16.06948 -15.1663,-26.70456 0.2252,-3.39483 4.6995,-2.88424 5.2003,0.13802 4.0348,11.06217 10.9374,22.84684 22.6247,26.91576 12.3599,1.09488 24.9428,1.59076 37.303,1.02485 -3.5116,-21.81502 -2.6909,-44.80856 6.2358,-65.30657 2.6745,-6.99548 5.5973,-13.89217 8.4072,-20.83355 -9.0747,-15.0205 -23.9916,-28.50329 -42.3559,-29.19121 -7.5553,-0.49294 -15.1355,-0.42805 -22.703,-0.48727 z m -161.581,279.03362 c 10.1241,-0.5258 19.7256,8.9934 17.3082,19.3245 -2.1479,10.5104 -14.293,13.1457 -23.2827,14.7135 -7.1045,0.6355 -16.4818,3.7591 -21.6922,-2.9263 -3.9366,-8.1692 -0.8576,-18.8397 6.7025,-23.8968 5.9722,-4.5124 13.4494,-7.2401 20.9642,-7.2149 z m -2.8862,122.0466 c 8.6716,-0.1747 16.8739,7.038 16.1564,16.0224 -0.6392,10.4853 -12.2223,14.0524 -20.874,15.4578 -6.6413,0.7613 -15.1473,3.6347 -20.6679,-1.5545 -5.6326,-8.5528 -0.6153,-20.357 7.987,-24.8106 5.1925,-3.2033 11.2266,-5.3879 17.3985,-5.1151 z m -1.9836,94.8102 c 11.5359,-1.0336 20.0488,13.7154 13.1231,23.0517 -6.4701,7.5684 -17.4058,8.1639 -26.591,9.6378 -5.6784,0.9862 -13.6862,-0.7106 -14.1848,-7.6785 -2.1285,-9.8595 5.0845,-18.9556 13.9499,-22.3787 4.2839,-1.8935 9.0396,-2.6521 13.7028,-2.6323 z m 86.7036,-540.16253 c -0.7704,0.0113 -1.6671,0.15194 -2.4508,0.17726 -0.6075,-0.16668 -1.2537,-0.11943 -1.8307,0.13304 -31.5907,1.39557 -73.5878,13.22047 -128.9264,44.9932 l -26.1101,0.84156 c -2.1854,0.0741 -3.4147,2.54547 -2.1555,4.33321 0.3485,0.49418 0.6803,1.71558 0.8047,3.38831 0.1243,1.67276 0.098,3.69714 0.3469,5.77273 0.2491,2.07556 0.7809,4.36602 2.5394,6.1787 1.7585,1.81269 4.5219,2.65107 7.8175,2.44346 18.0818,-1.13924 32.822,3.36201 42.2471,21.32656 9.08,17.30663 12.605,48.33453 6.8357,98.59373 -23.2684,-23.10428 -66.3645,-48.50219 -103.3994,-53.22409 -23.44046,-2.98863 -42.32288,-15.92585 -50.884,-30.33257 -4.28055,-7.20334 -5.98601,-14.681 -4.70969,-21.54063 1.27629,-6.85959 5.47464,-13.28097 13.8043,-18.55828 1.11618,-0.70723 1.57181,-2.10817 1.08515,-3.33668 l -10.25357,-25.82217 c -0.40268,-1.00718 -1.35963,-1.68373 -2.44346,-1.72738 -6.78887,-0.28347 -14.10375,0.40245 -20.8467,0.28044 -6.74299,-0.12208 -12.76884,-1.0788 -17.10405,-4.07483 -40.80482,-28.20017 -82.22292,-33.01939 -119.49218,-21.05345 -2.9159,0.9362 -5.61913,2.61452 -8.48189,3.75006 -0.1561,-0.0525 0.15647,0.0522 0,0 0,0 -1.8543,0.8509 -3.92721,1.55752 -0.0227,0.0658 -0.042,0.13191 -0.059,0.19919 -16.82614,7.27753 -32.60481,17.71203 -47.05276,31.06338 -0.6894,0.271 -1.24031,0.80864 -1.52809,1.4912 -3.83366,3.61849 -7.72624,7.12552 -11.3535,11.10987 -0.775,0.2691 -1.38948,0.86994 -1.67571,1.63878 -7.00578,7.86409 -13.54819,16.43303 -19.68036,25.51954 -10.5034,-8.25527 -20.05938,-12.35841 -28.56089,-12.44602 -9.18074,-0.0945 -16.97029,3.9718 -23.33446,9.76634 -12.72828,11.58909 -20.59335,30.23177 -26.13221,40.39421 -0.69268,1.27262 -0.27931,2.86439 0.9449,3.63932 34.54501,21.77621 45.49493,65.11701 25.83695,100.38022 -0.80675,1.44365 -0.1663,3.26767 1.36567,3.89028 12.59804,5.0951 31.16815,7.37701 47.9238,2.50987 16.42441,-4.77089 30.91489,-17.0971 34.76915,-39.78151 3.81147,-3.0799 7.63406,-6.2214 11.07298,-8.69597 3.18898,-2.29469 5.82387,-3.62393 7.81015,-4.31106 31.64699,23.37082 56.03084,66.2202 72.5649,129.23639 16.74159,63.8072 25.48968,147.9782 26.1691,252.3678 0.008,1.0957 0.66709,2.0817 1.67571,2.5099 105.80373,45.008 271.73367,77.2066 434.48877,0 0.01,0 0.019,0 0.03,-0.01 0.026,-0.011 0.054,-0.026 0.081,-0.038 0.055,-0.026 0.1092,-0.053 0.1625,-0.081 0.026,-0.015 0.054,-0.03 0.081,-0.044 0.023,-0.015 0.045,-0.03 0.066,-0.044 0.053,-0.034 0.1047,-0.072 0.155,-0.1107 0.048,-0.034 0.095,-0.072 0.1402,-0.1108 0,0 0,0 0.01,0 0.067,-0.058 0.1311,-0.1198 0.192,-0.1844 0.043,-0.045 0.085,-0.092 0.1254,-0.1402 0.019,-0.019 0.034,-0.039 0.052,-0.059 0.019,-0.026 0.04,-0.054 0.059,-0.081 0.034,-0.046 0.065,-0.093 0.096,-0.1403 0.019,-0.026 0.034,-0.054 0.052,-0.081 0.01,-0.015 0.015,-0.03 0.023,-0.044 0.038,-0.065 0.072,-0.1315 0.1036,-0.1991 0.034,-0.08 0.068,-0.161 0.096,-0.2438 0,0 0,0 0.01,-0.01 0.019,-0.054 0.038,-0.1077 0.052,-0.1625 0,0 0,0 0,-0.01 0.023,-0.081 0.043,-0.1617 0.059,-0.2437 0.01,-0.038 0.015,-0.074 0.023,-0.1108 0,0 0,0 0,-0.01 23.3092,-125.9551 58.7918,-248.8701 16.4249,-397.01784 l 36.1717,1.32874 c 0.03,0.1338 0.034,0.24228 0.066,0.37645 0,0.004 0.01,0.008 0.01,0.0151 3.0929,15.38223 10.6335,25.89304 19.9904,32.25191 9.3603,6.36117 20.3969,8.6084 30.5614,8.09063 10.1645,-0.51776 19.5018,-3.72719 25.7483,-8.80671 3.1233,-2.53972 5.5071,-5.59937 6.5922,-9.12412 1.085,-3.52476 0.7367,-7.47513 -1.2254,-11.17632 -7.1152,-13.42157 -10.7298,-30.36991 -8.3491,-45.08916 2.3808,-14.71925 10.368,-27.13584 27.1214,-32.8941 4.4583,-1.53235 7.7029,-4.1508 9.3826,-7.51485 1.6796,-3.36409 1.7115,-7.24654 0.5979,-11.01395 -2.2274,-7.53477 -8.8303,-15.05435 -18.1597,-20.68429 -18.1341,-10.94323 -47.1883,-14.03643 -75.2888,8.57786 -10.6852,-17.18395 -22.6753,-25.58969 -35.0645,-29.0407 -12.4583,-3.47034 -25.0142,-2.41168 -37.1166,-2.17031 -1.621,-4.73872 -5.1503,-10.82947 -12.099,-17.28124 -5.0165,-4.65768 -12.2569,-8.90793 -20.6105,-12.63796 -0.6593,-0.97686 -1.8676,-1.42516 -3.0045,-1.11467 -4.1003,-1.65167 -7.7806,-3.54127 -12.6896,-4.68017 -8.2737,-1.91953 -17.716,-2.99667 -28.428,-2.82731 z m -3.8238,5.78747 c 1.8422,1.12148 3.6669,3.45083 4.9975,7.52227 1.4576,4.45955 2.2847,10.59535 2.2885,17.87175 0.01,14.55281 -3.2357,33.66188 -10.3348,53.78514 -13.7622,39.01084 -42.0899,81.60745 -88.5616,104.11546 5.895,-50.95415 2.608,-82.94429 -7.4189,-102.0559 -10.3875,-19.79874 -28.1835,-25.47165 -47.4588,-24.2572 -2.3157,0.14589 -3.0649,-0.31219 -3.5212,-0.78248 -0.4564,-0.47045 -0.8469,-1.45034 -1.0335,-3.00446 -0.1867,-1.55413 -0.1678,-3.51558 -0.3175,-5.52911 -0.047,-0.62926 -0.4611,-1.27008 -0.561,-1.9193 l 23.364,-0.75297 c 0.452,-0.0151 0.8931,-0.14249 1.2844,-0.36926 55.2863,-31.83983 96.6674,-43.31454 127.2728,-44.62409 z m 7.4484,0.0737 c 8.6549,0.12245 16.7704,0.7437 23.5559,2.31793 4.9203,1.14155 8.6025,2.99483 12.6232,4.65807 6.3898,16.06977 5.4991,34.67692 -0.5241,54.10991 -6.2161,20.05487 -17.7229,40.81514 -31.4104,59.89742 -13.6875,19.08228 -29.5503,36.49807 -44.3805,49.96126 -14.6118,13.26491 -28.2749,22.55949 -37.3971,25.9255 -10.5532,-3.06297 -18.1743,-3.13603 -23.984,-1.28445 -5.8822,1.87463 -9.8261,5.35218 -13.6272,8.2309 -51.4647,18.16501 -100.3268,9.49818 -148.41476,-13.14729 -35.39013,-16.66589 -70.15636,-53.39951 -105.15636,-86.5759 -33.12254,-31.39678 -66.59529,-59.52733 -102.35116,-63.95752 13.60254,-11.94648 28.36695,-21.04282 43.87111,-27.4831 35.25921,12.76812 60.14956,47.01266 92.62174,83.41639 33.17054,37.18672 74.47593,76.19182 143.55003,94.57798 0.2309,0.0627 0.4693,0.0949 0.7087,0.096 h 88.0744 c 0.026,-0.002 0.054,-0.004 0.081,-0.008 0.019,2.3e-4 0.039,2.3e-4 0.059,0 0.01,4e-5 0.015,4e-5 0.023,0 0.027,-0.002 0.054,-0.004 0.081,-0.008 0.019,-0.002 0.039,-0.004 0.059,-0.008 0.039,-0.004 0.079,-0.008 0.1179,-0.0151 0,0 0.011,0 0.015,0 0.011,-0.002 0.026,-0.004 0.038,-0.008 0.023,-0.004 0.045,-0.0113 0.066,-0.0151 0.026,-0.004 0.054,-0.0113 0.081,-0.0151 0.019,-0.004 0.034,-0.0113 0.052,-0.0151 0.011,-0.002 0.019,-0.004 0.03,-0.008 0.06,-0.0151 0.1186,-0.034 0.1772,-0.0518 0.026,-0.0113 0.054,-0.0189 0.081,-0.0302 0.034,-0.0113 0.064,-0.0264 0.096,-0.0378 0.019,-0.0113 0.039,-0.0189 0.059,-0.0302 0.03,-0.0113 0.059,-0.0265 0.089,-0.0378 0.034,-0.0151 0.064,-0.034 0.096,-0.0518 0,-0.002 0.011,-0.004 0.015,-0.008 0.045,-0.0227 0.09,-0.048 0.133,-0.0737 0.01,-0.004 0.015,-0.0113 0.023,-0.0151 50.6876,-22.71392 80.9267,-68.1714 95.4639,-109.37886 7.2863,-20.65406 10.66,-40.24979 10.6521,-55.61584 0,-7.68301 -0.8462,-14.31352 -2.5689,-19.5844 -0.7159,-2.19049 -1.7049,-4.02283 -2.7756,-5.73581 z m -389.64321,2.65753 c 27.99335,-2.31133 57.53749,5.31397 87.25501,25.85169 5.79639,4.00589 12.95895,4.91961 20.13066,5.04928 6.57132,0.11868 13.11588,-0.37191 18.98647,-0.2657 l 8.87316,22.34526 c -8.02658,5.72946 -13.06207,12.82248 -14.5056,20.58096 -1.5683,8.42883 0.57937,17.26374 5.38884,25.3571 9.61891,16.18675 29.87558,29.78384 54.90717,32.97532 34.5604,4.40638 76.5936,28.9368 99.1105,50.6847 h -80.4119 c -67.54439,-18.06425 -107.67675,-55.96341 -140.56037,-92.82844 -30.75482,-34.4785 -55.18588,-68.03466 -89.82395,-82.8111 1.09827,-0.38544 2.12079,-1.06988 3.22594,-1.42471 8.93613,-2.86911 18.09294,-4.7439 27.42407,-5.51432 z m 432.24461,6.68807 c 5.9824,3.09037 10.9602,6.55212 14.764,10.08379 2.0536,1.9068 3.1665,3.66842 4.6432,5.51433 0.061,0.4246 0.22,0.82905 0.4651,1.18112 0.9315,1.33607 1.5864,4.45846 1.1442,9.006 -0.4422,4.54759 -1.8592,10.41965 -4.2299,17.20743 -4.7415,13.57555 -13.2826,30.83494 -25.1947,49.38544 -23.1072,35.98443 -59.1016,76.64559 -104.3812,105.96099 0.019,-0.33524 0.192,-0.80508 0.192,-1.12204 0,-2.45207 -1.2631,-4.50737 -2.8126,-6.08277 10.162,-4.40978 22.6471,-13.00151 36.3711,-25.46047 15.1324,-13.73751 31.2122,-31.40366 45.1482,-50.83234 13.9359,-19.42864 25.7347,-40.61002 32.2002,-61.46976 5.7544,-18.56542 6.9024,-36.85777 1.6905,-53.37172 z m 26.3094,27.03281 c 0.3938,1.10991 1.4504,1.84598 2.628,1.83075 12.936,-0.16366 25.5424,-1.33601 37.3085,1.94145 11.4983,3.20289 22.4289,10.61947 32.7834,27.94081 -9.1342,23.39368 -22.4622,44.36776 -14.262,87.24764 l -38.1501,-1.39519 c -3.6587,-0.95665 -8.8087,-4.45385 -13.1768,-9.47846 -4.412,-5.0751 -8.0876,-11.60926 -9.4637,-18.13017 -0.316,-1.48265 -1.7719,-2.43019 -3.2555,-2.1186 -1.4856,0.31257 -2.4372,1.76952 -2.126,3.25542 1.6262,7.70603 5.7574,14.92162 10.6965,20.60315 4.4234,5.08829 9.4385,8.68191 14.3949,10.43072 42.9451,147.24813 7.8203,269.15933 -15.6941,395.74073 -159.768,75.2762 -322.63412,44.1512 -427.21753,0.03 -0.77871,-103.7591 -9.48617,-187.7388 -26.30199,-251.8289 -16.17446,-61.64575 -39.91246,-104.87695 -71.46496,-129.79742 20.08118,-5.46999 39.19075,-7.31813 56.47955,-0.22905 1.40449,0.57612 3.0102,-0.0945 3.58761,-1.49852 0.57616,-1.40449 -0.0945,-3.01024 -1.49853,-3.58765 -20.4447,-8.38336 -42.65768,-5.42868 -65.12385,1.3066 -0.008,0.002 -0.0151,-0.002 -0.0227,0 -0.0548,0.0151 -0.10772,0.0265 -0.16252,0.0442 -0.39924,0.12284 -0.76529,0.33487 -1.07038,0.62008 -3.1101,0.99319 -6.21789,2.69487 -9.63349,5.15265 -2.04789,1.47358 -4.21589,3.27576 -6.34852,4.97544 5.16502,-26.42823 1.01614,-48.81556 -6.45184,-65.41175 -7.41512,-16.47876 -16.95359,-26.57586 -23.56327,-31.36605 5.9402,-8.8323 12.26502,-17.17473 19.02335,-24.80346 42.29375,9.80856 77.5974,40.48688 114.27312,74.19631 37.16361,34.15791 75.72556,71.24986 124.9105,91.53658 37.05285,15.28275 82.57145,13.6739 136.81765,-0.38385 4.4745,4.66195 8.6006,8.58466 12.3944,11.07298 4.1673,2.73328 8.2279,4.18399 12.232,3.60239 1.3514,-0.19616 2.5475,-0.92898 3.7721,-1.56497 0.1006,-0.0548 0.2109,-0.0748 0.3099,-0.13304 2.2829,-1.25992 4.4268,-2.96848 6.2673,-5.52169 0.9693,-1.3447 1.7744,-3.92816 2.6797,-5.6177 0.057,-0.11301 0.1428,-0.18898 0.1992,-0.30274 0.1152,-0.23207 0.1678,-0.46803 0.2804,-0.7013 1.4807,-2.89478 3.0075,-5.37913 4.4218,-9.27913 47.8348,-30.00654 85.3562,-72.56334 109.4379,-110.06538 12.1032,-18.84803 20.8232,-36.39349 25.7631,-50.53704 2.3742,-6.79772 3.7631,-12.69836 4.3258,-17.77584 z m -544.93798,8.60741 c 34.84141,2.26956 69.13898,30.49985 103.53228,63.10118 34.84084,33.02551 69.65455,70.1722 106.58848,87.56509 47.73412,22.47879 97.16382,31.43049 148.80602,14.45392 -0.079,0.51025 -0.5315,0.87274 -0.5315,1.40994 0,2.27783 1.3358,4.34889 2.6132,6.45184 -53.3909,13.77319 -97.5201,15.11422 -132.8757,0.53153 -47.93276,-19.77024 -86.06149,-56.2888 -123.28649,-90.5031 -35.80747,-32.91145 -70.90355,-63.56418 -113.47585,-74.56543 2.79738,-2.97286 5.71555,-5.69593 8.62956,-8.44497 z m 662.11958,7.35256 c 12.3142,-0.79957 23.3218,2.60307 31.7425,7.68463 8.4207,5.0816 14.0883,11.97521 15.731,17.53221 0.8214,2.77851 0.6957,5.10201 -0.2509,6.99814 -0.9468,1.8961 -2.7955,3.58788 -6.2526,4.77614 -18.5954,6.39134 -28.1372,20.99255 -30.7607,37.21256 -2.6235,16.22001 1.2818,34.12669 8.9248,48.54392 1.3677,2.57998 1.4964,4.78419 0.8194,6.98337 -0.677,2.19918 -2.2974,4.4404 -4.7983,6.474 -5.0017,4.06716 -13.4062,7.10768 -22.5593,7.57389 -9.1531,0.46625 -18.9998,-1.57385 -27.1878,-7.13837 -8.1881,-5.56452 -14.8523,-14.61346 -17.7021,-28.80448 0,-0.0265 -0.011,-0.0491 -0.015,-0.0737 -10.5866,-46.15178 3.3587,-65.09585 13.2138,-90.58432 13.4691,-11.44213 26.9213,-16.38741 39.0949,-17.17787 z m -727.21391,19.98303 c 7.54588,0.0779 16.58814,3.52215 27.47573,12.7044 0.004,0.004 0.0113,0.003 0.0151,0.008 0.0548,0.0465 0.1115,0.0911 0.1697,0.13304 0.0151,0.0113 0.0302,0.0265 0.0442,0.0378 0.0457,0.0302 0.0926,0.0605 0.14023,0.0884 4.64547,2.8035 15.90849,13.82315 23.62971,30.98216 7.72122,17.15901 12.28751,40.53281 4.92377,69.0068 -0.0227,0.0877 -0.0389,0.17651 -0.0518,0.26571 -0.003,0.008 -0.004,0.0151 -0.008,0.0227 -3.20323,21.67095 -15.98417,32.11562 -31.21842,36.54082 -14.20221,4.12541 -30.16755,2.24152 -41.51626,-1.71264 18.24099,-36.3411 7.04298,-79.83022 -27.09925,-102.85316 5.71415,-10.79288 13.15772,-27.09831 23.91761,-36.89515 5.67813,-5.1699 12.0277,-8.40468 19.57702,-8.32686 z M 1125.1175,957.4653 c 3.9241,0 9.0306,0.32542 12.8151,1.43949 1.8923,0.55696 3.4214,1.32463 4.3111,2.11124 0.8898,0.78664 1.2254,1.4159 1.2254,2.55419 0,2.8684 -1.8817,9.96285 -4.7466,15.7236 -1.2954,2.60496 -2.8086,4.82346 -4.2815,6.54782 -1.1079,1.12389 -2.2095,2.03405 -3.2702,2.45082 -0.327,0.11868 -0.862,0.68653 -1.1073,0.68653 -1.1512,0 -3.5445,-0.74545 -6.1419,-2.19983 -2.5974,-1.45438 -5.466,-3.53269 -8.0758,-5.83914 -2.6099,-2.30645 -4.971,-4.84428 -6.6069,-7.14578 -1.636,-2.30146 -2.4066,-4.42418 -2.4066,-5.27073 0,-1.59831 1.4353,-3.42396 3.4179,-5.18214 1.3879,-1.04928 2.946,-1.86907 4.3923,-2.73135 3.5174,-1.71955 7.5803,-3.14472 10.475,-3.14472 z m 4.4661,117.4621 c -3.0217,0.3557 -6.0915,1.2155 -9.0503,2.5394 -6.2309,2.7879 -10.5252,6.0694 -13.1326,10.0321 -2.6073,3.9628 -3.3474,8.49 -2.8863,13.1104 0.2593,2.5965 1.2186,4.8898 2.9454,6.4371 1.7268,1.5473 3.9462,2.2123 6.2821,2.4287 4.6717,0.4328 10.3146,-0.6891 17.2295,-1.9636 8.3549,-1.54 13.8162,-4.2926 16.9712,-8.1497 3.155,-3.8571 3.5582,-8.667 2.377,-12.889 -1.656,-5.9192 -6.4405,-9.7131 -11.9736,-11.0729 -2.7665,-0.6799 -5.7407,-0.8281 -8.7624,-0.4725 z m 0.6423,5.4848 c 2.4392,-0.2865 4.7704,-0.1753 6.8062,0.3247 4.0715,1.0006 6.8778,3.2539 7.9873,7.2196 0.8436,3.0157 0.6299,5.5262 -1.3288,7.9209 -1.9588,2.3945 -6.105,4.8202 -13.7157,6.2229 -6.9091,1.2735 -12.4535,2.2002 -15.7237,1.8972 -1.6351,-0.1516 -2.5751,-0.5577 -3.1225,-1.0482 -0.5474,-0.4905 -0.9768,-1.2091 -1.1442,-2.8864 -0.3735,-3.7435 0.1651,-6.7439 2.0079,-9.5449 1.8429,-2.8009 5.1706,-5.5162 10.7924,-8.0316 2.4599,-1.1006 5.0018,-1.788 7.4411,-2.0743 z m -3.6098,116.5025 c -2.8013,0.3296 -5.6459,1.1215 -8.386,2.3475 -5.7522,2.5737 -9.7452,5.6116 -12.1729,9.3013 -2.4276,3.6896 -3.1144,7.9197 -2.687,12.2024 0.2419,2.4238 1.1481,4.5956 2.783,6.0606 1.635,1.465 3.7301,2.0795 5.9056,2.281 4.351,0.4031 9.5366,-0.6295 15.8934,-1.8012 7.7103,-1.4211 12.7898,-3.9619 15.7384,-7.5665 2.9485,-3.6047 3.3213,-8.125 2.222,-12.0548 -1.5444,-5.5201 -6.0163,-9.0703 -11.1616,-10.3348 -2.5726,-0.6322 -5.3337,-0.7652 -8.1349,-0.4355 z m 0.6422,5.4848 c 2.2187,-0.2604 4.3368,-0.1572 6.1787,0.2952 3.6838,0.9053 6.1849,2.9075 7.1827,6.474 0.7619,2.7235 0.5638,4.9445 -1.1885,7.0867 -1.7523,2.1422 -5.5095,4.3559 -12.4756,5.6398 -6.3508,1.1706 -11.4379,2.0081 -14.3875,1.7348 -1.4747,-0.1364 -2.2905,-0.4923 -2.746,-0.9006 -0.4556,-0.4082 -0.8243,-1.0052 -0.9745,-2.5099 -0.3397,-3.4058 0.1452,-6.1017 1.8086,-8.6295 1.6632,-2.5279 4.6748,-4.9996 9.8181,-7.3008 2.2411,-1.0027 4.5653,-1.6294 6.784,-1.8898 z m -3.0635,89.226 c -2.8012,0.3296 -5.6385,1.1215 -8.3786,2.3475 -5.7522,2.5737 -9.7452,5.619 -12.1729,9.3087 -2.4276,3.6896 -3.1144,7.9123 -2.687,12.195 0.2419,2.4239 1.1407,4.5956 2.7756,6.0606 1.6349,1.465 3.7301,2.0869 5.9056,2.2884 4.351,0.4032 9.544,-0.6369 15.9008,-1.8085 7.7102,-1.4212 12.7825,-3.9619 15.731,-7.5666 2.9486,-3.6046 3.3287,-8.1176 2.2294,-12.0474 -1.5444,-5.5201 -6.0237,-9.0777 -11.169,-10.3421 -2.5726,-0.6323 -5.3337,-0.7652 -8.1349,-0.4356 z m 0.6422,5.4848 c 2.2187,-0.2604 4.3368,-0.1572 6.1787,0.2952 3.6838,0.9053 6.1849,2.9074 7.1827,6.474 0.7619,2.7235 0.5712,4.9445 -1.1811,7.0867 -1.7523,2.1422 -5.5096,4.3559 -12.4756,5.6399 -6.3508,1.1705 -11.4453,2.0154 -14.3948,1.7421 -1.4748,-0.1365 -2.2832,-0.4998 -2.7387,-0.908 -0.4556,-0.4082 -0.8317,-1.0052 -0.9819,-2.5099 -0.3397,-3.4058 0.1455,-6.1017 1.8086,-8.6295 1.6632,-2.5279 4.6822,-4.9996 9.8255,-7.3008 2.2411,-1.0028 4.5579,-1.6294 6.7766,-1.8898 z"
         transform="scale(0.26458)"
         style="opacity:0.994;fill:#000000;fill-opacity:1;fill-rule:evenodd;stroke:#000000;stroke-width:10.3043;stroke-linecap:round;stroke-linejoin:round;stroke-miterlimit:4;stroke-dasharray:none;stroke-dashoffset:0;stroke-opacity:1;paint-order:markers stroke fill"
         id="shirt-bg" />
      <path
         d="m 1263.9521,769.1439 c -2.1614,1.0065 0.5025,4.69358 0.1929,6.54872 4.5074,29.03284 -7.1131,57.73095 -21.1742,82.53314 -19.7571,33.53595 -45.6118,63.74949 -76.5477,87.45317 -5.4958,4.68156 -12.478,7.40153 -17.8578,12.09886 -0.9253,1.8723 0.8195,6.90064 3.3166,4.25986 44.8078,-30.24117 82.0247,-71.28772 109.5237,-117.71151 9.4037,-16.83965 18.497,-34.66326 20.8603,-54.04202 0.3712,-10.26261 -9.5691,-16.83848 -17.5563,-21.12403 l -0.2273,-0.0234 z m -519.43568,33.42292 c -3.20888,1.01357 -6.64306,3.87916 -7.74871,7.02336 6.72589,4.28591 15.11889,5.546 22.23369,9.30347 42.17454,19.35677 74.70002,53.44479 108.89876,83.80887 32.978,29.77888 67.78353,59.64362 110.21655,74.84864 38.27889,13.10271 79.79529,7.76177 118.36979,-1.16585 4.1618,-0.5365 8.1596,-1.52173 4.7639,-6.14103 -1.4308,-3.93355 -6.2832,0.22987 -9.0483,0.0565 -15.6886,4.79378 -32.1298,5.76017 -48.4347,5.25717 -24.9044,0.87948 -49.29455,-5.98706 -72.42784,-14.58482 -27.53549,-10.10983 -51.96822,-27.02471 -73.4987,-46.72589 -32.17938,-28.32243 -60.8898,-60.65274 -95.47207,-86.18425 -17.15847,-12.25642 -36.48527,-23.39713 -57.85237,-25.49617 z m 461.68478,-44.6132 c -24.8826,1.52445 -48.9138,9.57212 -71.8271,18.97634 -17.3809,7.58586 -34.3267,16.14592 -50.8448,25.45791 -7.1247,0.43414 -14.6465,-0.20658 -21.5442,1.07664 -0.089,5.65393 6.1491,7.14524 10.5854,7.81384 14.0991,2.20047 27.2939,9.1324 36.6233,20.00432 11.0169,11.09929 15.7106,27.15343 14.6221,42.54126 -0.3069,19.5806 0.5877,39.35874 -2.4382,58.76446 0.1547,1.51567 -2.755,6.66672 0.6893,5.68952 25.9216,-12.36714 47.1667,-33.25351 63.142,-56.89564 16.9931,-25.68685 28.6972,-55.24424 32.3154,-85.89861 0.07,-10.75605 1.8055,-22.10347 -2.0174,-32.40291 -1.4454,-4.28373 -4.4726,-6.41469 -8.998,-5.13428 z m -369.20056,1.99529 c -11.3042,0.30559 -23.08673,1.22895 -33.52864,5.81677 -2.38132,2.3425 2.83022,3.91983 4.28209,4.82394 33.73021,4.4718 42.87585,52.01619 66.20249,77.72546 27.33865,31.32465 67.22224,55.28201 104.74621,74.09317 15.89316,7.98814 32.60321,14.96924 49.87121,19.05914 24.8685,-0.11713 49.8103,0.93251 74.635,-0.21653 -6.0975,-5.42159 -13.3711,-9.90086 -19.8125,-15.1018 -15.8933,-12.63313 -34.9091,-20.3868 -54.3682,-25.62973 -17.4468,-4.93393 -35.33505,-9.04914 -51.29016,-18.00876 -12.72211,-6.64913 -25.21889,-16.62751 -29.94215,-30.66473 -3.7253,-12.66655 1.65842,-25.83859 9.57984,-35.70751 3.80494,-3.2528 3.78591,-7.08992 1.47207,-11.25997 -1.67131,-4.74196 -3.57767,-9.39528 -5.53808,-14.02372 -13.02868,-0.59633 -27.6511,2.0682 -38.8973,-6.26667 -22.83469,-15.15995 -49.66296,-25.48716 -77.41188,-24.63906 z"
         transform="scale(0.26458)"
         style="opacity:0.994;fill:#aa0000;fill-opacity:1;fill-rule:evenodd;stroke:#000000;stroke-width:10.3043;stroke-linecap:round;stroke-linejoin:round;stroke-miterlimit:4;stroke-dasharray:none;stroke-dashoffset:0;stroke-opacity:1;paint-order:markers stroke fill"
         id="cape" />
      <path
         d="m 677.2603,830.36686 c -16.74406,-0.20732 -26.12815,16.38662 -33.97684,28.75846 -2.37348,5.00118 -6.97929,10.12049 -6.75225,15.73753 9.77729,7.13472 19.51352,14.7809 25.64126,25.52277 9.5985,13.84748 13.29095,30.93308 11.36947,47.56857 0.27107,10.43955 -5.20457,19.90816 -7.40319,29.6577 8.60458,3.85005 19.01062,3.65683 28.36487,2.58883 18.27066,-2.10875 34.96202,-15.56545 38.46312,-34.03432 7.67297,-29.42444 5.35688,-62.95109 -13.25553,-87.97566 -9.32638,-12.32926 -21.87317,-23.64675 -37.09547,-27.57517 -1.77658,-0.20682 -3.56831,-0.24877 -5.35544,-0.24871 z m 730.9143,-20.37738 c -15.2675,0.86676 -31.4388,6.48516 -41.621,18.27083 -12.3824,23.83599 -20.8758,51.3863 -15.2294,78.37385 2.1311,18.47714 11.4957,39.16673 31.043,44.24973 14.0891,3.45441 32.4148,1.71919 41.3123,-11.11634 2.4276,-7.88506 -4.9399,-14.88272 -6.1503,-22.49179 -7.5498,-22.31483 -4.0648,-51.13555 16.5679,-65.33844 5.3774,-4.87029 15.1299,-5.1859 18.1277,-12.311 0.025,-11.99468 -11.9275,-19.72148 -21.4042,-24.74149 -7.0317,-3.4253 -14.8093,-5.24726 -22.646,-4.89535 z"
         transform="scale(0.26458)"
         style="opacity:0.994;fill:#ffffff;fill-opacity:1;fill-rule:evenodd;stroke:#000000;stroke-width:14.5725;stroke-linecap:round;stroke-linejoin:round;stroke-miterlimit:4;stroke-dasharray:none;stroke-dashoffset:0;stroke-opacity:1;paint-order:markers stroke fill"
         id="sleeves" />
      <path
         d="m 1125.577,1297.7846 c -8.035,1.3786 -19.4482,6.7721 -18.605,16.3868 2.207,6.6646 11.1051,2.3327 15.9693,2.0399 6.2654,-1.0142 16.9911,-3.8594 14.5037,-12.3718 -1.7646,-4.6958 -7.2886,-6.3151 -11.868,-6.0549 z m 3.5618,-94.8732 c -8.9327,0.5741 -20.7088,7.1233 -19.7303,17.3403 1.9361,4.8731 9.1249,1.7211 13.064,1.8582 6.8122,-1.2257 18.3465,-3.1141 17.6578,-12.2304 -1.127,-4.7533 -6.4359,-7.2329 -10.9915,-6.9681 z m 2.7295,-122.0116 c -9.947,0.8771 -23.4333,8.1888 -20.8225,20.0361 2.8327,5.324 10.6497,1.325 15.2906,1.2317 7.0328,-1.4794 19.2415,-3.5771 18.3115,-13.1881 -0.9401,-5.7994 -7.5447,-8.362 -12.7796,-8.0797 z m -4.8009,-122.5331 c -7.2439,0.18838 -17.0819,3.08066 -19.3293,10.69133 3.8155,8.64419 12.2503,15.17281 20.7489,19.04629 4.5073,0.72112 7.2685,-5.74241 9.4248,-9.00472 1.9402,-5.35934 6.9751,-12.59136 2.9156,-17.94204 -3.8998,-2.74121 -9.2028,-2.57399 -13.76,-2.79086 z"
         transform="scale(0.26458)"
         style="opacity:0.994;fill:#ffff00;fill-opacity:1;fill-rule:evenodd;stroke:#000000;stroke-width:14.5725;stroke-linecap:round;stroke-linejoin:round;stroke-miterlimit:4;stroke-dasharray:none;stroke-dashoffset:0;stroke-opacity:1;paint-order:markers stroke fill"
         id="shirt-buttons" />
    </g>
    <g
       inkscape:label="head"
       id="headObj">
      <g
         inkscape:label="head-backgrounds"
         id="head-backgrounds">
        <path
           style="opacity:0.994;fill:#ffcca9;fill-opacity:1;fill-rule:evenodd;stroke:#000000;stroke-width:14.426;stroke-linecap:round;stroke-linejoin:round;stroke-miterlimit:4;stroke-dasharray:none;stroke-dashoffset:0;stroke-opacity:1;paint-order:markers stroke fill"
           d="m 1002.117,335.91612 c -60.07175,1.96378 -123.26866,9.09317 -174.85513,42.4769 -16.64257,12.77294 -29.82594,31.18031 -30.91571,52.712 -2.28118,33.5901 -4.3799,69.02834 8.41228,100.92695 5.91974,12.77643 14.49239,25.49135 26.21598,33.30882 15.84811,-0.93919 32.47823,4.64175 45.086,14.17114 2.29467,2.30832 -0.36379,7.01087 -3.45903,3.55758 -14.48541,-5.2024 -30.34578,-17.07621 -46.12621,-10.44567 -13.28541,6.94817 -25.22229,20.77065 -20.88418,36.75889 3.90467,25.7706 20.70196,48.98913 44.83677,59.35601 12.11658,7.59044 29.06156,3.89146 36.15779,-8.70728 5.07988,-7.88823 8.06654,-17.1448 10.83253,-25.75571 6.44915,-2.11196 2.12481,7.68574 1.60035,10.7353 -1.89126,7.14848 -4.57216,14.06897 -8.16634,20.53747 26.12475,33.41418 49.33218,69.67084 65.77778,108.85008 3.20565,13.48809 11.35235,25.95269 13.14373,39.53695 -8.01691,9.86198 -17.89201,21.49594 -14.2281,35.3928 7.20368,18.62973 27.59289,27.7391 45.03329,34.63972 27.5441,8.13583 56.8265,13.27645 80.6653,30.48839 10.6629,6.01171 19.2813,16.3048 30.5261,20.67739 4.5298,-10.4853 2.3367,-23.31082 3.9081,-34.64641 0.1466,-20.82641 4.2466,-45.70834 -11.2601,-62.40236 -8.1223,-5.04561 -16.4826,4.76119 -22.6567,9.11587 -6.681,6.75503 -8.0895,17.94548 -14.5724,24.27761 -17.1246,-10.17328 -36.9835,-25.18777 -57.9747,-17.00889 -5.5773,0.97866 -11.09883,8.04155 -16.5207,6.03519 0.19542,-7.47088 10.964,-9.62905 16.6925,-12.05372 19.908,-6.88146 38.0444,7.79353 56.0582,12.95542 7.2585,-11.31675 15.3389,-22.80317 27.2148,-29.87197 4.67,-4.31957 -5.8055,-6.41892 -8.502,-8.13808 -8.5949,-4.95566 -20.8419,-2.69591 -27.7972,-10.13775 -7.9728,-17.37959 -4.1148,-37.25654 -5.6276,-55.76264 -41.4614,0.18921 -85.57992,-15.81819 -109.43063,-51.3712 -10.10471,-15.13195 -23.36989,-28.36298 -31.69901,-44.54083 0.54554,-5.41343 6.81946,1.16458 8.00579,3.27274 21.50447,27.24713 39.56008,60.4091 73.05769,74.69783 34.40146,14.48714 72.71466,15.46692 109.51006,15.52274 31.7718,-0.22843 64.2865,-11.29375 85.8275,-35.44943 21.9396,-23.42254 35.2545,-53.82954 43.9113,-84.36275 1.8111,-9.77234 -0.8082,-19.78049 -3.2097,-28.88186 6.2272,-4.37556 8.1044,7.00239 8.8266,11.07476 1.9945,8.61725 -1.4876,17.47124 -1.4434,25.70568 19.443,0.54423 31.1144,-17.89101 41.87,-31.34911 16.4575,-23.69722 21.7304,-54.97091 15.0393,-82.85062 -8.0384,-18.99984 -18.9625,-39.92586 -38.5315,-48.94017 -15.881,-1.13896 -32.5058,0.54655 -47.8103,4.77406 2.3266,7.84238 10.9628,13.12415 12.2863,21.87956 5.5725,23.46226 2.3333,52.15387 -16.0662,69.38589 -28.7504,20.66756 -67.8336,29.1508 -101.5897,16.4857 -4.0055,4.7776 -2.2539,13.43681 -6.0219,19.00694 -11.3433,28.7635 -28.0767,57.00329 -54.9711,73.63658 -3.8523,2.37324 -2.7371,6.11183 -0.1359,8.44293 -4.1004,11.40185 -14.406,20.18645 -23.7293,27.63949 -16.89697,10.84441 -38.6343,2.25386 -50.5926,-12.00035 -13.85427,-15.09025 -26.24146,-32.19932 -34.67887,-50.85398 0.81806,-4.85816 6.04702,1.92301 7.00759,3.73841 15.66439,21.32445 29.19471,48.7279 55.88592,57.78339 17.25156,4.02595 29.43336,-13.10158 39.04186,-24.67856 3.8626,-3.73745 0.1964,-8.19879 -4.396,-4.97954 -16.3405,2.12157 -34.11833,3.33116 -48.42938,-6.43504 -31.14911,-17.56404 -47.5962,-51.68581 -60.29565,-83.60451 -5.87756,-19.02364 -10.14564,-38.7191 -10.91329,-58.66512 13.15382,0.58852 27.0046,-2.2452 39.74118,0.39206 36.83378,16.85267 75.29774,35.58857 117.00514,32.44939 3.6536,-1.28987 15.0862,1.70939 14.9072,-2.52856 -2.5117,-8.69164 -7.8594,-12.68789 -16.9907,-10.27902 -47.6184,0.24511 -89.94146,-25.01827 -135.47097,-34.84632 -16.13562,-3.45542 -33.49469,1.07741 -44.65234,13.54709 -5.77205,1.67885 -1.24678,-6.24186 1.15314,-7.51364 13.77863,-16.48861 37.68369,-12.64926 56.14474,-8.50423 36.81089,9.69859 71.76533,27.34596 109.88443,31.4636 5.5926,-1.71313 22.0781,6.33872 18.525,-3.11864 -0.9035,-6.98722 -4.4082,-15.30039 -1.9815,-21.89463 6.3683,8.00213 7.6538,19.8962 13.465,28.70283 11.0992,22.84447 36.6454,37.48973 62.0323,33.56558 21.7431,-3.28693 44.5177,-10.83467 60.313,-26.7191 16.815,-21.20936 20.0324,-58.05738 -3.3489,-75.87655 -12.5063,-7.65689 -28.0517,-5.3707 -41.8265,-8.01806 -8.1461,-0.28564 -12.2357,10.22263 -19.9115,9.27932 0.031,-5.48238 7.8985,-8.85196 11.765,-12.23203 3.5615,-1.38796 8.0329,-2.72847 6.0015,-7.81701 -3.5597,-41.00526 -22.1609,-82.21453 -55.2793,-107.58982 -14.6031,5.01561 -35.5565,10.18218 -36.3717,29.15146 -0.294,2.65042 5e-4,14.54877 -5.0673,9.62084 -4.5801,-16.95792 7.129,-35.70866 24.4511,-39.36082 2.8787,-0.91219 13.3312,-2.75015 7.3559,-6.72769 -7.8477,-12.59238 -40.5799,-16.65769 -40.5799,-16.65769 -16.2276,-4.65891 -33.4585,-1.77693 -46.2049,-4.15199 z m -49.09132,61.39838 c 25.23278,2.63385 39.05837,27.2668 53.45802,45.1584 11.2188,13.23342 19.216,30.46931 34.5274,39.48292 5.5036,3.57945 12.1988,-8.85506 15.8882,-2.49388 -1.3753,9.713 -15.904,9.40025 -22.403,4.81235 -4.5352,-2.86917 -4.247,2.18727 -5.5298,4.55414 -10.6748,-2.0416 -19.8852,-13.09815 -31.94372,-9.72119 -8.95767,0.82716 -16.26233,9.47817 -25.12666,8.88171 -1.00979,-6.30086 9.05968,-8.20532 13.19046,-11.03485 10.8764,-6.15389 23.34952,-4.07352 34.59672,-0.54757 3.8669,-1.97508 -2.9745,-7.74439 -3.7805,-10.38743 -15.5594,-21.53674 -29.78432,-46.06184 -53.02768,-60.17752 -12.70051,-6.03932 -27.79185,-1.2218 -36.42569,9.4545 -3.96086,2.7041 -7.7086,10.148 -12.88632,9.39829 0.54192,-10.17289 12.02294,-15.82251 19.24728,-21.46771 6.04652,-3.70203 13.03766,-6.23913 20.21529,-5.91216 z m -86.28188,8.67839 c 5.69298,7.23047 3.32047,19.7493 11.68663,25.98411 2.91215,4.14629 13.92918,3.38812 12.41318,9.49943 -9.95311,2.77609 -19.4325,-7.77922 -23.00356,-16.2947 -1.72721,-5.54996 -6.67598,-14.32606 -1.74038,-19.15493 l 0.33143,-0.0464 z m 237.8256,2.19797 c 6.3217,1.28294 -0.1796,9.31686 -1.5321,12.63188 -7.3272,7.14985 4.6933,11.52478 6.9319,18.25992 6.1949,12.5577 8.1279,29.95284 -0.6196,41.7004 -9.9467,9.46632 -28.4449,6.65922 -33.0456,-7.04128 -4.7082,-11.50147 -5.6787,-27.27919 -1.6628,-38.95791 6.6634,-11.65735 15.2613,-25.13242 29.9282,-26.59301 z m -190.98918,38.40542 c 4.48197,2.70533 -3.42729,7.56148 -5.48404,9.7521 -12.709,13.62439 -36.97446,11.05245 -47.2378,-3.9762 0.63311,-5.36872 8.09638,0.61235 10.62809,1.585 8.73311,6.90939 21.44547,8.05967 29.74804,-0.23659 3.8742,-2.56046 7.6081,-6.37331 12.34571,-7.12431 z m 32.11054,37.89117 c 5.49259,4.18257 3.56377,13.74617 9.67456,18.20393 3.47033,5.43284 13.19325,5.62538 14.75345,11.88679 -6.03483,3.98044 -14.1505,-2.93048 -18.84,-6.87519 -4.51933,-6.04476 -9.81244,-14.9219 -7.20505,-22.49863 0.40734,-0.44722 0.99242,-0.79116 1.61704,-0.7169 z m -88.64874,117.39828 c 6.96267,1.05829 16.649,-0.13768 21.40809,5.71283 -0.007,5.08728 -8.60665,0.14399 -11.64685,1.02733 -6.37799,0.97911 -21.2934,-6.72518 -18.0315,4.75214 -0.68282,8.82046 7.17773,14.25187 10.74729,20.94902 -4.39307,5.28775 -10.58755,-4.04431 -12.86255,-7.66835 -2.57858,-3.48862 -3.20365,-15.33404 -9.72049,-10.937 -1.94548,3.30786 -8.85424,0.92716 -4.72694,-2.65336 4.96274,-8.66991 15.43161,-11.57661 24.83295,-11.18261 z"
           id="head"
           transform="scale(0.26458)"
           sodipodi:nodetypes="ccccccccccccccccccccccccccccccccccccccccccccccccccccccccccccccccccccccccccccccccccccccccccccccccccccccccccccccccccccccccccccccccccccccccccc" />
        <path
           style="opacity:0.994;fill:#000000;fill-opacity:1;fill-rule:evenodd;stroke:#000000;stroke-width:7.28623;stroke-linecap:round;stroke-linejoin:round;stroke-miterlimit:4;stroke-dasharray:none;stroke-dashoffset:0;stroke-opacity:1;paint-order:markers stroke fill"
           d="m 916.63153,556.55316 c -0.77735,1.74477 0.61822,4.29929 0.63699,6.28161 2.78999,17.20928 7.35544,34.16824 14.71505,50.01406 1.03229,2.92081 1.92075,6.10627 5.62358,4.6517 13.22842,-1.14651 27.05376,-2.78272 39.9237,1.38549 12.21817,3.82574 21.79472,13.25004 29.21455,23.29665 6.9464,-1.74037 14.3058,-3.59732 21.3594,-1.28699 10.2615,2.69757 16.3548,12.4849 19.9861,21.76617 0.1795,1.58601 1.2522,3.77017 2.9422,2.04249 8.8077,-7.70436 15.0511,-17.89075 21.0988,-27.80053 6.1558,-10.54131 11.4256,-21.6251 15.5805,-33.08801 1.8609,-3.9263 -1.5153,-3.54287 -4.5308,-3.28685 -45.0633,1.0363 -91.37259,-3.71049 -132.71767,-22.78853 -11.32132,-5.10638 -21.77584,-11.95356 -31.23495,-19.97273 -0.79928,-0.48412 -1.61981,-1.20507 -2.59745,-1.21453 z"
           id="mouth-bg"
           transform="scale(0.26458)" />
        <path
           style="opacity:0.994;fill:#ff0000;fill-opacity:1;fill-rule:evenodd;stroke:#000000;stroke-width:3.64312;stroke-linecap:round;stroke-linejoin:round;stroke-miterlimit:4;stroke-dasharray:none;stroke-dashoffset:0;stroke-opacity:1;paint-order:markers stroke fill"
           d="m 957.34473,618.68172 c -7.40073,0.16187 -14.81631,0.83596 -22.151,1.62139 0.23093,1.92545 1.66949,3.63066 2.41741,5.43083 4.73591,9.40313 10.04876,18.55396 16.65755,26.77937 6.64152,8.86314 14.85096,16.50089 24.16164,22.49779 8.05326,5.70798 17.77021,9.47558 27.75487,9.00086 6.9034,-0.22951 14.0147,0.26402 20.6589,-1.97697 1.8956,-0.51425 4.1925,-0.10253 5.529,-1.86144 5.2042,-3.52526 10.3911,-7.1255 15.0328,-11.38746 -2.3995,-8.5691 -6.4771,-17.34443 -13.9723,-22.58275 -6.5475,-4.53308 -15.1538,-4.7774 -22.5394,-2.36185 -1.8097,0.28906 -3.6487,1.85932 -5.4913,1.18173 -1.9861,-2.37912 -3.5739,-5.12576 -5.72313,-7.40307 -7.04942,-8.30212 -16.21226,-15.40436 -27.10728,-17.55142 -4.99885,-1.12585 -10.10889,-1.57029 -15.22776,-1.38701 z"
           id="mouth-toungue-bg"
           transform="scale(0.26458)" />
        <path
           style="opacity:0.994;fill:#ffffff;fill-opacity:1;fill-rule:evenodd;stroke:#000000;stroke-width:3.64312;stroke-linecap:round;stroke-linejoin:round;stroke-miterlimit:4;stroke-dasharray:none;stroke-dashoffset:0;stroke-opacity:1;paint-order:markers stroke fill"
           d="m 932.64839,548.56694 c -5.54078,0.19588 -11.12797,0.14652 -16.63583,0.66411 -1.11305,0.72228 0.79959,1.66481 1.14475,2.3167 4.6144,4.83345 9.63934,9.2712 15.22891,12.95106 12.07625,8.46673 25.78749,14.28628 39.64259,19.15871 6.01942,2.0207 12.05896,3.98062 18.27324,5.31986 6.6916,1.76986 13.45785,3.20515 20.29775,4.2689 13.5857,2.4497 27.3637,3.7242 41.1386,4.50605 12.4801,0.5808 24.9981,0.6806 37.4702,-0.13915 0.4188,-3.1628 1.892,-6.01291 3.1507,-8.87871 0.3711,-1.96373 -2.1428,-2.73358 -3.2107,-3.94405 -2.1691,-1.60748 -3.9578,-3.84071 -6.2349,-5.2141 -2.4927,1.28017 -5.1947,2.14882 -8.0304,2.1061 -9.6834,0.0913 -19.3704,0.74977 -29.0531,0.36088 -16.6329,-1.03389 -32.9623,-5.00613 -48.65832,-10.49046 -10.35966,-3.52733 -20.44,-7.82762 -30.48367,-12.15962 -7.47211,-3.41402 -15.00475,-6.70817 -22.40522,-10.28512 -3.8626,-0.52107 -7.73988,-0.68481 -11.6346,-0.54116 z"
           id="mouth-teeth-bg"
           transform="scale(0.26458)" />
        <path
           style="opacity:0.994;fill:#000000;fill-opacity:1;fill-rule:evenodd;stroke:#000000;stroke-width:7.28623;stroke-linecap:round;stroke-linejoin:round;stroke-miterlimit:4;stroke-dasharray:none;stroke-dashoffset:0;stroke-opacity:1;paint-order:markers stroke fill"
           d="m 1095.1962,419.82804 c -3.8023,2.85301 -9.6192,13.06689 -12.0744,17.09236 -2.8003,6.83857 -2.3874,14.54197 -2.1442,21.79594 0.97,6.49485 1.6709,14.5199 7.7749,18.34075 4.5821,2.11956 11.0273,1.66054 14.6324,-2.12255 5.9337,-8.05549 4.1739,-19.08391 1.1113,-27.94297 -2.1011,-7.12314 -8.8807,-11.53419 -11.2031,-18.47646 -0.3854,-0.90534 3.34,-8.77263 1.9031,-8.68707 z"
           id="eye-bg"
           transform="scale(0.26458)" />
      </g>
      <g
         inkscape:label="pipe"
         id="pipe">
        <path
           d="m 322.77262,94.968618 c 2.29068,-6.977284 6.74586,-10.600676 13.09171,-11.294447 m -6.42918,23.931279 c -7.21994,-5.81785 -8.84904,-11.343286 -6.66253,-12.63683 8.61662,0.752555 12.03826,-6.691763 13.09171,-11.294449 2.34328,-2.983298 9.02836,8.2493 10.91756,13.37662 2.28974,9.913129 -2.64355,11.187899 -8.44634,15.292779 -2.66805,1.97021 -4.43428,0.20353 -5.29533,-0.97207 m 1.59265,-2.32744 -11.47974,17.50763 c 0,0 -2.49089,-0.31857 -5.74653,0.70205 l 15.31964,-23.913 c 4.39493,1.54494 2.85722,3.65194 1.90663,5.70332 z"
           style="fill:none;stroke:#030303;stroke-width:1.45545;stroke-linecap:round;stroke-linejoin:round;stroke-miterlimit:4;stroke-dasharray:none;stroke-opacity:1"
           id="pipe-outline" />
        <path
           d="m 1262.872,320.92991 c -16.5465,3.33878 -30.4719,16.61312 -36.9325,31.91594 -2.6575,4.80035 4.7534,2.10151 6.8524,1.94928 15.9448,-3.57626 27.5021,-18.12744 31.1888,-33.44282 -0.088,-0.50567 -0.7295,-0.45936 -1.1087,-0.4224 z m 11.3584,-1.98556 c -4.9821,3.46607 -4.5725,11.3911 -8.2633,16.18152 -7.601,14.91649 -22.1958,26.93609 -39.5482,27.1721 -6.9833,-1.5795 -7.611,4.15035 -5.3294,9.22713 5.0146,11.80405 13.6557,22.60769 24.1081,29.79184 5.4277,-3.27211 6.599,-11.73286 12.581,-13.876 8.8071,1.45377 17.9741,10.35258 12.8389,19.66349 -0.8674,5.37598 -6.766,9.3518 -6.2504,14.79372 3.3228,4.61803 9.226,2.69489 12.7511,-0.59026 12.4938,-8.68345 29.9117,-16.24504 32.0096,-33.30277 2.1535,-21.10596 -10.807,-39.87454 -21.9092,-56.62873 -3.7636,-4.28348 -7.1308,-10.93724 -12.9882,-12.43204 z m -14.5,76.57117 c -17.6817,24.89872 -34.1627,50.74189 -49.9484,76.89647 -1.696,4.87333 6.7543,-0.22948 8.9604,0.38921 8.3988,-6.83071 12.8634,-17.54616 19.3307,-26.13958 9.0742,-14.5466 19.5393,-28.43517 26.9811,-43.88534 1.5283,-3.30123 -2.8095,-6.28251 -5.3238,-7.26076 z"
           transform="scale(0.26458)"
           inkscape:label="pipe-inner-bg"
           style="opacity:0.994;fill:#aa4400;fill-opacity:0.996078;fill-rule:evenodd;stroke:#1a1a1a;stroke-width:3.90828;stroke-linecap:butt;stroke-linejoin:round;stroke-miterlimit:4;stroke-dasharray:none;stroke-dashoffset:0;stroke-opacity:0.996078;paint-order:markers stroke fill"
           id="pipe-inner-bg" />
      </g>
      <g
         inkscape:label="hat"
         id="hat">
        <path
           d="m 209.62985,110.89525 c -4.37213,-7.15447 -9.95692,-15.720283 -6.20184,-25.203363 2.32969,-5.883409 11.6623,-18.52288 20.2649,-20.083825 3.91027,-0.70952 10.61838,-1.97023 7.32971,5.329667 m 41.98728,12.897125 c -2.23644,-0.609361 -29.04218,-9.351922 -58.43513,10.410749 -3.01601,0.886177 0.99957,2.184502 2.1704,5.625322 m 51.76739,-10.365853 c -20.99398,-1.982459 -48.41952,-4.983098 -58.88271,21.390178 m 67.73517,-20.92003 c 0,3.388923 -1.94164,6.137108 -4.33829,6.140389 -2.39665,0.0033 -4.34205,-2.73958 -4.34669,-6.128495 -0.005,-3.388911 1.93322,-6.142406 4.32986,-6.15226 2.39664,-0.0098 4.34579,2.72768 4.35508,6.116577 m 30.87003,0.150029 C 331.56622,29.648516 249.62997,33.074541 231.02262,70.937729 m 46.34236,19.013698 c 12.15981,4.700364 23.94948,8.482464 26.84265,30.500253 20.44217,-12.10352 7.59558,-28.429476 3.09095,-30.613931 -6.52522,-3.486609 -21.37075,-6.456364 -34.28868,-6.002895"
           style="fill:none;stroke:#030303;stroke-width:1.45545;stroke-linecap:round;stroke-linejoin:round;stroke-miterlimit:4;stroke-dasharray:none;stroke-opacity:1"
           id="hat-outline" />
        <path
           sodipodi:nodetypes="ccccccccccsccc"
           id="cap-bg-grey"
           style="opacity:0.994;fill:#1a1a1a;fill-opacity:0.996078;fill-rule:evenodd;stroke:#1a1a1a;stroke-width:3.869;stroke-linecap:butt;stroke-linejoin:round;stroke-miterlimit:4;stroke-dasharray:none;stroke-dashoffset:0;stroke-opacity:0.996078;paint-order:markers stroke fill"
           transform="scale(0.26458)"
           d="m 1047.785,320.24137 c -12.0263,-1.18216 -10.4269,-6.90817 0.5369,19.82674 33.8314,9.36373 28.3846,6.80737 55.1716,18.80254 28.5345,18.90645 41.5989,52.17412 52.2466,83.61329 -2.0235,12.31772 13.5072,-7.73511 17.2229,-10.60558 16.5347,-16.48428 20.0716,-43.12104 8.5785,-63.41363 -9.1181,-21.38102 -31.4026,-32.18434 -52.9348,-36.91045 -25.0881,-6.61062 -54.9042,-10.36177 -80.8217,-11.31291 z m -82.06282,-9.07058 c -55.13199,0.0113 -109.43037,14.12859 -154.72071,45.03755 -6.83971,2.91193 -5.92714,31.67477 9.40179,23.33085 104.67985,-56.97986 155.1429,-40.59124 194.46014,-41.24804 -0.5416,-3.43345 -1.5629,-13.75568 6.7581,-21.48514 -16.1048,-3.94719 -39.35791,-5.30034 -55.89932,-5.63522 z" />
        <path
           inkscape:label="hat-bg-gold"
           transform="scale(0.26458)"
           id="cap-bg-gold"
           d="m 1031.4117,320.2315 c -12.0421,3.04341 -13.8413,18.75591 -10.8906,28.89037 1.6974,6.71746 8.7897,12.83317 15.7632,8.8117 7.2125,-3.53573 9.0395,-13.53897 8.3688,-20.91361 -0.9626,-7.03186 -4.9349,-16.57846 -13.2414,-16.78846 z"
           style="opacity:0.994;fill:#ffff00;fill-opacity:0.996078;fill-rule:evenodd;stroke:#1a1a1a;stroke-width:3.90828;stroke-linecap:butt;stroke-linejoin:round;stroke-miterlimit:4;stroke-dasharray:none;stroke-dashoffset:0;stroke-opacity:0.996078;paint-order:markers stroke fill" />
        <path
           sodipodi:nodetypes="cccccccccccccccccccc"
           inkscape:label="hat-bg-white"
           transform="scale(0.26458)"
           id="cap-bg-white"
           d="m 1060.0513,167.44309 c -59.4893,0.40341 -119.47025,24.65594 -160.36085,68.27568 -10.07079,10.22588 -16.91952,22.90478 -24.81763,34.69063 -3.45729,3.54357 -6.07804,-2.67439 -3.90554,-5.44678 2.4168,-5.22722 4.3091,-14.16165 -3.70273,-15.1676 -22.33575,-2.66585 -43.81508,8.94551 -58.85787,24.75602 -17.7452,18.04142 -35.00131,39.09915 -39.99996,64.54932 -2.57587,24.20046 7.92103,53.42634 21.4727,72.94421 4.57001,2.93122 5.90342,-10.56061 7.8033,-13.22621 3.98832,-8.73036 12.15495,-15.1458 15.34655,-24.12234 -0.99813,-6.57001 -11.75421,-10.47122 -8.28855,-17.62495 11.72283,-12.60618 28.44502,-19.0366 43.63957,-26.47768 39.33517,-17.8852 82.54974,-27.7136 125.86795,-25.67228 19.53234,-0.3072 38.54806,4.28366 57.62426,7.68089 26.556,1.16459 53.2583,2.30979 79.3588,7.85459 16.6577,2.81898 32.5283,8.71377 48.5259,13.82107 5.2402,6.26758 5.2402,6.26758 8.3114,-12.94091 10.0365,-32.38876 14.5738,-69.72017 -1.4576,-100.97361 -16.532,-32.22042 -52.7903,-48.83458 -87.5334,-51.8949 -6.3189,-0.66956 -12.6724,-0.99881 -19.0263,-1.02515 z"
           style="opacity:0.994;fill:#ffffff;fill-opacity:0.996078;fill-rule:evenodd;stroke:#1a1a1a;stroke-width:3.90828;stroke-linecap:butt;stroke-linejoin:round;stroke-miterlimit:4;stroke-dasharray:none;stroke-dashoffset:0;stroke-opacity:0.996078;paint-order:markers stroke fill" />
      </g>
    </g>
    <g
       inkscape:label="leftArm"
       id="leftArm">
      <path
         inkscape:label="leftArm"
         id="leftArmBody"
         d="m 144.19174,130.05325 c -17.61173,8.57934 -31.95677,24.26356 -37.13643,43.35558 -1.70456,4.49002 -1.80093,9.64545 -3.49325,13.98763 -0.63245,-2.97805 0.97226,-6.40885 1.00434,-9.41278 -3.53688,0.0942 -6.439536,3.29074 -9.449316,4.98305 -21.81772,15.1141 -38.85817,39.23399 -40.14212,66.35509 -1.06543,16.54858 3.68221,32.81482 10.35238,47.78531 2.06766,6.11138 -1.33049,13.13039 1.80405,18.90491 2.77685,2.8767 7.72927,2.9312 11.25232,1.74453 3.50346,-4.64481 9.45881,-5.33324 14.71635,-6.59918 21.515346,-5.22011 41.075846,-17.21974 56.055576,-33.45164 6.31926,-6.07235 11.72262,-13.28337 18.81444,-18.45123 1.96426,-1.13551 4.94585,-0.0951 6.45885,-1.19767 3.472,-6.78237 3.1197,-15.6008 -2.42376,-21.20153 -1.76646,-3.26386 -5.47396,-3.07922 -8.65065,-2.88668 -2.34191,11.51352 -6.3674,23.38083 -15.53589,31.29518 -5.6486,5.42172 -12.20511,10.26703 -19.42274,13.24744 2.51321,-2.83257 6.88509,-4.15031 9.90973,-6.66808 10.32328,-6.71319 18.64964,-16.70245 21.88764,-28.7259 1.55286,-5.6517 2.81318,-11.79644 2.08488,-17.57484 -2.95679,0.62179 -6.42334,2.06688 -9.32821,1.4992 5.5785,-1.57654 11.46788,-2.82181 16.24885,-6.41089 7.77318,-5.2854 14.77487,-12.94903 16.89946,-22.29725 -0.58266,-1.51733 -3.16988,0.3157 -4.39215,0.24221 -2.79943,0.75289 -6.92986,1.20036 -8.7467,-1.31232 2.72529,0.60568 5.53592,1.61463 8.38175,0.48952 3.32634,-0.0409 5.57788,-1.3342 6.534,-4.56325 1.26959,-1.66331 0.60675,1.3712 -0.0637,1.79883 -1.17446,1.44107 -1.25671,4.68259 1.35721,4.12383 0.55204,-0.41491 4.06496,-0.33191 2.08802,0.48025 -2.12263,0.054 -4.7949,-0.0688 -5.19779,2.71006 -1.35639,3.89631 -4.71377,7.04176 -5.7215,10.93826 3.47045,0.50288 7.28451,-1.05696 10.71779,-1.90845 7.05392,-1.71888 11.0638,-8.89083 10.96522,-15.8042 -0.24099,-2.77945 0.30268,-6.28183 -1.19956,-8.60472 -5.31707,-3.75008 -10.58958,-8.03404 -14.60046,-13.13258 5.40972,3.2282 9.09818,9.59809 15.17153,11.91736 2.54245,-0.81601 1.01335,-4.79389 0.97861,-6.7399 -0.92972,-3.94033 -1.23492,-8.36824 -3.28691,-11.85494 -4.88336,-0.53219 -9.59412,-2.36694 -13.57629,-5.34114 -2.11019,-1.80394 -5.73891,-3.68667 -5.71386,-6.74639 4.39193,4.90053 10.06197,9.73582 16.79288,10.81071 3.23598,-0.7627 1.28956,-5.40818 0.62849,-7.49911 -1.61415,-3.29046 -2.80725,-7.52046 -5.97382,-9.54328 -7.60603,-0.35578 -16.52802,-3.10405 -20.10968,-10.33464 1.39849,-0.41982 2.33188,2.4119 3.36796,3.20615 4.08646,3.94795 10.05322,5.78175 15.61628,6.16591 4.13498,-0.45723 2.78948,-5.81327 1.59738,-8.34311 -2.03593,-4.70354 -4.3251,-11.07267 -10.42401,-11.30924 -10.69463,-1.02832 -21.47525,-0.35493 -32.20499,-0.58471 -1.63074,0.81955 -3.26148,1.63909 -4.89222,2.45864 z"
         style="fill:#ffcca9;fill-rule:evenodd;stroke:#000000;stroke-width:2.67173;stroke-linecap:round;stroke-linejoin:round;stroke-miterlimit:4;stroke-dasharray:none;stroke-dashoffset:99.9999;stroke-opacity:1;paint-order:markers stroke fill" />
      <g
         id="fishTattoo-bg"
         inkscape:label="fishTattoo">
        <path
           d="m 109.16066,222.62625 c 0,0.69756 -0.65941,1.26324 -1.47334,1.26392 -0.81394,6.8e-4 -1.47462,-0.56391 -1.4762,-1.26147 -0.002,-0.69757 1.52772,-1.79469 2.34166,-1.79672 0.81393,-0.002 0.60472,1.09181 0.60787,1.78937 m 9.2427,12.79415 c 0.29496,-3.56905 3.71485,-10.94446 0.63194,-12.10719 -1.0914,-0.41163 -3.10913,1.41687 -6.21447,2.43992 m -16.190799,3.40302 c 13.346179,-22.86872 30.302729,-7.47662 16.190799,-3.40302 m -15.790411,3.26787 c 13.018551,-1.71846 15.758661,0.0587 21.372941,6.3994 m -19.932908,-0.60792 c 9.906658,-8.14111 16.326348,-2.40651 16.414808,6.71038 m -16.414808,-6.71038 c 9.454148,-1.88117 13.389398,1.94421 16.414808,6.71038 m -16.092697,-2.34737 c 7.262317,-5.20382 11.968427,-1.53825 12.033277,4.2893 m -12.033277,-4.2893 c 6.930597,-1.20245 9.815427,1.24275 12.033277,4.2893 m -4.20139,3.37033 c -0.58265,-3.23693 -3.84531,-5.16221 -7.751751,-4.86037 5.073961,-2.34625 8.034361,0.48183 7.751751,4.86037 z m -6.924426,1.25087 c 0.533206,-1.02967 0.27432,-3.94427 -0.068,-5.23297 4.347616,-0.12438 5.402556,2.66133 5.426686,3.84086 -0.95515,-1.48559 -3.87523,-1.67328 -5.358686,1.39211 z m -6.731077,1.69634 c 3.490123,1.57193 5.530132,-0.85325 6.275838,-1.20815 -0.377055,0.80029 -2.312053,4.28489 -0.814873,7.62027 1.518874,-3.92006 -1.378582,-9.5443 -5.460965,-6.41212 z"
           style="fill:none;fill-opacity:1;stroke:#030303;stroke-width:1.45545;stroke-linecap:round;stroke-linejoin:round;stroke-miterlimit:4;stroke-dasharray:none;stroke-opacity:1"
           id="leftArm-tattoo-fish-Outline" />
        <path
           id="tattoo-bg"
           style="opacity:0.994;fill:#ff0000;fill-opacity:1;fill-rule:evenodd;stroke:#ff0101;stroke-width:0.700793;stroke-linecap:round;stroke-linejoin:round;stroke-miterlimit:4;stroke-dasharray:none;stroke-dashoffset:0;stroke-opacity:1;paint-order:markers stroke fill"
           transform="scale(0.26458)"
           d="m 444.23079,785.48792 c -7.96469,-0.16856 -15.18474,4.02926 -21.06765,9.04016 -4.51115,3.55376 -8.4201,7.82287 -12.95468,11.33095 -2.12399,0.30931 -4.22217,-0.90529 -6.29244,-1.33563 -10.04801,-3.08613 -20.2776,-6.48252 -30.92353,-6.21315 -9.0328,-0.1682 -17.65197,3.40664 -25.51182,7.53712 -13.70655,7.40814 -24.57657,19.9995 -29.48841,34.82722 -3.15074,9.15471 -4.86729,18.82879 -4.65951,28.52409 -0.17592,7.02821 0.24075,14.06389 1.52813,20.9822 1.49563,8.39894 3.33718,16.80965 6.43004,24.77736 0.67464,1.58539 2.02368,3.38217 3.74803,3.54957 5.8341,-2.61424 10.66245,-7.23621 16.79557,-9.18473 2.58948,0.14044 3.70235,4.43275 1.19547,5.62852 -4.80412,3.71896 -10.37739,6.47717 -14.76085,10.71302 -0.79625,2.25415 1.49921,4.0999 2.50947,5.87872 4.48855,5.93262 9.17507,11.8449 14.88691,16.65299 1.21944,1.23353 3.09887,0.63376 3.85843,-0.77508 1.2421,-1.0793 1.44827,-2.69854 1.99869,-4.11489 2.95302,-2.83592 7.46594,-3.6525 11.39345,-2.97422 2.47807,1.08426 5.53691,2.78227 8.09703,0.93665 2.96447,-1.78965 6.4102,-4.3903 6.0727,-8.28146 -0.12477,-5.36975 0.20593,-10.99718 -1.80142,-16.08103 -0.32354,-1.10564 -1.45875,-1.48881 -2.15874,-2.19496 -0.002,-1.38511 2.01671,-1.40822 2.93199,-1.98771 6.32218,-2.24577 13.98597,-3.02884 19.88748,0.75435 5.06506,3.55645 7.83478,9.8869 7.56955,16.00658 -0.16444,1.16062 0.32947,2.67894 -0.35477,3.66417 -2.03138,-0.0194 -4.09673,-0.4988 -6.1553,-0.49177 -2.35525,-1.04375 -4.21997,-3.54757 -7.08773,-3.21748 -3.40808,-0.34396 -6.62988,1.29349 -8.86802,3.79084 -3.88907,4.09614 -6.97871,9.09649 -8.53105,14.54124 -0.34543,3.04145 1.41661,5.84863 1.43794,8.8932 0.36687,4.64791 0.17601,9.61678 -2.37616,13.6835 -0.86975,1.13118 -0.45862,2.46977 0.50063,3.38656 3.71285,4.38369 7.02201,9.11687 10.8803,13.36845 2.0308,1.48276 4.78097,0.15903 5.75607,-1.93958 6.58764,-11.19256 14.59714,-21.48453 23.4382,-30.98095 15.46164,-16.80734 32.4464,-32.22462 46.89167,-49.9564 11.8471,-14.74682 21.53121,-31.60378 25.82977,-50.15906 1.37601,-6.01171 3.24262,-12.16761 2.56897,-18.38911 -0.9193,-2.05573 -3.41093,-1.09751 -4.90533,-0.32453 -2.8928,1.11491 -5.9632,3.82917 -9.19073,2.19667 -2.38737,-0.38889 -3.34813,-3.93564 -1.29917,-5.32279 4.39639,-4.18362 10.64525,-5.42144 15.647,-8.59217 0.74135,-2.35356 0.23693,-4.98974 -0.0222,-7.41753 -1.9254,-11.29857 -9.82684,-21.46606 -20.47131,-25.83366 -7.20569,-3.15785 -15.09642,-4.91461 -22.9727,-4.89624 z m -18.89155,33.80242 c 7.01916,-0.0794 14.40508,2.39132 18.8158,8.09881 2.6211,3.03933 3.35118,7.24769 2.60021,11.11099 0.0143,1.96539 0.71389,4.66663 3.09373,4.79984 4.0149,1.33198 5.8107,5.97028 5.44509,9.91377 -0.25087,9.20734 -3.0986,18.0749 -5.09551,27.00006 -0.82452,3.34761 -1.56593,6.79564 -2.32973,10.11144 -2.68441,-1.63725 -4.69561,-4.27526 -7.0048,-6.41432 -6.6508,-6.84275 -13.97149,-13.47769 -23.09459,-16.77386 -9.97324,-3.67948 -20.8113,-2.7168 -31.22894,-2.59074 -6.65043,0.0639 -13.23541,1.00292 -19.85072,1.5427 -0.43977,-0.15313 -2.04403,0.44897 -1.88452,-0.32386 4.22578,-7.94414 9.63818,-15.23116 15.45939,-22.07577 9.33048,-10.71919 21.16183,-20.03862 35.19624,-23.44993 3.23927,-0.70433 6.56743,-0.96704 9.87835,-0.94913 z m -59.38638,49.1779 c 1.30139,0.0411 -0.75899,0.47137 -1.11364,0.28565 -1.35164,-0.20071 0.0983,-0.36849 0.62042,-0.2907 0.1644,0.002 0.32889,-0.004 0.49322,0.005 z m 41.12933,3.8641 c 6.40812,-0.18112 12.38499,3.34378 16.75004,7.80328 6.03609,6.15824 8.6733,14.70009 10.23269,22.97592 0.36542,3.27041 0.94309,6.64073 0.47777,9.91234 -0.78626,0.89744 -1.67737,-0.89985 -2.13137,-1.42241 -3.96742,-5.6136 -8.05484,-11.38447 -13.62518,-15.52726 -1.7612,-1.32342 -4.50047,-2.91919 -6.42588,-0.94538 -2.00966,2.31204 0.28789,5.12524 1.74241,7.01985 3.51672,5.29381 5.79969,11.76583 5.01916,18.17257 -0.48141,1.02761 -1.36057,-0.73616 -1.77305,-1.06111 -4.82491,-5.59153 -10.44718,-10.80832 -17.49532,-13.39763 -6.24335,-2.69889 -13.18007,-2.09446 -19.80322,-1.95995 -2.36011,0.005 -4.85971,0.55002 -7.14465,0.26363 0.22198,-1.39543 2.09677,-1.93743 3.08038,-2.77017 6.547,-3.97857 13.84691,-7.52519 21.69652,-7.26777 2.39111,-0.17878 5.9088,0.36604 7.02806,-2.3883 0.73884,-2.54626 -2.16513,-4.21521 -4.33688,-4.35055 -9.3449,-1.82138 -18.89057,-0.51846 -28.23865,0.49652 -1.10091,-0.31231 0.1584,-1.7101 0.71834,-1.9858 8.4119,-6.3117 17.79398,-12.27082 28.46739,-13.49537 1.91752,-0.12668 3.84126,-0.0793 5.76144,-0.0724 z m 2.14328,-34.48523 c -1.765,0.82901 -3.87276,1.91861 -4.65088,3.80965 0.27803,1.86466 3.03448,2.11035 4.28993,0.98838 1.2647,-1.11205 1.07416,-3.18969 0.73319,-4.66306 -0.0841,-0.11624 -0.2358,-0.15463 -0.37224,-0.13497 z m -3.58776,53.30837 c -1.02064,0.19567 -1.0804,2.03795 0.19761,1.98577 1.91084,0.50926 3.48046,1.91467 5.30763,2.49668 0.4265,-0.28909 2.15378,-1.27239 0.9846,-1.65947 -2.11474,-0.99402 -4.20636,-2.29463 -6.48984,-2.82298 z m -54.40306,57.27219 c -0.66283,0.63823 -1.19756,1.66533 -0.11475,2.21954 5.30772,5.21247 10.67383,10.4208 16.4451,15.10973 0.91413,-0.0871 -0.13911,-1.41136 -0.009,-1.95083 -0.90957,-4.78608 -0.34869,-9.68084 0.44921,-14.43214 -0.18093,-1.37261 -1.29893,-2.11966 -2.53033,-1.23393 -4.38236,1.13706 -9.13389,0.81606 -13.39173,-0.68787 -0.28287,0.32517 -0.56575,0.65033 -0.84863,0.9755 z"
           inkscape:label="tattoo-bg" />
        <path
           d="m 424.44762,822.59482 c -8.60007,0.0526 -16.86502,3.36951 -24.02209,7.95744 -9.38087,6.02125 -17.10434,14.28397 -23.7416,23.16568 -1.93976,2.65026 -3.85769,5.3281 -5.54417,8.14766 -0.22302,0.2754 -0.002,0.44172 0.29725,0.29829 10.98649,-1.24043 22.08411,-2.28133 33.13784,-1.34878 7.50024,0.63386 14.98686,2.48177 21.58779,6.17951 6.99593,3.81914 12.80451,9.39532 18.23515,15.14856 0.41081,0.35875 0.76175,0.87239 1.23569,1.12011 0.34458,-0.48538 0.29076,-1.18669 0.49764,-1.74731 1.58989,-6.72596 3.56331,-13.36164 4.92192,-20.14123 0.63545,-3.59175 1.23906,-7.30463 0.58488,-10.93747 -0.28871,-1.63894 -1.22253,-3.44483 -2.97771,-3.84024 -1.7731,0.10887 -3.36792,1.04812 -4.94972,1.78036 -2.4219,1.15886 -4.71978,2.54837 -7.06688,3.84498 -3.00199,1.52465 -6.15568,2.77699 -9.40492,3.66139 -1.18517,0.35089 -2.57373,-0.0669 -3.20187,-1.1756 -0.91131,-1.41313 -0.2175,-3.57122 1.42422,-4.06882 2.87385,-1.05119 5.71449,-2.20003 8.45079,-3.57592 1.97343,-0.92435 3.94118,-1.93913 5.50885,-3.48596 2.47606,-2.17778 4.4513,-5.29853 4.269,-8.70421 -0.20649,-3.65954 -2.76433,-6.73897 -5.72531,-8.67196 -3.97534,-2.59806 -8.81764,-3.61474 -13.51675,-3.60648 z m -13.99986,9.27812 c 2.07452,-0.037 4.03042,1.42273 4.58058,3.42383 0.6415,2.10474 0.36052,4.33931 0.30181,6.50159 -0.0522,3.25825 -2.72344,5.96966 -5.74034,6.8374 -1.32454,0.33035 -2.72864,0.37568 -4.08428,0.25585 -2.25066,-0.44432 -4.46132,-1.60069 -5.69258,-3.60181 -0.93529,-1.35473 -1.27188,-3.03103 -1.08648,-4.65422 0.33937,-2.12436 1.90019,-3.80348 3.47255,-5.15867 2.21643,-1.7912 4.82889,-3.34604 7.72413,-3.59428 0.17468,-0.01 0.34969,-0.0132 0.52461,-0.01 z m -13.0863,65.47421 c -3.54912,-0.0353 -7.03328,0.89912 -10.32437,2.16183 -0.16872,0.1184 -0.57497,0.15316 -0.58037,0.39487 0.78142,0.17622 1.61537,0.1036 2.41642,0.17965 5.82063,0.26954 11.65342,1.56382 16.83577,4.28326 3.07053,1.58047 5.87953,3.63729 8.39985,5.99208 0.24109,0.27072 0.66166,0.249 0.35789,-0.16736 -1.42772,-4.11199 -3.95612,-7.99721 -7.70345,-10.33474 -2.78681,-1.75756 -6.11752,-2.59581 -9.40174,-2.50959 z m -17.18979,23.40291 c -0.3313,-0.002 -0.0319,0.46464 -0.0793,0.64786 0.34279,2.24539 0.48572,4.51445 0.65832,6.77628 0.0521,0.32277 0.39755,-0.0435 0.55371,-0.0874 2.96044,-1.88449 6.58395,-2.8248 10.07588,-2.2572 0.11417,-0.11096 -0.19051,-0.30259 -0.24859,-0.41096 -2.81325,-2.99648 -6.94979,-4.36428 -10.96,-4.66861 z m 24.51101,-45.19523 c -1.72801,-0.0516 -3.44645,0.16485 -5.13746,0.5062 -5.69422,1.10321 -11.02725,3.59655 -15.93571,6.63031 -0.13376,0.0423 -0.40758,0.33736 -0.12676,0.35934 2.21402,-0.0985 4.42989,-0.24697 6.64851,-0.19591 7.51082,0.0694 15.09193,1.42078 21.91422,4.64476 5.92345,2.75689 11.13617,6.8881 15.49365,11.7309 0.90958,0.95688 1.71534,2.00821 2.61872,2.96842 0.1141,0.17116 0.42707,0.0857 0.27358,-0.14289 -1.15218,-6.20717 -3.32673,-12.3586 -7.20137,-17.40775 -2.96275,-3.89172 -7.09438,-6.968 -11.83565,-8.28942 -1.89825,-0.53809 -3.86552,-0.8386 -5.84118,-0.79953 -0.29018,-0.003 -0.58036,-0.004 -0.87055,-0.004 z"
           transform="scale(0.26458)"
           style="opacity:0.994;fill:#0000ff;fill-opacity:1;fill-rule:evenodd;stroke:none;stroke-width:0.330536;stroke-linecap:round;stroke-linejoin:round;stroke-miterlimit:4;stroke-dasharray:none;stroke-dashoffset:0;stroke-opacity:1;paint-order:markers stroke fill"
           id="fish-inner-bg" />
        <path
           d="m 108.34311,213.14394 c 3.74664,-3.13106 5.60564,-6.14074 10.81419,-5.45209 9.16451,1.21168 10.48814,6.99723 10.28351,11.82335 -0.91915,21.67783 -20.86937,28.34174 -27.52268,43.54573 -2.962774,-6.60323 -10.628484,-10.45266 -15.141451,-17.22665 -1.097949,-1.64803 -2.009291,-3.46916 -2.620904,-5.54516 -3.020617,-10.25288 -2.566628,-24.95357 12.03465,-29.00674 2.653161,-0.73649 6.571565,-0.15768 12.152685,1.86156 z M 74.984261,250.4127 c 0.556388,0.25199 0.638317,0.70145 0.668334,1.17252 l 14.799566,-9.45831 c 1.040665,-0.59966 0.333928,-1.5432 -0.27038,-1.39358 m 0,0 -15.19752,9.67937 m 0.668334,1.17252 -0.05862,2.16153 3.802222,-1.84403 1.165271,-3.37013 m -0.767322,-1.2035 c -1.941799,-0.36377 -1.56182,-0.35256 -3.381927,-0.44652 l -4.582313,2.03893 c 1.765039,1.42553 1.518898,1.3136 3.154355,1.4912 m 58.139569,-32.60706 c 0,0 2.80842,-1.4471 1.57996,2.29586 l 3.48244,-6.69489 m -12.13281,8.20937 5.41277,-2.91702 1.65764,-0.89332 m -7.07041,3.81034 c -1.80514,-0.32012 -1.61931,-0.9994 -0.40467,-1.86426 l 5.71341,-2.614 c 4.02421,-1.46708 -1.81491,-1.56422 -1.70619,-2.26215 5.22232,-0.32788 8.64358,-1.48714 8.53026,-1.46896"
           style="fill:none;stroke:#030303;stroke-width:1.45545;stroke-linecap:round;stroke-linejoin:round;stroke-miterlimit:4;stroke-dasharray:none;stroke-opacity:1"
           id="leftArm-tattoo-outline" />
        <path
           id="arrow-bg"
           style="opacity:0.994;fill:#0000ff;fill-opacity:1;fill-rule:evenodd;stroke:#0101ff;stroke-width:0.386492;stroke-linecap:butt;stroke-linejoin:round;stroke-miterlimit:4;stroke-dasharray:none;stroke-dashoffset:0;stroke-opacity:1;paint-order:markers stroke fill"
           d="m 79.264286,250.31813 c -0.152118,-0.0169 -0.34117,0.01 -0.248205,0.15092 -0.377315,0.0333 -0.768467,0.28613 -1.038592,0.53054 -0.03444,0.13097 -0.393159,-0.0845 -0.240885,0.16634 -0.268213,0.0469 -0.663696,0.20966 -0.822736,0.46125 -0.01183,0.0928 -0.270681,0.022 -0.210264,0.19404 -0.189525,-0.0306 -0.306386,0.0465 -0.269508,0.22804 -0.07577,0.0452 -0.202755,0.0181 -0.146357,0.18282 0.0046,0.37999 0.474756,0.31084 0.704355,0.14457 0.184344,-0.0545 0.377451,-0.20921 0.480266,-0.29415 0.178819,0.0934 0.110826,-0.0236 0.10278,-0.0911 0.220678,0.0734 0.541513,-0.10265 0.62356,-0.25123 0.126869,0.0543 0.176578,0.0378 0.134442,-0.0687 0.281935,0.0716 0.714858,-0.0885 0.771292,-0.33582 0.278216,-0.0387 0.259393,-0.47377 0.353693,-0.67743 0.04296,-0.14349 0.03284,-0.37207 -0.193841,-0.3401 z m -1.910053,-2.56621 c -1.410486,0.3281 -2.999162,0.64518 -4.098158,1.32618 -0.08053,0.77468 1.597486,0.42561 2.12562,0.13387 0.736007,-0.40822 2.271207,-0.64189 2.279194,-1.37974 -0.04538,-0.0816 -0.194971,-0.0902 -0.306656,-0.0803 z m 56.556277,-31.20427 c -1.30728,0.57264 -2.58118,1.22173 -3.87109,1.83646 0.007,0.19375 0.007,0.19375 -0.0157,0.34832 1.28062,-0.69383 2.61044,-1.19335 3.84749,-1.9709 0.0835,-0.0223 0.18913,-0.2185 0.0403,-0.21406 z m -3.87109,1.83646 c -1.39864,0.66314 -2.79597,1.32939 -4.1913,2.00002 -0.24349,0.15251 -0.45825,0.35027 -0.66761,0.54928 -0.0233,0.0197 -0.0664,0.0709 -0.0142,0.0852 0.15929,0.062 0.32568,0.1064 0.49206,0.14148 0.0804,-0.0203 0.14891,-0.0809 0.22475,-0.11598 1.37721,-0.77625 2.75662,-1.54826 4.13169,-2.3286 0.0449,-0.0239 0.0184,-0.095 0.0303,-0.13769 4.3e-4,-0.0647 0.009,-0.13193 -0.003,-0.19492 z m 6.56451,-3.68981 c -1.50866,0.30308 -1.54729,0.33876 -3.65893,0.70792 1.23347,0.91381 1.21148,0.86519 2.22421,2.12712 3.09346,-4.70426 0.0167,-1.61859 1.45449,-2.83565 l -0.009,-5.7e-4 z m -57.648252,35.77067 c -0.862057,0.45756 -1.717757,0.96486 -2.480726,1.5742 -0.15253,0.15471 -0.01151,0.50679 0.21762,0.28478 0.710796,-0.29909 1.401128,-0.64381 2.099876,-0.96947 0.04299,-0.28499 0.293575,-0.61196 0.223633,-0.88543 -0.01953,-0.005 -0.04046,-0.007 -0.0604,-0.004 z"
           inkscape:label="arrow-bg" />
      </g>
    </g>
  </g>
</svg>
