<?xml-stylesheet type="text/css" href="/Javascript_30/JS 30 Projects/Custom Video Player/popeyeSVG.css"?>
<svg xmlns:svg="http://www.w3.org/2000/svg" xmlns="http://www.w3.org/2000/svg" width="1260" height="800" viewBox="0 0 443.86 382.51" version="1.1" id="svg8">
  <style id="style2">
    
.s0{
	fill:none;
	stroke-linecap:round;
	stroke-linejoin:round;
	stroke-width:1.46;
	stroke:#030303;
}
.s1{
	fill:#000;
	opacity:0.99;
	paint-order:markers stroke fill;
	stroke-linecap:round;
	stroke-linejoin:round;
	stroke-width:7.29;
	stroke:#000;
}

  </style>
  <defs id="defs2">
    <filter color-interpolation-filters="sRGB" height="1" y="0" width="1" x="0" id="filter988">
      <feGaussianBlur id="feGaussianBlur990" stdDeviation="0.01"/>
    </filter>
    <filter id="dropShadow">
      <feDropShadow 
         dx='9.2' dy='24.4' stdDeviation='4.2'
         flood-color='black' flood-opacity='0.7'/>
    </filter>
  </defs>
  <metadata id="metadata5"/>
  <g transform="translate(185.92163,166.30741)" id="circles">
    <ellipse style="filter:url(#dropShadow)" fill="#2286d9" ry="191.25" rx="190.88" cy="24.95" cx="42.71" id="outerCircle-bg"/>
    <ellipse fill="#faff9d" ry="151.53" rx="155.72" cy="24.3" cx="43.31" id="innerCircle-bg"/>
  </g>
  <g id="popeye" transform="translate(-53.489232,-16.859847)">
    <g id="rightArm">
      <path d="m380.82 94.47c-5.59 0.2-11.95 2.05-14.83 7.26-1.51 4.02-0.74 8.44-1.15 12.64-0.57 1.97 2.27 1.13 3.45 1.65 4.22 0.7 8.55 0.41 12.64-0.82 1.22-0.26 0.9 1.91-0.19 1.8-5.42 1.88-11.24 0.89-16.77 0.21-4.95 0.86-9.91 4.64-10.16 10-0.23 5.03 1.3 9.98 2.74 14.72 4.5-0.43 9.24-1.19 13.13-3.65 0.84-0.48 2.02-2.2 2.98-1.22-0.17 2.13-2.63 3.16-4.32 4.02-4.31 2.03-9.28 1.79-13.62 3.65-3.03 1.74-6.94 4.03-6.94 8.01 0.31 5.36 4.11 9.64 7.27 13.68 0.7 0.47 1.42 2.54 2.39 1.35 4.56-3.34 8.59-7.45 13.35-10.47 1.26 0.72-0.39 2.1-1.03 2.63-4.25 3.96-9.16 7.22-13.1 11.49-2.63 4.03-5.19 9.35-2.92 14.1 2.87 5.21 9.16 7.07 14.68 7.81 4.88 0.5 10.1 0.25 14.58-1.87-0.84-1.98-2.72-3.45-3.85-5.31-1.14-1.32-1.94-3.2-3.26-4.2-3.24-0.26-6.87-0.91-9.22-3.31-0.47-1.19 1.29-1.22 1.86-0.57 1.67 0.74 3.47 1.87 5.3 1.82-0.82-2.62-1.8-5.36-1.57-8.2 0.17-1.9-0.17-4.18 0.97-5.8 1.09-0.42 1.48 0.73 1.13 1.59-0.67 4.04-0.85 8.8 1.83 12.17 0.61 0.83 2.33-0.16 2.22 1.33 0.25 2.46 2.44 4.23 3.8 6.17 3.28 3.93 6.95 7.56 11.11 10.53 0.84 0.8-0.45 1.66-1.19 1-2.24-0.83-3.74-3.08-6.01-3.73-0.72 0.89 0.01 2.46-0.12 3.57 0.72 7.41 1.15 15.27 5.23 21.75 4.23 9.79 10.05 19.2 18.6 25.79 5.95 4.7 12.52 8.59 19.34 11.87 1.47 0.21 3-0.4 4.52-0.1 1.8 0.26 4.05-0.04 5.49 1.21 0.5 1.48-1.69 0.98-2.47 0.87-2.05-0.17-4.42-1.06-6.33-0.03 0.13 2.26 2.32 3.85 3.51 5.64 0.94 0.72 0.27 1.98-0.82 1.43-2.19-1.77-3.99-4.28-4.65-7.04-2.92-2.05-6.32-3.41-9.31-5.39-9.04-5.3-17.57-12.04-23-21.16-1.62-2.55-3.09-5.19-4.55-7.83-2.92 0.11-5.98-0.2-8.82 0.15-3.22 1.89-6.39 4.7-6.77 8.65-0.36 3.59 0.57 7.26 1.91 10.55 1.62 1.14 3.89 0.3 5.75 0.56 1.75-0.31 3.23 0.34 4.61 1.36 17.51 10.32 35.27 21.04 55.16 26.07 8.62 2.11 18.17 2.58 26.29-1.53 2.04-0.78 3.62-2.81 5.81-3.05 1.15 1.07-0.92 2.08-1.59 2.73-0.58 0.3-1.09 1.52-0.01 1.39 5.99-0.18 12.21-0.03 17.92-2.11 2.75-0.95 4.15-4.29 2.84-6.92-1.01-3.04-2.81-5.72-4.61-8.34 3.83-11.23 6.57-23.05 5.87-34.99-0.37-15.15-6.98-29.56-16.39-41.23-7.02-8.89-15.37-16.61-23.58-24.38-0.42-0.57-1.71-1.58-1.81-0.24-0.47 1.54 0.03 3.52-0.95 4.8-1.53 0.44-1.15-1.71-1.02-2.58 0.33-5.54 0.3-11.2-0.88-16.64-2.95-12.59-11.7-23.15-22.38-30.13-13.69-8.94-29.82-13.96-46.09-15.15-0.66-0.03-1.32-0.04-1.98-0.03z" id="rightArmBody" style="fill:#ffcca9;paint-order:markers stroke fill;stroke-dashoffset:100;stroke-linecap:round;stroke-linejoin:round;stroke-width:2.67;stroke:#0f0702"/>
      <path d="m466.24602 210.69328c0 0 10.07838-2.3978 13.50423-7.99229M474.81 214.28c-5.08-33.03-17.61-37.7-22.2-39.2m28.43 43.62c0 2.62-2.12 4.75-4.74 4.75-2.62 0-4.75-2.12-4.75-4.74 0-2.62 2.11-4.75 4.73-4.76 2.62-0.01 4.75 2.11 4.76 4.73M469.6 180.89c-6.97-7.64-9.97-6.1-12.71-3.96-2.73063 2.66682-5.70983 8.01765 0.42272 14.38223" id="rightArm-tattoo" style="fill:none;stroke-dasharray:none;stroke-linecap:round;stroke-linejoin:round;stroke-miterlimit:4;stroke-opacity:1;stroke-width:1.24316;stroke:#000"/>
    </g>
    <g id="shirt">
      <path id="shirt-bg" transform="scale(0.26458)" d="m1221.83 757.61c-3.05-0.15 0.34 3.81 0.31 5.29 5.01 17.97 1.54 37.01-2.24 54.89-5.93 25.53-17.33 49.65-32.01 71.28-18.05 25.54-42.6 47.21-71.49 59.35-29.98-0.28-60.04-0.01-89.97-0.63-36.49-9.98-70.72-27.87-99.61-52.31-38.03-31.03-65.21-72.85-101.9-105.25-9.8-8.03-20.54-15.72-32.7-19.53-11.92 3.41-22.3 10.9-32.55 17.68-2.6 2.39-7.06 4.22-7.82 7.87 5.45 3.29 12.45 3.48 18.28 6.27 36.08 14.46 63.73 42.96 91.65 68.97 29.63 27.65 58 58.29 94.96 76.27 25.93 11.86 53.76 21.1 82.45 22.13 22.07 0.34 44.98-1.09 65.25-10.61 6.53-4.13 13.34-8.81 21.51-7.89 5.69-0.74 11.22 2.02 16.77 1.4 15.13-7.23 28.31-18.14 40.39-29.67 27.5-26.62 51.74-57.55 66.64-93.03 8.02-19.92 12.99-42.85 5.73-63.73-3.8-5.24-11.28-5.75-17.09-7.39-5.47-0.84-11.02-1.44-16.57-1.37zm73.26 37.81c-2.89 0.24-8.32-1.15-7.77 3.64-5.83 24.35-18.69 46.33-32.05 67.24-27.71 41.79-63.88 78.01-105.81 105.49-5.35 7.89-7.16 19.62-17.38 22.92-9.92 2.53-18.11-6.05-24.68-12.24-2.8-3.73-7.74 0.54-11.57 0.6-34.71 8.22-71.35 11.78-106.53 4.43-26.35-6.68-50.34-20.48-72.52-35.87-44.34-31.61-80.47-73.07-124.18-105.44-18.57-13.18-38.8-24.97-61.08-30.38-4.84 0.69-6.57 6.67-9.88 9.69-3.08 4.51-7.4 8.74-9.27 13.81 6.29 7.14 13.24 13.93 17.63 22.56 9.22 16.01 13.74 34.5 13.03 52.96 0.46 5.99-1.12 12.12-0.51 17.98 3.23 0.53 5.79-3.42 8.85-4.33 18.71-8.84 40.36-11.24 60.71-7.94 4.35 1.37 10.8 1.55 13.02 6.15 0.12 4.62-5.54 2.73-8.13 1.77-10.51-3.87-22-2.46-32.96-2.28-5.45 0.9-11.72 1.13-16.43 3.87 9.01 10.72 19.58 20.2 27.31 32.01 27.18 39.58 40.26 86.76 49.63 133.31 13.44 68.7 16.73 138.84 18.29 208.66-0.49 4.73-2.7 17.04 2.92 17.48 39.1 16.48 123.25 30.09 186.23 34.06 24.91 0.64 49.89 0.28 74.77-0.99 53.97-4.86 107.17-18.42 156.5-40.91 4.88-1 7.36-3.91 7.17-8.94 13.03-68.89 29.02-137.57 33.46-207.72 0.72-28.4 1.31-56.89-0.76-85.24-3.23-31.8-8.73-63.5-17.89-94.14-2.09-3.69-7.01-4.43-9.66-7.77-7.76-6.77-14.82-16.07-15.17-26.7 0.23-3.39 4.7-2.88 5.2 0.14 4.03 11.06 10.94 22.85 22.62 26.92 12.36 1.09 24.94 1.59 37.3 1.02-3.51-21.82-2.69-44.81 6.24-65.31 2.67-7 5.6-13.89 8.41-20.83-9.07-15.02-23.99-28.5-42.36-29.19-7.56-0.49-15.14-0.43-22.7-0.49zm-161.58 279.03c10.12-0.53 19.73 8.99 17.31 19.32-2.15 10.51-14.29 13.15-23.28 14.71-7.1 0.64-16.48 3.76-21.69-2.93-3.94-8.17-0.86-18.84 6.7-23.9 5.97-4.51 13.45-7.24 20.96-7.21zm-2.89 122.05c8.67-0.17 16.87 7.04 16.16 16.02-0.64 10.49-12.22 14.05-20.87 15.46-6.64 0.76-15.15 3.63-20.67-1.55-5.63-8.55-0.62-20.36 7.99-24.81 5.19-3.2 11.23-5.39 17.4-5.12zm-1.98 94.81c11.54-1.03 20.05 13.72 13.12 23.05-6.47 7.57-17.41 8.16-26.59 9.64-5.68 0.99-13.69-0.71-14.18-7.68-2.13-9.86 5.08-18.96 13.95-22.38 4.28-1.89 9.04-2.65 13.7-2.63zm86.7-540.16c-0.77 0.01-1.67 0.15-2.45 0.18-0.61-0.17-1.25-0.12-1.83 0.13-31.59 1.4-73.59 13.22-128.93 44.99l-26.11 0.84c-2.19 0.07-3.41 2.55-2.16 4.33 0.35 0.49 0.68 1.72 0.8 3.39 0.12 1.67 0.1 3.7 0.35 5.77 0.25 2.08 0.78 4.37 2.54 6.18 1.76 1.81 4.52 2.65 7.82 2.44 18.08-1.14 32.82 3.36 42.25 21.33 9.08 17.31 12.61 48.33 6.84 98.59-23.27-23.1-66.36-48.5-103.4-53.22-23.44-2.99-42.32-15.93-50.88-30.33-4.28-7.2-5.99-14.68-4.71-21.54 1.28-6.86 5.47-13.28 13.8-18.56 1.12-0.71 1.57-2.11 1.09-3.34l-10.25-25.82c-0.4-1.01-1.36-1.68-2.44-1.73-6.79-0.28-14.1 0.4-20.85 0.28-6.74-0.12-12.77-1.08-17.1-4.07-40.8-28.2-82.22-33.02-119.49-21.05-2.92 0.94-5.62 2.61-8.48 3.75-0.16-0.05 0.16 0.05 0 0 0 0-1.85 0.85-3.93 1.56-0.02 0.07-0.04 0.13-0.06 0.2-16.83 7.28-32.6 17.71-47.05 31.06-0.69 0.27-1.24 0.81-1.53 1.49-3.83 3.62-7.73 7.13-11.35 11.11-0.77 0.27-1.39 0.87-1.68 1.64-7.01 7.86-13.55 16.43-19.68 25.52-10.5-8.26-20.06-12.36-28.56-12.45-9.18-0.09-16.97 3.97-23.33 9.77-12.73 11.59-20.59 30.23-26.13 40.39-0.69 1.27-0.28 2.86 0.94 3.64 34.55 21.78 45.49 65.12 25.84 100.38-0.81 1.44-0.17 3.27 1.37 3.89 12.6 5.1 31.17 7.38 47.92 2.51 16.42-4.77 30.91-17.1 34.77-39.78 3.81-3.08 7.63-6.22 11.07-8.7 3.19-2.29 5.82-3.62 7.81-4.31 31.65 23.37 56.03 66.22 72.56 129.24 16.74 63.81 25.49 147.98 26.17 252.37 0.01 1.1 0.67 2.08 1.68 2.51 105.8 45.01 271.73 77.21 434.49 0 0.01 0 0.02 0 0.03-0.01 0.03-0.01 0.05-0.03 0.08-0.04 0.06-0.03 0.11-0.05 0.16-0.08 0.03-0.01 0.05-0.03 0.08-0.04 0.02-0.01 0.05-0.03 0.07-0.04 0.05-0.03 0.1-0.07 0.16-0.11 0.05-0.03 0.1-0.07 0.14-0.11 0 0 0 0 0.01 0 0.07-0.06 0.13-0.12 0.19-0.18 0.04-0.04 0.09-0.09 0.13-0.14 0.02-0.02 0.03-0.04 0.05-0.06 0.02-0.03 0.04-0.05 0.06-0.08 0.03-0.05 0.07-0.09 0.1-0.14 0.02-0.03 0.03-0.05 0.05-0.08 0.01-0.01 0.02-0.03 0.02-0.04 0.04-0.06 0.07-0.13 0.1-0.2 0.03-0.08 0.07-0.16 0.1-0.24 0 0 0 0 0.01-0.01 0.02-0.05 0.04-0.11 0.05-0.16 0 0 0 0 0-0.01 0.02-0.08 0.04-0.16 0.06-0.24 0.01-0.04 0.02-0.07 0.02-0.11 0 0 0 0 0-0.01 23.31-125.96 58.79-248.87 16.42-397.02l36.17 1.33c0.03 0.13 0.03 0.24 0.07 0.38 0 0 0.01 0.01 0.01 0.02 3.09 15.38 10.63 25.89 19.99 32.25 9.36 6.36 20.4 8.61 30.56 8.09 10.16-0.52 19.5-3.73 25.75-8.81 3.12-2.54 5.51-5.6 6.59-9.12 1.09-3.52 0.74-7.48-1.23-11.18-7.12-13.42-10.73-30.37-8.35-45.09 2.38-14.72 10.37-27.14 27.12-32.89 4.46-1.53 7.7-4.15 9.38-7.51 1.68-3.36 1.71-7.25 0.6-11.01-2.23-7.53-8.83-15.05-18.16-20.68-18.13-10.94-47.19-14.04-75.29 8.58-10.69-17.18-22.68-25.59-35.06-29.04-12.46-3.47-25.01-2.41-37.12-2.17-1.62-4.74-5.15-10.83-12.1-17.28-5.02-4.66-12.26-8.91-20.61-12.64-0.66-0.98-1.87-1.43-3-1.11-4.1-1.65-7.78-3.54-12.69-4.68-8.27-1.92-17.72-3-28.43-2.83zm-3.82 5.79c1.84 1.12 3.67 3.45 5 7.52 1.46 4.46 2.28 10.6 2.29 17.87 0.01 14.55-3.24 33.66-10.33 53.79-13.76 39.01-42.09 81.61-88.56 104.12 5.9-50.95 2.61-82.94-7.42-102.06-10.39-19.8-28.18-25.47-47.46-24.26-2.32 0.15-3.06-0.31-3.52-0.78-0.46-0.47-0.85-1.45-1.03-3-0.19-1.55-0.17-3.52-0.32-5.53-0.05-0.63-0.46-1.27-0.56-1.92l23.36-0.75c0.45-0.02 0.89-0.14 1.28-0.37 55.29-31.84 96.67-43.31 127.27-44.62zm7.45 0.07c8.65 0.12 16.77 0.74 23.56 2.32 4.92 1.14 8.6 2.99 12.62 4.66 6.39 16.07 5.5 34.68-0.52 54.11-6.22 20.05-17.72 40.82-31.41 59.9-13.69 19.08-29.55 36.5-44.38 49.96-14.61 13.26-28.27 22.56-37.4 25.93-10.55-3.06-18.17-3.14-23.98-1.28-5.88 1.87-9.83 5.35-13.63 8.23-51.46 18.17-100.33 9.5-148.41-13.15-35.39-16.67-70.16-53.4-105.16-86.58-33.12-31.4-66.6-59.53-102.35-63.96 13.6-11.95 28.37-21.04 43.87-27.48 35.26 12.77 60.15 47.01 92.62 83.42 33.17 37.19 74.48 76.19 143.55 94.58 0.23 0.06 0.47 0.09 0.71 0.1h88.07c0.03 0 0.05 0 0.08-0.01 0.02 0 0.04 0 0.06 0 0.01 0 0.02 0 0.02 0 0.03 0 0.05 0 0.08-0.01 0.02 0 0.04 0 0.06-0.01 0.04 0 0.08-0.01 0.12-0.02 0 0 0.01 0 0.02 0 0.01 0 0.03 0 0.04-0.01 0.02 0 0.05-0.01 0.07-0.02 0.03 0 0.05-0.01 0.08-0.02 0.02 0 0.03-0.01 0.05-0.02 0.01 0 0.02 0 0.03-0.01 0.06-0.02 0.12-0.03 0.18-0.05 0.03-0.01 0.05-0.02 0.08-0.03 0.03-0.01 0.06-0.03 0.1-0.04 0.02-0.01 0.04-0.02 0.06-0.03 0.03-0.01 0.06-0.03 0.09-0.04 0.03-0.02 0.06-0.03 0.1-0.05 0 0 0.01 0 0.02-0.01 0.05-0.02 0.09-0.05 0.13-0.07 0.01 0 0.02-0.01 0.02-0.02 50.69-22.71 80.93-68.17 95.46-109.38 7.29-20.65 10.66-40.25 10.65-55.62 0-7.68-0.85-14.31-2.57-19.58-0.72-2.19-1.7-4.02-2.78-5.74zm-389.64 2.66c27.99-2.31 57.54 5.31 87.26 25.85 5.8 4.01 12.96 4.92 20.13 5.05 6.57 0.12 13.12-0.37 18.99-0.27l8.87 22.35c-8.03 5.73-13.06 12.82-14.51 20.58-1.57 8.43 0.58 17.26 5.39 25.36 9.62 16.19 29.88 29.78 54.91 32.98 34.56 4.41 76.59 28.94 99.11 50.68h-80.41c-67.54-18.06-107.68-55.96-140.56-92.83-30.75-34.48-55.19-68.03-89.82-82.81 1.1-0.39 2.12-1.07 3.23-1.42 8.94-2.87 18.09-4.74 27.42-5.51zm432.24 6.69c5.98 3.09 10.96 6.55 14.76 10.08 2.05 1.91 3.17 3.67 4.64 5.51 0.06 0.42 0.22 0.83 0.47 1.18 0.93 1.34 1.59 4.46 1.14 9.01-0.44 4.55-1.86 10.42-4.23 17.21-4.74 13.58-13.28 30.83-25.19 49.39-23.11 35.98-59.1 76.65-104.38 105.96 0.02-0.34 0.19-0.81 0.19-1.12 0-2.45-1.26-4.51-2.81-6.08 10.16-4.41 22.65-13 36.37-25.46 15.13-13.74 31.21-31.4 45.15-50.83 13.94-19.43 25.73-40.61 32.2-61.47 5.75-18.57 6.9-36.86 1.69-53.37zm26.31 27.03c0.39 1.11 1.45 1.85 2.63 1.83 12.94-0.16 25.54-1.34 37.31 1.94 11.5 3.2 22.43 10.62 32.78 27.94-9.13 23.39-22.46 44.37-14.26 87.25l-38.15-1.4c-3.66-0.96-8.81-4.45-13.18-9.48-4.41-5.08-8.09-11.61-9.46-18.13-0.32-1.48-1.77-2.43-3.26-2.12-1.49 0.31-2.44 1.77-2.13 3.26 1.63 7.71 5.76 14.92 10.7 20.6 4.42 5.09 9.44 8.68 14.39 10.43 42.95 147.25 7.82 269.16-15.69 395.74-159.77 75.28-322.63 44.15-427.22 0.03-0.78-103.76-9.49-187.74-26.3-251.83-16.17-61.65-39.91-104.88-71.46-129.8 20.08-5.47 39.19-7.32 56.48-0.23 1.4 0.58 3.01-0.09 3.59-1.5 0.58-1.4-0.09-3.01-1.5-3.59-20.44-8.38-42.66-5.43-65.12 1.31-0.01 0-0.02 0-0.02 0-0.05 0.02-0.11 0.03-0.16 0.04-0.4 0.12-0.77 0.33-1.07 0.62-3.11 0.99-6.22 2.69-9.63 5.15-2.05 1.47-4.22 3.28-6.35 4.98 5.17-26.43 1.02-48.82-6.45-65.41-7.42-16.48-16.95-26.58-23.56-31.37 5.94-8.83 12.27-17.17 19.02-24.8 42.29 9.81 77.6 40.49 114.27 74.2 37.16 34.16 75.73 71.25 124.91 91.54 37.05 15.28 82.57 13.67 136.82-0.38 4.47 4.66 8.6 8.58 12.39 11.07 4.17 2.73 8.23 4.18 12.23 3.6 1.35-0.2 2.55-0.93 3.77-1.56 0.1-0.05 0.21-0.07 0.31-0.13 2.28-1.26 4.43-2.97 6.27-5.52 0.97-1.34 1.77-3.93 2.68-5.62 0.06-0.11 0.14-0.19 0.2-0.3 0.12-0.23 0.17-0.47 0.28-0.7 1.48-2.89 3.01-5.38 4.42-9.28 47.83-30.01 85.36-72.56 109.44-110.07 12.1-18.85 20.82-36.39 25.76-50.54 2.37-6.8 3.76-12.7 4.33-17.78zM742.94 802c34.84 2.27 69.14 30.5 103.53 63.1 34.84 33.03 69.65 70.17 106.59 87.57 47.73 22.48 97.16 31.43 148.81 14.45-0.08 0.51-0.53 0.87-0.53 1.41 0 2.28 1.34 4.35 2.61 6.45-53.39 13.77-97.52 15.11-132.88 0.53-47.93-19.77-86.06-56.29-123.29-90.5-35.81-32.91-70.9-63.56-113.48-74.57 2.8-2.97 5.72-5.7 8.63-8.44zm662.12 7.35c12.31-0.8 23.32 2.6 31.74 7.68 8.42 5.08 14.09 11.98 15.73 17.53 0.82 2.78 0.7 5.1-0.25 7-0.95 1.9-2.8 3.59-6.25 4.78-18.6 6.39-28.14 20.99-30.76 37.21-2.62 16.22 1.28 34.13 8.92 48.54 1.37 2.58 1.5 4.78 0.82 6.98-0.68 2.2-2.3 4.44-4.8 6.47-5 4.07-13.41 7.11-22.56 7.57-9.15 0.47-19-1.57-27.19-7.14-8.19-5.56-14.85-14.61-17.7-28.8 0-0.03-0.01-0.05-0.01-0.07-10.59-46.15 3.36-65.1 13.21-90.58 13.47-11.44 26.92-16.39 39.09-17.18zm-727.21 19.98c7.55 0.08 16.59 3.52 27.48 12.7 0 0 0.01 0 0.02 0.01 0.05 0.05 0.11 0.09 0.17 0.13 0.02 0.01 0.03 0.03 0.04 0.04 0.05 0.03 0.09 0.06 0.14 0.09 4.65 2.8 15.91 13.82 23.63 30.98 7.72 17.16 12.29 40.53 4.92 69.01-0.02 0.09-0.04 0.18-0.05 0.27 0 0.01 0 0.02-0.01 0.02-3.2 21.67-15.98 32.12-31.22 36.54-14.2 4.13-30.17 2.24-41.52-1.71 18.24-36.34 7.04-79.83-27.1-102.85 5.71-10.79 13.16-27.1 23.92-36.9 5.68-5.17 12.03-8.4 19.58-8.33zm447.27 128.14c3.92 0 9.03 0.33 12.82 1.44 1.89 0.56 3.42 1.32 4.31 2.11 0.89 0.79 1.23 1.42 1.23 2.55 0 2.87-1.88 9.96-4.75 15.72-1.3 2.6-2.81 4.82-4.28 6.55-1.11 1.12-2.21 2.03-3.27 2.45-0.33 0.12-0.86 0.69-1.11 0.69-1.15 0-3.54-0.75-6.14-2.2-2.6-1.45-5.47-3.53-8.08-5.84-2.61-2.31-4.97-4.84-6.61-7.15-1.64-2.3-2.41-4.42-2.41-5.27 0-1.6 1.44-3.42 3.42-5.18 1.39-1.05 2.95-1.87 4.39-2.73 3.52-1.72 7.58-3.14 10.48-3.14zm4.47 117.46c-3.02 0.36-6.09 1.22-9.05 2.54-6.23 2.79-10.53 6.07-13.13 10.03-2.61 3.96-3.35 8.49-2.89 13.11 0.26 2.6 1.22 4.89 2.95 6.44 1.73 1.55 3.95 2.21 6.28 2.43 4.67 0.43 10.31-0.69 17.23-1.96 8.35-1.54 13.82-4.29 16.97-8.15 3.16-3.86 3.56-8.67 2.38-12.89-1.66-5.92-6.44-9.71-11.97-11.07-2.77-0.68-5.74-0.83-8.76-0.47zm0.64 5.48c2.44-0.29 4.77-0.18 6.81 0.32 4.07 1 6.88 3.25 7.99 7.22 0.84 3.02 0.63 5.53-1.33 7.92-1.96 2.39-6.1 4.82-13.72 6.22-6.91 1.27-12.45 2.2-15.72 1.9-1.64-0.15-2.58-0.56-3.12-1.05-0.55-0.49-0.98-1.21-1.14-2.89-0.37-3.74 0.17-6.74 2.01-9.54 1.84-2.8 5.17-5.52 10.79-8.03 2.46-1.1 5-1.79 7.44-2.07zm-3.61 116.5c-2.8 0.33-5.65 1.12-8.39 2.35-5.75 2.57-9.75 5.61-12.17 9.3-2.43 3.69-3.11 7.92-2.69 12.2 0.24 2.42 1.15 4.6 2.78 6.06 1.64 1.47 3.73 2.08 5.91 2.28 4.35 0.4 9.54-0.63 15.89-1.8 7.71-1.42 12.79-3.96 15.74-7.57 2.95-3.6 3.32-8.12 2.22-12.05-1.54-5.52-6.02-9.07-11.16-10.33-2.57-0.63-5.33-0.77-8.13-0.44zm0.64 5.48c2.22-0.26 4.34-0.16 6.18 0.3 3.68 0.91 6.18 2.91 7.18 6.47 0.76 2.72 0.56 4.94-1.19 7.09-1.75 2.14-5.51 4.36-12.48 5.64-6.35 1.17-11.44 2.01-14.39 1.73-1.47-0.14-2.29-0.49-2.75-0.9-0.46-0.41-0.82-1.01-0.97-2.51-0.34-3.41 0.15-6.1 1.81-8.63 1.66-2.53 4.67-5 9.82-7.3 2.24-1 4.57-1.63 6.78-1.89zm-3.06 89.23c-2.8 0.33-5.64 1.12-8.38 2.35-5.75 2.57-9.75 5.62-12.17 9.31-2.43 3.69-3.11 7.91-2.69 12.2 0.24 2.42 1.14 4.6 2.78 6.06 1.63 1.47 3.73 2.09 5.91 2.29 4.35 0.4 9.54-0.64 15.9-1.81 7.71-1.42 12.78-3.96 15.73-7.57 2.95-3.6 3.33-8.12 2.23-12.05-1.54-5.52-6.02-9.08-11.17-10.34-2.57-0.63-5.33-0.77-8.13-0.44zm0.64 5.48c2.22-0.26 4.34-0.16 6.18 0.3 3.68 0.91 6.18 2.91 7.18 6.47 0.76 2.72 0.57 4.94-1.18 7.09-1.75 2.14-5.51 4.36-12.48 5.64-6.35 1.17-11.45 2.02-14.39 1.74-1.47-0.14-2.28-0.5-2.74-0.91-0.46-0.41-0.83-1.01-0.98-2.51-0.34-3.41 0.15-6.1 1.81-8.63 1.66-2.53 4.68-5 9.83-7.3 2.24-1 4.56-1.63 6.78-1.89z" style="fill:#000;opacity:0.99;paint-order:markers stroke fill;stroke-linecap:round;stroke-linejoin:round;stroke-width:10.3;stroke:#000"/>
      <path id="cape" transform="scale(0.26458)" d="m1263.95 769.14c-2.16 1.01 0.5 4.69 0.19 6.55 4.51 29.03-7.11 57.73-21.17 82.53-19.76 33.54-45.61 63.75-76.55 87.45-5.5 4.68-12.48 7.4-17.86 12.1-0.93 1.87 0.82 6.9 3.32 4.26 44.81-30.24 82.02-71.29 109.52-117.71 9.4-16.84 18.5-34.66 20.86-54.04 0.37-10.26-9.57-16.84-17.56-21.12l-0.23-0.02zm-519.44 33.42c-3.21 1.01-6.64 3.88-7.75 7.02 6.73 4.29 15.12 5.55 22.23 9.3 42.17 19.36 74.7 53.44 108.9 83.81 32.98 29.78 67.78 59.64 110.22 74.85 38.28 13.1 79.8 7.76 118.37-1.17 4.16-0.54 8.16-1.52 4.76-6.14-1.43-3.93-6.28 0.23-9.05 0.06-15.69 4.79-32.13 5.76-48.43 5.26-24.9 0.88-49.29-5.99-72.43-14.58-27.54-10.11-51.97-27.02-73.5-46.73-32.18-28.32-60.89-60.65-95.47-86.18-17.16-12.26-36.49-23.4-57.85-25.5zm461.68-44.61c-24.88 1.52-48.91 9.57-71.83 18.98-17.38 7.59-34.33 16.15-50.84 25.46-7.12 0.43-14.65-0.21-21.54 1.08-0.09 5.65 6.15 7.15 10.59 7.81 14.1 2.2 27.29 9.13 36.62 20 11.02 11.1 15.71 27.15 14.62 42.54-0.31 19.58 0.59 39.36-2.44 58.76 0.15 1.52-2.75 6.67 0.69 5.69 25.92-12.37 47.17-33.25 63.14-56.9 16.99-25.69 28.7-55.24 32.32-85.9 0.07-10.76 1.81-22.1-2.02-32.4-1.45-4.28-4.47-6.41-9-5.13zm-369.2 2c-11.3 0.31-23.09 1.23-33.53 5.82-2.38 2.34 2.83 3.92 4.28 4.82 33.73 4.47 42.88 52.02 66.2 77.73 27.34 31.32 67.22 55.28 104.75 74.09 15.89 7.99 32.6 14.97 49.87 19.06 24.87-0.12 49.81 0.93 74.64-0.22-6.1-5.42-13.37-9.9-19.81-15.1-15.89-12.63-34.91-20.39-54.37-25.63-17.45-4.93-35.34-9.05-51.29-18.01-12.72-6.65-25.22-16.63-29.94-30.66-3.73-12.67 1.66-25.84 9.58-35.71 3.8-3.25 3.79-7.09 1.47-11.26-1.67-4.74-3.58-9.4-5.54-14.02-13.03-0.6-27.65 2.07-38.9-6.27-22.83-15.16-49.66-25.49-77.41-24.64z" style="fill:#a00;opacity:0.99;paint-order:markers stroke fill;stroke-linecap:round;stroke-linejoin:round;stroke-width:10.3;stroke:#000"/>
      <path id="sleeves" transform="scale(0.26458)" d="m677.26 830.37c-16.74-0.21-26.13 16.39-33.98 28.76-2.37 5-6.98 10.12-6.75 15.74 9.78 7.13 19.51 14.78 25.64 25.52 9.6 13.85 13.29 30.93 11.37 47.57 0.27 10.44-5.2 19.91-7.4 29.66 8.6 3.85 19.01 3.66 28.36 2.59 18.27-2.11 34.96-15.57 38.46-34.03 7.67-29.42 5.36-62.95-13.26-87.98-9.33-12.33-21.87-23.65-37.1-27.58-1.78-0.21-3.57-0.25-5.36-0.25zm730.91-20.38c-15.27 0.87-31.44 6.49-41.62 18.27-12.38 23.84-20.88 51.39-15.23 78.37 2.13 18.48 11.5 39.17 31.04 44.25 14.09 3.45 32.41 1.72 41.31-11.12 2.43-7.89-4.94-14.88-6.15-22.49-7.55-22.31-4.06-51.14 16.57-65.34 5.38-4.87 15.13-5.19 18.13-12.31 0.03-11.99-11.93-19.72-21.4-24.74-7.03-3.43-14.81-5.25-22.65-4.9z" style="fill:#fff;opacity:0.99;paint-order:markers stroke fill;stroke-linecap:round;stroke-linejoin:round;stroke-width:14.57;stroke:#000"/>
      <path id="shirt-buttons" transform="scale(0.26458)" d="m1125.58 1297.78c-8.03 1.38-19.45 6.77-18.6 16.39 2.21 6.66 11.11 2.33 15.97 2.04 6.27-1.01 16.99-3.86 14.5-12.37-1.76-4.7-7.29-6.32-11.87-6.05zm3.56-94.87c-8.93 0.57-20.71 7.12-19.73 17.34 1.94 4.87 9.12 1.72 13.06 1.86 6.81-1.23 18.35-3.11 17.66-12.23-1.13-4.75-6.44-7.23-10.99-6.97zm2.73-122.01c-9.95 0.88-23.43 8.19-20.82 20.04 2.83 5.32 10.65 1.33 15.29 1.23 7.03-1.48 19.24-3.58 18.31-13.19-0.94-5.8-7.54-8.36-12.78-8.08zm-4.8-122.53c-7.24 0.19-17.08 3.08-19.33 10.69 3.82 8.64 12.25 15.17 20.75 19.05 4.51 0.72 7.27-5.74 9.42-9 1.94-5.36 6.98-12.59 2.92-17.94-3.9-2.74-9.2-2.57-13.76-2.79z" style="fill:#ff0;opacity:0.99;paint-order:markers stroke fill;stroke-linecap:round;stroke-linejoin:round;stroke-width:14.57;stroke:#000"/>
    </g>
    <g id="leftArm">
      <path d="m144.19 130.05c-17.61 8.58-31.96 24.26-37.14 43.36-1.7 4.49-1.8 9.65-3.49 13.99-0.63-2.98 0.97-6.41 1-9.41-3.54 0.09-6.44 3.29-9.45 4.98-21.82 15.11-38.86 39.23-40.14 66.36-1.07 16.55 3.68 32.81 10.35 47.79 2.07 6.11-1.33 13.13 1.8 18.9 2.78 2.88 7.73 2.93 11.25 1.74 3.5-4.64 9.46-5.33 14.72-6.6 21.52-5.22 41.08-17.22 56.06-33.45 6.32-6.07 11.72-13.28 18.81-18.45 1.96-1.14 4.95-0.1 6.46-1.2 3.47-6.78 3.12-15.6-2.42-21.2-1.77-3.26-5.47-3.08-8.65-2.89-2.34 11.51-6.37 23.38-15.54 31.3-5.65 5.42-12.21 10.27-19.42 13.25 2.51-2.83 6.89-4.15 9.91-6.67 10.32-6.71 18.65-16.7 21.89-28.73 1.55-5.65 2.81-11.8 2.08-17.57-2.96 0.62-6.42 2.07-9.33 1.5 5.58-1.58 11.47-2.82 16.25-6.41 7.77-5.29 14.77-12.95 16.9-22.3-0.58-1.52-3.17 0.32-4.39 0.24-2.8 0.75-6.93 1.2-8.75-1.31 2.73 0.61 5.54 1.61 8.38 0.49 3.33-0.04 5.58-1.33 6.53-4.56 1.27-1.66 0.61 1.37-0.06 1.8-1.17 1.44-1.26 4.68 1.36 4.12 0.55-0.41 4.06-0.33 2.09 0.48-2.12 0.05-4.79-0.07-5.2 2.71-1.36 3.9-4.71 7.04-5.72 10.94 3.47 0.5 7.28-1.06 10.72-1.91 7.05-1.72 11.06-8.89 10.97-15.8-0.24-2.78 0.3-6.28-1.2-8.6-5.32-3.75-10.59-8.03-14.6-13.13 5.41 3.23 9.1 9.6 15.17 11.92 2.54-0.82 1.01-4.79 0.98-6.74-0.93-3.94-1.23-8.37-3.29-11.85-4.88-0.53-9.59-2.37-13.58-5.34-2.11-1.8-5.74-3.69-5.71-6.75 4.39 4.9 10.06 9.74 16.79 10.81 3.24-0.76 1.29-5.41 0.63-7.5-1.61-3.29-2.81-7.52-5.97-9.54-7.61-0.36-16.53-3.1-20.11-10.33 1.4-0.42 2.33 2.41 3.37 3.21 4.09 3.95 10.05 5.78 15.62 6.17 4.13-0.46 2.79-5.81 1.6-8.34-2.04-4.7-4.33-11.07-10.42-11.31-10.69-1.03-21.48-0.35-32.2-0.58-1.63 0.82-3.26 1.64-4.89 2.46z" id="leftArmBody" style="fill:#ffcca9;paint-order:markers stroke fill;stroke-dashoffset:100;stroke-linecap:round;stroke-linejoin:round;stroke-width:2.67;stroke:#000"/>
      <g id="fishTattoo-bg">
        <path class="s0" id="leftArm-tattoo-fish-Outline" d="m109.16 222.63c0 0.7-0.66 1.26-1.47 1.26-0.81 0-1.47-0.56-1.48-1.26 0-0.7 1.53-1.79 2.34-1.8 0.81 0 0.6 1.09 0.61 1.79m9.24 12.79c0.29-3.57 3.71-10.94 0.63-12.11-1.09-0.41-3.11 1.42-6.21 2.44m-16.19 3.4c13.35-22.87 30.3-7.48 16.19-3.4m-15.79 3.27c13.02-1.72 15.76 0.06 21.37 6.4M98.47 234.8c9.91-8.14 16.33-2.41 16.41 6.71M98.47 234.8c9.45-1.88 13.39 1.94 16.41 6.71m-16.09-2.35c7.26-5.2 11.97-1.54 12.03 4.29m-12.03-4.29c6.93-1.2 9.82 1.24 12.03 4.29m-4.2 3.37c-0.58-3.24-3.85-5.16-7.75-4.86 5.07-2.35 8.03 0.48 7.75 4.86zm-6.92 1.25c0.53-1.03 0.27-3.94-0.07-5.23 4.35-0.12 5.4 2.66 5.43 3.84-0.96-1.49-3.88-1.67-5.36 1.39zm-6.73 1.7c3.49 1.57 5.53-0.85 6.28-1.21-0.38 0.8-2.31 4.28-0.81 7.62 1.52-3.92-1.38-9.54-5.46-6.41z"/>
        <path d="m444.23 785.49c-7.96-0.17-15.18 4.03-21.07 9.04-4.51 3.55-8.42 7.82-12.95 11.33-2.12 0.31-4.22-0.91-6.29-1.34-10.05-3.09-20.28-6.48-30.92-6.21-9.03-0.17-17.65 3.41-25.51 7.54-13.71 7.41-24.58 20-29.49 34.83-3.15 9.15-4.87 18.83-4.66 28.52-0.18 7.03 0.24 14.06 1.53 20.98 1.5 8.4 3.34 16.81 6.43 24.78 0.67 1.59 2.02 3.38 3.75 3.55 5.83-2.61 10.66-7.24 16.8-9.18 2.59 0.14 3.7 4.43 1.2 5.63-4.8 3.72-10.38 6.48-14.76 10.71-0.8 2.25 1.5 4.1 2.51 5.88 4.49 5.93 9.18 11.84 14.89 16.65 1.22 1.23 3.1 0.63 3.86-0.78 1.24-1.08 1.45-2.7 2-4.11 2.95-2.84 7.47-3.65 11.39-2.97 2.48 1.08 5.54 2.78 8.1 0.94 2.96-1.79 6.41-4.39 6.07-8.28-0.12-5.37 0.21-11-1.8-16.08-0.32-1.11-1.46-1.49-2.16-2.19 0-1.39 2.02-1.41 2.93-1.99 6.32-2.25 13.99-3.03 19.89 0.75 5.07 3.56 7.83 9.89 7.57 16.01-0.16 1.16 0.33 2.68-0.35 3.66-2.03-0.02-4.1-0.5-6.16-0.49-2.36-1.04-4.22-3.55-7.09-3.22-3.41-0.34-6.63 1.29-8.87 3.79-3.89 4.1-6.98 9.1-8.53 14.54-0.35 3.04 1.42 5.85 1.44 8.89 0.37 4.65 0.18 9.62-2.38 13.68-0.87 1.13-0.46 2.47 0.5 3.39 3.71 4.38 7.02 9.12 10.88 13.37 2.03 1.48 4.78 0.16 5.76-1.94 6.59-11.19 14.6-21.48 23.44-30.98 15.46-16.81 32.45-32.22 46.89-49.96 11.85-14.75 21.53-31.6 25.83-50.16 1.38-6.01 3.24-12.17 2.57-18.39-0.92-2.06-3.41-1.1-4.91-0.32-2.89 1.11-5.96 3.83-9.19 2.2-2.39-0.39-3.35-3.94-1.3-5.32 4.4-4.18 10.65-5.42 15.65-8.59 0.74-2.35 0.24-4.99-0.02-7.42-1.93-11.3-9.83-21.47-20.47-25.83-7.21-3.16-15.1-4.91-22.97-4.9zm-18.89 33.8c7.02-0.08 14.41 2.39 18.82 8.1 2.62 3.04 3.35 7.25 2.6 11.11 0.01 1.97 0.71 4.67 3.09 4.8 4.01 1.33 5.81 5.97 5.45 9.91-0.25 9.21-3.1 18.07-5.1 27-0.82 3.35-1.57 6.8-2.33 10.11-2.68-1.64-4.7-4.28-7-6.41-6.65-6.84-13.97-13.48-23.09-16.77-9.97-3.68-20.81-2.72-31.23-2.59-6.65 0.06-13.24 1-19.85 1.54-0.44-0.15-2.04 0.45-1.88-0.32 4.23-7.94 9.64-15.23 15.46-22.08 9.33-10.72 21.16-20.04 35.2-23.45 3.24-0.7 6.57-0.97 9.88-0.95zm-59.39 49.18c1.3 0.04-0.76 0.47-1.11 0.29-1.35-0.2 0.1-0.37 0.62-0.29 0.16 0 0.33 0 0.49 0.01zm41.13 3.86c6.41-0.18 12.38 3.34 16.75 7.8 6.04 6.16 8.67 14.7 10.23 22.98 0.37 3.27 0.94 6.64 0.48 9.91-0.79 0.9-1.68-0.9-2.13-1.42-3.97-5.61-8.05-11.38-13.63-15.53-1.76-1.32-4.5-2.92-6.43-0.95-2.01 2.31 0.29 5.13 1.74 7.02 3.52 5.29 5.8 11.77 5.02 18.17-0.48 1.03-1.36-0.74-1.77-1.06-4.82-5.59-10.45-10.81-17.5-13.4-6.24-2.7-13.18-2.09-19.8-1.96-2.36 0.01-4.86 0.55-7.14 0.26 0.22-1.4 2.1-1.94 3.08-2.77 6.55-3.98 13.85-7.53 21.7-7.27 2.39-0.18 5.91 0.37 7.03-2.39 0.74-2.55-2.17-4.22-4.34-4.35-9.34-1.82-18.89-0.52-28.24 0.5-1.1-0.31 0.16-1.71 0.72-1.99 8.41-6.31 17.79-12.27 28.47-13.5 1.92-0.13 3.84-0.08 5.76-0.07zm2.14-34.49c-1.76 0.83-3.87 1.92-4.65 3.81 0.28 1.86 3.03 2.11 4.29 0.99 1.26-1.11 1.07-3.19 0.73-4.66-0.08-0.12-0.24-0.15-0.37-0.13zm-3.59 53.31c-1.02 0.2-1.08 2.04 0.2 1.99 1.91 0.51 3.48 1.91 5.31 2.5 0.43-0.29 2.15-1.27 0.98-1.66-2.11-0.99-4.21-2.29-6.49-2.82zm-54.4 57.27c-0.66 0.64-1.2 1.67-0.11 2.22 5.31 5.21 10.67 10.42 16.45 15.11 0.91-0.09-0.14-1.41-0.01-1.95-0.91-4.79-0.35-9.68 0.45-14.43-0.18-1.37-1.3-2.12-2.53-1.23-4.38 1.14-9.13 0.82-13.39-0.69-0.28 0.33-0.57 0.65-0.85 0.98z" transform="scale(0.26458)" id="tattoo-bg" style="fill:#f00;opacity:0.99;paint-order:markers stroke fill;stroke-linecap:round;stroke-linejoin:round;stroke-width:0.7;stroke:#ff0101"/>
        <path id="fish-inner-bg" transform="scale(0.26458)" d="m424.45 822.59c-8.6 0.05-16.87 3.37-24.02 7.96-9.38 6.02-17.1 14.28-23.74 23.17-1.94 2.65-3.86 5.33-5.54 8.15-0.22 0.28 0 0.44 0.3 0.3 10.99-1.24 22.08-2.28 33.14-1.35 7.5 0.63 14.99 2.48 21.59 6.18 7 3.82 12.8 9.4 18.24 15.15 0.41 0.36 0.76 0.87 1.24 1.12 0.34-0.49 0.29-1.19 0.5-1.75 1.59-6.73 3.56-13.36 4.92-20.14 0.64-3.59 1.24-7.3 0.58-10.94-0.29-1.64-1.22-3.44-2.98-3.84-1.77 0.11-3.37 1.05-4.95 1.78-2.42 1.16-4.72 2.55-7.07 3.84-3 1.52-6.16 2.78-9.4 3.66-1.19 0.35-2.57-0.07-3.2-1.18-0.91-1.41-0.22-3.57 1.42-4.07 2.87-1.05 5.71-2.2 8.45-3.58 1.97-0.92 3.94-1.94 5.51-3.49 2.48-2.18 4.45-5.3 4.27-8.7-0.21-3.66-2.76-6.74-5.73-8.67-3.98-2.6-8.82-3.61-13.52-3.61zm-14 9.28c2.07-0.04 4.03 1.42 4.58 3.42 0.64 2.1 0.36 4.34 0.3 6.5-0.05 3.26-2.72 5.97-5.74 6.84-1.32 0.33-2.73 0.38-4.08 0.26-2.25-0.44-4.46-1.6-5.69-3.6-0.94-1.35-1.27-3.03-1.09-4.65 0.34-2.12 1.9-3.8 3.47-5.16 2.22-1.79 4.83-3.35 7.72-3.59 0.17-0.01 0.35-0.01 0.52-0.01zm-13.09 65.47c-3.55-0.04-7.03 0.9-10.32 2.16-0.17 0.12-0.57 0.15-0.58 0.39 0.78 0.18 1.62 0.1 2.42 0.18 5.82 0.27 11.65 1.56 16.84 4.28 3.07 1.58 5.88 3.64 8.4 5.99 0.24 0.27 0.66 0.25 0.36-0.17-1.43-4.11-3.96-8-7.7-10.33-2.79-1.76-6.12-2.6-9.4-2.51zm-17.19 23.4c-0.33 0-0.03 0.46-0.08 0.65 0.34 2.25 0.49 4.51 0.66 6.78 0.05 0.32 0.4-0.04 0.55-0.09 2.96-1.88 6.58-2.82 10.08-2.26 0.11-0.11-0.19-0.3-0.25-0.41-2.81-3-6.95-4.36-10.96-4.67zm24.51-45.2c-1.73-0.05-3.45 0.16-5.14 0.51-5.69 1.1-11.03 3.6-15.94 6.63-0.13 0.04-0.41 0.34-0.13 0.36 2.21-0.1 4.43-0.25 6.65-0.2 7.51 0.07 15.09 1.42 21.91 4.64 5.92 2.76 11.14 6.89 15.49 11.73 0.91 0.96 1.72 2.01 2.62 2.97 0.11 0.17 0.43 0.09 0.27-0.14-1.15-6.21-3.33-12.36-7.2-17.41-2.96-3.89-7.09-6.97-11.84-8.29-1.9-0.54-3.87-0.84-5.84-0.8-0.29 0-0.58 0-0.87 0z" style="fill:#00f;opacity:0.99;paint-order:markers stroke fill"/>
        <path class="s0" id="leftArm-tattoo-outline" d="m108.34 213.14c3.75-3.13 5.61-6.14 10.81-5.45 9.16 1.21 10.49 7 10.28 11.82-0.92 21.68-20.87 28.34-27.52 43.55-2.96-6.6-10.63-10.45-15.14-17.23-1.1-1.65-2.01-3.47-2.62-5.55-3.02-10.25-2.57-24.95 12.03-29.01 2.65-0.74 6.57-0.16 12.15 1.86zm-33.36 37.27c0.56 0.25 0.64 0.7 0.67 1.17l14.8-9.46c1.04-0.6 0.33-1.54-0.27-1.39m0 0-15.2 9.68 0.67 1.17-0.06 2.16 3.8-1.84 1.17-3.37-0.77-1.2c-1.94-0.36-1.56-0.35-3.38-0.45l-4.58 2.04c1.77 1.43 1.52 1.31 3.15 1.49m58.14-32.61c0 0 2.81-1.45 1.58 2.3l3.48-6.69m-12.13 8.21 5.41-2.92 1.66-0.89-7.07 3.81c-1.81-0.32-1.62-1-0.4-1.86l5.71-2.61c4.02-1.47-1.81-1.56-1.71-2.26 5.22-0.33 8.64-1.49 8.53-1.47"/>
        <path d="m79.26 250.32c-0.15-0.02-0.34 0.01-0.25 0.15-0.38 0.03-0.77 0.29-1.04 0.53-0.03 0.13-0.39-0.08-0.24 0.17-0.27 0.05-0.66 0.21-0.82 0.46-0.01 0.09-0.27 0.02-0.21 0.19-0.19-0.03-0.31 0.05-0.27 0.23-0.08 0.05-0.2 0.02-0.15 0.18 0 0.38 0.47 0.31 0.7 0.14 0.18-0.05 0.38-0.21 0.48-0.29 0.18 0.09 0.11-0.02 0.1-0.09 0.22 0.07 0.54-0.1 0.62-0.25 0.13 0.05 0.18 0.04 0.13-0.07 0.28 0.07 0.71-0.09 0.77-0.34 0.28-0.04 0.26-0.47 0.35-0.68 0.04-0.14 0.03-0.37-0.19-0.34zm-1.91-2.57c-1.41 0.33-3 0.65-4.1 1.33-0.08 0.77 1.6 0.43 2.13 0.13 0.74-0.41 2.27-0.64 2.28-1.38-0.05-0.08-0.19-0.09-0.31-0.08zm56.56-31.2c-1.31 0.57-2.58 1.22-3.87 1.84 0.01 0.19 0.01 0.19-0.02 0.35 1.28-0.69 2.61-1.19 3.85-1.97 0.08-0.02 0.19-0.22 0.04-0.21zm-3.87 1.84c-1.4 0.66-2.8 1.33-4.19 2-0.24 0.15-0.46 0.35-0.67 0.55-0.02 0.02-0.07 0.07-0.01 0.09 0.16 0.06 0.33 0.11 0.49 0.14 0.08-0.02 0.15-0.08 0.22-0.12 1.38-0.78 2.76-1.55 4.13-2.33 0.04-0.02 0.02-0.09 0.03-0.14 0-0.06 0.01-0.13 0-0.19zm6.56-3.69c-1.51 0.3-1.55 0.34-3.66 0.71 1.23 0.91 1.21 0.87 2.22 2.13 3.09-4.7 0.02-1.62 1.45-2.84zm-57.65 35.77c-0.86 0.46-1.72 0.96-2.48 1.57-0.15 0.15-0.01 0.51 0.22 0.28 0.71-0.3 1.4-0.64 2.1-0.97 0.04-0.28 0.29-0.61 0.22-0.89-0.02 0-0.04-0.01-0.06 0z" id="arrow-bg" style="fill:#00f;opacity:0.99;paint-order:markers stroke fill;stroke-linejoin:round;stroke-width:0.39;stroke:#0101ff"/>
      </g>
    </g>
    <g transform="translate(2.2047694,-0.82678854)" id="headObj">
      <g id="pipe">
        <path id="pipe-inner-bg" transform="scale(0.26458)" d="m1262.87 320.93c-16.55 3.34-30.47 16.61-36.93 31.92-2.66 4.8 4.75 2.1 6.85 1.95 15.94-3.58 27.5-18.13 31.19-33.44-0.09-0.51-0.73-0.46-1.11-0.42zm11.36-1.99c-4.98 3.47-4.57 11.39-8.26 16.18-7.6 14.92-22.2 26.94-39.55 27.17-6.98-1.58-7.61 4.15-5.33 9.23 5.01 11.8 13.66 22.61 24.11 29.79 5.43-3.27 6.6-11.73 12.58-13.88 8.81 1.45 17.97 10.35 12.84 19.66-0.87 5.38-6.77 9.35-6.25 14.79 3.32 4.62 9.23 2.69 12.75-0.59 12.49-8.68 29.91-16.25 32.01-33.3 2.15-21.11-10.81-39.87-21.91-56.63-3.76-4.28-7.13-10.94-12.99-12.43zm-14.5 76.57c-17.68 24.9-52.3886 73.13518-68.1786 99.29518-1.7 4.87 4.6667 10.18637 6.8767 10.80637 8.4-6.83 34.2135-47.75746 40.6835-56.34746 9.07-14.55 18.4984-31.04409 25.9384-46.49409 1.53-3.3-2.81-6.28-5.32-7.26z" style="fill-opacity:1;fill:#a40;opacity:0.99;paint-order:markers stroke fill;stroke-linejoin:round;stroke-opacity:1;stroke-width:3.91;stroke:#1a1a1a"/>
        <path class="s0" id="pipe-outline" d="m322.77 94.97c2.29-6.98 6.75-10.6 13.09-11.29m-6.43 23.93c-7.22-5.82-8.85-11.34-6.66-12.64 8.62 0.75 12.04-6.69 13.09-11.29 2.34-2.98 9.03 8.25 10.92 13.38 2.29 9.91-2.64 11.19-8.45 15.29-2.67 1.97-4.43 0.2-5.3-0.97m1.59-2.33c0 0-12.30341 22.6466-18.23211 26.32908-1.64017 1.01876 0.95496-4.17835-2.30504-3.15835L332.71 103.35c4.39 1.54 2.86 3.65 1.91 5.7z"/>
      </g>
      <g id="head-backgrounds">
        <path transform="scale(0.26458)" id="head" d="m1002.12 335.92c-60.07 1.96-123.27 9.09-174.86 42.48-16.64 12.77-29.83 31.18-30.92 52.71-2.28 33.59-4.38 69.03 8.41 100.93 5.92 12.78 14.49 25.49 26.22 33.31 15.85-0.94 32.48 4.64 45.09 14.17 2.29 2.31-0.36 7.01-3.46 3.56-14.49-5.2-30.35-17.08-46.13-10.45-13.29 6.95-25.22 20.77-20.88 36.76 3.9 25.77 20.7 48.99 44.84 59.36 12.12 7.59 29.06 3.89 36.16-8.71 5.08-7.89 8.07-17.14 10.83-25.76 6.45-2.11 2.12 7.69 1.6 10.74-1.89 7.15-4.57 14.07-8.17 20.54 26.12 33.41 49.33 69.67 65.78 108.85 3.21 13.49 11.35 25.95 13.14 39.54-8.02 9.86-17.89 21.5-14.23 35.39 7.2 18.63 27.59 27.74 45.03 34.64 27.54 8.14 56.83 13.28 80.67 30.49 10.66 6.01 19.28 16.3 30.53 20.68 4.53-10.49 2.34-23.31 3.91-34.65 0.15-20.83 4.25-45.71-11.26-62.4-8.12-5.05-16.48 4.76-22.66 9.12-6.68 6.76-8.09 17.95-14.57 24.28-17.12-10.17-36.98-25.19-57.97-17.01-5.58 0.98-11.1 8.04-16.52 6.04 0.2-7.47 10.96-9.63 16.69-12.05 19.91-6.88 38.04 7.79 56.06 12.96 7.26-11.32 15.34-22.8 27.21-29.87 4.67-4.32-5.81-6.42-8.5-8.14-8.59-4.96-20.84-2.7-27.8-10.14-7.97-17.38-4.11-37.26-5.63-55.76-41.46 0.19-85.58-15.82-109.43-51.37-10.1-15.13-23.37-28.36-31.7-44.54 0.55-5.41 6.82 1.16 8.01 3.27 21.5 27.25 39.56 60.41 73.06 74.7 34.4 14.49 72.71 15.47 109.51 15.52 31.77-0.23 64.29-11.29 85.83-35.45 21.94-23.42 35.25-53.83 43.91-84.36 1.81-9.77-0.81-19.78-3.21-28.88 6.23-4.38 8.1 7 8.83 11.07 1.99 8.62-1.49 17.47-1.44 25.71 19.44 0.54 31.11-17.89 41.87-31.35 16.46-23.7 21.73-54.97 15.04-82.85-8.04-19-18.96-39.93-38.53-48.94-15.88-1.14-32.51 0.55-47.81 4.77 2.33 7.84 10.96 13.12 12.29 21.88 5.57 23.46 2.33 52.15-16.07 69.39-28.75 20.67-67.83 29.15-101.59 16.49-4.01 4.78-2.25 13.44-6.02 19.01-11.34 28.76-28.08 57-54.97 73.64-3.85 2.37-2.74 6.11-0.14 8.44-4.1 11.4-14.41 20.19-23.73 27.64-16.9 10.84-38.63 2.25-50.59-12-13.85-15.09-26.24-32.2-34.68-50.85 0.82-4.86 6.05 1.92 7.01 3.74 15.66 21.32 29.19 48.73 55.89 57.78 17.25 4.03 29.43-13.1 39.04-24.68 3.86-3.74 0.2-8.2-4.4-4.98-16.34 2.12-34.12 3.33-48.43-6.44-31.15-17.56-47.6-51.69-60.3-83.6-5.88-19.02-10.15-38.72-10.91-58.67 13.15 0.59 27-2.25 39.74 0.39 36.83 16.85 75.3 35.59 117.01 32.45 3.65-1.29 15.09 1.71 14.91-2.53-2.51-8.69-7.86-12.69-16.99-10.28-47.62 0.25-89.94-25.02-135.47-34.85-16.14-3.46-33.49 1.08-44.65 13.55-5.77 1.68-1.25-6.24 1.15-7.51 13.78-16.49 37.68-12.65 56.14-8.5 36.81 9.7 71.77 27.35 109.88 31.46 5.59-1.71 22.08 6.34 18.52-3.12-0.9-6.99-4.41-15.3-1.98-21.89 6.37 8 7.65 19.9 13.47 28.7 11.1 22.84 36.65 37.49 62.03 33.57 21.74-3.29 44.52-10.83 60.31-26.72 16.82-21.21 20.03-58.06-3.35-75.88-12.51-7.66-28.05-5.37-41.83-8.02-8.15-0.29-12.24 10.22-19.91 9.28 0.03-5.48 7.9-8.85 11.77-12.23 3.56-1.39 8.03-2.73 6-7.82-3.56-41.01-22.16-82.21-55.28-107.59-14.6 5.02-35.56 10.18-36.37 29.15-0.29 2.65 0 14.55-5.07 9.62-4.58-16.96 7.13-35.71 24.45-39.36 2.88-0.91 13.33-2.75 7.36-6.73-7.85-12.59-40.58-16.66-40.58-16.66-16.23-4.66-33.46-1.78-46.2-4.15zm-49.09 61.4c25.23 2.63 39.06 27.27 53.46 45.16 11.22 13.23 19.22 30.47 34.53 39.48 5.5 3.58 12.2-8.86 15.89-2.49-1.38 9.71-15.9 9.4-22.4 4.81-4.54-2.87-4.25 2.19-5.53 4.55-10.67-2.04-19.89-13.1-31.94-9.72-8.96 0.83-16.26 9.48-25.13 8.88-1.01-6.3 9.06-8.21 13.19-11.03 10.88-6.15 23.35-4.07 34.6-0.55 3.87-1.98-2.97-7.74-3.78-10.39-15.56-21.54-29.78-46.06-53.03-60.18-12.7-6.04-27.79-1.22-36.43 9.45-3.96 2.7-7.71 10.15-12.89 9.4 0.54-10.17 12.02-15.82 19.25-21.47 6.05-3.7 13.04-6.24 20.22-5.91zM866.75 406c5.69 7.23 3.32 19.75 11.69 25.98 2.91 4.15 13.93 3.39 12.41 9.5-9.95 2.78-19.43-7.78-23-16.29-1.73-5.55-6.68-14.33-1.74-19.15l0.33-0.05zm237.83 2.2c6.32 1.28-0.18 9.32-1.53 12.63-7.33 7.15 4.69 11.52 6.93 18.26 6.19 12.56 8.13 29.95-0.62 41.7-9.95 9.47-28.44 6.66-33.05-7.04-4.71-11.5-5.68-27.28-1.66-38.96 6.66-11.66 15.26-25.13 29.93-26.59zm-190.99 38.41c4.48 2.71-3.43 7.56-5.48 9.75-12.71 13.62-36.97 11.05-47.24-3.98 0.63-5.37 8.1 0.61 10.63 1.59 8.73 6.91 21.45 8.06 29.75-0.24 3.87-2.56 7.61-6.37 12.35-7.12zm32.11 37.89c5.49 4.18 3.56 13.75 9.67 18.2 3.47 5.43 13.19 5.63 14.75 11.89-6.03 3.98-14.15-2.93-18.84-6.88-4.52-6.04-9.81-14.92-7.21-22.5 0.41-0.45 0.99-0.79 1.62-0.72zm-88.65 117.4c6.96 1.06 16.65-0.14 21.41 5.71-0.01 5.09-8.61 0.14-11.65 1.03-6.38 0.98-21.29-6.73-18.03 4.75-0.68 8.82 7.18 14.25 10.75 20.95-4.39 5.29-10.59-4.04-12.86-7.67-2.58-3.49-3.2-15.33-9.72-10.94-1.95 3.31-8.85 0.93-4.73-2.65 4.96-8.67 15.43-11.58 24.83-11.18z" style="fill:#ffcca9;opacity:0.99;paint-order:markers stroke fill;stroke-linecap:round;stroke-linejoin:round;stroke-width:14.43;stroke:#000"/>
        <path class="s1" transform="scale(0.26458)" id="mouth-bg" d="m916.63 556.55c-0.78 1.74 0.62 4.3 0.64 6.28 2.79 17.21 7.36 34.17 14.72 50.01 1.03 2.92 1.92 6.11 5.62 4.65 13.23-1.15 27.05-2.78 39.92 1.39 12.22 3.83 21.79 13.25 29.21 23.3 6.95-1.74 14.31-3.6 21.36-1.29 10.26 2.7 16.35 12.48 19.99 21.77 0.18 1.59 1.25 3.77 2.94 2.04 8.81-7.7 15.05-17.89 21.1-27.8 6.16-10.54 11.43-21.63 15.58-33.09 1.86-3.93-1.52-3.54-4.53-3.29-45.06 1.04-91.37-3.71-132.72-22.79-11.32-5.11-21.78-11.95-31.23-19.97-0.8-0.48-1.62-1.21-2.6-1.21z"/>
        <path transform="scale(0.26458)" id="mouth-toungue-bg" d="m957.34 618.68c-7.4 0.16-14.82 0.84-22.15 1.62 0.23 1.93 1.67 3.63 2.42 5.43 4.74 9.4 10.05 18.55 16.66 26.78 6.64 8.86 14.85 16.5 24.16 22.5 8.05 5.71 17.77 9.48 27.75 9 6.9-0.23 14.01 0.26 20.66-1.98 1.9-0.51 4.19-0.1 5.53-1.86 5.2-3.53 10.39-7.13 15.03-11.39-2.4-8.57-6.48-17.34-13.97-22.58-6.55-4.53-15.15-4.78-22.54-2.36-1.81 0.29-3.65 1.86-5.49 1.18-1.99-2.38-3.57-5.13-5.72-7.4-7.05-8.3-16.21-15.4-27.11-17.55-5-1.13-10.11-1.57-15.23-1.39z" style="fill:#f00;opacity:0.99;paint-order:markers stroke fill;stroke-linecap:round;stroke-linejoin:round;stroke-width:3.64;stroke:#000"/>
        <path transform="scale(0.26458)" id="mouth-teeth-bg" d="m932.65 548.57c-5.54 0.2-11.13 0.15-16.64 0.66-1.11 0.72 0.8 1.66 1.14 2.32 4.61 4.83 9.64 9.27 15.23 12.95 12.08 8.47 25.79 14.29 39.64 19.16 6.02 2.02 12.06 3.98 18.27 5.32 6.69 1.77 13.46 3.21 20.3 4.27 13.59 2.45 27.36 3.72 41.14 4.51 12.48 0.58 25 0.68 37.47-0.14 0.42-3.16 1.89-6.01 3.15-8.88 0.37-1.96-2.14-2.73-3.21-3.94-2.17-1.61-3.96-3.84-6.23-5.21-2.49 1.28-5.19 2.15-8.03 2.11-9.68 0.09-19.37 0.75-29.05 0.36-16.63-1.03-32.96-5.01-48.66-10.49-10.36-3.53-20.44-7.83-30.48-12.16-7.47-3.41-15-6.71-22.41-10.29-3.86-0.52-7.74-0.68-11.63-0.54z" style="fill:#fff;opacity:0.99;paint-order:markers stroke fill;stroke-linecap:round;stroke-linejoin:round;stroke-width:3.64;stroke:#000"/>
        <path class="s1" transform="scale(0.26458)" id="eye-bg" d="m1095.2 419.83c-3.8 2.85-9.62 13.07-12.07 17.09-2.8 6.84-2.39 14.54-2.14 21.8 0.97 6.49 1.67 14.52 7.77 18.34 4.58 2.12 11.03 1.66 14.63-2.12 5.93-8.06 4.17-19.08 1.11-27.94-2.1-7.12-8.88-11.53-11.2-18.48-0.39-0.91 3.34-8.77 1.9-8.69z"/>
      </g>
      <g id="hat">
        <path class="s0" id="hat-outline" d="m209.63 110.9c-4.37-7.15-9.96-15.72-6.2-25.2 2.33-5.88 11.66-18.52 20.26-20.08 3.91-0.71 10.62-1.97 7.33 5.33m41.99 12.9c-2.24-0.61-29.04-9.35-58.44 10.41-3.02 0.89 1 2.18 2.17 5.63m51.77-10.37c-20.99-1.98-48.42-4.98-58.88 21.39m67.74-20.92c0 3.39-1.94 6.14-4.34 6.14-2.4 0-4.34-2.74-4.35-6.13 0-3.39 1.93-6.14 4.33-6.15 2.4-0.01 4.35 2.73 4.36 6.12m30.87 0.15C331.57 29.65 249.63 33.07 231.02 70.94m46.34 19.01c12.16 4.7 23.95 8.48 26.84 30.5 20.44-12.1 7.6-28.43 3.09-30.61-6.53-3.49-21.37-6.46-34.29-6"/>
        <path d="m1047.79 320.24c-12.03-1.18-10.43-6.91 0.54 19.83 33.83 9.36 28.38 6.81 55.17 18.8 28.53 18.91 41.6 52.17 52.25 83.61-2.02 12.32 13.51-7.74 17.22-10.61 16.53-16.48 20.07-43.12 8.58-63.41-9.12-21.38-31.4-32.18-52.93-36.91-25.09-6.61-54.9-10.36-80.82-11.31zm-82.06-9.07c-55.13 0.01-109.43 14.13-154.72 45.04-6.84 2.91-5.93 31.67 9.4 23.33 104.68-56.98 155.14-40.59 194.46-41.25-0.54-3.43-1.56-13.76 6.76-21.49-16.1-3.95-39.36-5.3-55.9-5.64z" transform="scale(0.26458)" id="cap-bg-grey" style="fill-opacity:1;fill:#1a1a1a;opacity:0.99;paint-order:markers stroke fill;stroke-linejoin:round;stroke-opacity:1;stroke-width:3.87;stroke:#1a1a1a"/>
        <path d="m1031.41 320.23c-12.04 3.04-13.84 18.76-10.89 28.89 1.7 6.72 8.79 12.83 15.76 8.81 7.21-3.54 9.04-13.54 8.37-20.91-0.96-7.03-4.93-16.58-13.24-16.79z" id="cap-bg-gold" transform="scale(0.26458)" style="fill-opacity:1;fill:#ff0;opacity:0.99;paint-order:markers stroke fill;stroke-linejoin:round;stroke-opacity:1;stroke-width:3.91;stroke:#1a1a1a"/>
        <path d="m1060.05 167.44c-59.49 0.4-119.47 24.66-160.36 68.28-10.07 10.23-16.92 22.9-24.82 34.69-3.46 3.54-6.08-2.67-3.91-5.45 2.42-5.23 4.31-14.16-3.7-15.17-22.34-2.67-43.82 8.95-58.86 24.76-17.75 18.04-35 39.1-40 64.55-2.58 24.2 7.92 53.43 21.47 72.94 4.57 2.93 5.9-10.56 7.8-13.23 3.99-8.73 12.15-15.15 15.35-24.12-1-6.57-11.75-10.47-8.29-17.62 11.72-12.61 28.45-19.04 43.64-26.48 39.34-17.89 82.55-27.71 125.87-25.67 19.53-0.31 38.55 4.28 57.62 7.68 26.56 1.16 53.26 2.31 79.36 7.85 16.66 2.82 32.53 8.71 48.53 13.82 5.24 6.27 5.24 6.27 8.31-12.94 10.04-32.39 14.57-69.72-1.46-100.97-16.53-32.22-52.79-48.83-87.53-51.89-6.32-0.67-12.67-1-19.03-1.03z" id="cap-bg-white" transform="scale(0.26458)" style="fill-opacity:1;fill:#fff;opacity:0.99;paint-order:markers stroke fill;stroke-linejoin:round;stroke-opacity:1;stroke-width:3.91;stroke:#1a1a1a"/>
      </g>
    </g>
  </g>
</svg>
