<svg xmlns="http://www.w3.org/2000/svg" xmlns:xlink="http://www.w3.org/1999/xlink" viewBox="0 0 456.9 1097.9">
  <defs>
    <path id="reuse-1" fill="none" stroke="#484646" stroke-width=".3" d="M243.6 526.6c.6.2 1.2.2 1.7.5.5.2-.5-.4.3.2.2.2 1 0 1.1 0h.3c.4-.2.5-.5 1-.4m-5 7.8c.5.6 1 .9 1.7 1m2.4-4.6c-.6 1-.1 1.1-2 1.5m-2.1-3c-.4 0-.8 0-1 .2-1.4.6-1.2 2-.8 2.5m6.1 2.1c1 0 .5-1.1 1.3-1m.7-5c.7 1.2.9 1.3 1.6 1.4"/>
    <path id="reuse-0" fill="#9e9e9e" stroke="#000" stroke-linecap="round" stroke-linejoin="round" stroke-width="1.4" d="M37 124.8c-1.8 1.4.2.3-1.9 1.2-2.1 1-1 .4-3.4.7s-.2.3-2.5-.1-.5.7-2.6-.3c-2-1-.3-.2-2-1.8s-.3-.5-1.4-2.6-.5-.3-.9-2.6-.8.2-.7-2.1c.1-2.3-.5-.9.3-3 .8-2.3.2-.4 1.4-2.4 1.3-2 .4-.6 2.2-2 1.8-1.5.1-.6 2.3-1.5 2-1 .6-.4 3-.5 2.3 0 .2-.8 2.5-.2 2.2.6 0 0 2 1.1 2.1 1.1 1 .2 2.7 1.7 1.7 1.6.2.3 1.4 2.4 1 2.1 1.1 0 1.6 2.2.5 2.3 0 0 0 2.5 0 2.3-.2.9-1 3-.6 2.3.6.4-.9 2.3-1.4 1.8-.3.6-2.1 2z" paint-order="markers stroke fill"/>
  </defs>
  <defs>
    <linearGradient id="a">
      <stop offset="0" stop-color="#fa0"/>
      <stop offset="1" stop-color="#fa0" stop-opacity="0"/>
    </linearGradient>
    <linearGradient id="d" x1="168.6" x2="242" y1="460.6" y2="707.1" gradientUnits="userSpaceOnUse" xlink:href="#a"/>
    <linearGradient id="e" x1="168.6" x2="242" y1="460.6" y2="707.1" gradientTransform="translate(148.3 114)" gradientUnits="userSpaceOnUse" xlink:href="#a"/>
    <linearGradient id="c" x1="442.9" x2="432.5" y1="359.5" y2="376.6" gradientUnits="userSpaceOnUse">
      <stop offset="0" stop-color="#fff"/>
      <stop offset="1" stop-color="#fff" stop-opacity="0"/>
    </linearGradient>
    <filter id="b" width="1.2" height="1.2" x="-.1" y="-.1" color-interpolation-filters="sRGB">
      <feGaussianBlur result="blur" stdDeviation="15.8"/>
      <feComposite in="SourceGraphic" in2="blur" operator="atop" result="composite1"/>
      <feComposite in2="composite1" operator="in" result="composite2"/>
      <feComposite in2="composite2" operator="in" result="composite3"/>
      <feTurbulence baseFrequency="0.151142 0.151142" result="turbulence" seed="14" type="fractalNoise"/>
      <feDisplacementMap in="blur" in2="turbulence" result="map" scale="30" xChannelSelector="R" yChannelSelector="G"/>
      <feColorMatrix result="colormatrix" values="1 0 0 0 0 0 1 0 0 0 0 0 1 0 0 0 0 0 1 -0"/>
      <feComposite in="composite3" in2="colormatrix" operator="atop" result="fbSourceGraphic"/>
      <feColorMatrix in="fbSourceGraphic" result="fbSourceGraphicAlpha" values="0 0 0 -1 0 0 0 0 -1 0 0 0 0 -1 0 0 0 0 1 0"/>
      <feGaussianBlur in="fbSourceGraphic" result="blur" stdDeviation="3.15 17.3396"/>
      <feComposite in="fbSourceGraphic" in2="blur" operator="atop" result="composite1"/>
      <feComposite in2="composite1" operator="in" result="composite2"/>
      <feComposite in2="composite2" operator="in" result="composite3"/>
      <feTurbulence baseFrequency="0.151142 0.151142" result="turbulence" seed="14" type="fractalNoise"/>
      <feDisplacementMap in="blur" in2="turbulence" result="map" scale="30" xChannelSelector="R" yChannelSelector="G"/>
      <feColorMatrix result="colormatrix" values="1 0 0 0 0 0 1 0 0 0 0 0 1 0 0 0 0 0 1 -0"/>
      <feComposite in="composite3" in2="colormatrix" operator="atop" result="fbSourceGraphic"/>
      <feColorMatrix in="fbSourceGraphic" result="fbSourceGraphicAlpha" values="0 0 0 -1 0 0 0 0 -1 0 0 0 0 -1 0 0 0 0 1 0"/>
      <feGaussianBlur in="fbSourceGraphic" result="blur" stdDeviation="3.15 17.3396"/>
      <feComposite in="fbSourceGraphic" in2="blur" operator="atop" result="composite1"/>
      <feComposite in2="composite1" operator="in" result="composite2"/>
      <feComposite in2="composite2" operator="in" result="composite3"/>
      <feTurbulence baseFrequency="0.151142 0.151142" result="turbulence" seed="14" type="fractalNoise"/>
      <feDisplacementMap in="blur" in2="turbulence" result="map" scale="30" xChannelSelector="R" yChannelSelector="G"/>
      <feColorMatrix result="colormatrix" values="1 0 0 0 0 0 1 0 0 0 0 0 1 0 0 0 0 0 1 -0"/>
      <feComposite in="composite3" in2="colormatrix" operator="atop" result="composite4"/>
    </filter>
  </defs>
  <g fill="#f0f" stroke="#ff00ce" stroke-width=".5">
    <path fill="#000" stroke-linecap="round" stroke-linejoin="round" d="M211.2 30.4h451.6v1036.7H211.2z" paint-order="markers stroke fill" transform="matrix(1.0105 0 0 1.0616 -213.2 -32)"/>
    <path fill="navy" stroke-width=".4" d="M234.3 848.2l280.6 171.4 29.8-1.5 3.3-387.8-310.4-111.6z" filter="url(#b)" transform="matrix(1.1639 0 0 1.2184 -227.9 -156.5)"/>
  </g>
  <g fill="#fff" stroke="#535afc" stroke-width=".7">
    <path d="M490.4 476.8C627 535 324 532.8 238 532.6v9.5c438-3.5 260-67.2 229.3-76.3z" transform="matrix(1.0105 0 0 1.0616 -213.2 -32)"/>
    <path d="M512.5 484.8c12.4 5.6 17.8 11.2 21 17.3 9.8 19-11.6 29.2-13.3 30.3-56.4 33.6-220.5 54-282.3 58.5l.5 20.2c435.4-57.4 286-136.7 228.8-145.3a231.2 231.2 0 0145.3 19z" transform="matrix(1.0105 0 0 1.0616 -213.2 -32)"/>
    <path d="M550.5 514.3c21.9 45-252.8 147-313.2 167.8l-.5 54.8c128.4-65 346.8-172.3 317-223.8a61.4 61.4 0 00-18.6-20 164.8 164.8 0 00-68-27.3c21.2 4 39.7 11.7 54.1 21.1 19.2 12.5 22.8 14.2 29.2 27.4z" transform="matrix(1.0105 0 0 1.0616 -213.2 -32)"/>
    <path d="M237.6 928.9l1.5 77.5c98.8-53.7 282-306.5 329.9-414 15.3-34.4 12.7-60 2.5-73.3-14-17.8-58-48-104.3-53.3 36 2.4 87.2 38.8 96.4 49 9.1 9.3 13.4 31.7 9.7 39.5-36.8 78.4-246.7 349.3-335.7 374.6z" transform="matrix(1.0105 0 0 1.0616 -213.2 -32)"/>
    <path d="M467.2 465.8c34.8 5.7 147.2 41 146 109.2l-3.9-.2c-.4-11.7 2.2-45.9-68.9-81.8-5-2.5-12.3-7.7-19.7-11-14.6-6.7-32-12.1-53.5-16.2z" transform="matrix(1.0105 0 0 1.0616 -213.2 -32)"/>
    <path d="M467.2 465.8c37.7 4 101.8 36.6 154.3 63.3l-.4 4.2c-33.2-14.7-84.8-54.5-153.9-67.5z" transform="matrix(1.0105 0 0 1.0616 -213.2 -32)"/>
  </g>
  <g stroke-linecap="round" stroke-linejoin="round" paint-order="markers stroke fill">
    <path fill="#253f53" stroke="#1e3241" stroke-width="2.4" d="M210.4 379a55.8 56.6 0 01-64.4-46.2 55.8 56.6 0 0145.4-65.3 55.8 56.6 0 0164.6 46 55.8 56.6 0 01-45.3 65.5"/>
    <path fill="#d30009" stroke="#d30009" stroke-width="2.8" d="M209 370.1a48 47.5 0 01-55.3-38.8 48 47.5 0 0139-54.9 48 47.5 0 0155.5 38.7 48 47.5 0 01-39 55"/>
    <path fill="#ff0" stroke="#d30009" stroke-width="2.7" d="M206.2 355.3a30.9 32.5 0 01-35.7-26.5 30.9 32.5 0 0125.2-37.6 30.9 32.5 0 0135.7 26.5 30.9 32.5 0 01-25 37.6"/>
    <path fill="#f9f9f9" stroke="#000" stroke-width="1.5" d="M235.8 402.1c-3.8-2.4-3-3.6-3-5-1.1-1.3-.6-2.7-.8-4.1-1.6 0-2.4-2.9-2.2-8.2-1.7 0-2.8-9.3-1-6.7-.3-1.7-.1-3.2 0-4.8-2.5-.1-3.1-5.7-2-6.6-1.7-2-.4-2.9-2.3-5.6-2-2.8-6.8-8.2-4.4-8-1.7-1.6-3.1-1.4-5.2-6.1-2 .4-4 .6-5.3-5.1-1.4.2-3 .6-2.9-3-2.2-.4-6-8.1-6.3-8.7-.3-.6 2.4-1.8 3.2-2.2 0 0 .5 0 0 0-2.6.7-2.8 2-3.3 1.3-.5-.5-1.2-1.8-1.6-2.3-.9-.8 1.5 2.2 1.6 2.6 0 .2-.6.9-3.5.5 1.8.3 2 .3 3.5 0l2 3.7v.2c-2.3-1.7-8 3.3-6.6-5-2.9.4-3.5-2.3-4.3-4.8.5 1.3.4 2.2 1.5 4-2.3-.5-3.8.4-5.5-3.6.3.8 1.7 2 .6 3.8-1.2 1.4-3.4.7-3.7 1.9-1.5 6.5-4.4 4.1-4.8 12-1.5 3.3-2.4-2.5-6.2 3-1.5 3-1.6 2.5-3.3 3a6.6 6.6 0 01-3.6 3.2c-1 1-.8.2-2.6 1.8-2.5 0-4 4.8-5.2 7.6 1-3.1 2-6.3 4.9-8.4 2.5-1.1 2.9-2.7 4-4.2.7-.9.8-1.9 2.8-2.5 0-1 0-2.2.9-2.8.4-1.4 1.3-1.8 2.2-2.2.5-.9 0-2.1 1.5-2.7 0-2.7 0-5.8 3.6-7.6 2.2-1.1 3.3-2 3.9-3.7.8-2.3 1.1-4.4 3.3-5.9-1.5-2.5-2.4-4.7-.2-5.8-2.5.7-2.3-3.5-3.4-5.3-4.7.7-4.3-2.5-5.6-4-7.8 2.8-6.8-.4-9-1-2.1.4-4.3 0-6.4-.5-2 1.5-4.2 1.3-6.4 1.4-1.8 1-2.5 2.8-3.7 3.1-1.4.4-2.6 0-3.9.3-3.3.5-3.7 2.3-5.5 3.4-2.6 2.6-4 .8-6 1-.4-.5.5-2.3 5.5-2.4.7-2 3-2.5 4.4-3.8 3-1 3.9-2.5 5.7-3.8.9-1 1.8-1.8 3.8-1 .4-1.6 1.5-2 2.9-2.2 1.4-.4 3.4-.4 4.8.2 3.4-2.6 5.3-.7 5.7 0 2-.8 4.2-.3 6.5-.1.8.5 1.4 1.2 1.4 2 3.8-1 6.3 0 7.4 1l.6 1.7c3.1-.4 6-.4 5.4 2.6 3-4.4 8-4.3 1.8 1.8.5-.3 1.4-2.3 2.8-3.3.6-.4 1.5.5 2.3-.1-3.9.6-.5-5.7 3-4.7-5.4-.3-.9-4 1.3-5.4-3.6.7-.2-6.6 1-8.2-1.1-5.4 1.2-6.3 2-9.4-.5-1.8.5-1.8 1-2.3-2.7 1.6-.7-4.2-1-6.6-2 .9-1.4-3.5-2.1-5.3-.5-5 .6-4.8 1.3-6-1.1-.4-1-1.8-.8-3.3.8-5.6 2.5-20.3-.5-16.8.1-3.2-1.1-8.5 1.1-8.5-.4-2.4-.3-3.4 1.6-4.7.7-.4-.3-2.3.6-3.9 1-1.8.4-4.2.5-7.6-.7-4.1.7-4.5 1-6 .6-2.7 1.3-5.3 1.4-7.8.2-5.5-.5-15.6.6-16.5 2.3 1.9 3.1 16 .6 23.2v16.9l-1.8 4.7c0 2.9-2.4 3.8-.5 6.2 4 5.3-.1 10.8.4 17-.2 1.3.6 5.6-.3 4.6 0 1.8 0 9.2-.5 7 0 2 .5 5-.7 3.5 2 3.3 2.6 2 3.3 3.5-1-.1-.3 7.5-.4 4.9 0-2.5 1.4 6.2.5 4-.6.5-.8-.5-2 2.7.2 2.3.7 6.5 0 3.8-.5-1.8-.6 0-.8.2-1.3 1.9-.6 2.3 0 6.9 0 1.1-.7 1-1 1.2.7 2.8.2 4 .1 6-1.6 3.7 1.2 4.7-2.8 6.6.3 0 .5-.2.8-.3 4-2.1 3.8.5 4.8 1.3-.8-3.6 2.4-2.1 3.4-1 .1-1.6 2-1.7 3.6-2 .5-1.5 1.9-2.2 3.3-2.9 2.5-3.4 5.1-6.5 9-7-.4 0 .8-4.2.6-2.5-.1.7 5-7.4 3.7-7-1.2.2.9-7 3.1-6.6-4.6-.8 5.6-7.1 8.4-10.6 2.3-1.7 4.4-3.5 6-5.7 7-4.8 10.2-8.4 12-13.8a19 19 0 016.8-10c6.7-5.9 11-13.9 14.4-22.7 1.1 8.1-3.9 17.6-11.7 23.5-2.7 6.6-5 7.9-7.6 11.7-1 4.7-4.2 7.5-6.3 9.5-.4.3 0-1.4-.5-.9.7 3.2-5 6-7.5 8.9-1.5 4.2-3.5 6-5.9 5.9-2.9 7.2-4 5.9-5.6 7.1-7.2 25.7-5 10-7.3 14.3-.3 7.7-6.1 7.7-9.5 11-.4 2.6-1 5-3.4 5-.5 1.7-.4 4-2.3 4.3 2.6-.5 5.3-1 6.7 1.2 4-4 7.6-4.5 10.9-2.1 3.6-2.6 4.6.2 6.6 1 6-3.6 10.6-3 11-1.6 1 .1.8.3 3.4.3.4-1.5 4.6-2 9-3.9 1.6-.6 2.4-2.2 4-3 2.5-1.5-1.2 2.7 7.8-3.2 2-2.6 3.8-.3 5.7-.3 1.2.3 2.4.3 3.6.2 1-3.1 17.9-3.3 15.6-1.5-.7.7 0 .8 3 .2-2.8 2-1.5 4.5-12.2 2.8-.4 2.1-2.7 1.5-4.2 2-1.6.8-2.8-.3-4-1 0 .7-.9.9-2 1-1 .2-1.9.4-2.1-1-2.3.9-2.7 3.6-4.4 3.4-4.5-.4-5.9 3-8.9 4.4-3 1.2-5.9 3.3-9.4 2.3-2.5.5-3.2 1.7-4.1 2.8 1.3 3.7-8.7-1.7-6.6-.3.5 2.8-.5.2-2.5-.5 1.4 1.2 5.2 3-2.1 1.8-3.5.9-6.7 1.3-7.1-1.7-3.5 1-14.6 9.7-10 2l-1.2-.1c-3.6 5.5-9 2.6-9 .7-.6 2.2.1 6-1.8 6.4 2.9-.7 1.8 3 1.8 5.6 2.8-1 2 4.3 3.1 6.5 5 3 7.2 5.3 7.9 11 1 .5 1 1.9 1 3.2 2.2 1.8 2.5 3 3.2 4.7 1 2.3 1.9 4 1.4 7.1 1 1 3.5-.2 4 6.4.4 3 .8 6-.5 8.4 1.7.6 1.8 2.5 1.8 4.4.8 1.4.3 2.7.2 4 1 .4 1.2 1.8 1 4.5.6.6 1 1.4 1 2.7.2 2.3-.4 4-.8 5.8z" opacity=".8"/>
    <g>
      <path fill="url(#c)" stroke="#242d34" stroke-width="2.4" d="M399.9 416a55.8 56.6 0 01-64.4-46.1 55.8 56.6 0 0145.4-65.4 55.8 56.6 0 0164.5 46 55.8 56.6 0 01-45.3 65.5" transform="matrix(1.1099 0 0 1.0512 -317.2 401.2)"/>
      <path fill="#00112b" stroke="#d30009" stroke-width="2.8" d="M398.5 407.1a48 47.5 0 01-55.3-38.8 48 47.5 0 0139-54.8 48 47.5 0 0155.5 38.6 48 47.5 0 01-39 55" transform="matrix(1.1099 0 0 1.0512 -317.2 401.2)"/>
      <path fill="#ffc800" stroke="#d30009" stroke-width="2.7" d="M395.7 392.3a30.9 32.5 0 01-35.7-26.5 30.9 32.5 0 0125.2-37.5 30.9 32.5 0 0135.7 26.4 30.9 32.5 0 01-25 37.6" transform="matrix(1.1099 0 0 1.0512 -317.2 401.2)"/>
      <path fill="#ccc" stroke="#04a" stroke-width=".4" d="M382.7 365.4c-2-.2-4-.8-5-3-2.3.4-4.5 1.6-7-1.4-3.7 3.9-8.5 6.4-17.9 3.6-3.6 4-8.3 5.4-14.1 3.5-2.2 1.3-2.8 2.6-9 .9a10.3 10.3 0 01-8.7.9c-1.7 1.5-1.7 4.4-6.9 3.2-2 1-4 .1-6.1-.5-1.2 1.2-2.4 2.3-5.6 1.3-1.7 2.3-3.2.8-4.8 1.1.8-3.2 2.5-2.6 4-2.9 1.3-1.3 2.7-2.6 5.5-1.3 1.9-1.6 3.6-2 5.8-.4 1.3-1 2.5-2 5.6-1.6 3-1.2 5-4.2 9.3-3.3 2-1.4 5.9-1.7 9.2.4 4.8-3.2 9.6-5.9 15.1-4.2 3.4-3 7.5-4.8 11.9-6.2 2.1-1.1 2.3-.5 2.9-.2-1-1-.5-2.3 0-3.5 2.7-4.4 4-4.3 5-3.6-.8-5.6 2-4.2 4.4-4l-2.4-.2c-.6-1.5-1.3-3 0-5.3-1.1.1-1.6-1.4-2-3-.8-3.5-.4-4 0-5a11.6 11.6 0 01-1.7-9.6c-4.5-3.5-2.4-8.6-3-13.1-7.9-7.1-7.1-21.3-7.2-29.8-3-3.7-2.5-7.8-3.7-11.8 3.5.6 4.2 7.5 5.9 12.2.6 7.3-.7 11 3.3 18.1 1.7 9.5 7.5 9.7 5.3 10-.4.7-.8 1.4-.2 5 .3 1.2 1.8 1.1 2 2 .5 1.8.9 4.4 0 6.5 1.6.2 2.5 2.2 3.1 4.8.3 1 .7 2 0 3 1.4.3 1.5 1.3 2 2.1.3 1 .8 1.6 0 3.9 4.5 0 4.5 2 6.3 3.5-.7-1-.5-2.8 0-4.3.4-1.3 1-1.7 2-2.2-.5-6.1.4-5.8.7-8 1.7-5 3.5-9 5-10.8 2-1.8 4.9-4 6.6-7.9.2-12.4 2.4-14.3 3.8-20.6-3.4-3.6 1.3-6.2 2.3-16.3-.6-9 1-7.8 1.9-9.8-1-8 1.5-9.6 2.5-14.1 2 16.2 1 19.7-1.1 19.3-.4 2.6-.5 6-1.9 5.7 1.4 6.5-1.4 12.7 0 14.7-2.1 5.2-2.1 6.6-1.6 7 .3 1 .8-3.3-.8 6.8-3 3.1-.2 7.7-4.1 10.9 1.7-1.4 1.4 1 .8 4-3.6 6-4.7 6.1-6.4 7.8.5 5.6-.7 9-3 11.1-.2 2.5-.5 3.7-.7 7.1v1.6c.5 1.5 1.2 2.3 1.9 3.7-.6-1.8-2-3-1.8-5.2l.3-3.4c2-.5 5 3.4 4.5 5.2 2.2-1.3 2.5-.1 3.6 0 2.7-4 6-7.7 14.4-7.3 1.3-2.4 2-5 9.7-5.4 2.6-3.8 6.6-6.7 15.2-6.7 1.6-1.4 3-3 7.5-2.3 3.5-4.5 10-7.6 16.4-10.7 2.5-1 4.8-.2 6.8-.9 7.2-1.5 12.8-6.8 18.8-11.4-1 4-8.1 10.8-18.3 13.3-1.5.7-1 1.4-6.3 2.4-4.3 1.8-7.7 7-12.9 8.2-3.9 1-4.1 4.6-7 5.1l-.4.1-4.5.8c-9.4 9.6-11.5 6.5-16.3 8-4.3 4.4-5.9 3.2-8.3 3.8-2.9 5-6 4.9-9.3 5.1-1.2 2.2-6.3 6.9-7.7 4 .6 1.8 3.5 1.2 5.3-1 .1 1 .9 4.4-2.2 3.5.3-.4 1.8-.2 2.2-.4 6.6-1.9 11.5 1.6 17.3.7 2.9-1 8.7-1.1 9.3.8 2.7-2.4 6.9.8 10-.3 6.2-2.1 13.8-1 16.5.8 7-.6 7.9.1 11.1.4 4.7-.6 8.6 1 12.8 1.7 4.4-1.1 7 .7 10.5 1-4.2 2-8.7 2.9-13.6.7-2.2.4-4.4.9-7 .4-1.5.2-3 .4-4.6-.1-4.2.6-7.1.2-9.4-.1-1.4-.2-2.7.4-4.5-.5-3.2.8-6.5 1-9.7.3-3.3-.7-6.8-1-9.8-.7l-2.5-.2c-1.9-.2-4.3 1.1-6 1-2.2.7-2.9 1.6-7.2 1a9.1 9.1 0 01-6 4l-3.5-1.7c-1.6 0-3.2.2-4.9-.3-1.4-.6-2-1.8-2.6-3 .2 1.1.4 2.2 2.5 3.4 2.2.6 3.3.1 5 .2l3.4 1.7c3.8 2.3 1.5 2.5 3.3 4.2 5.2 1.3 6.6 4 7.8 6.5 4.5 2.7 8.7 4.8 12.7 6.7 2.5 2.5 5.3 4.2 8.4 5.2 1.7.5 3.3 1.3 4.2 3.4 4.5-1 11.1 5.3 11.2 6.8 2.6-.6 8 4.2 12 6.4 4.8.4 10.6 5 16 7.6a44.8 44.8 0 01-22.7-8c-.6 1.4-1.7.1-2.6 0-5.4-5.5-10-5.8-18.2-10.9.5.8-3.6.7-4.1-.3-.7-1.1-3.3-5.2-7.7-6-9-1.3-14.3-7.2-13.3-8-1.5.1-3.3 1.6-4.4.2-1.8-2.4-2.9-3-4.2-4.1-5.3.9-5.1-.7-4.2-2.7h-2.2c-1.7.2-3.4.4-2.6-2-1.8 4-6.6 4.6-7.2 3.8-.3-.4-.1-2.2-.4-3.8-.2-1.4 2-3.2 3.3-1.8 0-.3 0-1.7-.5-2.7 1 3.5-.6 1.6-1.4 2-.8.3-1.5 1-1.6 1.5-.1.6.1 1.3.1 1.3-.4-.2-2.4-1-2.7-.8l2.8 1c.2 5 .3 2.6.4 4.1-1.4 5.4-2.8 7-4.1 8 .5 1.1 1.1 2 0 6.8-2 2.8-.8 6-2 8.5-1.8 3.2-1.6 1.8-2.4 2.6.8 6.6-.6 8.1-1.7 10.7-1 2.5-1 5.1-2.5 6.6.2 2 .4 3.8-.3 5.6-.6 3.4-.6 8.6-1.8 10-.5.6-1.1 1-1.2 2.2 2 12 0 21.8 0 32.7-.9-8-4-15.4-2.3-24.2-.3-1.8-.1-3.7 0-5.6-1.8-5.3-.4-8 .7-8-1-5.3-.1-5.3.7-6.7.5-13.6 2.2-10.2 3-12.9-1.3-4.3-.3-6.4.2-9 .5-1.2.6-2.6 1.9-3.2-.7-2 0-2.8 0-4l2.4-9.6c-.4-1.6-.8-3-.5-5v-5-.2c0-1.6.3-1.5.7-2.2.2-.5 1-1.5 1-1.5z" opacity=".9" transform="matrix(1.1099 0 0 1.0512 -317.2 401.2)"/>
    </g>
    <g>
      <path fill="#951c33" stroke="#101c24" stroke-width="2.4" d="M399.9 416a55.8 56.6 0 01-64.4-46.1 55.8 56.6 0 0145.4-65.4 55.8 56.6 0 0164.5 46 55.8 56.6 0 01-45.3 65.5" transform="matrix(.54618 .27089 -.27465 .55375 145.2 455.5)"/>
      <path fill="#d30009" stroke="#d30009" stroke-width="2.8" d="M398.5 407.1a48 47.5 0 01-55.3-38.8 48 47.5 0 0139-54.8 48 47.5 0 0155.5 38.6 48 47.5 0 01-39 55" transform="matrix(.54618 .27089 -.27465 .55375 145.2 455.5)"/>
      <path fill="#ff0" stroke="#d30009" stroke-width="2.7" d="M395.7 392.3a30.9 32.5 0 01-35.7-26.5 30.9 32.5 0 0125.2-37.5 30.9 32.5 0 0135.7 26.4 30.9 32.5 0 01-25 37.6" transform="matrix(.54618 .27089 -.27465 .55375 145.2 455.5)"/>
      <path fill="#ccc" stroke="#000" stroke-width=".4" d="M382.7 365.4c-2-.2-4-.8-5-3-2.3.4-4.5 1.6-7-1.4-3.7 3.9-8.5 6.4-17.9 3.6-3.6 4-8.3 5.4-14.1 3.5-2.2 1.3-2.8 2.6-9 .9a10.3 10.3 0 01-8.7.9c-1.7 1.5-1.7 4.4-6.9 3.2-2 1-4 .1-6.1-.5-1.2 1.2-2.4 2.3-5.6 1.3-1.7 2.3-3.2.8-4.8 1.1.8-3.2 2.5-2.6 4-2.9 1.3-1.3 2.7-2.6 5.5-1.3 1.9-1.6 3.6-2 5.8-.4 1.3-1 2.5-2 5.6-1.6 3-1.2 5-4.2 9.3-3.3 2-1.4 5.9-1.7 9.2.4 4.8-3.2 9.6-5.9 15.1-4.2 3.4-3 7.5-4.8 11.9-6.2 2.1-1.1 2.3-.5 2.9-.2-1-1-.5-2.3 0-3.5 2.7-4.4 4-4.3 5-3.6-.8-5.6 2-4.2 4.4-4l-2.4-.2c-.6-1.5-1.3-3 0-5.3-1.1.1-1.6-1.4-2-3-.8-3.5-.4-4 0-5a11.6 11.6 0 01-1.7-9.6c-4.5-3.5-2.4-8.6-3-13.1-7.9-7.1-7.1-21.3-7.2-29.8-3-3.7-2.5-7.8-3.7-11.8 3.5.6 4.2 7.5 5.9 12.2.6 7.3-.7 11 3.3 18.1 1.7 9.5 7.5 9.7 5.3 10-.4.7-.8 1.4-.2 5 .3 1.2 1.8 1.1 2 2 .5 1.8.9 4.4 0 6.5 1.6.2 2.5 2.2 3.1 4.8.3 1 .7 2 0 3 1.4.3 1.5 1.3 2 2.1.3 1 .8 1.6 0 3.9 4.5 0 4.5 2 6.3 3.5-.7-1-.5-2.8 0-4.3.4-1.3 1-1.7 2-2.2-.5-6.1.4-5.8.7-8 1.7-5 3.5-9 5-10.8 2-1.8 4.9-4 6.6-7.9.2-12.4 2.4-14.3 3.8-20.6-3.4-3.6 1.3-6.2 2.3-16.3-.6-9 1-7.8 1.9-9.8-1-8 1.5-9.6 2.5-14.1 2 16.2 1 19.7-1.1 19.3-.4 2.6-.5 6-1.9 5.7 1.4 6.5-1.4 12.7 0 14.7-2.1 5.2-2.1 6.6-1.6 7 .3 1 .8-3.3-.8 6.8-3 3.1-.2 7.7-4.1 10.9 1.7-1.4 1.4 1 .8 4-3.6 6-4.7 6.1-6.4 7.8.5 5.6-.7 9-3 11.1-.2 2.5-.5 3.7-.7 7.1v1.6c.5 1.5 1.2 2.3 1.9 3.7-.6-1.8-2-3-1.8-5.2l.3-3.4c2-.5 5 3.4 4.5 5.2 2.2-1.3 2.5-.1 3.6 0 2.7-4 6-7.7 14.4-7.3 1.3-2.4 2-5 9.7-5.4 2.6-3.8 6.6-6.7 15.2-6.7 1.6-1.4 3-3 7.5-2.3 3.5-4.5 10-7.6 16.4-10.7 2.5-1 4.8-.2 6.8-.9 7.2-1.5 12.8-6.8 18.8-11.4-1 4-8.1 10.8-18.3 13.3-1.5.7-1 1.4-6.3 2.4-4.3 1.8-7.7 7-12.9 8.2-3.9 1-4.1 4.6-7 5.1l-.4.1-4.5.8c-9.4 9.6-11.5 6.5-16.3 8-4.3 4.4-5.9 3.2-8.3 3.8-2.9 5-6 4.9-9.3 5.1-1.2 2.2-6.3 6.9-7.7 4 .6 1.8 3.5 1.2 5.3-1 .1 1 .9 4.4-2.2 3.5.3-.4 1.8-.2 2.2-.4 6.6-1.9 11.5 1.6 17.3.7 2.9-1 8.7-1.1 9.3.8 2.7-2.4 6.9.8 10-.3 6.2-2.1 13.8-1 16.5.8 7-.6 7.9.1 11.1.4 4.7-.6 8.6 1 12.8 1.7 4.4-1.1 7 .7 10.5 1-4.2 2-8.7 2.9-13.6.7-2.2.4-4.4.9-7 .4-1.5.2-3 .4-4.6-.1-4.2.6-7.1.2-9.4-.1-1.4-.2-2.7.4-4.5-.5-3.2.8-6.5 1-9.7.3-3.3-.7-6.8-1-9.8-.7l-2.5-.2c-1.9-.2-4.3 1.1-6 1-2.2.7-2.9 1.6-7.2 1a9.1 9.1 0 01-6 4l-3.5-1.7c-1.6 0-3.2.2-4.9-.3-1.4-.6-2-1.8-2.6-3 .2 1.1.4 2.2 2.5 3.4 2.2.6 3.3.1 5 .2l3.4 1.7c3.8 2.3 1.5 2.5 3.3 4.2 5.2 1.3 6.6 4 7.8 6.5 4.5 2.7 8.7 4.8 12.7 6.7 2.5 2.5 5.3 4.2 8.4 5.2 1.7.5 3.3 1.3 4.2 3.4 4.5-1 11.1 5.3 11.2 6.8 2.6-.6 8 4.2 12 6.4 4.8.4 10.6 5 16 7.6a44.8 44.8 0 01-22.7-8c-.6 1.4-1.7.1-2.6 0-5.4-5.5-10-5.8-18.2-10.9.5.8-3.6.7-4.1-.3-.7-1.1-3.3-5.2-7.7-6-9-1.3-14.3-7.2-13.3-8-1.5.1-3.3 1.6-4.4.2-1.8-2.4-2.9-3-4.2-4.1-5.3.9-5.1-.7-4.2-2.7h-2.2c-1.7.2-3.4.4-2.6-2-1.8 4-6.6 4.6-7.2 3.8-.3-.4-.1-2.2-.4-3.8-.2-1.4 2-3.2 3.3-1.8 0-.3 0-1.7-.5-2.7 1 3.5-.6 1.6-1.4 2-.8.3-1.5 1-1.6 1.5-.1.6.1 1.3.1 1.3-.4-.2-2.4-1-2.7-.8l2.8 1c.2 5 .3 2.6.4 4.1-1.4 5.4-2.8 7-4.1 8 .5 1.1 1.1 2 0 6.8-2 2.8-.8 6-2 8.5-1.8 3.2-1.6 1.8-2.4 2.6.8 6.6-.6 8.1-1.7 10.7-1 2.5-1 5.1-2.5 6.6.2 2 .4 3.8-.3 5.6-.6 3.4-.6 8.6-1.8 10-.5.6-1.1 1-1.2 2.2 2 12 0 21.8 0 32.7-.9-8-4-15.4-2.3-24.2-.3-1.8-.1-3.7 0-5.6-1.8-5.3-.4-8 .7-8-1-5.3-.1-5.3.7-6.7.5-13.6 2.2-10.2 3-12.9-1.3-4.3-.3-6.4.2-9 .5-1.2.6-2.6 1.9-3.2-.7-2 0-2.8 0-4l2.4-9.6c-.4-1.6-.8-3-.5-5v-5-.2c0-1.6.3-1.5.7-2.2.2-.5 1-1.5 1-1.5z" opacity=".9" transform="matrix(.54618 .27089 -.27465 .55375 145.2 455.5)"/>
    </g>
  </g>
  <use stroke-linecap="round" stroke-linejoin="round" stroke-width="1.4" paint-order="markers stroke fill" transform="matrix(-.12736 .3 -.26614 -.11299 263.1 752.6)" xlink:href="#reuse-0"/>
  <path fill="none" stroke="#484646" stroke-width=".154923" d="M230.7 748.6l-.6.8c-.2.2.2-.2-.2 0-.2.1-.2.5-.2.6v.7m-2.8-4c-.4.1-.6.3-.8.7m1.7 2c-.3-.5-.5-.3-.3-1.3m1.8-.4l.2-.5c0-.8-.8-1-1-.8m-2.3 2.4c-.2.5.4.5.2.9m2.2 1.3c-.7 0-.8.2-1 .5"/>
  <use stroke-linecap="round" stroke-linejoin="round" stroke-width="1.4" paint-order="markers stroke fill" transform="matrix(-.12736 .3 -.26614 -.11299 259.1 761.3)" xlink:href="#reuse-0"/>
  <path fill="none" stroke="#484646" stroke-width=".154923" d="M226.7 757.4l-.6.7c-.2.2.3-.2-.2 0l-.1.7h-.1v.7m-2.7-4c-.4 0-.6.2-.8.6m1.6 2c-.3-.4-.5-.2-.3-1.2m1.9-.4l.1-.6c0-.7-.7-.9-1-.8m-2.3 2.5c-.2.5.4.4.2.8m2.3 1.3c-.8.1-.8.2-1 .5"/>
  <use stroke-linecap="round" stroke-linejoin="round" stroke-width="1.4" paint-order="markers stroke fill" transform="matrix(.72166 .35453 -.31453 .64023 215.4 668)" xlink:href="#reuse-0"/>
  <path fill="none" stroke="#484646" stroke-width=".382212" d="M201.3 747.5c.5.6 1.3.9 1.8 1.5.4.5-.4-.7 0 .4.2.4 1.2.5 1.5.6l.3.1c.5 0 .8-.2 1.4.2m-10.3 6c.3 1 .7 1.6 1.6 2.2m5.2-3.9c-1.2.7-.7 1.2-3.1.6m-.8-4.6c-.4-.1-.8-.4-1.3-.4a2 2 0 00-2.1 2.5m5.7 5.8c1.2.6 1.2-1 2-.4m3.7-5.3c0 1.8.3 2 1 2.4"/>
  <use stroke-linecap="round" stroke-linejoin="round" stroke-width="1.4" paint-order="markers stroke fill" transform="matrix(.45796 .02642 -.02344 .40629 213.2 657.5)" xlink:href="#reuse-0"/>
  <path fill="none" stroke="#484646" stroke-width=".218061" d="M223.4 702.3l1.2.4c.4.2-.3-.2.2.3.1.1.7 0 .8 0 0-.1.2 0 .2 0 .3-.1.4-.4.8-.3m-4 5.5c.3.5.6.7 1.2.8m1.9-3.2c-.5.6-.1.8-1.5 1m-1.4-2.3h-.8c-1 .5-.9 1.5-.6 1.9m4.4 1.8c.7 0 .4-.8 1-.7m.7-3.6c.4 1 .5 1 1 1"/>
  <use stroke-linecap="round" stroke-linejoin="round" stroke-width="1.4" paint-order="markers stroke fill" transform="matrix(-.1665 .3922 -.34795 -.14772 281.8 731.3)" xlink:href="#reuse-0"/>
  <path fill="none" stroke="#484646" stroke-width=".20254199999999997" d="M239.4 726.1l-.7 1c-.3.2.3-.2-.3 0-.2.2-.2.7-.2.8v.2l-.1.7m-3.5-5.2c-.6.1-.9.4-1.1.8m2.2 2.7c-.4-.6-.7-.3-.4-1.6m2.4-.6l.2-.7c0-1-1-1.2-1.4-1m-3 3.2c-.2.6.6.6.4 1m2.9 1.8c-1 .1-1 .2-1.3.6"/>
  <use stroke-linecap="round" stroke-linejoin="round" stroke-width="1.4" paint-order="markers stroke fill" transform="matrix(-.49675 .31933 -.2654 -.47043 273.5 770.7)" xlink:href="#reuse-0"/>
  <use stroke-width=".3" transform="matrix(-.78711 .50599 -.47401 -.84022 672.2 1047.7)" xlink:href="#reuse-1"/>
  <use stroke-linecap="round" stroke-linejoin="round" stroke-width="1.4" paint-order="markers stroke fill" transform="rotate(173.1 115.4 293.2) scale(.11062 .09813)" xlink:href="#reuse-0"/>
  <path fill="none" stroke="#484646" stroke-width=".052581" d="M260.5 560.3h-.3s.1 0 0 0h-.2s0 0 0 0h-.3m.8-1.4a.4.4 0 00-.4-.1m-.3.8c.1-.2 0-.2.3-.3m.5.5h.1c.3-.2.2-.4.1-.5m-1.1-.3c-.2 0 0 .2-.2.2m0 1l-.3-.3"/>
  <use stroke-linecap="round" stroke-linejoin="round" stroke-width="1.4" paint-order="markers stroke fill" transform="matrix(-.20585 .02466 -.02188 -.18262 267.3 575.5)" xlink:href="#reuse-0"/>
  <path fill="none" stroke="#484646" stroke-width=".098553" d="M259.2 556.4l-.6-.1c-.1 0 .2 0 0 0-.1-.1-.4 0-.4 0h-.1l-.4.2m1.4-2.8a.8.8 0 00-.6-.2m-.6 1.5c.2-.3 0-.3.6-.5m.8.9l.3-.1c.5-.3.3-.7.2-.9m-2.1-.4c-.3 0-.1.4-.4.4m0 1.6c-.3-.4-.4-.4-.6-.4"/>
  <use stroke-linecap="round" stroke-linejoin="round" stroke-width="1.4" paint-order="markers stroke fill" transform="matrix(-.12474 -.21221 .19194 -.11177 236.4 578.4)" xlink:href="#reuse-0"/>
  <use stroke-width=".3" transform="matrix(-.19766 -.33626 .34282 -.19963 121.4 747.4)" xlink:href="#reuse-1"/>
  <use stroke-linecap="round" stroke-linejoin="round" stroke-width="1.4" paint-order="markers stroke fill" transform="matrix(-.54313 .07242 -.05772 -.53635 281.3 628.2)" xlink:href="#reuse-0"/>
  <use stroke-width=".3" transform="matrix(-.86061 .11475 -.10309 -.95796 523.8 1048.4)" xlink:href="#reuse-1"/>
  <use stroke-linecap="round" stroke-linejoin="round" stroke-width="1.4" paint-order="markers stroke fill" transform="matrix(-.30445 -.43133 .35491 -.2589 213.6 605.6)" xlink:href="#reuse-0"/>
  <use stroke-width=".3" transform="matrix(-.48241 -.68345 .6339 -.4624 27.3 975.4)" xlink:href="#reuse-1"/>
  <use stroke-linecap="round" stroke-linejoin="round" stroke-width="1.4" paint-order="markers stroke fill" transform="matrix(-.18488 -.45876 .407 -.16402 172.8 621.4)" xlink:href="#reuse-0"/>
  <path fill="none" stroke="#484646" stroke-width=".235119" d="M211.8 590.8l-.2-1.4c0-.4 0 .4.2-.3 0-.2-.3-.7-.5-.8v-.2c-.2-.3-.5-.2-.6-.7m7.2 1.5c.3-.6.3-1 .2-1.6m-4-.4c.8.2.8-.2 1.6 1m-1.5 2.4l.4.8c.9.8 1.8.1 2-.3m-.2-5c-.3-.8-1 0-1.1-.7m-3.8 1c.7-.9.6-1 .5-1.5"/>
  <use stroke-linecap="round" stroke-linejoin="round" stroke-width="1.4" paint-order="markers stroke fill" transform="rotate(173.2 127.9 388.6) scale(.80405 .71332)" xlink:href="#reuse-0"/>
  <path fill="none" stroke="#484646" stroke-width=".382212" d="M269.7 684.9c-.8-.2-1.6 0-2.3-.3-.7-.2.6.3-.4-.3-.3-.3-1.2.2-1.4.3h-.4c-.5.2-.5.6-1.3.6m5.4-10.6c-.8-.8-1.5-1-2.5-1m-2.2 6c.6-1.2-.1-1.3 2.2-2m3.2 3.4c.4-.2 1-.1 1.3-.4a2 2 0 00.5-3.3m-8-1.7c-1.3.1-.5 1.4-1.6 1.5m0 6.4c-1.1-1.5-1.4-1.5-2.2-1.5"/>
  <use stroke-linecap="round" stroke-linejoin="round" stroke-width="1.4" paint-order="markers stroke fill" transform="matrix(-.31421 .74015 -.65664 -.27876 340 665.5)" xlink:href="#reuse-0"/>
  <path fill="none" stroke="#484646" stroke-width=".382233" d="M260 655.8c-.5.5-.8 1.3-1.4 1.8-.5.5.6-.4-.4.1-.4.2-.5 1.2-.5 1.5l-.1.3c0 .5.2.8-.1 1.4m-6.6-10c-1 .4-1.6.8-2 1.7m4 5c-.7-1.1-1.2-.6-.7-3m4.6-1c0-.5.3-.9.3-1.3a2 2 0 00-2.6-2.1m-5.5 6.1c-.5 1.2 1 1.1.5 2m5.5 3.3c-1.8.2-1.9.4-2.3 1.1"/>
  <use stroke-linecap="round" stroke-linejoin="round" stroke-width="1.4" paint-order="markers stroke fill" transform="matrix(-.3885 -.704 .62456 -.34466 161.8 734.8)" xlink:href="#reuse-0"/>
  <path fill="none" stroke="#484646" stroke-width=".382224" d="M218.9 677.7c-.1-.7-.5-1.4-.6-2.2 0-.7 0 .8.2-.4 0-.4-.7-1-.9-1.3l-.1-.3c-.4-.3-.8-.3-1.1-1m12 1c.3-1 .3-1.7-.1-2.6m-6.5.1c1.4.1 1.3-.5 2.9 1.4m-2 4.2c.2.3.4.8.7 1a2 2 0 003.3-.7m-1.4-8.2c-.6-1-1.6.2-2-.8m-6 2.3c1-1.5 1-1.7.6-2.5"/>
  <use stroke-linecap="round" stroke-linejoin="round" stroke-width="1.4" paint-order="markers stroke fill" transform="rotate(173.2 100.5 395.5) scale(.80405 .71332)" xlink:href="#reuse-0"/>
  <path fill="none" stroke="#484646" stroke-width=".382212" d="M215.8 701.9c-.7-.2-1.5 0-2.3-.3-.6-.2.7.3-.3-.3-.3-.3-1.2.2-1.5.3h-.3c-.5.2-.6.6-1.3.6m5.4-10.6c-.8-.8-1.5-1-2.5-1m-2.3 6c.6-1.2 0-1.3 2.3-2m3.1 3.4c.5-.2 1-.1 1.4-.4a2 2 0 00.4-3.3m-8-1.7c-1.3.1-.5 1.4-1.5 1.5m-.1 6.4c-1-1.5-1.3-1.5-2.2-1.5"/>
  <use stroke-linecap="round" stroke-linejoin="round" stroke-width="1.4" paint-order="markers stroke fill" transform="rotate(-77.3 535.6 136.9) scale(.16047 .14236)" xlink:href="#reuse-0"/>
  <path fill="none" stroke="#484646" stroke-width=".076278" d="M300.7 628.5l.3-.4c0-.1-.2 0 0 0 .1-.1 0-.3 0-.4h.1v-.3m1.6 1.7c.2 0 .3-.2.4-.4m-1-.8c.2.2.2 0 .2.6m-.8.3v.3c0 .4.4.4.5.3m.9-1.4c0-.2-.3-.2-.2-.4m-1.2-.4c.4-.1.4-.2.4-.3"/>
  <use stroke-linecap="round" stroke-linejoin="round" stroke-width="1.4" paint-order="markers stroke fill" transform="matrix(.03517 -.15656 .1389 .0312 288 630.2)" xlink:href="#reuse-0"/>
  <path fill="none" stroke="#484646" stroke-width=".076278" d="M304 629.2l.2-.4c.1 0 0 .1.1 0v-.3s0 0 0 0v-.4m1.7 1.7c.2 0 .3-.2.3-.4m-1-.8c.2.2.3 0 .3.6m-.9.3v.3c0 .4.5.4.6.3m.9-1.4c0-.2-.3-.2-.2-.3m-1.2-.5l.4-.3"/>
  <use stroke-linecap="round" stroke-linejoin="round" stroke-width="1.4" paint-order="markers stroke fill" transform="rotate(-77.3 532 145.2) scale(.16047 .14236)" xlink:href="#reuse-0"/>
  <path fill="none" stroke="#484646" stroke-width=".076278" d="M289.8 631.4l.2-.4c.1-.1 0 .1.1 0v-.3-.1-.3m1.7 1.7c.2 0 .3-.2.3-.4m-1-.8c.2.2.3 0 .3.6m-.9.3v.3c0 .4.5.4.6.3m.9-1.4c0-.2-.3-.2-.2-.4m-1.2-.4l.4-.3"/>
  <use stroke-linecap="round" stroke-linejoin="round" stroke-width="1.4" paint-order="markers stroke fill" transform="rotate(-77.3 533 134.2) scale(.16047 .14236)" xlink:href="#reuse-0"/>
  <path fill="none" stroke="#484646" stroke-width=".076278" d="M301.3 623.8l.2-.4c0-.2-.1 0 0 0l.1-.4s0 0 0 0v-.3m1.7 1.7l.3-.4m-1-.8c.2.1.3 0 .3.5m-.9.4v.3c0 .3.4.3.6.3m.8-1.4c0-.3-.2-.2-.1-.4m-1.2-.5c.3 0 .3-.1.4-.3"/>
  <use stroke-linecap="round" stroke-linejoin="round" stroke-width="1.4" paint-order="markers stroke fill" transform="matrix(.03517 -.15656 .1389 .0312 251 696.6)" xlink:href="#reuse-0"/>
  <path fill="none" stroke="#484646" stroke-width=".076278" d="M267 695.6l.3-.4c0-.1-.2.1 0 0v-.3l.1-.1v-.3m1.6 1.7c.2 0 .3-.2.4-.4m-1-.8c.2.2.2 0 .2.6m-.8.3v.3c0 .4.4.4.5.3m.9-1.4c0-.2-.3-.2-.2-.4m-1.2-.4c.4-.1.4-.2.4-.3"/>
  <use stroke-linecap="round" stroke-linejoin="round" stroke-width="1.4" paint-order="markers stroke fill" transform="rotate(-77.3 556.5 191.3) scale(.16047 .14236)" xlink:href="#reuse-0"/>
  <path fill="none" stroke="#484646" stroke-width=".076278" d="M264 691.3s0-.3.2-.4c0 0-.2.1 0 0v-.3h.1v-.4m1.6 1.8l.4-.4m-1-.9c.2.2.2.1.2.6m-.8.4v.2c0 .4.4.4.5.3m.9-1.4c0-.2-.3-.2-.2-.3m-1.2-.5c.4 0 .4-.1.4-.3"/>
  <use stroke-linecap="round" stroke-linejoin="round" stroke-width="1.4" paint-order="markers stroke fill" transform="rotate(-77.3 467.7 164.3) scale(.16047 .14236)" xlink:href="#reuse-0"/>
  <path fill="none" stroke="#484646" stroke-width=".076278" d="M221 583.7c0-.1 0-.3.2-.4 0-.1-.1 0 0 0 .1-.1.1-.3 0-.4h.1v-.3m1.6 1.7c.2 0 .3-.2.4-.4m-1-.8c.2.2.2 0 .2.6m-.8.3v.3c0 .4.4.4.5.3m1-1.4c0-.2-.3-.2-.3-.4m-1.2-.4c.4-.1.4-.2.5-.3"/>
  <use stroke-linecap="round" stroke-linejoin="round" stroke-width="1.4" paint-order="markers stroke fill" transform="rotate(-77.3 470 166.1) scale(.16047 .14236)" xlink:href="#reuse-0"/>
  <path fill="none" stroke="#484646" stroke-width=".076278" d="M221 587.3s0-.3.2-.4c0 0-.1.1 0 0v-.3h.1v-.4m1.6 1.8l.4-.4m-1-.9c.2.2.2.1.2.6m-.8.4v.2c0 .4.4.4.5.3m1-1.4c0-.2-.3-.2-.3-.3m-1.2-.5c.4 0 .4-.1.5-.3"/>
  <use stroke-linecap="round" stroke-linejoin="round" stroke-width="1.4" paint-order="markers stroke fill" transform="matrix(.03517 -.15656 .1389 .0312 190.3 589)" xlink:href="#reuse-0"/>
  <path fill="none" stroke="#484646" stroke-width=".076278" d="M206.4 588l.2-.3c0-.2-.1 0 0 0 .2-.1.1-.3.1-.4 0 0 0 0 0 0v-.3m1.7 1.7c.2-.1.2-.2.3-.4m-1-.8c.2.1.3 0 .3.5m-.9.4v.3c0 .3.4.3.6.3m.8-1.4c.1-.3-.2-.2-.1-.4m-1.2-.5c.3 0 .3-.1.4-.3"/>
  <use stroke-linecap="round" stroke-linejoin="round" stroke-width="1.4" paint-order="markers stroke fill" transform="rotate(-77.3 465.2 179) scale(.16047 .14236)" xlink:href="#reuse-0"/>
  <path fill="none" stroke="#484646" stroke-width=".076278" d="M204.8 592.6c0-.1 0-.3.2-.4 0-.1-.1.1 0 0v-.3l.1-.1v-.3m1.6 1.7c.2 0 .3-.2.4-.4m-1-.8c.2.2.2 0 .2.6m-.8.3v.3c0 .4.4.4.5.3m.9-1.4l-.2-.4m-1.2-.4c.4-.1.4-.2.4-.3"/>
  <use stroke-linecap="round" stroke-linejoin="round" stroke-width="1.4" paint-order="markers stroke fill" transform="rotate(-77.3 466.2 181.6) scale(.16047 .14236)" xlink:href="#reuse-0"/>
  <path fill="none" stroke="#484646" stroke-width=".076278" d="M203 595.7l.1-.4c.1-.1 0 .1.1 0v-.3-.1-.3m1.7 1.7c.2 0 .3-.2.3-.4m-1-.8c.2.2.3 0 .3.6m-.9.3v.3c.1.4.5.4.6.3m.9-1.4c0-.2-.3-.2-.2-.4m-1.2-.4l.4-.3"/>
  <use stroke-linecap="round" stroke-linejoin="round" stroke-width="1.4" paint-order="markers stroke fill" transform="matrix(.03517 -.15656 .1389 .0312 174 607.6)" xlink:href="#reuse-0"/>
  <path fill="none" stroke="#484646" stroke-width=".076278" d="M190 606.6l.2-.4s-.1.1 0 0c.2 0 .1-.3.1-.3s0 0 0 0v-.4m1.7 1.8c.2-.1.2-.2.3-.4m-1-.9c.2.2.3.1.3.6m-.9.4v.2c0 .4.4.4.6.3m.8-1.4c.1-.2-.2-.1-.1-.3m-1.2-.5c.3 0 .3-.1.4-.3"/>
  <use stroke-linecap="round" stroke-linejoin="round" stroke-width="1.4" paint-order="markers stroke fill" transform="rotate(-77.3 469.9 192.7) scale(.16047 .14236)" xlink:href="#reuse-0"/>
  <path fill="none" stroke="#484646" stroke-width=".076278" d="M195 608l.1-.5c.1-.1 0 .1.1 0v-.3-.1-.3m1.7 1.7c.2 0 .3-.2.3-.4m-1-.8c.2.2.3 0 .3.6m-.9.3v.3c0 .4.5.4.6.3m.9-1.4c0-.2-.3-.2-.2-.4m-1.2-.4l.4-.3"/>
  <use stroke-linecap="round" stroke-linejoin="round" stroke-width="1.4" paint-order="markers stroke fill" transform="rotate(-77.3 455.9 204.1) scale(.16047 .14236)" xlink:href="#reuse-0"/>
  <path fill="none" stroke="#484646" stroke-width=".076278" d="M172.9 603.2c0-.2 0-.3.2-.4 0-.1-.1 0 0 0l.1-.4s0 0 0 0v-.3m1.6 1.7l.4-.4m-1-.8c.2.2.3 0 .2.5m-.8.4v.3c0 .3.4.4.6.3m.8-1.4c0-.3-.2-.2-.2-.4m-1.2-.5c.4 0 .4 0 .5-.3"/>
  <use stroke-linecap="round" stroke-linejoin="round" stroke-width="1.4" paint-order="markers stroke fill" transform="rotate(-77.3 464.4 216.1) scale(.16047 .14236)" xlink:href="#reuse-0"/>
  <path fill="none" stroke="#484646" stroke-width=".076278" d="M167.8 620.8l.2-.4s-.1.1 0 0l.1-.3s0 0 0 0v-.4m1.6 1.8l.4-.4m-1-.9c.2.2.3.1.2.6m-.8.4v.2c0 .4.4.4.6.3m.8-1.4c0-.2-.2-.1-.2-.3m-1.2-.5c.4 0 .4-.1.5-.3"/>
  <use stroke-linecap="round" stroke-linejoin="round" stroke-width="1.4" paint-order="markers stroke fill" transform="rotate(-77.3 462.9 213.8) scale(.16047 .14236)" xlink:href="#reuse-0"/>
  <path fill="none" stroke="#484646" stroke-width=".076278" d="M168.9 617.6c0-.2 0-.3.2-.4 0-.2-.1 0 0 0 .1-.1.1-.3 0-.4h.1v-.3m1.6 1.7l.4-.4m-1-.8c.2.1.2 0 .2.5m-.8.4v.3c0 .3.4.3.5.3m1-1.4c0-.3-.3-.2-.3-.4m-1.2-.5c.4 0 .4-.1.5-.3"/>
  <use stroke-linecap="round" stroke-linejoin="round" stroke-width="1.4" paint-order="markers stroke fill" transform="rotate(-77.3 460 214.4) scale(.16047 .14236)" xlink:href="#reuse-0"/>
  <path fill="none" stroke="#484646" stroke-width=".076278" d="M166 615.2c0-.1 0-.3.2-.4 0-.1-.1.1 0 0v-.3l.1-.1v-.3m1.6 1.7c.2 0 .3-.2.4-.4m-1-.8c.2.2.2 0 .2.6m-.8.3v.3c0 .4.4.4.5.3m.9-1.4l-.2-.4m-1.2-.4c.4-.1.4-.2.4-.3"/>
  <use stroke-linecap="round" stroke-linejoin="round" stroke-width="1.4" paint-order="markers stroke fill" transform="rotate(-77.3 453.5 247) scale(.16047 .14236)" xlink:href="#reuse-0"/>
  <path fill="none" stroke="#484646" stroke-width=".076278" d="M129.2 634.3c0-.1 0-.3.2-.4 0-.1-.1 0 0 0 .1-.1 0-.3 0-.4h.1v-.3m1.6 1.7c.2 0 .3-.2.4-.4m-1-.8c.2.2.2 0 .2.6m-.8.3v.3c0 .4.4.4.5.3m.9-1.4l-.2-.4m-1.2-.4c.4-.1.4-.2.4-.3"/>
  <use stroke-linecap="round" stroke-linejoin="round" stroke-width="1.4" paint-order="markers stroke fill" transform="rotate(-77.3 455.3 249) scale(.16047 .14236)" xlink:href="#reuse-0"/>
  <path fill="none" stroke="#484646" stroke-width=".076278" d="M128.6 637.6l.2-.4c.1 0 0 .1.1 0v-.3s0 0 0 0v-.4m1.7 1.8c.2-.1.3-.2.3-.4m-1-.9c.2.2.3.1.3.6m-.8.4v.2c0 .4.4.4.5.3m.9-1.4c0-.2-.3-.1-.2-.3m-1.2-.5c.3 0 .4-.1.4-.3"/>
  <use stroke-linecap="round" stroke-linejoin="round" stroke-width="1.4" paint-order="markers stroke fill" transform="rotate(-77.3 451.8 253.3) scale(.16047 .14236)" xlink:href="#reuse-0"/>
  <path fill="none" stroke="#484646" stroke-width=".076278" d="M121.7 637.6l.2-.4s-.1.1 0 0l.1-.3s0 0 0 0v-.4m1.7 1.8l.3-.4m-1-.9c.2.2.3.1.3.6m-.9.4v.2c0 .4.4.4.6.3m.8-1.4c0-.2-.2-.1-.1-.3m-1.2-.5c.3 0 .3-.1.4-.3"/>
  <use stroke-linecap="round" stroke-linejoin="round" stroke-width="1.4" paint-order="markers stroke fill" transform="rotate(-77.3 458.8 265) scale(.16047 .14236)" xlink:href="#reuse-0"/>
  <path fill="none" stroke="#484646" stroke-width=".076278" d="M115.8 653.6c0-.1 0-.3.2-.4 0-.1-.1.1 0 0v-.3l.1-.1v-.3m1.6 1.7c.2 0 .3-.2.4-.4m-1-.8c.2.2.2 0 .2.6m-.8.3v.3c0 .4.4.4.5.3m.9-1.4l-.2-.4m-1.2-.4c.4-.1.4-.2.4-.3"/>
  <use stroke-linecap="round" stroke-linejoin="round" stroke-width="1.4" paint-order="markers stroke fill" transform="matrix(.03517 -.15656 .1389 .0312 74.8 644.8)" xlink:href="#reuse-0"/>
  <path fill="none" stroke="#484646" stroke-width=".076278" d="M91 643.8l.1-.4c.1-.1 0 0 .1 0v-.4s0 0 0 0v-.3m1.7 1.7c.2 0 .3-.2.3-.4m-1-.8c.2.2.3 0 .3.6m-.9.3v.3c0 .4.5.4.6.3m.9-1.4c0-.2-.3-.2-.2-.4m-1.2-.4l.4-.3"/>
  <use stroke-linecap="round" stroke-linejoin="round" stroke-width="1.4" paint-order="markers stroke fill" transform="matrix(.03517 -.15656 .1389 .0312 76 646.4)" xlink:href="#reuse-0"/>
  <path fill="none" stroke="#484646" stroke-width=".076278" d="M92 645.4l.2-.4c.1 0 0 .1.1 0v-.3s0 0 0 0v-.4m1.7 1.8l.3-.4m-1-.9c.2.2.3.1.3.6m-.9.4v.2c0 .4.5.4.6.3m.9-1.4c0-.2-.3-.2-.2-.3m-1.2-.5c.3 0 .3-.1.4-.3"/>
  <use stroke-linecap="round" stroke-linejoin="round" stroke-width="1.4" paint-order="markers stroke fill" transform="rotate(-77.3 445 278.4) scale(.16047 .14236)" xlink:href="#reuse-0"/>
  <path fill="none" stroke="#484646" stroke-width=".076278" d="M91.8 650.5l.2-.4c.1 0 0 .1.1 0v-.3s0 0 0 0v-.4m1.7 1.8l.3-.4m-1-.9c.2.2.3.1.3.6m-.9.4v.2c.1.4.5.4.6.3m.9-1.4c0-.2-.3-.2-.2-.3m-1.2-.5c.3 0 .4-.1.4-.3"/>
  <use stroke-linecap="round" stroke-linejoin="round" stroke-width="1.4" paint-order="markers stroke fill" transform="rotate(-77.3 437 303.5) scale(.16047 .14236)" xlink:href="#reuse-0"/>
  <path fill="none" stroke="#484646" stroke-width=".076278" d="M61.2 662.4l.2-.4c.1-.1 0 0 .1 0v-.4s0 0 0 0v-.3m1.7 1.7c.2-.1.3-.2.3-.4m-1-.8c.2.2.3 0 .3.5m-.9.4v.3c.1.3.5.4.6.3m.9-1.4c0-.3-.3-.2-.2-.4M62 661c.3 0 .4 0 .4-.3"/>
  <use stroke-linecap="round" stroke-linejoin="round" stroke-width="1.4" paint-order="markers stroke fill" transform="matrix(.03517 -.15656 .1389 .0312 36.3 643)" xlink:href="#reuse-0"/>
  <path fill="none" stroke="#484646" stroke-width=".076278" d="M52.4 642.1l.2-.4c.1 0 0 .1.1 0v-.3s0 0 0 0v-.4m1.7 1.7c.2 0 .3-.2.3-.4m-1-.8c.2.2.3 0 .3.6m-.9.3v.3c0 .4.5.4.6.3m.9-1.4c0-.2-.3-.2-.2-.3m-1.2-.5l.4-.3"/>
  <use stroke-linecap="round" stroke-linejoin="round" stroke-width="1.4" paint-order="markers stroke fill" transform="matrix(.03517 -.15656 .1389 .0312 41 642.4)" xlink:href="#reuse-0"/>
  <path fill="none" stroke="#484646" stroke-width=".076278" d="M57 641.4c.2 0 .2-.3.3-.4 0 0-.1.1 0 0l.1-.3s0 0 0 0v-.4m1.6 1.8l.4-.4m-1-.9c.2.2.3.1.2.6m-.8.4v.2c0 .4.4.4.6.3m.8-1.4c0-.2-.2-.2-.2-.3m-1.2-.5c.4 0 .4-.1.5-.3"/>
  <use stroke-linecap="round" stroke-linejoin="round" stroke-width="1.4" paint-order="markers stroke fill" transform="matrix(.03517 -.15656 .1389 .0312 40.2 638.8)" xlink:href="#reuse-0"/>
  <path fill="none" stroke="#484646" stroke-width=".076278" d="M56.2 637.8l.2-.4c.1 0 0 .1.1 0v-.3s0 0 0 0v-.4m1.7 1.8c.2-.1.3-.2.3-.4m-1-.9c.2.2.3.1.3.6m-.9.4v.2c.1.4.5.4.6.3m.9-1.4c0-.2-.3-.1-.2-.3m-1.2-.5c.3 0 .4-.1.4-.3"/>
  <g>
    <use stroke-linecap="round" stroke-linejoin="round" stroke-width="1.4" paint-order="markers stroke fill" transform="rotate(-13.8 2723 151.1) scale(.20949 .18585)" xlink:href="#reuse-0"/>
    <path fill="none" stroke="#484646" stroke-width=".099582" d="M52.6 669.8h.6c.2 0-.2 0 0 0h.5v-.1l.4-.2m-1.1 3l.7.1m.4-1.6c-.1.3 0 .3-.6.6m-.9-.8l-.3.1c-.4.3-.2.8 0 .9m2.1.2c.3 0 0-.4.3-.4m-.1-1.7c.3.3.4.3.6.3"/>
  </g>
  <g>
    <use stroke-linecap="round" stroke-linejoin="round" stroke-width="1.4" paint-order="markers stroke fill" transform="matrix(.05083 -.22626 .20073 .0451 25 679)" xlink:href="#reuse-0"/>
    <path fill="none" stroke="#484646" stroke-width=".110235" d="M48.2 677.6l.3-.6c.1-.1-.2.2.1 0v-.5h.1v-.5m2.3 2.5c.3-.1.4-.3.5-.6m-1.4-1.2c.3.3.4.2.4.9m-1.3.5v.4c.1.5.6.5.8.4m1.3-2c0-.3-.4-.3-.3-.5m-1.7-.7c.5-.1.5-.2.6-.4"/>
  </g>
  <g>
    <use stroke-linecap="round" stroke-linejoin="round" stroke-width="1.4" paint-order="markers stroke fill" transform="rotate(149.8 -46.7 395.5) scale(.6311 .55989)" xlink:href="#reuse-0"/>
    <path fill="none" stroke="#484646" stroke-width=".3" d="M66.2 717c-.6 0-1.2.4-1.8.5-.5 0 .6 0-.3-.2-.3 0-.8.6-1 .7l-.2.1c-.3.4-.2.7-.7 1m.5-9.5c-.8-.2-1.4-.2-2 .1m.2 5.1c0-1-.5-1 1-2.3m3.3 1.5c.3-.2.6-.3.8-.6.9-1.3 0-2.4-.7-2.5M59 712c-.9.5.1 1.2-.6 1.5m1.9 4.7c-1.2-.7-1.4-.7-2-.4"/>
  </g>
  <g>
    <use stroke-linecap="round" stroke-linejoin="round" stroke-width="1.4" paint-order="markers stroke fill" transform="matrix(.36172 .51715 -.4588 .3209 82.7 645.8)" xlink:href="#reuse-0"/>
    <path fill="none" stroke="#484646" stroke-width=".3" d="M43 695c0 .6.4 1.1.6 1.7 0 .5 0-.6-.2.3 0 .4.6.8.8 1l.1.2c.4.2.7.1 1 .6m-9.4.3c-.2.8-.1 1.3.2 2m5-.6c-1 0-.8.5-2.2-.8m1.2-3.5c-.3-.2-.4-.6-.7-.7-1.3-.8-2.4.2-2.5.8m1.8 6.3c.5.8 1.2-.3 1.5.4m4.5-2.2c-.6 1.2-.5 1.4-.2 2"/>
  </g>
  <g>
    <use stroke-linecap="round" stroke-linejoin="round" stroke-width="1.4" paint-order="markers stroke fill" transform="matrix(.47173 -.11497 .13225 .32277 2.1 640.3)" xlink:href="#reuse-0"/>
    <use stroke-width=".3" transform="matrix(.74747 -.18218 .23621 .57649 -276.8 413)" xlink:href="#reuse-1"/>
  </g>
  <g>
    <use stroke-linecap="round" stroke-linejoin="round" stroke-width="1.4" paint-order="markers stroke fill" transform="matrix(.54414 -.31969 .28362 .48274 19 640.2)" xlink:href="#reuse-0"/>
    <path fill="none" stroke="#484646" stroke-width=".3" d="M64.9 683.7c.6 0 1.1-.4 1.7-.5.6 0-.6 0 .4.1.3.1.8-.5 1-.7h.2c.3-.4.2-.7.7-1m-.5 9.4c.8.3 1.4.3 2 0m-.2-5.1c0 1 .5 1-1 2.2m-3.3-1.5l-.8.7c-.9 1.2 0 2.3.7 2.5m6.3-1.3c.9-.4-.1-1.2.6-1.5m-2-4.6c1.3.7 1.5.6 2 .4"/>
  </g>
  <g>
    <use stroke-linecap="round" stroke-linejoin="round" stroke-width="1.4" paint-order="markers stroke fill" transform="matrix(.13834 -.61575 .54627 .12273 -6.4 676.3)" xlink:href="#reuse-0"/>
    <path fill="none" stroke="#484646" stroke-width=".3" d="M56.8 672.5c.4-.5.5-1.1.9-1.6.3-.4-.5.4.3-.1.2-.2.2-1 .1-1.2l.1-.3c0-.4-.3-.6-.1-1.1m6.5 6.8c.7-.4 1-.8 1.3-1.6m-3.9-3.3c.8.8 1 .3 1 2.3m-3.3 1.4c0 .4-.2.7-.1 1a1.6 1.6 0 002.3 1.3m3.4-5.5c.2-1-1-.8-.7-1.5m-4.7-1.8c1.3-.4 1.4-.5 1.6-1.2"/>
  </g>
  <g>
    <use stroke-linecap="round" stroke-linejoin="round" stroke-width="1.4" paint-order="markers stroke fill" transform="matrix(.71377 -.12841 .1898 .3801 30.3 627)" xlink:href="#reuse-0"/>
    <use stroke-width=".3" transform="matrix(1.131 -.20347 .33899 .67888 -383.3 356.8)" xlink:href="#reuse-1"/>
  </g>
  <g>
    <use stroke-linecap="round" stroke-linejoin="round" stroke-width="1.4" paint-order="markers stroke fill" transform="rotate(173.2 46 360) scale(.80405 .71332)" xlink:href="#reuse-0"/>
    <path fill="none" stroke="#484646" stroke-width=".382212" d="M103.1 637.8c-.8-.2-1.6 0-2.3-.3-.6-.2.7.3-.3-.3-.4-.3-1.3.2-1.5.3h-.3c-.5.2-.6.6-1.3.6m5.3-10.6c-.8-.8-1.4-1-2.4-1m-2.3 6c.6-1.2 0-1.3 2.3-2m3.1 3.4c.4-.2 1-.1 1.3-.4a2 2 0 00.5-3.3m-8-1.7c-1.3.1-.5 1.4-1.5 1.5m-.2 6.4c-1-1.5-1.2-1.5-2.1-1.5"/>
  </g>
  <g>
    <use stroke-linecap="round" stroke-linejoin="round" stroke-width="1.4" paint-order="markers stroke fill" transform="matrix(.52193 -.35479 .31475 .46304 68.5 601.3)" xlink:href="#reuse-0"/>
    <path fill="none" stroke="#484646" stroke-width=".3" d="M117.2 641.7c.6 0 1-.5 1.7-.6.5 0-.6 0 .3.1.3 0 .8-.5 1-.7l.2-.1c.2-.4.1-.7.6-1m.2 9.4c.8.2 1.3.2 2-.2m-.6-5c0 1 .5.9-.8 2.3m-3.4-1.3l-.8.7c-.8 1.3.2 2.3.8 2.5m6.3-1.7c.8-.6-.2-1.2.5-1.6m-2.3-4.5c1.3.6 1.5.6 2 .3"/>
  </g>
  <g>
    <use stroke-linecap="round" stroke-linejoin="round" stroke-width="1.4" paint-order="markers stroke fill" transform="matrix(.13834 -.61575 .54627 .12273 94.2 631.6)" xlink:href="#reuse-0"/>
    <path fill="none" stroke="#484646" stroke-width=".3" d="M157.4 627.8c.4-.5.5-1.1.9-1.6.3-.4-.5.4.3-.1.2-.2.2-1 .1-1.2l.1-.3c0-.4-.3-.6-.1-1.1m6.5 6.8c.7-.4 1-.8 1.3-1.6m-3.9-3.3c.8.8 1 .3 1 2.3m-3.3 1.4c0 .4-.2.7-.1 1a1.6 1.6 0 002.3 1.3m3.4-5.5c.2-1-1-.8-.7-1.5m-4.7-1.8c1.3-.4 1.4-.5 1.6-1.2"/>
  </g>
  <g>
    <use stroke-linecap="round" stroke-linejoin="round" stroke-width="1.4" paint-order="markers stroke fill" transform="matrix(.6311 0 0 .55989 14.6 434.8)" xlink:href="#reuse-0"/>
    <path fill="none" stroke="#484646" stroke-width=".3" d="M32.2 495.6c.5.3 1.2.2 1.7.5.5.2-.5-.4.3.3.2.2 1 0 1.1-.2h.3c.4 0 .5-.4 1-.3m-5.1 7.8c.6.6 1 .9 1.8 1m2.4-4.5c-.6.9-.1 1-2 1.4m-2.1-3c-.4.1-.8 0-1 .2-1.5.6-1.2 2-.8 2.5m6.1 2.1c1 0 .5-1 1.3-1m.7-5c.7 1.3.9 1.3 1.6 1.4"/>
  </g>
  <g>
    <use stroke-linecap="round" stroke-linejoin="round" stroke-width="1.4" paint-order="markers stroke fill" transform="matrix(.34173 0 0 .30317 33.7 524.2)" xlink:href="#reuse-0"/>
    <path fill="none" stroke="#484646" stroke-width=".16244399999999998" d="M43.2 557c.3.2.7.2 1 .3.2.2-.3-.1.1.2h.8c.2-.1.3-.3.6-.3m-2.8 4.3c.3.3.5.5 1 .5m1.2-2.4c-.3.4 0 .5-1 .7m-1.2-1.6l-.6.1a.9.9 0 00-.3 1.4m3.3 1.1c.5 0 .2-.6.7-.5m.3-2.7c.4.6.5.7.9.7"/>
  </g>
  <g>
    <use stroke-linecap="round" stroke-linejoin="round" stroke-width="1.4" paint-order="markers stroke fill" transform="rotate(-36.1 823.1 242) scale(.6311 .55989)" xlink:href="#reuse-0"/>
    <path fill="none" stroke="#484646" stroke-width=".3" d="M65.7 570.6c.6-.2 1-.6 1.6-.7.6 0-.5 0 .4.1.3 0 .8-.6.9-.8l.2-.1c.3-.4.1-.7.6-1m.5 9.4c.8.2 1.3.1 2-.3m-.7-5c0 1 .5 1-.8 2.3m-3.4-1.1l-.8.7c-.7 1.3.3 2.3 1 2.5m6.1-2c.8-.5-.2-1.1.4-1.5m-2.3-4.4c1.3.6 1.4.5 2 .1"/>
  </g>
  <g>
    <use stroke-linecap="round" stroke-linejoin="round" stroke-width="1.4" paint-order="markers stroke fill" transform="matrix(.35108 0 0 .31147 63.9 527.1)" xlink:href="#reuse-0"/>
    <path fill="none" stroke="#484646" stroke-width=".16689" d="M73.6 561c.3 0 .7 0 1 .2.3.1-.3-.2.1.1.2.2.6 0 .7 0h.1c.3 0 .3-.3.6-.2m-2.9 4.3c.4.4.6.5 1 .6m1.4-2.5c-.4.5 0 .6-1.1.8m-1.2-1.7l-.6.1a1 1 0 00-.4 1.4m3.4 1.2c.6 0 .3-.6.7-.6m.4-2.7c.4.6.5.7.9.7"/>
  </g>
  <g>
    <use stroke-linecap="round" stroke-linejoin="round" stroke-width="1.4" paint-order="markers stroke fill" transform="rotate(166.3 31.8 304) scale(.41039 .36409)" xlink:href="#reuse-0"/>
    <path fill="none" stroke="#484646" stroke-width=".19508399999999998" d="M114 556.3h-1.2c-.3 0 .4.1-.2-.1-.2-.1-.6.1-.7.2h-.2c-.2.2-.2.4-.6.4m2-5.7c-.4-.3-.7-.4-1.2-.3m-.8 3.2c.2-.7-.1-.7 1-1.2m1.8 1.5l.6-.2a1 1 0 000-1.7m-4.1-.4c-.6.1-.1.7-.7.8m.4 3.2c-.7-.6-.8-.6-1.2-.6"/>
  </g>
  <g>
    <use stroke-linecap="round" stroke-linejoin="round" stroke-width="1.4" paint-order="markers stroke fill" transform="matrix(.28783 0 0 .21833 111.7 527.1)" xlink:href="#reuse-0"/>
    <use stroke-width=".3" transform="matrix(.45608 0 0 .38996 8.6 345.5)" xlink:href="#reuse-1"/>
  </g>
  <g>
    <use stroke-linecap="round" stroke-linejoin="round" stroke-width="1.4" paint-order="markers stroke fill" transform="matrix(.13834 -.61575 .54627 .12273 65.6 568.1)" xlink:href="#reuse-0"/>
    <path fill="none" stroke="#484646" stroke-width=".3" d="M128.8 564.3c.4-.5.5-1.1.8-1.6.4-.4-.4.4.4-.2.2-.2.1-1 .1-1.1v-.3c0-.4-.2-.6 0-1.1m6.4 6.7c.8-.4 1.1-.8 1.4-1.5m-3.9-3.3c.8.8 1 .3 1 2.3m-3.4 1.4v1a1.6 1.6 0 002.2 1.2m3.5-5.4c.2-1-1-.8-.8-1.5m-4.7-1.8c1.4-.4 1.5-.6 1.7-1.2"/>
  </g>
  <g>
    <use stroke-linecap="round" stroke-linejoin="round" stroke-width="1.4" paint-order="markers stroke fill" transform="rotate(37.4 -732.6 336.7) scale(.6311 .55989)" xlink:href="#reuse-0"/>
    <path fill="none" stroke="#484646" stroke-width=".3" d="M30.9 573.2c.3.6.8 1 1.1 1.5.3.5-.2-.6 0 .3 0 .4.8.6 1 .7l.2.1c.4.2.7 0 1.1.4m-8.9 3c.1 1 .3 1.4.9 2m4.6-2.2c-1 .3-.7.8-2.5 0m.2-3.7c-.3-.2-.6-.5-1-.5-1.4-.4-2 1-2 1.5m3.5 5.4c.8.7 1.1-.5 1.7 0m3.6-3.5c-.2 1.4-.1 1.5.4 2"/>
  </g>
  <g>
    <use stroke-linecap="round" stroke-linejoin="round" stroke-width="1.4" paint-order="markers stroke fill" transform="rotate(55.4 -498.2 337.7) scale(.13169 .11684)" xlink:href="#reuse-0"/>
    <path fill="none" stroke="#484646" stroke-width=".06260399999999999" d="M54.4 566l.1.4v.1l.2.2s0 0 0 0l.2.2m-2 0v.5m1.1-.2c-.2 0-.2.1-.5-.1m.3-.8l-.2-.1a.3.3 0 00-.5.2m.4 1.3h.3m1-.4c-.2.2-.2.3-.1.4"/>
  </g>
  <g>
    <use stroke-linecap="round" stroke-linejoin="round" stroke-width="1.4" paint-order="markers stroke fill" transform="matrix(.03556 .09723 -.08626 .03154 65.6 561.8)" xlink:href="#reuse-0"/>
    <path fill="none" stroke="#484646" stroke-width=".049215" d="M57.2 568v.2c0 .1 0 0 0 0v.2s0 0 0 0l.2.2m-1.5-.3v.3m.8.1l-.4-.2m.4-.5l-.1-.2a.3.3 0 00-.4 0m0 1.1c0 .2.2 0 .2.2m.8-.2l-.1.3"/>
  </g>
  <g>
    <use stroke-linecap="round" stroke-linejoin="round" stroke-width="1.4" paint-order="markers stroke fill" transform="matrix(.11436 0 0 .10145 52 552.7)" xlink:href="#reuse-0"/>
    <path fill="none" stroke="#484646" stroke-width=".05436" d="M55.2 563.7h.4c0 .1-.1 0 0 .1h.2s0 0 0 0h.3m-1 1.3c.1.2.2.2.3.2m.5-.8c-.1.2 0 .2-.4.3m-.4-.6H55c-.2.2-.2.4 0 .5m1 .4c.2 0 .1-.2.3-.2m0-.9l.4.3"/>
  </g>
  <g>
    <use stroke-linecap="round" stroke-linejoin="round" stroke-width="1.4" paint-order="markers stroke fill" transform="rotate(120.9 -125.6 305) scale(.12823 .11376)" xlink:href="#reuse-0"/>
    <path fill="none" stroke="#484646" stroke-width=".060953999999999994" d="M59.1 566.3l-.3.2s.2 0 0 0l-.1.3s0 0 0 0l-.1.2m-.8-1.7c-.2 0-.3 0-.4.2m.5.9v-.5m.7 0l.1-.3c0-.3-.2-.4-.3-.3m-1 .8c-.2.2 0 .2 0 .3m.8.7l-.4.1"/>
  </g>
  <g>
    <use stroke-linecap="round" stroke-linejoin="round" stroke-width="1.4" paint-order="markers stroke fill" transform="matrix(.15326 0 0 .10979 57.7 552)" xlink:href="#reuse-0"/>
    <use stroke-width=".3" transform="matrix(.24284 0 0 .19609 2.8 460.7)" xlink:href="#reuse-1"/>
  </g>
  <g>
    <use stroke-linecap="round" stroke-linejoin="round" stroke-width="1.4" paint-order="markers stroke fill" transform="matrix(.28783 0 0 .21833 134.7 527)" xlink:href="#reuse-0"/>
    <use stroke-width=".3" transform="matrix(.45608 0 0 .38996 31.7 345.4)" xlink:href="#reuse-1"/>
  </g>
  <g>
    <use stroke-linecap="round" stroke-linejoin="round" stroke-width="1.4" paint-order="markers stroke fill" transform="matrix(.04922 .23975 -.18187 .03734 171 536.4)" xlink:href="#reuse-0"/>
    <use stroke-width=".3" transform="matrix(.07799 .3799 -.32483 .06668 304.8 419.4)" xlink:href="#reuse-1"/>
  </g>
  <g>
    <use stroke-linecap="round" stroke-linejoin="round" stroke-width="1.4" paint-order="markers stroke fill" transform="matrix(.1586 0 0 .1203 151 533.8)" xlink:href="#reuse-0"/>
    <use stroke-width=".3" transform="matrix(.25131 0 0 .21488 94.3 433.8)" xlink:href="#reuse-1"/>
  </g>
  <g>
    <use stroke-linecap="round" stroke-linejoin="round" stroke-width="1.4" paint-order="markers stroke fill" transform="matrix(.5387 -.32876 .29167 .47792 114 561.6)" xlink:href="#reuse-0"/>
    <path fill="none" stroke="#484646" stroke-width=".3" d="M160.6 604.4c.7-.1 1.2-.5 1.8-.6.5 0-.6 0 .3.2.3 0 .8-.6 1-.8h.2c.3-.4.2-.7.7-1m-.3 9.4c.8.3 1.3.2 2 0m-.3-5.2c0 1.1.5 1-1 2.3m-3.3-1.4c-.3.2-.6.3-.8.6-.8 1.3.1 2.4.7 2.5m6.3-1.3c.9-.5-.1-1.2.6-1.6m-2-4.6c1.2.7 1.4.7 2 .4"/>
  </g>
  <g>
    <use stroke-linecap="round" stroke-linejoin="round" stroke-width="1.4" paint-order="markers stroke fill" transform="matrix(.10925 -.44973 .70675 .05472 180.5 732.7)" xlink:href="#reuse-0"/>
    <use stroke-width=".3" transform="matrix(.17311 -.71262 1.2623 .09773 -446.5 848.3)" xlink:href="#reuse-1"/>
  </g>
  <g>
    <use stroke-linecap="round" stroke-linejoin="round" stroke-width="1.4" paint-order="markers stroke fill" transform="matrix(.78692 .16527 -.14662 .69813 152.7 790.2)" xlink:href="#reuse-0"/>
    <path fill="none" stroke="#484646" stroke-width=".38223" d="M158.7 870.6c.6.5 1.5.6 2 1 .6.5-.5-.5.3.5.2.3 1.2.2 1.5.2h.3c.5 0 .7-.4 1.4-.1m-8.5 8.4c.6.9 1 1.3 2 1.7m4.2-5c-1 1-.4 1.3-2.9 1.2m-1.9-4.2c-.4 0-.9-.2-1.3-.1a2 2 0 00-1.5 3m7 4.2c1.3.3 1-1.3 1.9-1m2.2-6c.5 1.7.7 1.8 1.5 2.1"/>
  </g>
  <g>
    <use stroke-linecap="round" stroke-linejoin="round" stroke-width="1.4" paint-order="markers stroke fill" transform="rotate(-40.8 1147.2 214.4) scale(.80407 .71334)" xlink:href="#reuse-0"/>
    <path fill="none" stroke="#484646" stroke-width=".382221" d="M206.8 846.5c.7-.2 1.3-.8 2-1 .7-.2-.7 0 .5 0 .4 0 .9-.8 1-1l.3-.2c.3-.5.1-.9.7-1.3m1.6 11.8c1 .2 1.7 0 2.5-.5M214 848c.2 1.3.8 1-.7 3m-4.5-1c-.3.3-.7.5-.9 1a2 2 0 001.4 3m7.7-3.1c1-.8-.4-1.5.4-2m-3.5-5.4c1.7.6 2 .5 2.6 0"/>
  </g>
  <g>
    <use stroke-linecap="round" stroke-linejoin="round" stroke-width="1.4" paint-order="markers stroke fill" transform="matrix(-.72488 -.34793 .30867 -.64309 236.1 947.8)" xlink:href="#reuse-0"/>
    <path fill="none" stroke="#484646" stroke-width=".38221499999999997" d="M249.5 868.3c-.5-.6-1.3-1-1.8-1.5-.4-.5.4.6-.1-.5-.2-.3-1.1-.4-1.4-.5l-.3-.1c-.6-.1-.8.2-1.5-.2m10.3-6.1c-.3-1-.7-1.6-1.6-2.2m-5.1 4c1.1-.8.7-1.2 3-.6m.9 4.5c.4.2.8.5 1.2.5a2 2 0 002.2-2.6m-5.8-5.8c-1.2-.5-1.2 1-2 .5m-3.6 5.3c-.1-1.8-.3-2-1-2.4"/>
  </g>
  <g>
    <use stroke-linecap="round" stroke-linejoin="round" stroke-width="1.4" paint-order="markers stroke fill" transform="matrix(.69408 -.4059 .3601 .61577 200 805.5)" xlink:href="#reuse-0"/>
    <path fill="none" stroke="#484646" stroke-width=".382218" d="M258.3 861c.8 0 1.5-.5 2.3-.6.7 0-.8 0 .4.2.4 0 1-.7 1.2-.9l.3-.1c.4-.5.3-.9 1-1.2m-.7 12c1 .3 1.7.3 2.7-.1m-.4-6.5c0 1.4.6 1.2-1.2 2.9m-4.3-2c-.3.4-.8.5-1 1a2 2 0 00.8 3.1m8.1-1.6c1.1-.6-.1-1.5.8-2m-2.5-5.8c1.6.9 1.8.8 2.6.5"/>
  </g>
  <g>
    <use stroke-linecap="round" stroke-linejoin="round" stroke-width="1.4" paint-order="markers stroke fill" transform="matrix(-.31421 .74015 -.65664 -.27876 286.7 818.8)" xlink:href="#reuse-0"/>
    <path fill="none" stroke="#484646" stroke-width=".382233" d="M206.6 809c-.5.6-.8 1.4-1.4 2-.5.4.6-.5-.4 0-.4.2-.5 1.2-.5 1.5l-.1.3c0 .5.2.8-.1 1.4m-6.6-10c-1 .4-1.6.8-2 1.7m4 5c-.7-1.1-1.2-.6-.7-3m4.6-1c0-.5.3-1 .3-1.4a2 2 0 00-2.6-2m-5.5 6c-.5 1.3 1 1.2.5 2.1m5.5 3.3c-1.8.2-1.9.4-2.3 1.1"/>
  </g>
  <g>
    <use stroke-linecap="round" stroke-linejoin="round" stroke-width="1.4" paint-order="markers stroke fill" transform="matrix(-.24643 .47606 -.51498 -.1793 186.9 879.6)" xlink:href="#reuse-0"/>
    <use stroke-width=".3" transform="matrix(-.39048 .75433 -.91979 -.32024 703.6 858.3)" xlink:href="#reuse-1"/>
  </g>
  <g>
    <use stroke-linecap="round" stroke-linejoin="round" stroke-width="1.4" paint-order="markers stroke fill" transform="matrix(.32573 -.0106 .0094 .28898 165.2 835.3)" xlink:href="#reuse-0"/>
    <path fill="none" stroke="#484646" stroke-width=".15491999999999997" d="M175.3 866.4c.3.1.6 0 .9.2l.1.1h.7c.3-.1.3-.3.6-.3m-2.5 4.2c.3.3.5.4 1 .4m1-2.3c-.2.5 0 .5-1 .8M175 868h-.5c-.7.4-.6 1.1-.3 1.4m3.1 1c.6 0 .3-.6.7-.6m.3-2.6c.3.7.4.7.8.7"/>
  </g>
  <g>
    <use stroke-linecap="round" stroke-linejoin="round" stroke-width="1.4" paint-order="markers stroke fill" transform="rotate(-137.4 246.8 418.5) scale(.3259 .28913)" xlink:href="#reuse-0"/>
    <path fill="none" stroke="#484646" stroke-width=".15491999999999997" d="M159.4 864.2l-.5-.8c-.1-.3 0 .3 0-.2 0-.2-.4-.3-.5-.4h-.1c-.2-.1-.4 0-.5-.3m4.7-1.2c0-.4-.1-.7-.4-1m-2.5 1c.6-.2.4-.4 1.3 0m-.2 2l.4.3a.8.8 0 001.2-.8m-1.6-2.9c-.4-.4-.6.2-.9 0m-2 1.6c.2-.7.1-.8 0-1"/>
  </g>
  <g>
    <use stroke-linecap="round" stroke-linejoin="round" stroke-width="1.4" paint-order="markers stroke fill" transform="rotate(-3 15864.3 -2046.3) scale(.3259 .28913)" xlink:href="#reuse-0"/>
    <path fill="none" stroke="#484646" stroke-width=".15491999999999997" d="M141 867.2l1 .2c.2.1-.3-.1.1.2l.6-.1h.2c.2-.1.2-.3.5-.3m-2.5 4.2c.4.3.6.5 1 .5m1.1-2.4c-.3.5 0 .5-1 .8m-1.2-1.5l-.5.1a.8.8 0 00-.3 1.3m3.2 1c.5 0 .3-.6.7-.6m.2-2.6c.4.6.5.6.8.7"/>
  </g>
  <g>
    <use stroke-linecap="round" stroke-linejoin="round" stroke-width="1.4" paint-order="markers stroke fill" transform="matrix(.70128 .53373 -.43805 .7768 138.2 790.9)" xlink:href="#reuse-0"/>
    <use stroke-width=".3" transform="matrix(1.1112 .84572 -.78238 1.3874 251.5 -46.5)" xlink:href="#reuse-1"/>
  </g>
  <g>
    <use stroke-linecap="round" stroke-linejoin="round" stroke-width="1.4" paint-order="markers stroke fill" transform="matrix(.73504 -.07768 .06892 .6521 45.5 798.4)" xlink:href="#reuse-0"/>
    <path fill="none" stroke="#484646" stroke-width=".351357" d="M73.5 867c.7.3 1.4.2 2 .4.7.2-.5-.3.4.3.3.2 1.1-.2 1.3-.3h.3c.5-.2.6-.6 1.3-.6m-5.1 9.8a3 3 0 002.2.9m2.2-5.6c-.6 1.2 0 1.3-2.1 2m-2.9-3.2c-.4 0-.8 0-1.2.3a2 2 0 00-.5 3m7.4 1.7c1.2 0 .5-1.3 1.4-1.3m.2-6c1 1.4 1.2 1.5 2 1.5"/>
  </g>
  <g>
    <use stroke-linecap="round" stroke-linejoin="round" stroke-width="1.4" paint-order="markers stroke fill" transform="matrix(-.25976 .5368 -.54284 -.20217 146.7 890.9)" xlink:href="#reuse-0"/>
    <use stroke-width=".3" transform="matrix(-.4116 .85057 -.96954 -.36109 691.3 866.8)" xlink:href="#reuse-1"/>
  </g>
  <g>
    <use stroke-linecap="round" stroke-linejoin="round" stroke-width="1.4" paint-order="markers stroke fill" transform="matrix(.51047 -.14847 .15625 .38176 6.9 856)" xlink:href="#reuse-0"/>
    <use stroke-width=".3" transform="matrix(.80885 -.23526 .27908 .68185 -306 591.6)" xlink:href="#reuse-1"/>
  </g>
  <g>
    <use stroke-linecap="round" stroke-linejoin="round" stroke-width="1.4" paint-order="markers stroke fill" transform="matrix(-.12736 .3 -.26614 -.11299 78 907)" xlink:href="#reuse-0"/>
    <path fill="none" stroke="#484646" stroke-width=".154923" d="M45.6 903l-.6.8c-.2.2.3-.1-.2 0l-.1.7h-.1v.7m-2.7-4c-.4 0-.7.2-.9.6m1.7 2c-.3-.4-.5-.2-.3-1.2m1.9-.4l.1-.6c0-.7-.8-.9-1-.8m-2.3 2.5c-.2.5.4.5.2.8m2.3 1.3c-.8.1-.8.2-1 .5"/>
  </g>
  <g>
    <use stroke-linecap="round" stroke-linejoin="round" stroke-width="1.4" paint-order="markers stroke fill" transform="rotate(1.3 -36076.9 3231) scale(.3259 .28913)" xlink:href="#reuse-0"/>
    <path fill="none" stroke="#484646" stroke-width=".154923" d="M75.6 893c.3 0 .6 0 .9.2.2 0-.3-.2.1.1h.8c.2 0 .2-.2.5-.2m-2.8 4c.3.3.6.5 1 .5m1.2-2.3c-.3.5 0 .6-1 .7m-1-1.5h-.6c-.7.3-.6 1-.4 1.3m3.1 1.2c.6 0 .3-.6.7-.5m.4-2.6c.4.7.5.7.8.7"/>
  </g>
  <g stroke-linecap="round" stroke-linejoin="round" paint-order="markers stroke fill">
    <g stroke="red" stroke-width=".1">
      <path fill="#3771c8" stroke-width=".067948" d="M44.3 601.9a27.2 28 0 00-10 37.9A27.2 28 0 0071 650.5a27.2 28 0 0010.7-37.7 27.2 28 0 00-36.6-11.4"/>
      <path fill="#b7bec8" stroke-width=".067948" d="M59 597.2h-.4l-2 .6-1 .3h-1.2l-1.8.3-1.6 1-1.1-.1-1.7 1.2s0 0 0 0l-.6.2h-.2l-.7.2s0 0 0 0l-.4.2v-.1l-.4.2c-.4 0-1.4.6-1.7.8l-3.7 2.6c-.5.4-1 .9-1.3 1.4l1.6-1 .3-.4v.5s0 0 0 0h.1c.4.2 1.3 0 1.7-.1l.8-.2-.8.6c.1 0 .3-.1.4 0 0 0 0 0 0 0h.6l.3-.2.6-.5.3-.2s0 0 0 0l.3-.3s0 0 0 0l-.3.3s0 0 0 0l.4-.2 1 .3 2 .3h1.2c.3 0 .6 0 .8-.2l1-.5.3-.1.8-.4 1-.5 1.1-.4a5 5 0 011.1-.3H58s0 0 0 0l1.6 1a3 3 0 00-1 .7c0 .2-.2.5-.4.6l-.5.6a3.4 3.4 0 01-.9 1h-.1c-.4.2-.8.2-1.2.2-.6 0-1.1-.1-1.7-.3h-2.3c-.4 0-.7.1-1 .3-.9.4-1.7.8-2.4 1.5l-.3.4-.6 1.2-.8 1.7 1.2-.6v-.1l.4-.8c0-.3.1-.4.3-.7l.6-1.2.3-.4.2-.2.2-.1 1-.3h2.2l1.7.3h1.2l2.1-1.2.7-.6.4-.6.5-.6.3-.4s0 0 0 0l.4-.2 1.4.7 1.8 1.1 1.7 1 1.3 1c.5.2.9.5 1.1 1l1 1.2 1 1.1 1.3 1 1.6 1 .2-.2v.1l.8-.5 1.2 1 1.3-.8.2.6.3 1v.1l-.4.2-1 .4-.7.2h-2.2l-1 .8H72.7l-.2.1-.2.2h-.5c-.5 0-.8.2-1.2.4v-.3l-.9.4-.3.2-.7-.4-.3-.2-.5.3c0-.1 0-.1-.2 0l-.6-.2c-.4-.2-.1-.1-.9.4l-.3-.1c-.3-.2-.6-.4-1-.3h-1.5-.1l-.5-.2a4 4 0 00-.8-.2h-.9s0 0 0 0l-1.3.7.1.3h.7l-.3.3c.4 0 .8.2 1.1.4l.8.3 1.6.8 1.4.3 1 .1 1.6.3.8.2h.6l1.9.1 1.2-.1 1.2-.3.9-.3s0 0 0 0c.8-.2 1.5-.7 2.2-1.1l.3-.3.5-.2 1.2-.9.6-.5.2-.3v-.1l.2-.3.2-.5c.2-.3.2-.6.3-1l.1-.9.3-.9.3-.7c.1-.2.3-.4.3-.7v-.6s-.2-.2-.3-.1l-.6.3.3-.3-.4-.7-.4-.6-.6-.7-.5-.9-.5-.7-.8-.7-.8-.8-.8-1c-.5-.4-1-.9-1.6-1.1l-1-.5h.2l-1.1-.8-1.7-.8-2-.6-2.2-.7-1.7-.6-2-.6c-.7-.3-1.5-.6-2.3-.7h-1.3zm-13.9 7.3s0 0 0 0l-.3.2s0 0 0 0c.2 0 .1 0 .3-.2zm-2.2.9c-.4 0-.6.3 0 0zm17.3-6.2h0zm-4 2.4l.3.1.2.1-.7.1.2-.3zm-3 .4l-1 .1H52h-.2.1l1.4-.1zm-6.7.2h-.1s0 0 0 0 0 0 0 0zm8.5 0s0 0 0 0l-.4.2-2 1h-.1l-1 .5c-.2.1-.5.3-.8.2a47 47 0 01-2.7-.2c.9 0 1.7-.2 2.5-.3.9-.2 1.3-.3 1.9-1l2.2-.2.4-.1zm-11.4.6v.2h-.4c.1 0 .3 0 .4-.2zm-1 .7l-.2.2a8 8 0 00-.4.2l.6-.4zm31.6 4.1l.2.1-.2.1v-.1zm5.6 2.8l-.2.2s0 0 0 0 0 0 0 0zm-40.4 1.3l-2.7.1-1.3 1.3a7 7 0 014.4 0c.4 0 .8.3 1.2.6a6 6 0 012 1.9l1.6 2.4 1.2 1.6.7.5c.7.6 1.5 1 2.3 1.2l2.3.4c1.4 0 2.5-1.2 3.5-2l1.5-1.4 1.2-1.6.3-.5-1.4.9-.4.5a14.2 14.2 0 01-2.2 2.5c-.3.2-.9.5-1.3.4-.7 0-1.5 0-2.3-.3-.8-.2-1.5-.6-2.2-1l-.7-.6-1.3-1.6-1.6-2.4a6.1 6.1 0 00-4.8-3zM75 615l-.2.2-.2.2s0 0 0 0l-.2-.2.4-.1.2-.1zm1.5 0v.1s0 0 0 0 0 0 0 0zm-2.1.3l-.1.1s0 0 0 0h.1zm-.8 1.1v.1s0 0 0 0h-.1.1zm3.2.3s0 0 0 0h-.2s0 0 0 0h.2zm7.4 1l-1.1.5v.2l-.3.5-.4.7-.7.7-1 1s0 0 0 0l-.4.1-.4.3H79l-1 .8h.7l.9-.4s0 0 0 0l2.2-1.3 1-1 .8-.7.4-.8.2-.5v-.2zm-12.4.2s0 0 0 0 0 0 0 0 0 0 0 0zm3.6 0l-.3.3a6 6 0 01-.3 0l.4-.2h.2zm-3.3.2s0 0 0 0 0 0 0 0 0 0 0 0zm-35.8 2.2c-1 0-2 1-2.6 1.5-.6.6-1 1.3-1.4 2.1l-.8 2.5-.5 1.8 1.5-1c0-.5.2-1.1.4-1.7v-.4l.3-.8c0-.4.3-.8.5-1.3.2-.4.4-1 .7-1.3l.7-.2.4.1c.5.5.6 1.2.7 1.8.2.6.2 1.3.2 2 .1.4 0 .8.3 1.2l.5.5c.6.5 1.3.7 2 .9 1.5 0 2-.7 3.2-1.6a8.3 8.3 0 001.3-2h.7l1.2-1.2c-.4 0-.9 0-1.3.3-1.4 1-1.6 1-2.2 2.3l-.7 1h-1c-.6 0-1.3-.2-1.9-.7-.5-.5-.6-1-.7-1.7a12.7 12.7 0 00-.8-3.7l-.1-.2-.6-.2zm32.7 3h-2.2l-2.3.4c-.3.2-.8.4-1.2.4h-.5l-1 .7h.5l1.3-.3c.7-.3 1.5-.3 2.2-.4H68c.6 0 1.2 0 1.8.2l1.4.5 1.2.4 1 .2.5.1H75l1.5-.3 1.1-.6 1-.8-1.2.6c-.4.2-.9.4-1.4.4H75a6 6 0 01-1.5-.3l-1.2-.4-1.4-.5-1.8-.3zm-21 .9l-1 .7.9.1 1.4.3 2.1.5 2.2.5 1.4.5 1.7.2 2.1.2c.5 0 1 0 1.4-.2l.7-.1c.8-.3 1.5-.8 2.3-1.3l.7-.4.3-.3.2-.1-1.2.4-.1.2-.8.5a5.4 5.4 0 01-1.4.5h-3.2c-.6-.2-1-.3-1.6-.3l-1.5-.4a51.4 51.4 0 01-4.3-1l-1.4-.4-.8-.1zm31.8 6.8l-1 .8a11.9 11.9 0 013.5.7l.8.2h.7l.5-.2 1-.8-.5.2h-1.5c-.4-.2-.8-.4-1.2-.4l-2.3-.5zm-6.8 1.2h-.6c-.5 0-1 0-1.6.2-1 .4-2 .9-2.7 1.6-.3.2-.5.4-.6.7l-.5.8-.9 1.5-.2.3.9-.5-1 .8 1.2-.8.2-.3.2-.3.7-1.1.5-.9.6-.7.1-.1.6-.2a6 6 0 011.5-.2h1.1l1.1.2 1.7.2h1.2l1-.7a34.6 34.6 0 01-2.8-.2l-1.1-.2a4 4 0 00-.6 0zm-29.2 1.4l-1.5.9c-.2.4 0 .2-.4.5l-.4.5c-.6.3-1.2.5-1.9.4-.6-.2-1.2-.6-1.8-1-.6-.5-1-.8-2-1l-1.7.6c-.9.5-1.8 1-2.3 2l.7-.5.4-.3c.6-.3 1.1-.5 1.8-.5s1.3.3 1.9.7c.5.5 1.1.9 1.8 1.1.7.2 1.4 0 2-.4a11 11 0 003-2.4l.4-.6zm10.2 1.6l-1.7.1c-.8.3-.4.1-1.7.9a2 2 0 00-.3.2l-.7.8c-.4.5-.9 1.1-1.2 1.8l1.2-.6c.2-.6.7-1.2 1-1.7l.6-.6s0 0 0 0c.9-.2 1.7-.2 2.5-.2.4 0 .9.1 1.3.3a14.8 14.8 0 013 1.7c.4.2.8.6 1.2 1l1.1.7a4.2 4.2 0 002 .4l1-.7h-.6c-.4 0-.9-.1-1.3-.3a7 7 0 01-1.2-.8l-1.2-1a21.3 21.3 0 00-3.3-1.8l-1-.2H54zm26.6 6.7h-2.8c-.7 0-1.3.2-2 .5l-.9.5c-.8.7-1.6 1-2.1 1.9a8 8 0 00-1.2 2.4l1.5-1c.1-.8.6-1.6 1-2.2l.3-.3.3-.1c.6-.3 1.3-.4 1.9-.5h2.8zm-40 0c-1.4 0-1.8.6-3 1.5-.3.3-.4.7-.4 1.2l1.5-1v-.4h.6c.6 0 1.1.3 1.6.6l1.8 1.5c.8.6 1.7.7 2.6 1l3.8 1c1 .4 2 .6 3.1.7l1.2-1.1c-1.1 0-2.2-.2-3.2-.5l-3.7-1.2c-.9-.3-1.8-.5-2.5-1-.7-.4-1.2-1-1.8-1.4-.5-.4-1-.8-1.7-.8zm4.2 8.3a14 6 .5 0012.8 3.8 14 6 .5 0013-3.5z"/>
    </g>
    <g stroke="red" stroke-width=".1" transform="translate(-211.4 -31)">
      <circle cx="511.4" cy="617.7" r="14" fill="#5500d4"/>
      <path fill="#e5d5ff" d="M560 610a173.7 173.7 0 01-38.4 16c-15 4.8-32.1 9.3-45.3 11.8-14.6 2.7-23.7 3-25 1-1.8-2.4 7.3-7.9 23.8-14.3 6.3-2.4 14.2-5.1 22-7.6.6-.2-.1 3.1.5 3 11.6-3.4 19.2-7 26.6-7.8.7-.2-1.8-2.1-1.1-2.3 15-3.6 27.7-5.6 34.3-5.5 6.7.1 7.4 2.2 2.5 5.6zm-12.5 2.9a11 11 0 001.5-1.2c2.8-2.8-2.3-3.5-13-1.9-3.9 1.2-7.9 1.6-11.8 2.3-14 2.3-23 7.5-26.7 7.5a146 146 0 00-31.6 12.6c-4 3 .3 4 10.6 2.6 10.2-1.3 26.1-5.1 40.4-9.6 14-4.3 26-9.2 30.6-12.3z" opacity=".5"/>
    </g>
    <g transform="translate(-211.4 -31)">
      <ellipse cx="295" cy="513.2" fill="#0968b3" stroke="#0029ff" stroke-width="1.3" rx="7" ry="7.1"/>
      <path fill="#72c177" stroke="#00ff8b" stroke-width=".2" d="M295 506.2a6 4.1 0 00-.4 0 6 4.1 0 00-5.4 3.5l5.8.6 5.7-1.1a6 4.1 0 00-5.6-3zm0 4.1a1.8 2.3 0 001.7 2 1.8 2.3 0 001.9-1.7l-1.8-.6zm-5 1.8a1.8 2.3 4.9 00-1.3.7 1.8 2.3 4.9 00-.2 2.9l2.4-3.4a1.8 2.3 4.9 00-.8-.2zm11.1 2l-2.4 3.3a1.8 2.3 4.9 002.3-.6 1.8 2.3 4.9 00.1-2.8zm-10.3 4.7a2 4.3 84 003.4 1.5 2 4.3 84 004.8-1.4z"/>
      <path fill="#dbe2e3" stroke="#0029ff" stroke-width="1.3" d="M285.7 515.8a2.3 2.3 0 01.9 3 2.3 2.3 0 01-3.1 1 2.3 2.3 0 01-.9-3.1 2.3 2.3 0 013-1M309.4 522a2.3 2.3 0 01.9 3.1 2.3 2.3 0 01-3.1 1 2.3 2.3 0 01-1-3.2 2.3 2.3 0 013.1-.9"/>
    </g>
    <g stroke="#0029ff">
      <path fill="#abc837" stroke-width="2.4" d="M140.7 513.7a.8 26.7 85.9 0110 .3.8 26.7 85.9 01-36 3 .8 26.7 85.9 01-10.7-.4.8 26.7 85.9 0135.9-2.9m-6-9a11.7 11.7 0 015.5 15.5 11.7 11.7 0 01-15.4 5.6 11.7 11.7 0 01-5.7-15.4 11.7 11.7 0 0115.3-5.9"/>
      <path fill="#fff" stroke-width="1.3" d="M129.7 503.7h-.7c-.8 0-1.5.2-2.3.4-.8.2-1.5.5-2.3.9l-1.3.6-1.2.7-1 .5-.6.6 1-.5 1.2-.7 1.3-.6a11.5 11.5 0 014.6-1.3h1.4l1.2.3 1.5.7 1.7.8c.4.1.8.3 1.1.7l.9.7.5.3.7-.6-.6-.2-.8-.8-.1-.1c-.3-.3-.7-.4-1-.6-.6-.2-1.2-.4-1.8-.8-.5-.1-1-.4-1.4-.6a3.8 3.8 0 00-2-.4zm-9.8 4.1l-.7.6.2.2s0 0 0 0l.5.4 1.2.4h3.6a27.2 27.2 0 013.5-.2c.5 0 .9.3 1.2.5l.7 1 .4.5.6.6c.4.3 1 .5 1.4.6l1.2.2c.4 0 .8 0 1.2-.2l1.5-1.1.7-.8.2-.1.1-.2c.3-.2.7-.4 1-.4h.2l.6-.7h-.2l-1 .5a6 6 0 00-1.6 1.4l-.8.7s0 0 0 0h-.1a2 2 0 01-1.1.3l-1.2-.1c-.5-.1-1-.3-1.4-.7a4 4 0 01-1-1c-.2-.4-.4-.8-.7-1-.4-.3-.8-.5-1.3-.6h-1.6l-2 .2c-.6.1-1.2.2-1.9.1l-1.5-.1c-.5 0-.9-.2-1.2-.4l-.5-.4v-.1l-.2-.1zm17.6 8.2h-.4l-1 .3-1 .6-1.3.8-1.9 1.5-.2.2-.5.3-.6.2c-.5.2-1 .2-1.4.2-.8 0-1.5 0-2.2-.3-.7-.1-1.3-.3-1.9-.6l-1.5-.7h-.4c-.4-.2-.7-.1-1-.1a2 2 0 00-1 .3c-.6.4-1.2.8-1.7 1.4l-.7.9.8-.5.7-.9.4-.4.8-.2c.5-.1 1 0 1.4.1l1.6.6 1.8.7h.3l.8.1 1.2.1 1.4-.1.6-.2 2-1.5.5-.4h.1c.4-.4.8-.6 1.3-.9l1-.6 1-.2h.8l1 .7.8.7.6.3H140l.2.2.7-.6h-.3l-.2-.2h-.2l-.4-.3-.9-.7-1-.6-.4-.2zm-1 5.4c-.4 0-.8 0-1.2.2-.4 0-.9.3-1.3.5l-1.2.5-1.2.4-.4.2c-.3 0-.6 0-.8.2l-1.2.2-1.2-.1-1.3-.3-1-.4c-.5 0-.9-.2-1.3-.3h-.5c-.3 0-.7.1-1 .3l-.5.2-1.3 1 .8-.4s0 0 0 0l.2-.1.3-.2.9-.3h.4l1.3.4a73 73 0 002.4.6l1.2.2 1.1-.2c.5-.1 1-.2 1.3-.4l1.2-.4 1.2-.5 1.3-.5 1.1-.2 1 .2 1 .4.6-.6-.9-.3c-.3-.2-.7-.3-1-.3z"/>
    </g>
    <path fill="#fff" stroke="#0029ff" stroke-width=".5" d="M359.9 452.2a9.4 8.7 0 00-8.1 4.3 24.3 4 0 00-16.2 2.8 24.3 4 0 0015.5 4.7 9.4 8.7 0 008.8 5.5 9.4 8.7 0 008.8-5.6 24.3 4 0 0014.2-2.7 24.3 4 0 00-14.8-4.6 9.4 8.7 0 00-8.2-4.4 9.4 8.7 0 000 0zm-9 6a9.4 8.7 0 00-.4 2.7 9.4 8.7 0 00.1 1.4 2.5 14.4 89.8 01-5.3-2.6 2.5 14.4 89.8 015.6-1.4zm18 .2a2.5 14.4 89.8 014.3 2.4 2.5 14.4 89.8 01-4 1.2 9.4 8.7 0 00.2-1.1 9.4 8.7 0 00-.4-2.5z"/>
  </g>
  <g fill="#fff" stroke="#0029ff" stroke-linecap="round" stroke-linejoin="round" stroke-width=".2" paint-order="markers stroke fill" transform="translate(-211.4 -31)">
    <circle cx="510.4" cy="411" r="1.6"/>
    <circle cx="549.3" cy="379.6" r="1.6"/>
    <circle cx="528.6" cy="392.7" r="1.6"/>
    <circle cx="531.9" cy="431.3" r="1.6"/>
    <circle cx="542.8" cy="460.5" r="1.6"/>
    <circle cx="561.7" cy="398.2" r="1.6"/>
    <circle cx="572.3" cy="422.2" r="1.6"/>
    <circle cx="578.1" cy="443.3" r="1.6"/>
    <circle cx="542.8" cy="320.9" r="1.6"/>
    <circle cx="486" cy="297.6" r="1.6"/>
    <circle cx="472.1" cy="331.1" r="1.6"/>
    <circle cx="469.6" cy="381.4" r="1.6"/>
    <circle cx="511.8" cy="374.9" r="1.6"/>
    <circle cx="572.7" cy="301.6" r="1.6"/>
    <circle cx="533.3" cy="288.1" r="1.6"/>
    <circle cx="569" cy="341" r="1.6"/>
    <circle cx="596" cy="393.4" r="1.6"/>
    <circle cx="257.9" cy="223.7" r="1.6"/>
    <circle cx="280.5" cy="218.6" r="1.6"/>
    <circle cx="307.5" cy="214.2" r="1.6"/>
    <circle cx="308.9" cy="231.7" r="1.6"/>
    <circle cx="309.6" cy="255" r="1.6"/>
    <circle cx="488.4" cy="185.1" r="1.6"/>
    <circle cx="431.8" cy="183" r="1.6"/>
    <circle cx="452.4" cy="218.1" r="1.6"/>
    <circle cx="463.7" cy="143.9" r="1.6"/>
    <circle cx="622.4" cy="660.1" r="1.6"/>
    <circle cx="579.1" cy="801.2" r="1.6"/>
    <circle cx="555.4" cy="713.7" r="1.6"/>
    <circle cx="634.8" cy="772.4" r="1.6"/>
    <circle cx="617.2" cy="867.2" r="1.6"/>
    <circle cx="590.4" cy="750.8" r="1.6"/>
    <circle cx="312.3" cy="623" r="1.6"/>
    <circle cx="245.3" cy="475.6" r="1.6"/>
    <circle cx="305" cy="468.4" r="1.6"/>
    <circle cx="251.5" cy="440.6" r="1.6"/>
    <circle cx="420.4" cy="592.1" r="1.6"/>
    <circle cx="378.2" cy="713.7" r="1.6"/>
    <circle cx="246.3" cy="798.1" r="1.6"/>
    <circle cx="254.6" cy="862" r="1.6"/>
    <circle cx="447.2" cy="957.9" r="1.6"/>
    <circle cx="561.6" cy="886.8" r="1.6"/>
    <circle cx="516.3" cy="974.3" r="1.6"/>
    <circle cx="588.4" cy="982.6" r="1.6"/>
    <circle cx="616.2" cy="915.6" r="1.6"/>
    <circle cx="352.4" cy="1022.8" r="1.6"/>
    <circle cx="446.2" cy="1034.1" r="1.6"/>
    <circle cx="366.9" cy="976.4" r="1.6"/>
    <circle cx="597.7" cy="590" r="1.6"/>
    <circle cx="635.8" cy="496.3" r="1.6"/>
    <circle cx="617.2" cy="464.3" r="1.6"/>
    <circle cx="368.9" cy="294.3" r="1.6"/>
    <circle cx="383.3" cy="240.7" r="1.6"/>
    <circle cx="356.6" cy="237.6" r="1.6"/>
    <circle cx="390.6" cy="277.8" r="1.6"/>
    <circle cx="451.4" cy="260.3" r="1.6"/>
    <circle cx="558.5" cy="234.6" r="1.6"/>
    <circle cx="349.3" cy="178.9" r="1.6"/>
    <circle cx="287.5" cy="149" r="1.6"/>
    <circle cx="373" cy="131.5" r="1.6"/>
    <circle cx="388.5" cy="175.8" r="1.6"/>
    <circle cx="548.2" cy="156.2" r="1.6"/>
    <circle cx="278.3" cy="249" r="1.6"/>
    <circle cx="258.7" cy="281.9" r="1.6"/>
  </g>
  <g>
    <g paint-order="markers stroke fill">
      <path fill="#faff01" stroke="#000" stroke-linecap="round" stroke-linejoin="round" stroke-width="2.2" d="M26.2 263.2C61.8 287 118.7 324 164.7 358c20.3 15 47.1 35 66 49.8 17.2 13.7 40.8 24.2 45.9 42.8 9.6 34.8 32.5 59.2 62.3 86.8l-66.5 5.7L25.2 370.9z"/>
      <path fill="#a00" d="M25.7 268.4c88.5 55.6 174.7 113 248.3 180.8l-6.2 84A2698 2698 0 0025.7 357z"/>
      <path fill="navy" d="M26.2 277.7c88.5 41.8 175.3 126.8 248.8 177.8l-4.6 60.2C205.8 476.6 129.2 405.9 25.7 350z"/>
    </g>
    <path stroke="#0005ff" stroke-linecap="round" stroke-linejoin="round" stroke-width=".3" d="M26.6 337.3L68 363.1c7 5.4 22.1 19.2 27.8 25.5 6.2 7 15.1 15.6 26.8 40.7 14.8 3 31.3 3.1 43.2 10.9l21.8 12.3 60 48.3c7.8 6.2 15.6 17 23.3 41.7 13.7 2.8 27.6 7 41.7 12.5l17.9 17.5c4-1.1 4-.3 5.3 0l21.8 19.5v-34.5l-70-73-15-37-35-32.9-43.4-37.1-18.3-16.6c-18.3-4.9-27-6.1-48.3-11.8-33.3-22.3-66-45.3-101.5-64.8z" paint-order="markers stroke fill"/>
    <path fill="#fff" stroke="#000" stroke-width=".3" d="M26.7 284.2v48.3c50 29.1 101.3 62.9 143.8 96.8 3.4 2.3 6.3 4.7 9.5 7.3 42.3 31.6 81 66 119.5 101.2 20 18.3 40 37.4 58 57.2l2 2.1c0-13.5.7-21.8.7-35.3-23.1-23.6-49.4-52.6-72.3-76.6-5.4-13-9.3-23-14.7-35.9a675.8 675.8 0 00-57.3-54.3c-13-11-27.2-22-40.1-33l-32-7.9c-3.6-.5-11.7-3.2-15.4-3.7-16.8-11-31-21.3-47.7-32.3-15.5-10-31.2-19.9-47-29.5-7-6.4-9.9-4-7-4.4zM91 378.6c11.5 17 26.1 34 31.6 50.7 16.5 2 32.4 2.7 52.5 11.7l-26.2-21.7-23-7.8c-2.1-4.3-9-2.4-7.6 1.2l-11-22.3zM254.3 502c7.5 11.5 14 25.2 17.3 39.6.1-3.6 8.4-4.5 6.9 1.4 11 1.2 21 5.5 31 9.4l-15.9-15.8c-4.7-2.5-10.4-5-16.7-5 0-3.8-3.5-2.7-3.2-.7-1-5.4-2-10.6-3.5-15.2a209.5 209.5 0 00-16-13.7z"/>
    <path fill="none" stroke="#000" stroke-linecap="round" stroke-linejoin="round" stroke-width=".5" d="M286.5 533.6l17 16.6m-22-18.4l17.7 17m-20.9-12.1c7.2.8 14.2 2.7 21 5.8M273.7 531l-3.5-15.2-16-13.7c8.2 13.2 15 26.3 17.4 39.6m5.3-10c-.5-4.2-3.1-2-3.2-.7 0 1.2-2.1 10.7-2.1 10.7 3-6.7 8.5-1.2 6.9 1.4m0 0c1.2-2.8-1-7.7-1.6-11.5 6.2-.6 11.5 2.2 16.7 5.1l15.9 15.8c-10.3-3.5-20.5-8.8-31-9.4zM145.6 418.5l24 20.1M141 417.1l10.6 8.4m-17.8-11l13.3 10.3 15.5 11.8m-31.9-14.7l27 5m-32-16.1c2 6 8.3 14 3.6 18.7 5-8.5-6.3-7.8-6.6-.2m-18.3-40.8l3 2 12.7 26.2c-5-8.7 4.4-9.7 5.9-5.2l23 7.8 24.6 20.8a165 165 0 00-50.9-10.8M91 378.6c3.2 1.6 8.6 5.5 13.3 10l15.7 28.1a87.1 87.1 0 012.6 12.6C114.5 410 102.1 394 91 378.6zm83.2 50.3l-1.8 1.7-4.4-3.6 1.4-1.3A1227.4 1227.4 0 0026.5 329m29 8.4c1-1.4 4.8-.7 5.3 1m-4.8 1.4c1.6-.8 2.7-.5 4 .5l1 6.5c-1-4.3-2-4.6-3.9-4.5-.7 0-.7 2.1-1.3 2.5zm-29.6-43.2l.1 32.4M168 427c-75.3-57-94.5-64.6-141.2-94.5l-.3-3.5m333 264.5v3.6c-19.4-22-41.8-41.8-63-62.5-42.3-38.8-82.7-69.4-124.1-104M115 373l4.1 15.6m-52.3-35.3l-2.1-13.6A1438 1438 0 01166 411.4m8.1 17.5c42.8 32.3 84 65.6 121.9 100.8l-2.3 2.5 2.7 2.4 2-2.7m32.6 21.5l1.1 10.7m-33.7-32.2c20 19.7 39.2 35.9 61 61.6M297 520.8a1284 1284 0 0163 62.3m.4-21.3l-.7 35.3m-70.8-108.6l-.3 5m2.2 1.3l-.8 3m.9 4l.9-3m-.1 10.1l1.4-4.4m-.8 14l2.8 3.5m-2.9-4l2-8.2m0 0l.9 12.2 1.9-1.3m-6.2-25.9l69.5 71.4M289 489.8l71.1 73m-70.6-71.4l70.7 72.6m-71.4-75.5l71.5 73.3m-63.4-41.1l1.6 11.2-2.4-2.2.8-9-5-21.1-4.6-15.5-4.4-10.4m4.4 10.4l73 77.7-.2 6.5-68.4-69.6m-16.8-23.3c-.8-.8-1-1.6-.5-1.8.6-.2 1.6.2 2.4 1s1 1.6.5 1.9c-.5.2-1.6-.3-2.4-1M236.6 414l37.4 35.1 8.9 24.5m-36.1-33.9l36 33.9 4.3 16-32.2-29.2m-54.4-58.9l-1.3-2.4-15.5-30 53 45 10 25.6c-10.4-9.3-28.8-25.2-46.2-38.2zm46.3 38.2l8.1 20.7a519.3 519.3 0 00-28.8-24.6c-.6-2.5-4.1-14-5.4-18.2m2.8 8.8l2.7 9.5-14.5-12-5.4-11m-5.8-11.4l5.8 11.5 17.2 13.4-3.2-9.4m-38.2 6.8c0-6 86.8 51.1 110 94.7-1.4-9.4.5-15.4-5-28.8-24-21.7-46.6-42.1-75.5-65.9a96.2 96.2 0 00-29.5 0zm26.3-19.4c-1.4-.7-2.3-1.8-2-2.5.2-.7 1.6-.7 3 0s2.3 1.8 2 2.5c-.2.7-1.5.7-3 0m-2.6-6.7c-1.3-.7-2-1.7-1.7-2.1.3-.5 1.6-.4 3 .3s2 1.6 1.7 2c-.4.6-1.7.4-3-.2m-3.2-7.4c-.6-.4-.9-1.1-.6-1.5.2-.4.8-.5 1.4 0s.8 1 .6 1.5c-.2.4-.8.4-1.4 0M186 408l3.2.1m-3.8-2.6c2.5-.2 2.5 0 2.5 0m-5.9-2.4l5.2-.3m-6.7-4.6h7.6m-7.6-9.5l6.7.4.9 9.1c-1.8-7-2.7-6.9-5.7-6.6-1 .1-1 6-2 6.6zm-1.1 23.4c1-.3 2.1-.6 3.2-.4.3 0 .1-.5.5-.5 5-.9 12.3-.9 18.4-.3.2 0-.5.8-.2.8.9 0 2.3.4 3.1.4m-25-11c1-.2 2.1-.6 3.4-.3v-.5c-.3-.3 9.6-1 12.6 0l-.4.6h3.5m-19.7-36l.7 57.6c1.2-.3 1.5-.8 4.4-.6l-.8-1c6.7-.3 13-1 21-.3l-.3.8c2-.4 3.3 0 4.8.2l-4.2-9.5-24.1-46.1zm-3.3-3c-.7 21 .5 40.7 1 61m-2.1-26.6l-10-2.3m10-8.2l1.2 37-3.2-.6m-27.8-67.9l-15.8-3.8 17.6 12.5 13 20.2m-14.8-28.9l1.8 8.7 14.6 19.5 13.6-20.5zm-118.1-60c31.6 17.2 88.3 52.3 127.9 82.5m-128-84.6c31.7 17.3 86.4 50.7 126 81M26.7 290.4a1097 1097 0 01124 79.8m-124-81.9c31.7 17.3 83 49.2 122.6 79.4M26.4 296.6l.3-12.4C70.4 310 108 336.5 146.4 363c3 5 10 17 9 16.2-8.8-8.4-125.3-84.9-129-82.6zm149.2 126.2l1 .1m-17.2-39.7l10 42.5 4.8 3.2-13.2-46.4.6 1.4 12.7 2 .2-24h1m36.1 62c-.4-1-.5-2-3-2.3" paint-order="markers stroke fill"/>
    <path d="M59.8 340.4c-.7-.8-3-1.2-3.8-.6-.1.7-.3 3.2.1 3.9.4-.2 1.3-1.7 1.8-1.6.8 0 1.8 1.2 2.4 1.7.4-.3-.3-2-.3-2.4 0-.4 0-.7-.2-1zm143.4 48.8c-.3-.5-1.3-.1-.8.5.2.3 1 .9 1.3.4 0-.4-.2-.7-.5-1zm4.7 7.8c-1-.7-2.2-1.5-3.4-1.2-.5.4.5.9.7 1.2 1 .6 2.1 1.2 3.2 1 .1-.5-.2-.8-.5-1zm2.5 6.2c-1-1-2.4-1.6-3.6-1.2-.4.8.7 1.4 1.2 1.8 1 .6 2 1 3.1.8.1-.7-.2-1-.7-1.4zm65.1 70.9c-.2-.2-1-.5-1 0a3 3 0 002.3 2c.4.2.6-.3.3-.6-.4-.6-1-1.1-1.6-1.4zm-64.9-50c-7.6-1-15.3-1.3-23-.5-.3.1-1.5 0-1.2.6 3.2 1.8 6.5 3.5 9.6 5.5 19.4 12.1 37.7 26 55 41.1 11.6 10.4 22.9 21.4 32.4 33.8 2.5 3.3 4.8 6.7 7.1 10.1.2.5 1 .8.8 0-.2-6.2-.5-12.5-2.3-18.6-.7-2-1.3-4-2.3-6-8-7.6-16.4-14.9-24.6-22.3a1644.8 1644.8 0 00-50.6-43.5l-.9-.2zM180.7 389v8.1c.2 0 .2-1 .3-1.2.2-1.2.3-2.5.7-3.7 0-.4.3-.8.8-.8.8-.1 1.7-.2 2.6 0 1 .4 1.4 1.4 1.8 2.3l.5 1.2c.4 1.4 0-.4 0-.5l-.4-5c-1-.6-4.6-.4-6.3-.4z" paint-order="markers stroke fill"/>
    <path fill="url(#d)" d="M165.2 466.6l51.4 170.2-44.1-170.2c.8-7.6-5.7-6.5-7.3 0zm0 0L233.4 697l-60.8-234.2c-1.5-4.6-7.8-.1-7.4 3.8z" paint-order="markers stroke fill" transform="translate(-42.4 -37.5)"/>
    <path fill="url(#e)" d="M313.6 580.6l51.3 170.1-44-170c.7-7.7-5.8-6.6-7.3-.1zm0 0L381.7 811 321 576.7c-1.5-4.5-7.7 0-7.3 3.9z" paint-order="markers stroke fill" transform="translate(-42.4 -37.5)"/>
    <g stroke-width=".1">
      <path stroke="#000" d="M104.4 278.9l.7 7.1 3.6 7c39.6 14.6 44.1 23.5 61.9 41.1l6.6 2.6 30.3 10.3-39.6-31.1-2.4-8.6a26.4 26.4 0 00-14.5-12c-5.3-1-10.5-.8-15.6.7z"/>
      <path fill="#e6e6e6" stroke="#f2eded" d="M176.7 334.3c1.6.4 7-3 7-3l2.8 2-9.3 3.4zm-4.5-1.3c3.5 1.6 4.5 1.3 4.5 1.3l.5 2.4-6.6-2.6zm-6-6.4l4.4 7.5 8-5.1c-12-.7-9-2-12.5-2.4zM152 296l4 6.1 9.3 6c-2-4-6.2-9-13.3-12.1zm-7 5.6l-9.2-5.5c4.6-1.3 8.6-1.6 15.3-.6l4.1 6.2c-3-.5-6.4-.8-10.1-.1zm-40.5-22.7c17 9.9 32.4 17 51.7 30.3l-9.4-6.7 6-.3c3 1.6 6.3 2.8 8 5.3l1.2 4.5 3.4 2.2v-.3l-3.2-2.1-1-4.2c2.4 1.5 5.1 2.6 6 6l.8 2.2a662.3 662.3 0 0139.5 31.2c-34.3-22.1-67.1-44.8-102.8-66.3zm5 14.7l7 4.3c3.2-1.2 5.4-3 8-4.8l-1.8-1.2-4.4 3.1c-2.5-.2-3-.4-5.8-3.7zm-4.8-13l11.6 7.3-7.2 5.5-.4-.5-3.6-6.9z"/>
    </g>
  </g>
</svg>
