<?xml version="1.0" encoding="UTF-8" standalone="no"?>
<svg
   xmlns:dc="http://purl.org/dc/elements/1.1/"
   xmlns:cc="http://creativecommons.org/ns#"
   xmlns:rdf="http://www.w3.org/1999/02/22-rdf-syntax-ns#"
   xmlns:svg="http://www.w3.org/2000/svg"
   xmlns="http://www.w3.org/2000/svg"
   xmlns:sodipodi="http://sodipodi.sourceforge.net/DTD/sodipodi-0.dtd"
   xmlns:inkscape="http://www.inkscape.org/namespaces/inkscape"
   inkscape:version="1.0 (4035a4fb49, 2020-05-01)"
   sodipodi:docname="asteroids-arcade-game-logo-sticker.svg"
   viewBox="0 0 776.5863 139.58716"
   height="139.58716"
   width="776.5863"
   id="svg2"
   version="1.1">
  <metadata
     id="metadata8">
    <rdf:RDF>
      <cc:Work
         rdf:about="">
        <dc:format>image/svg+xml</dc:format>
        <dc:type
           rdf:resource="http://purl.org/dc/dcmitype/StillImage" />
        <dc:title></dc:title>
      </cc:Work>
    </rdf:RDF>
  </metadata>
  <defs
     id="defs6" />
  <sodipodi:namedview
     inkscape:pagecheckerboard="true"
     fit-margin-bottom="0"
     fit-margin-right="0"
     fit-margin-left="0"
     fit-margin-top="0"
     inkscape:current-layer="svg2"
     inkscape:window-maximized="1"
     inkscape:window-y="222"
     inkscape:window-x="-8"
     inkscape:cy="30.319382"
     inkscape:cx="408.03606"
     inkscape:zoom="0.64965436"
     showgrid="false"
     id="namedview4"
     inkscape:window-height="987"
     inkscape:window-width="1680"
     inkscape:pageshadow="2"
     inkscape:pageopacity="0"
     guidetolerance="10"
     gridtolerance="10"
     objecttolerance="10"
     borderopacity="1"
     bordercolor="#666666"
     pagecolor="#ffffff">
    <inkscape:grid
       originy="-302.00331"
       originx="-1.4318072"
       id="grid837"
       type="xygrid" />
  </sodipodi:namedview>
  <g
     transform="translate(-8.3692876,-299.54439)"
     id="asteroidsTitle-group">
    <path
       style="display:inline;opacity:1;fill:#000000;fill-opacity:1;stroke:#000000;stroke-width:1px;stroke-linecap:butt;stroke-linejoin:miter;stroke-opacity:1"
       d="m 9.2356804,434.84662 78.1184636,-132.76291 55.414086,0.38482 2.69374,11.92942 c 10.63465,-6.92094 35.44511,-22.37252 65.28633,-9.22788 v -2.17687 h 237.95918 c 8.63088,1.46409 17.2725,3.1108 26.25851,10.61224 6.88717,-4.89833 14.4789,-9.48352 27.80136,-11.52173 10.17839,-2.03971 21.72366,-1.73621 34.44139,0.57723 6.10262,1.42698 11.96088,4.07578 17.70173,7.31158 l 1.15446,-7.50399 h 100.0532 c 11.27887,1.9841 21.36609,5.70151 28.66909,13.4687 7.04655,-6.07242 13.97461,-12.21593 28.09186,-14.04593 9.87705,-2.47897 19.75409,-0.93652 29.63114,-0.76964 38.261,10.05229 40.06322,31.15929 41.94539,39.05924 v 28.66909 h -6.54194 c 13.56243,62.18964 -58.5188,86.36555 -104.09382,53.8748 -9.06885,5.89543 -18.37675,11.44316 -31.36283,11.6408 l -116.60047,0.0962 c -13.17032,6.5055 -26.05642,4.48445 -38.86682,0.19241 l -68.30555,0.57723 -3.27097,-5.00266 v 5.14537 H 209.4864 L 211.19435,429 C 193.88364,440.92463 176.96065,437.72788 160,436 H 95 l -2,-14 h -2 l -8.082904,14 z"
       id="asteroidsTitle-blackFill"
       sodipodi:nodetypes="cccccccccccccccccccccccccccccccccc" />
    <path
       id="asteroidsTitle-RedFill"
       style="opacity:1;fill:#ff0321;fill-opacity:1;stroke:#ff0000;stroke-width:1px;stroke-linecap:butt;stroke-linejoin:miter;stroke-opacity:1"
       d="m 727.07812,306.77148 c -3.09867,-0.0337 -6.15788,0.13949 -8.86132,0.62305 -12.30761,2.20144 -24.27052,4.40078 -33.1836,16.75586 -14.70295,-13.46856 -22.93316,-13.84889 -31.22461,-14.35351 h -92.32812 l -2.10742,11.8125 c -6.4948,-5.29289 -12.60538,-10.14164 -23.13086,-12.44532 -14.22185,-3.11269 -23.79065,-1.8572 -32.92578,0 -13.69124,2.78347 -19.88685,8.36336 -28.29688,13.47852 -12.55966,-12.16183 -19.03351,-11.96892 -27.00976,-12.78516 H 215.96875 v 3.23633 c -6.05122,-2.01832 -12.00945,-4.68206 -18.29883,-5.03125 -8.40372,-0.94606 -14.82858,-0.57285 -20.95312,0 -10.76838,2.25258 -24.98315,1.67901 -36.18555,22.45898 l -3.94922,-21.08789 H 90.1875 l -69.144531,118.86719 0.998047,-0.002 57.142578,0.8164 7.61914,-13.60546 h 13.249996 v 13.75781 l 59.26758,1.08789 c 21.01833,0.28298 42.68178,4.55864 61.63281,-15.79688 l -2.375,14.41993 h 190.67774 l 6.92773,-34.15235 h 1.73047 c -0.0957,11.66388 -4.27406,24.4945 5.00391,33.47852 h 54.06641 l -1.73243,-5.38672 c 19.87184,9.297 40.51876,12.27203 62.91797,0.96094 l -1.37304,5.125 h 101.61914 c 14.80767,-1.3779 26.8094,-6.49778 36.17382,-15.13086 7.75229,8.55279 15.02269,12.66028 21.65625,14.51757 18.52606,5.18708 49.21235,4.82847 64.81836,-12.26171 9.73441,-10.66017 21.62812,-30.82569 4.99024,-54.22461 h 11.90429 v -18.77539 c -2.37753,-30.46704 -29.41168,-33.6771 -36.53125,-34.96485 -3.91276,-0.70772 -9.18513,-1.33642 -14.34961,-1.39258 z m -210.375,47.77344 c 2.90276,0.25891 2.28579,9.32327 1.31836,13.86328 -1.14603,5.37818 -3.46,14.93091 -8.12109,14.35938 -4.66109,-0.57153 -3.38303,-7.36953 -3.12305,-11.25391 0.38324,-5.72603 2.74182,-11.74397 6.77344,-15.82812 0.65339,-0.6619 1.64251,-0.93065 2.55078,-1.13086 0.19585,-0.0432 0.45858,-0.15063 0.60156,-0.01 5e-5,5e-5 0,2.3e-4 0,2.3e-4 z m 123.76563,3.44531 c 6.06304,0 3.65794,6.72116 2.99414,10.20313 -1.54852,8.12283 -3.74461,12.61819 -8.30078,11.42969 -4.11015,-1.07216 -2.06523,-10.53594 -1.49749,-12.65477 1.13843,-4.24868 1.92767,-8.97805 6.80413,-8.97805 z"
       sodipodi:nodetypes="ssccccssccccccccccccccccccccccccccccsscccssscazaaaacssass" />
    <path
       id="asteroidsTitle-YellowFill"
       style="fill:#ffff00;stroke:#000000;stroke-width:4;stroke-linecap:butt;stroke-linejoin:miter;stroke-miterlimit:4;stroke-dasharray:none;stroke-opacity:1"
       d="m 727.75391,319.51758 c -4.1482,0.004 -8.16826,0.32678 -12.06446,0.96094 -8.5241,2.02718 -22.84686,8.2989 -26.26953,18.76953 -2.12772,6.50911 -2.81056,13.29381 0,20.54297 2.43987,6.29303 3.40115,13.36962 35.08985,20.55468 5.36786,1.92057 16.42814,11.92061 0,17.00391 h -11.42774 c -8.04812,-2.67321 -6.01067,-8.70466 -6.93555,-13.75 h -24.08007 c 6.12783,-15.84879 12.95704,-51.91093 -28.68946,-62.60938 h -49.93164 l -19.07617,94.97852 h 56.32617 c 11.56805,-2.82667 22.83477,-3.54056 36.87891,-23.66406 19.04945,44.97742 77.98332,25.55901 83.91797,-1.13086 3.15735,-14.19957 -4.6207,-31.29703 -38.33008,-36.54297 -8.2854,-1.36891 -12.93877,-8.97017 0.004,-14.41992 h 8.43554 c 3.12821,1.19386 6.31,2.25328 6.9375,9.94336 h 27.89063 c -1.0256,-9.65903 -0.38982,-23.45191 -25.8418,-29.67578 -4.40891,-0.64869 -8.68578,-0.96457 -12.83398,-0.96094 z m -99.82813,26.42578 h 16.93164 c 20.458,0 8.55604,43.80018 -6.74609,45.79492 l -19.4336,-0.58203 z m -56.45408,-24.96153 29.65982,0.14465 -19.48348,95.64062 -30.20392,-0.55297 z m -52.24123,-1.49941 c -5.18647,-0.0248 -10.25736,0.507 -15.20899,1.67188 -17.82677,4.19375 -27.86781,14.53994 -34.06445,28.8789 0.65335,-27.0582 -14.67793,-27.09971 -21.0625,-27.90429 h -59.06836 l -19.55664,93.96875 h 28.86133 l 6.93555,-32.69922 h 17.125 c 2.81986,0.75045 4.52163,0.53269 7.41015,7.41015 -0.44737,8.61133 -3.23761,17.80683 0,25.49805 h 27.59961 c -0.84481,-1.35626 -1.44036,-2.87843 -1.51758,-4.74609 v -27.95899 c 0.0594,-7.20424 -3.49226,-10.02539 -8.49218,-11.08984 6.66713,-0.7066 11.68022,-5.05591 16.5664,-9.6836 l -0.77539,21.54883 c 1.2582,12.92606 3.80841,29.6727 35.9707,33.7793 4.06512,0.3255 8.01331,0.72832 13.66016,0 5.50856,-1.33469 32.7911,-1.06882 45.0918,-40.44141 2.85184,-9.12831 3.41586,-22.00092 0.13672,-32.84961 -2.77067,-9.16646 -6.47421,-17.95797 -23.70899,-23.71093 -5.41312,-1.0656 -10.71587,-1.64706 -15.90234,-1.67188 z m -2.90235,23.71289 c 1.28273,-0.0159 2.53532,0.15103 3.73829,0.49805 9.76006,2.81659 14.27227,16.64529 10.07812,30.88672 -4.19359,14.24031 -15.50424,23.50132 -25.26367,20.68554 -9.76006,-2.81658 -14.27228,-16.64528 -10.07813,-30.88671 3.60059,-12.22644 12.59052,-21.07362 21.52539,-21.1836 z m -102.16992,0.95313 h 19.62696 c 10.4901,0 10.50643,18.42896 -3.85352,18.2832 l -19.43359,-0.19726 z m -226.65039,-24.8125 c -3.83261,0.028 -7.66549,0.42022 -11.49609,1.09375 -8.49205,1.49314 -23.6351,5.28439 -28.66211,23.86328 -1.09763,4.05664 -1.00626,8.29441 0,12.69922 1.60935,7.04474 5.63911,10.74065 10.10351,13.85156 7.55366,5.26359 17.43748,6.40583 26.46094,9.71289 15.74461,5.77032 7.80117,15.64536 0,16.83789 -4.93585,0.75452 -8.40373,0.64192 -11.16015,0 -8.1796,-2.53273 -6.61512,-7.8465 -7.69922,-12.4043 h -28.66797 l -9.63086,-63.54687 H 96.986328 l -54.972656,95.21289 29.947266,0.56055 7.964843,-13.79688 h 30.400389 l 1.24805,13.86133 h 29.82226 l -3.16796,-22.68164 c 14.33498,38.13678 63.22183,23.09291 72.64648,13.28516 11.63861,-12.11172 15.87759,-28.12398 -0.46094,-43.21289 -5.72427,-5.28646 -16.20415,-7.60095 -29.16601,-10.48829 -9.21338,-2.73751 -9.41569,-9.43247 -0.19922,-13.5332 0.0655,-0.0291 0.13272,-0.0589 0.19922,-0.0879 2.22003,-0.96927 6.48709,-1.20739 10.89453,0 0.27839,0.0763 0.54538,0.16201 0.79883,0.25781 4.2386,1.60188 5.06045,5.83939 4.85156,9.52735 h 26.9375 l 0.19336,-4.22657 h 22.60742 l -14.25781,70.42579 H 263 l 14.64453,-70.41797 24.91602,-0.28125 -14.74024,70.63476 h 80.33203 l 5.00977,-24.79883 h -50.83203 l 3.02148,-11.27148 h 44.80274 l 6.16211,-23.00195 h -46.89844 l 2.93164,-10.94336 h 49.92969 l 5.1914,-24.89063 H 226.61523 l -2.59375,14.72071 h -1.92578 c -2.50982,-6.74611 -8.99766,-12.37556 -23.09179,-15.86719 -3.83194,-0.78561 -7.66348,-1.12177 -11.4961,-1.09375 z m -82.30469,36.06836 3.80079,27.48437 -18.501957,-0.27734 z" />
  </g>
</svg>
