<?xml version="1.0" encoding="UTF-8"?>
<svg width="63.87mm" height="67.364mm" version="1.1" viewBox="0 0 63.87 67.364" xmlns="http://www.w3.org/2000/svg">
 <title>Medium Asteroid Icon Vector Graphic</title>
 <g transform="translate(-114.44 -122.1)">
  <path id="icon-mediumAsteroid" transform="translate(89.454 -19.084)" d="m80.311 203.2c-1.0011 1.7197-18.385 4.3035-20.157 4.0719-1.7724-0.23161-15.385-3.0395-16.817-3.8603-1.4327-0.82075-1.5499-3.8863-2.6016-5.5988s-13.345-12.48-14.381-13.952c-1.0358-1.4715 7.5495-10.393 7.1305-12.17s-2.6722-5.9166-1.883-7.7645c0.7892-1.8478 6.7327-12.71 8.0502-14.138 1.3176-1.4282 5.6356-0.3074 7.2044-1.3457 1.5688-1.0384 12.045-6.7628 13.725-5.893s17.093 11.493 18.647 12.626c1.5544 1.1326-2.5925 5.4488-1.6645 6.9246 0.92793 1.4759 8.2626 16.319 8.3449 17.989 0.08231 1.6693 2.0645-0.0153 1.6323 1.9454-0.43212 1.9608-6.2284 19.445-7.2295 21.165z" fill="none" stroke="#BADA55" opacity="0.8" stroke-linecap="round" stroke-linejoin="round" stroke-width="3.5082" style="paint-order:markers stroke fill"/>
 </g>
</svg>
