<svg xmlns="http://www.w3.org/2000/svg" xmlns:xlink="http://www.w3.org/1999/xlink" viewBox="0 0 456.9 1097.9">
  <defs>
    <path id="reuse-1" fill="none" stroke="#484646" stroke-width=".3" d="M243.6 526.6c.6.2 1.2.2 1.7.5.5.2-.5-.4.3.2.2.2 1 0 1.1 0h.3c.4-.2.5-.5 1-.4m-5 7.8c.5.6 1 .9 1.7 1m2.4-4.6c-.6 1-.1 1.1-2 1.5m-2.1-3c-.4 0-.8 0-1 .2-1.4.6-1.2 2-.8 2.5m6.1 2.1c1 0 .5-1.1 1.3-1m.7-5c.7 1.2.9 1.3 1.6 1.4"/>
    <path id="reuse-0" fill="#9e9e9e" stroke="#000" stroke-linecap="round" stroke-linejoin="round" stroke-width="1.4" d="M37 124.8c-1.8 1.4.2.3-1.9 1.2-2.1 1-1 .4-3.4.7s-.2.3-2.5-.1-.5.7-2.6-.3c-2-1-.3-.2-2-1.8s-.3-.5-1.4-2.6-.5-.3-.9-2.6-.8.2-.7-2.1c.1-2.3-.5-.9.3-3 .8-2.3.2-.4 1.4-2.4 1.3-2 .4-.6 2.2-2 1.8-1.5.1-.6 2.3-1.5 2-1 .6-.4 3-.5 2.3 0 .2-.8 2.5-.2 2.2.6 0 0 2 1.1 2.1 1.1 1 .2 2.7 1.7 1.7 1.6.2.3 1.4 2.4 1 2.1 1.1 0 1.6 2.2.5 2.3 0 0 0 2.5 0 2.3-.2.9-1 3-.6 2.3.6.4-.9 2.3-1.4 1.8-.3.6-2.1 2z" paint-order="markers stroke fill"/>
  </defs>
  <defs>
    <linearGradient id="a">
      <stop offset="0" stop-color="#fa0"/>
      <stop offset="1" stop-color="#fa0" stop-opacity="0"/>
    </linearGradient>
    <linearGradient id="d" x1="168.6" x2="242" y1="460.6" y2="707.1" gradientUnits="userSpaceOnUse" xlink:href="#a"/>
    <linearGradient id="e" x1="168.6" x2="242" y1="460.6" y2="707.1" gradientTransform="translate(148.3 114)" gradientUnits="userSpaceOnUse" xlink:href="#a"/>
    <linearGradient id="c" x1="442.9" x2="432.5" y1="359.5" y2="376.6" gradientUnits="userSpaceOnUse">
      <stop offset="0" stop-color="#fff"/>
      <stop offset="1" stop-color="#fff" stop-opacity="0"/>
    </linearGradient>
    <filter id="b" width="1.2" height="1.2" x="-.1" y="-.1" color-interpolation-filters="sRGB">
      <feGaussianBlur result="blur" stdDeviation="15.8"/>
      <feComposite in="SourceGraphic" in2="blur" operator="atop" result="composite1"/>
      <feComposite in2="composite1" operator="in" result="composite2"/>
      <feComposite in2="composite2" operator="in" result="composite3"/>
      <feTurbulence baseFrequency="0.151142 0.151142" result="turbulence" seed="14" type="fractalNoise"/>
      <feDisplacementMap in="blur" in2="turbulence" result="map" scale="30" xChannelSelector="R" yChannelSelector="G"/>
      <feColorMatrix result="colormatrix" values="1 0 0 0 0 0 1 0 0 0 0 0 1 0 0 0 0 0 1 -0"/>
      <feComposite in="composite3" in2="colormatrix" operator="atop" result="fbSourceGraphic"/>
      <feColorMatrix in="fbSourceGraphic" result="fbSourceGraphicAlpha" values="0 0 0 -1 0 0 0 0 -1 0 0 0 0 -1 0 0 0 0 1 0"/>
      <feGaussianBlur in="fbSourceGraphic" result="blur" stdDeviation="3.15 17.3396"/>
      <feComposite in="fbSourceGraphic" in2="blur" operator="atop" result="composite1"/>
      <feComposite in2="composite1" operator="in" result="composite2"/>
      <feComposite in2="composite2" operator="in" result="composite3"/>
      <feTurbulence baseFrequency="0.151142 0.151142" result="turbulence" seed="14" type="fractalNoise"/>
      <feDisplacementMap in="blur" in2="turbulence" result="map" scale="30" xChannelSelector="R" yChannelSelector="G"/>
      <feColorMatrix result="colormatrix" values="1 0 0 0 0 0 1 0 0 0 0 0 1 0 0 0 0 0 1 -0"/>
      <feComposite in="composite3" in2="colormatrix" operator="atop" result="fbSourceGraphic"/>
      <feColorMatrix in="fbSourceGraphic" result="fbSourceGraphicAlpha" values="0 0 0 -1 0 0 0 0 -1 0 0 0 0 -1 0 0 0 0 1 0"/>
      <feGaussianBlur in="fbSourceGraphic" result="blur" stdDeviation="3.15 17.3396"/>
      <feComposite in="fbSourceGraphic" in2="blur" operator="atop" result="composite1"/>
      <feComposite in2="composite1" operator="in" result="composite2"/>
      <feComposite in2="composite2" operator="in" result="composite3"/>
      <feTurbulence baseFrequency="0.151142 0.151142" result="turbulence" seed="14" type="fractalNoise"/>
      <feDisplacementMap in="blur" in2="turbulence" result="map" scale="30" xChannelSelector="R" yChannelSelector="G"/>
      <feColorMatrix result="colormatrix" values="1 0 0 0 0 0 1 0 0 0 0 0 1 0 0 0 0 0 1 -0"/>
      <feComposite in="composite3" in2="colormatrix" operator="atop" result="composite4"/>
    </filter>
  </defs>
  <g fill="#f0f" stroke="#ff00ce" stroke-width=".5">
    <path fill="#000" stroke-linecap="round" stroke-linejoin="round" d="M211.2 30.4h451.6v1036.7H211.2z" paint-order="markers stroke fill" transform="matrix(-1.0105 0 0 1.0616 670 -32)"/>
    <path fill="navy" stroke-width=".4" d="M234.3 848.2l280.6 171.4 29.8-1.5 3.3-387.8-310.4-111.6z" filter="url(#b)" transform="matrix(-1.1639 0 0 1.2184 684.8 -156.5)"/>
  </g>
  <g fill="#fff" stroke="#535afc" stroke-width=".7">
    <path d="M490.4 476.8C627 535 324 532.8 238 532.6v9.5c438-3.5 260-67.2 229.3-76.3z" transform="matrix(-1.0105 0 0 1.0616 670 -32)"/>
    <path d="M512.5 484.8c12.4 5.6 17.8 11.2 21 17.3 9.8 19-11.6 29.2-13.3 30.3-56.4 33.6-220.5 54-282.3 58.5l.5 20.2c435.4-57.4 286-136.7 228.8-145.3a231.2 231.2 0 0145.3 19z" transform="matrix(-1.0105 0 0 1.0616 670 -32)"/>
    <path d="M550.5 514.3c21.9 45-252.8 147-313.2 167.8l-.5 54.8c128.4-65 346.8-172.3 317-223.8a61.4 61.4 0 00-18.6-20 164.8 164.8 0 00-68-27.3c21.2 4 39.7 11.7 54.1 21.1 19.2 12.5 22.8 14.2 29.2 27.4z" transform="matrix(-1.0105 0 0 1.0616 670 -32)"/>
    <path d="M237.6 928.9l1.5 77.5c98.8-53.7 282-306.5 329.9-414 15.3-34.4 12.7-60 2.5-73.3-14-17.8-58-48-104.3-53.3 36 2.4 87.2 38.8 96.4 49 9.1 9.3 13.4 31.7 9.7 39.5-36.8 78.4-246.7 349.3-335.7 374.6z" transform="matrix(-1.0105 0 0 1.0616 670 -32)"/>
    <path d="M467.2 465.8c34.8 5.7 147.2 41 146 109.2l-3.9-.2c-.4-11.7 2.2-45.9-68.9-81.8-5-2.5-12.3-7.7-19.7-11-14.6-6.7-32-12.1-53.5-16.2z" transform="matrix(-1.0105 0 0 1.0616 670 -32)"/>
    <path d="M467.2 465.8c37.7 4 101.8 36.6 154.3 63.3l-.4 4.2c-33.2-14.7-84.8-54.5-153.9-67.5z" transform="matrix(-1.0105 0 0 1.0616 670 -32)"/>
  </g>
  <g stroke-linecap="round" stroke-linejoin="round" paint-order="markers stroke fill">
    <path fill="#253f53" stroke="#1e3241" stroke-width="2.4" d="M246.5 379a55.8 56.6 0 0064.4-46.2 55.8 56.6 0 00-45.5-65.3 55.8 56.6 0 00-64.5 46 55.8 56.6 0 0045.3 65.5"/>
    <path fill="#d30009" stroke="#d30009" stroke-width="2.8" d="M247.8 370.1a47.5 48 90 0055.3-38.8 47.5 48 90 00-39-54.9 47.5 48 90 00-55.4 38.7 47.5 48 90 0038.9 55"/>
    <path fill="#ff0" stroke="#d30009" stroke-width="2.7" d="M250.7 355.3a30.9 32.5 0 0035.6-26.5 30.9 32.5 0 00-25.1-37.6 30.9 32.5 0 00-35.7 26.5 30.9 32.5 0 0025 37.6"/>
    <path fill="#f9f9f9" stroke="#000" stroke-width="1.5" d="M221 402.1c3.8-2.4 3-3.6 3-5 1.2-1.3.7-2.7.8-4.1 1.6 0 2.5-2.9 2.3-8.2 1.7 0 2.8-9.3 1-6.7.2-1.7 0-3.2 0-4.8 2.4-.1 3-5.7 1.9-6.6 1.8-2 .5-2.9 2.4-5.6 2-2.8 6.7-8.2 4.4-8 1.7-1.6 3-1.4 5.1-6.1 2 .4 4.1.6 5.3-5.1 1.5.2 3 .6 3-3 2.2-.4 5.9-8.1 6.2-8.7.4-.6-2.4-1.8-3.1-2.2-.1 0-.5 0 0 0 2.5.7 2.8 2 3.3 1.3l1.6-2.3c.8-.8-1.6 2.2-1.7 2.6 0 .2.7.9 3.5.5-1.7.3-1.9.3-3.4 0l-2 3.7v.2c2.2-1.7 8 3.3 6.6-5 2.8.4 3.4-2.3 4.3-4.8-.5 1.3-.4 2.2-1.6 4 2.4-.5 3.8.4 5.5-3.6-.2.8-1.7 2-.5 3.8 1.2 1.4 3.4.7 3.7 1.9 1.4 6.5 4.3 4.1 4.8 12 1.4 3.3 2.3-2.5 6.1 3 1.6 3 1.6 2.5 3.3 3 1.1 2 2.4 2.6 3.6 3.2 1 1 .9.2 2.6 1.8 2.5 0 4 4.8 5.2 7.6-1-3.1-2-6.3-4.8-8.4-2.5-1.1-3-2.7-4.1-4.2-.6-.9-.7-1.9-2.7-2.5 0-1 0-2.2-1-2.8-.3-1.4-1.2-1.8-2.2-2.2-.4-.9 0-2.1-1.4-2.7 0-2.7 0-5.8-3.7-7.6-2.1-1.1-3.3-2-3.8-3.7-.8-2.3-1.2-4.4-3.4-5.9 1.5-2.5 2.4-4.7.2-5.8 2.6.7 2.3-3.5 3.5-5.3 4.6.7 4.3-2.5 5.6-4 7.7 2.8 6.7-.4 9-1 2.1.4 4.2 0 6.3-.5 2 1.5 4.3 1.3 6.5 1.4 1.8 1 2.5 2.8 3.7 3.1 1.4.4 2.5 0 3.9.3 3.3.5 3.6 2.3 5.5 3.4 2.6 2.6 4 .8 6 1 .3-.5-.6-2.3-5.5-2.4-.7-2-3-2.5-4.4-3.8-3-1-4-2.5-5.8-3.8-.8-1-1.8-1.8-3.7-1-.4-1.6-1.6-2-3-2.2a8.3 8.3 0 00-4.7.2c-3.5-2.6-5.3-.7-5.8 0-2-.8-4.2-.3-6.4-.1-.9.5-1.4 1.2-1.5 2-3.8-1-6.2 0-7.3 1l-.6 1.7c-3.2-.4-6-.4-5.4 2.6-3-4.4-8.1-4.3-1.8 1.8-.6-.3-1.5-2.3-2.8-3.3-.7-.4-1.5.5-2.3-.1 3.8.6.5-5.7-3-4.7 5.4-.3.8-4-1.3-5.4 3.6.7.2-6.6-1.1-8.2 1.2-5.4-1.2-6.3-1.9-9.4.5-1.8-.5-1.8-1-2.3 2.6 1.6.6-4.2 1-6.6 2 .9 1.4-3.5 2-5.3.5-5-.5-4.8-1.2-6 1-.4 1-1.8.8-3.3-.9-5.6-2.5-20.3.4-16.8 0-3.2 1.2-8.5-1-8.5.3-2.4.2-3.4-1.7-4.7-.6-.4.4-2.3-.6-3.9-1-1.8-.4-4.2-.4-7.6.6-4.1-.8-4.5-1-6-.6-2.7-1.3-5.3-1.4-7.8-.2-5.5.4-15.6-.6-16.5-2.3 1.9-3.1 16-.6 23.2v16.9l1.8 4.7c-.1 2.9 2.3 3.8.4 6.2-4 5.3.2 10.8-.4 17 .3 1.3-.6 5.6.4 4.6 0 1.8-.1 9.2.4 7 0 2-.4 5 .7 3.5-1.9 3.3-2.5 2-3.2 3.5 1-.1.3 7.5.4 4.9 0-2.5-1.5 6.2-.5 4 .5.5.7-.5 2 2.7-.3 2.3-.8 6.5 0 3.8.5-1.8.6 0 .7.2 1.4 1.9.7 2.3 0 6.9.1 1.1.7 1 1.1 1.2-.7 2.8-.3 4-.1 6 1.5 3.7-1.2 4.7 2.8 6.6l-.9-.3c-4-2.1-3.8.5-4.8 1.3.9-3.6-2.4-2.1-3.3-1-.2-1.6-2-1.7-3.6-2-.6-1.5-2-2.2-3.3-2.9-2.5-3.4-5.2-6.5-9.1-7 .5 0-.7-4.2-.5-2.5 0 .7-5.1-7.4-3.7-7 1.2.2-.9-7-3.1-6.6 4.6-.8-5.7-7.1-8.5-10.6a25.2 25.2 0 01-6-5.7c-7-4.8-10.2-8.4-12-13.8a19 19 0 00-6.7-10 55.3 55.3 0 01-14.4-22.7c-1.2 8.1 3.8 17.6 11.6 23.5 2.7 6.6 5.1 7.9 7.7 11.7 1 4.7 4.2 7.5 6.3 9.5.4.3 0-1.4.4-.9-.6 3.2 5 6 7.6 8.9 1.5 4.2 3.5 6 5.8 5.9 3 7.2 4 5.9 5.7 7.1 7.2 25.7 5 10 7.3 14.3.3 7.7 6 7.7 9.4 11 .5 2.6 1.1 5 3.5 5 .5 1.7.4 4 2.2 4.3-2.6-.5-5.2-1-6.7 1.2-4-4-7.6-4.5-10.8-2.1-3.6-2.6-4.6.2-6.6 1-6-3.6-10.6-3-11.1-1.6-1 .1-.7.3-3.3.3-.4-1.5-4.6-2-9-3.9-1.6-.6-2.5-2.2-4-3-2.5-1.5 1.2 2.7-7.8-3.2-2-2.6-3.9-.3-5.8-.3-1.2.3-2.4.3-3.5.2-1-3.1-18-3.3-15.7-1.5.8.7.1.8-2.9.2 2.8 2 1.4 4.5 12.1 2.8.5 2.1 2.7 1.5 4.3 2 1.5.8 2.7-.3 4-1 0 .7.8.9 1.9 1 1 .2 2 .4 2.2-1 2.3.9 2.6 3.6 4.3 3.4 4.6-.4 6 3 9 4.4 3 1.2 5.9 3.3 9.4 2.3 2.5.5 3.2 1.7 4 2.8-1.3 3.7 8.8-1.7 6.7-.3-.6 2.8.5.2 2.5-.5-1.4 1.2-5.2 3 2 1.8 3.6.9 6.8 1.3 7.2-1.7 3.5 1 14.5 9.7 9.9 2l1.2-.1c3.7 5.5 9.1 2.6 9 .7.7 2.2 0 6 1.9 6.4-3-.7-1.9 3-1.8 5.6-2.9-1-2.1 4.3-3.2 6.5-5 3-7.2 5.3-7.8 11-1 .5-1 1.9-1.1 3.2-2.1 1.8-2.4 3-3.1 4.7-1 2.3-2 4-1.5 7.1-.9 1-3.5-.2-4 6.4-.4 3-.8 6 .5 8.4-1.7.6-1.7 2.5-1.8 4.4-.7 1.4-.2 2.7-.1 4-1 .4-1.3 1.8-1 4.5-.6.6-1 1.4-1 2.7-.2 2.3.3 4 .7 5.8z" opacity=".8"/>
    <g>
      <path fill="url(#c)" stroke="#242d34" stroke-width="2.4" d="M399.9 416a55.8 56.6 0 01-64.4-46.1 55.8 56.6 0 0145.4-65.4 55.8 56.6 0 0164.5 46 55.8 56.6 0 01-45.3 65.5" transform="matrix(-1.1099 0 0 1.0512 774 401.2)"/>
      <path fill="#00112b" stroke="#d30009" stroke-width="2.8" d="M398.5 407.1a48 47.5 0 01-55.3-38.8 48 47.5 0 0139-54.8 48 47.5 0 0155.5 38.6 48 47.5 0 01-39 55" transform="matrix(-1.1099 0 0 1.0512 774 401.2)"/>
      <path fill="#ffc800" stroke="#d30009" stroke-width="2.7" d="M395.7 392.3a30.9 32.5 0 01-35.7-26.5 30.9 32.5 0 0125.2-37.5 30.9 32.5 0 0135.7 26.4 30.9 32.5 0 01-25 37.6" transform="matrix(-1.1099 0 0 1.0512 774 401.2)"/>
      <path fill="#ccc" stroke="#04a" stroke-width=".4" d="M382.7 365.4c-2-.2-4-.8-5-3-2.3.4-4.5 1.6-7-1.4-3.7 3.9-8.5 6.4-17.9 3.6-3.6 4-8.3 5.4-14.1 3.5-2.2 1.3-2.8 2.6-9 .9a10.3 10.3 0 01-8.7.9c-1.7 1.5-1.7 4.4-6.9 3.2-2 1-4 .1-6.1-.5-1.2 1.2-2.4 2.3-5.6 1.3-1.7 2.3-3.2.8-4.8 1.1.8-3.2 2.5-2.6 4-2.9 1.3-1.3 2.7-2.6 5.5-1.3 1.9-1.6 3.6-2 5.8-.4 1.3-1 2.5-2 5.6-1.6 3-1.2 5-4.2 9.3-3.3 2-1.4 5.9-1.7 9.2.4 4.8-3.2 9.6-5.9 15.1-4.2 3.4-3 7.5-4.8 11.9-6.2 2.1-1.1 2.3-.5 2.9-.2-1-1-.5-2.3 0-3.5 2.7-4.4 4-4.3 5-3.6-.8-5.6 2-4.2 4.4-4l-2.4-.2c-.6-1.5-1.3-3 0-5.3-1.1.1-1.6-1.4-2-3-.8-3.5-.4-4 0-5a11.6 11.6 0 01-1.7-9.6c-4.5-3.5-2.4-8.6-3-13.1-7.9-7.1-7.1-21.3-7.2-29.8-3-3.7-2.5-7.8-3.7-11.8 3.5.6 4.2 7.5 5.9 12.2.6 7.3-.7 11 3.3 18.1 1.7 9.5 7.5 9.7 5.3 10-.4.7-.8 1.4-.2 5 .3 1.2 1.8 1.1 2 2 .5 1.8.9 4.4 0 6.5 1.6.2 2.5 2.2 3.1 4.8.3 1 .7 2 0 3 1.4.3 1.5 1.3 2 2.1.3 1 .8 1.6 0 3.9 4.5 0 4.5 2 6.3 3.5-.7-1-.5-2.8 0-4.3.4-1.3 1-1.7 2-2.2-.5-6.1.4-5.8.7-8 1.7-5 3.5-9 5-10.8 2-1.8 4.9-4 6.6-7.9.2-12.4 2.4-14.3 3.8-20.6-3.4-3.6 1.3-6.2 2.3-16.3-.6-9 1-7.8 1.9-9.8-1-8 1.5-9.6 2.5-14.1 2 16.2 1 19.7-1.1 19.3-.4 2.6-.5 6-1.9 5.7 1.4 6.5-1.4 12.7 0 14.7-2.1 5.2-2.1 6.6-1.6 7 .3 1 .8-3.3-.8 6.8-3 3.1-.2 7.7-4.1 10.9 1.7-1.4 1.4 1 .8 4-3.6 6-4.7 6.1-6.4 7.8.5 5.6-.7 9-3 11.1-.2 2.5-.5 3.7-.7 7.1v1.6c.5 1.5 1.2 2.3 1.9 3.7-.6-1.8-2-3-1.8-5.2l.3-3.4c2-.5 5 3.4 4.5 5.2 2.2-1.3 2.5-.1 3.6 0 2.7-4 6-7.7 14.4-7.3 1.3-2.4 2-5 9.7-5.4 2.6-3.8 6.6-6.7 15.2-6.7 1.6-1.4 3-3 7.5-2.3 3.5-4.5 10-7.6 16.4-10.7 2.5-1 4.8-.2 6.8-.9 7.2-1.5 12.8-6.8 18.8-11.4-1 4-8.1 10.8-18.3 13.3-1.5.7-1 1.4-6.3 2.4-4.3 1.8-7.7 7-12.9 8.2-3.9 1-4.1 4.6-7 5.1l-.4.1-4.5.8c-9.4 9.6-11.5 6.5-16.3 8-4.3 4.4-5.9 3.2-8.3 3.8-2.9 5-6 4.9-9.3 5.1-1.2 2.2-6.3 6.9-7.7 4 .6 1.8 3.5 1.2 5.3-1 .1 1 .9 4.4-2.2 3.5.3-.4 1.8-.2 2.2-.4 6.6-1.9 11.5 1.6 17.3.7 2.9-1 8.7-1.1 9.3.8 2.7-2.4 6.9.8 10-.3 6.2-2.1 13.8-1 16.5.8 7-.6 7.9.1 11.1.4 4.7-.6 8.6 1 12.8 1.7 4.4-1.1 7 .7 10.5 1-4.2 2-8.7 2.9-13.6.7-2.2.4-4.4.9-7 .4-1.5.2-3 .4-4.6-.1-4.2.6-7.1.2-9.4-.1-1.4-.2-2.7.4-4.5-.5-3.2.8-6.5 1-9.7.3-3.3-.7-6.8-1-9.8-.7l-2.5-.2c-1.9-.2-4.3 1.1-6 1-2.2.7-2.9 1.6-7.2 1a9.1 9.1 0 01-6 4l-3.5-1.7c-1.6 0-3.2.2-4.9-.3-1.4-.6-2-1.8-2.6-3 .2 1.1.4 2.2 2.5 3.4 2.2.6 3.3.1 5 .2l3.4 1.7c3.8 2.3 1.5 2.5 3.3 4.2 5.2 1.3 6.6 4 7.8 6.5 4.5 2.7 8.7 4.8 12.7 6.7 2.5 2.5 5.3 4.2 8.4 5.2 1.7.5 3.3 1.3 4.2 3.4 4.5-1 11.1 5.3 11.2 6.8 2.6-.6 8 4.2 12 6.4 4.8.4 10.6 5 16 7.6a44.8 44.8 0 01-22.7-8c-.6 1.4-1.7.1-2.6 0-5.4-5.5-10-5.8-18.2-10.9.5.8-3.6.7-4.1-.3-.7-1.1-3.3-5.2-7.7-6-9-1.3-14.3-7.2-13.3-8-1.5.1-3.3 1.6-4.4.2-1.8-2.4-2.9-3-4.2-4.1-5.3.9-5.1-.7-4.2-2.7h-2.2c-1.7.2-3.4.4-2.6-2-1.8 4-6.6 4.6-7.2 3.8-.3-.4-.1-2.2-.4-3.8-.2-1.4 2-3.2 3.3-1.8 0-.3 0-1.7-.5-2.7 1 3.5-.6 1.6-1.4 2-.8.3-1.5 1-1.6 1.5-.1.6.1 1.3.1 1.3-.4-.2-2.4-1-2.7-.8l2.8 1c.2 5 .3 2.6.4 4.1-1.4 5.4-2.8 7-4.1 8 .5 1.1 1.1 2 0 6.8-2 2.8-.8 6-2 8.5-1.8 3.2-1.6 1.8-2.4 2.6.8 6.6-.6 8.1-1.7 10.7-1 2.5-1 5.1-2.5 6.6.2 2 .4 3.8-.3 5.6-.6 3.4-.6 8.6-1.8 10-.5.6-1.1 1-1.2 2.2 2 12 0 21.8 0 32.7-.9-8-4-15.4-2.3-24.2-.3-1.8-.1-3.7 0-5.6-1.8-5.3-.4-8 .7-8-1-5.3-.1-5.3.7-6.7.5-13.6 2.2-10.2 3-12.9-1.3-4.3-.3-6.4.2-9 .5-1.2.6-2.6 1.9-3.2-.7-2 0-2.8 0-4l2.4-9.6c-.4-1.6-.8-3-.5-5v-5-.2c0-1.6.3-1.5.7-2.2.2-.5 1-1.5 1-1.5z" opacity=".9" transform="matrix(-1.1099 0 0 1.0512 774 401.2)"/>
    </g>
    <g>
      <path fill="#951c33" stroke="#101c24" stroke-width="2.4" d="M399.9 416a55.8 56.6 0 01-64.4-46.1 55.8 56.6 0 0145.4-65.4 55.8 56.6 0 0164.5 46 55.8 56.6 0 01-45.3 65.5" transform="matrix(-.54618 .27089 .27465 .55375 311.6 455.5)"/>
      <path fill="#d30009" stroke="#d30009" stroke-width="2.8" d="M398.5 407.1a48 47.5 0 01-55.3-38.8 48 47.5 0 0139-54.8 48 47.5 0 0155.5 38.6 48 47.5 0 01-39 55" transform="matrix(-.54618 .27089 .27465 .55375 311.6 455.5)"/>
      <path fill="#ff0" stroke="#d30009" stroke-width="2.7" d="M395.7 392.3a30.9 32.5 0 01-35.7-26.5 30.9 32.5 0 0125.2-37.5 30.9 32.5 0 0135.7 26.4 30.9 32.5 0 01-25 37.6" transform="matrix(-.54618 .27089 .27465 .55375 311.6 455.5)"/>
      <path fill="#ccc" stroke="#000" stroke-width=".4" d="M382.7 365.4c-2-.2-4-.8-5-3-2.3.4-4.5 1.6-7-1.4-3.7 3.9-8.5 6.4-17.9 3.6-3.6 4-8.3 5.4-14.1 3.5-2.2 1.3-2.8 2.6-9 .9a10.3 10.3 0 01-8.7.9c-1.7 1.5-1.7 4.4-6.9 3.2-2 1-4 .1-6.1-.5-1.2 1.2-2.4 2.3-5.6 1.3-1.7 2.3-3.2.8-4.8 1.1.8-3.2 2.5-2.6 4-2.9 1.3-1.3 2.7-2.6 5.5-1.3 1.9-1.6 3.6-2 5.8-.4 1.3-1 2.5-2 5.6-1.6 3-1.2 5-4.2 9.3-3.3 2-1.4 5.9-1.7 9.2.4 4.8-3.2 9.6-5.9 15.1-4.2 3.4-3 7.5-4.8 11.9-6.2 2.1-1.1 2.3-.5 2.9-.2-1-1-.5-2.3 0-3.5 2.7-4.4 4-4.3 5-3.6-.8-5.6 2-4.2 4.4-4l-2.4-.2c-.6-1.5-1.3-3 0-5.3-1.1.1-1.6-1.4-2-3-.8-3.5-.4-4 0-5a11.6 11.6 0 01-1.7-9.6c-4.5-3.5-2.4-8.6-3-13.1-7.9-7.1-7.1-21.3-7.2-29.8-3-3.7-2.5-7.8-3.7-11.8 3.5.6 4.2 7.5 5.9 12.2.6 7.3-.7 11 3.3 18.1 1.7 9.5 7.5 9.7 5.3 10-.4.7-.8 1.4-.2 5 .3 1.2 1.8 1.1 2 2 .5 1.8.9 4.4 0 6.5 1.6.2 2.5 2.2 3.1 4.8.3 1 .7 2 0 3 1.4.3 1.5 1.3 2 2.1.3 1 .8 1.6 0 3.9 4.5 0 4.5 2 6.3 3.5-.7-1-.5-2.8 0-4.3.4-1.3 1-1.7 2-2.2-.5-6.1.4-5.8.7-8 1.7-5 3.5-9 5-10.8 2-1.8 4.9-4 6.6-7.9.2-12.4 2.4-14.3 3.8-20.6-3.4-3.6 1.3-6.2 2.3-16.3-.6-9 1-7.8 1.9-9.8-1-8 1.5-9.6 2.5-14.1 2 16.2 1 19.7-1.1 19.3-.4 2.6-.5 6-1.9 5.7 1.4 6.5-1.4 12.7 0 14.7-2.1 5.2-2.1 6.6-1.6 7 .3 1 .8-3.3-.8 6.8-3 3.1-.2 7.7-4.1 10.9 1.7-1.4 1.4 1 .8 4-3.6 6-4.7 6.1-6.4 7.8.5 5.6-.7 9-3 11.1-.2 2.5-.5 3.7-.7 7.1v1.6c.5 1.5 1.2 2.3 1.9 3.7-.6-1.8-2-3-1.8-5.2l.3-3.4c2-.5 5 3.4 4.5 5.2 2.2-1.3 2.5-.1 3.6 0 2.7-4 6-7.7 14.4-7.3 1.3-2.4 2-5 9.7-5.4 2.6-3.8 6.6-6.7 15.2-6.7 1.6-1.4 3-3 7.5-2.3 3.5-4.5 10-7.6 16.4-10.7 2.5-1 4.8-.2 6.8-.9 7.2-1.5 12.8-6.8 18.8-11.4-1 4-8.1 10.8-18.3 13.3-1.5.7-1 1.4-6.3 2.4-4.3 1.8-7.7 7-12.9 8.2-3.9 1-4.1 4.6-7 5.1l-.4.1-4.5.8c-9.4 9.6-11.5 6.5-16.3 8-4.3 4.4-5.9 3.2-8.3 3.8-2.9 5-6 4.9-9.3 5.1-1.2 2.2-6.3 6.9-7.7 4 .6 1.8 3.5 1.2 5.3-1 .1 1 .9 4.4-2.2 3.5.3-.4 1.8-.2 2.2-.4 6.6-1.9 11.5 1.6 17.3.7 2.9-1 8.7-1.1 9.3.8 2.7-2.4 6.9.8 10-.3 6.2-2.1 13.8-1 16.5.8 7-.6 7.9.1 11.1.4 4.7-.6 8.6 1 12.8 1.7 4.4-1.1 7 .7 10.5 1-4.2 2-8.7 2.9-13.6.7-2.2.4-4.4.9-7 .4-1.5.2-3 .4-4.6-.1-4.2.6-7.1.2-9.4-.1-1.4-.2-2.7.4-4.5-.5-3.2.8-6.5 1-9.7.3-3.3-.7-6.8-1-9.8-.7l-2.5-.2c-1.9-.2-4.3 1.1-6 1-2.2.7-2.9 1.6-7.2 1a9.1 9.1 0 01-6 4l-3.5-1.7c-1.6 0-3.2.2-4.9-.3-1.4-.6-2-1.8-2.6-3 .2 1.1.4 2.2 2.5 3.4 2.2.6 3.3.1 5 .2l3.4 1.7c3.8 2.3 1.5 2.5 3.3 4.2 5.2 1.3 6.6 4 7.8 6.5 4.5 2.7 8.7 4.8 12.7 6.7 2.5 2.5 5.3 4.2 8.4 5.2 1.7.5 3.3 1.3 4.2 3.4 4.5-1 11.1 5.3 11.2 6.8 2.6-.6 8 4.2 12 6.4 4.8.4 10.6 5 16 7.6a44.8 44.8 0 01-22.7-8c-.6 1.4-1.7.1-2.6 0-5.4-5.5-10-5.8-18.2-10.9.5.8-3.6.7-4.1-.3-.7-1.1-3.3-5.2-7.7-6-9-1.3-14.3-7.2-13.3-8-1.5.1-3.3 1.6-4.4.2-1.8-2.4-2.9-3-4.2-4.1-5.3.9-5.1-.7-4.2-2.7h-2.2c-1.7.2-3.4.4-2.6-2-1.8 4-6.6 4.6-7.2 3.8-.3-.4-.1-2.2-.4-3.8-.2-1.4 2-3.2 3.3-1.8 0-.3 0-1.7-.5-2.7 1 3.5-.6 1.6-1.4 2-.8.3-1.5 1-1.6 1.5-.1.6.1 1.3.1 1.3-.4-.2-2.4-1-2.7-.8l2.8 1c.2 5 .3 2.6.4 4.1-1.4 5.4-2.8 7-4.1 8 .5 1.1 1.1 2 0 6.8-2 2.8-.8 6-2 8.5-1.8 3.2-1.6 1.8-2.4 2.6.8 6.6-.6 8.1-1.7 10.7-1 2.5-1 5.1-2.5 6.6.2 2 .4 3.8-.3 5.6-.6 3.4-.6 8.6-1.8 10-.5.6-1.1 1-1.2 2.2 2 12 0 21.8 0 32.7-.9-8-4-15.4-2.3-24.2-.3-1.8-.1-3.7 0-5.6-1.8-5.3-.4-8 .7-8-1-5.3-.1-5.3.7-6.7.5-13.6 2.2-10.2 3-12.9-1.3-4.3-.3-6.4.2-9 .5-1.2.6-2.6 1.9-3.2-.7-2 0-2.8 0-4l2.4-9.6c-.4-1.6-.8-3-.5-5v-5-.2c0-1.6.3-1.5.7-2.2.2-.5 1-1.5 1-1.5z" opacity=".9" transform="matrix(-.54618 .27089 .27465 .55375 311.6 455.5)"/>
    </g>
  </g>
  <use stroke-linecap="round" stroke-linejoin="round" stroke-width="1.4" paint-order="markers stroke fill" transform="matrix(.12736 .3 .26614 -.11299 193.8 752.6)" xlink:href="#reuse-0"/>
  <path fill="none" stroke="#484646" stroke-width=".154923" d="M226.2 748.6l.6.8c.2.2-.3-.2.2 0l.1.6.1.1v.6m2.7-4c.4.1.7.3.9.7m-1.7 2c.3-.5.5-.3.3-1.3m-1.9-.4l-.1-.5c0-.8.8-1 1-.8m2.3 2.4c.2.5-.4.5-.2.9m-2.3 1.3c.8 0 .8.2 1 .5"/>
  <use stroke-linecap="round" stroke-linejoin="round" stroke-width="1.4" paint-order="markers stroke fill" transform="matrix(.12736 .3 .26614 -.11299 197.7 761.3)" xlink:href="#reuse-0"/>
  <path fill="none" stroke="#484646" stroke-width=".154923" d="M230.2 757.4l.5.7c.2.2-.2-.2.2 0 .2.1.2.5.2.7 0 0 0 0 0 0v.7m2.8-4c.4 0 .6.2.8.6m-1.7 2c.3-.4.5-.2.3-1.2m-1.8-.4l-.2-.6c0-.7.8-.9 1-.8m2.3 2.5c.2.5-.4.4-.2.8m-2.2 1.3c.7.1.8.2 1 .5"/>
  <use stroke-linecap="round" stroke-linejoin="round" stroke-width="1.4" paint-order="markers stroke fill" transform="rotate(153.8 43.1 362) scale(.80405 -.71332)" xlink:href="#reuse-0"/>
  <path fill="none" stroke="#484646" stroke-width=".382212" d="M255.5 747.5c-.5.6-1.2.9-1.7 1.5-.4.5.4-.7-.1.4-.2.4-1.2.5-1.4.6l-.3.1c-.6 0-.9-.2-1.5.2m10.3 6c-.2 1-.6 1.6-1.5 2.2m-5.2-3.9c1.2.7.7 1.2 3 .6m.8-4.6c.5-.1.9-.4 1.3-.4a2 2 0 012.2 2.5m-5.8 5.8c-1.1.6-1.2-1-2-.4m-3.6-5.3c-.1 1.8-.3 2-1 2.4"/>
  <use stroke-linecap="round" stroke-linejoin="round" stroke-width="1.4" paint-order="markers stroke fill" transform="matrix(-.45796 .02642 .02344 .40629 243.7 657.5)" xlink:href="#reuse-0"/>
  <path fill="none" stroke="#484646" stroke-width=".218061" d="M233.5 702.3l-1.3.4c-.3.2.4-.2-.1.3h-.9c0-.1-.1 0-.2 0-.3-.1-.3-.4-.8-.3m4.1 5.5c-.3.5-.7.7-1.3.8m-1.8-3.2c.4.6 0 .8 1.5 1m1.4-2.3h.7c1 .5 1 1.5.6 1.9m-4.3 1.8c-.7 0-.4-.8-1-.7m-.7-3.6c-.4 1-.6 1-1 1"/>
  <use stroke-linecap="round" stroke-linejoin="round" stroke-width="1.4" paint-order="markers stroke fill" transform="matrix(.1665 .3922 .34795 -.14772 175 731.3)" xlink:href="#reuse-0"/>
  <path fill="none" stroke="#484646" stroke-width=".20254199999999997" d="M217.4 726.1l.8 1c.3.2-.3-.2.2 0 .2.2.3.7.3.8V728.8m3.6-5.2c.5.1.8.4 1 .8m-2.1 2.7c.4-.6.6-.3.4-1.6m-2.4-.6l-.2-.7c0-1 1-1.2 1.4-1m2.9 3.2c.3.6-.6.6-.3 1m-3 1.8c1 .1 1.1.2 1.3.6"/>
  <use stroke-linecap="round" stroke-linejoin="round" stroke-width="1.4" paint-order="markers stroke fill" transform="matrix(.49675 .31933 .2654 -.47043 183.4 770.7)" xlink:href="#reuse-0"/>
  <use stroke-width=".3" transform="matrix(.78711 .50599 .47401 -.84022 -215.3 1047.7)" xlink:href="#reuse-1"/>
  <use stroke-linecap="round" stroke-linejoin="round" stroke-width="1.4" paint-order="markers stroke fill" transform="matrix(.10983 .01316 .01167 -.09744 192 570.5)" xlink:href="#reuse-0"/>
  <path fill="none" stroke="#484646" stroke-width=".052581" d="M196.3 560.3h.4s-.1 0 0 0h.2s0 0 0 0h.2m-.7-1.4l.3-.1m.3.8c0-.2 0-.2-.3-.3m-.4.5h-.2a.3.3 0 010-.5m1-.3c.2 0 .1.2.3.2m0 1c.1-.3.2-.3.3-.3"/>
  <use stroke-linecap="round" stroke-linejoin="round" stroke-width="1.4" paint-order="markers stroke fill" transform="matrix(.20585 .02466 .02188 -.18262 189.5 575.5)" xlink:href="#reuse-0"/>
  <path fill="none" stroke="#484646" stroke-width=".098553" d="M197.6 556.4l.6-.1h.1c.1-.1.3 0 .4 0 0 0 0 0 0 0l.4.2m-1.4-2.8c.2-.2.4-.2.7-.2m.6 1.5c-.2-.3 0-.3-.6-.5m-.8.9l-.4-.1a.5.5 0 01-.1-.9m2-.4c.4 0 .2.4.4.4m0 1.6c.4-.4.4-.4.6-.4"/>
  <use stroke-linecap="round" stroke-linejoin="round" stroke-width="1.4" paint-order="markers stroke fill" transform="matrix(.12474 -.21221 -.19194 -.11177 220.5 578.4)" xlink:href="#reuse-0"/>
  <use stroke-width=".3" transform="matrix(.19766 -.33626 -.34282 -.19963 335.5 747.4)" xlink:href="#reuse-1"/>
  <use stroke-linecap="round" stroke-linejoin="round" stroke-width="1.4" paint-order="markers stroke fill" transform="matrix(.54313 .07242 .05772 -.53635 175.6 628.2)" xlink:href="#reuse-0"/>
  <use stroke-width=".3" transform="matrix(.86061 .11475 .10309 -.95796 -67 1048.4)" xlink:href="#reuse-1"/>
  <use stroke-linecap="round" stroke-linejoin="round" stroke-width="1.4" paint-order="markers stroke fill" transform="matrix(.30445 -.43133 -.35491 -.2589 243.3 605.6)" xlink:href="#reuse-0"/>
  <use stroke-width=".3" transform="matrix(.48241 -.68345 -.6339 -.4624 429.5 975.4)" xlink:href="#reuse-1"/>
  <use stroke-linecap="round" stroke-linejoin="round" stroke-width="1.4" paint-order="markers stroke fill" transform="matrix(.18488 -.45876 -.407 -.16402 284.1 621.4)" xlink:href="#reuse-0"/>
  <path fill="none" stroke="#484646" stroke-width=".235119" d="M245 590.8l.2-1.4c0-.4.1.4-.1-.3-.1-.2.3-.7.4-.8v-.2c.3-.3.5-.2.7-.7M239 589a2 2 0 01-.2-1.6m4-.4c-.9.2-.9-.2-1.7 1m1.5 2.4c0 .3-.2.6-.4.8-.8.8-1.8.1-2-.3m.3-5c.2-.8 1 0 1-.7m3.9 1c-.7-.9-.7-1-.5-1.5"/>
  <use stroke-linecap="round" stroke-linejoin="round" stroke-width="1.4" paint-order="markers stroke fill" transform="rotate(6.8 -6282.4 1684.8) scale(.80405 -.71332)" xlink:href="#reuse-0"/>
  <path fill="none" stroke="#484646" stroke-width=".382212" d="M187.2 684.9c.8-.2 1.6 0 2.3-.3.6-.2-.7.3.3-.3.4-.3 1.2.2 1.5.3h.3c.5.2.6.6 1.3.6m-5.3-10.6c.8-.8 1.4-1 2.4-1m2.3 6c-.6-1.2 0-1.3-2.3-2M187 681c-.5-.2-1-.1-1.3-.4a2 2 0 01-.5-3.3m8-1.7c1.3.1.5 1.4 1.5 1.5m.1 6.4c1.1-1.5 1.3-1.5 2.2-1.5"/>
  <use stroke-linecap="round" stroke-linejoin="round" stroke-width="1.4" paint-order="markers stroke fill" transform="matrix(.31421 .74015 .65664 -.27876 116.8 665.5)" xlink:href="#reuse-0"/>
  <path fill="none" stroke="#484646" stroke-width=".382233" d="M196.8 655.8c.6.5.9 1.3 1.4 1.8.6.5-.6-.4.5.1.4.2.4 1.2.4 1.5l.2.3c0 .5-.3.8 0 1.4m6.7-10c1 .4 1.6.8 2 1.7m-4 5c.7-1.1 1.1-.6.6-3m-4.5-1c-.1-.5-.4-.9-.4-1.3a2 2 0 012.6-2.1m5.6 6.1c.5 1.2-1 1.1-.6 2m-5.5 3.3c1.8.2 2 .4 2.4 1.1"/>
  <use stroke-linecap="round" stroke-linejoin="round" stroke-width="1.4" paint-order="markers stroke fill" transform="matrix(.3885 -.704 -.62456 -.34466 295 734.8)" xlink:href="#reuse-0"/>
  <path fill="none" stroke="#484646" stroke-width=".382224" d="M238 677.7c0-.7.5-1.4.6-2.2 0-.7 0 .8-.2-.4-.1-.4.6-1 .8-1.3.1 0 0-.2.2-.3.4-.3.8-.3 1-1m-11.9 1c-.3-1-.3-1.7 0-2.6m6.6.1c-1.4.1-1.3-.5-2.9 1.4m2 4.2c-.3.3-.4.8-.8 1a2 2 0 01-3.2-.7m1.4-8.2c.6-1 1.5.2 1.9-.8m6 2.3c-1-1.5-.9-1.7-.6-2.5"/>
  <use stroke-linecap="round" stroke-linejoin="round" stroke-width="1.4" paint-order="markers stroke fill" transform="rotate(6.8 -6397.9 2144.3) scale(.80405 -.71332)" xlink:href="#reuse-0"/>
  <path fill="none" stroke="#484646" stroke-width=".382212" d="M241 701.9c.8-.2 1.6 0 2.3-.3.7-.2-.7.3.4-.3.3-.3 1.2.2 1.4.3h.4c.5.2.5.6 1.3.6m-5.4-10.6c.8-.8 1.4-1 2.5-1m2.2 6c-.6-1.2 0-1.3-2.3-2m-3 3.4c-.5-.2-1-.1-1.4-.4a2 2 0 01-.5-3.3m8-1.7c1.3.1.5 1.4 1.5 1.5m.2 6.4c1-1.5 1.3-1.5 2.1-1.5"/>
  <use stroke-linecap="round" stroke-linejoin="round" stroke-width="1.4" paint-order="markers stroke fill" transform="rotate(-102.7 338 245.8) scale(.16047 -.14236)" xlink:href="#reuse-0"/>
  <path fill="none" stroke="#484646" stroke-width=".076278" d="M156.1 628.5l-.2-.4c0-.1.1 0 0 0l-.1-.4s0 0 0 0v-.3m-1.7 1.7a.6.6 0 01-.3-.4m1-.8c-.2.2-.3 0-.3.6m.9.3v.3c0 .4-.4.4-.6.3m-.8-1.4c0-.2.2-.2.1-.4m1.2-.4l-.4-.3"/>
  <use stroke-linecap="round" stroke-linejoin="round" stroke-width="1.4" paint-order="markers stroke fill" transform="matrix(-.03517 -.15656 -.1389 .0312 169 630.2)" xlink:href="#reuse-0"/>
  <path fill="none" stroke="#484646" stroke-width=".076278" d="M152.8 629.2c0-.1 0-.3-.2-.4 0 0 .1.1 0 0v-.3h-.1v-.4m-1.6 1.7a.6.6 0 01-.4-.4m1-.8c-.2.2-.2 0-.2.6m.8.3v.3c0 .4-.4.4-.5.3m-.9-1.4c0-.2.2-.2.2-.3m1.2-.5c-.4-.1-.4-.1-.4-.3"/>
  <use stroke-linecap="round" stroke-linejoin="round" stroke-width="1.4" paint-order="markers stroke fill" transform="rotate(-102.7 344.6 243) scale(.16047 -.14236)" xlink:href="#reuse-0"/>
  <path fill="none" stroke="#484646" stroke-width=".076278" d="M167 631.4c0-.1 0-.3-.2-.4 0-.1.1.1 0 0v-.3l-.1-.1v-.3m-1.6 1.7a.6.6 0 01-.4-.4m1-.8c-.2.2-.2 0-.2.6m.8.3v.3c0 .4-.4.4-.5.3m-.9-1.4l.2-.4m1.2-.4c-.4-.1-.4-.2-.4-.3"/>
  <use stroke-linecap="round" stroke-linejoin="round" stroke-width="1.4" paint-order="markers stroke fill" transform="rotate(-102.7 335.8 243.7) scale(.16047 -.14236)" xlink:href="#reuse-0"/>
  <path fill="none" stroke="#484646" stroke-width=".076278" d="M155.6 623.8l-.2-.4c-.1-.2 0 0-.1 0v-.4s0 0 0 0v-.3m-1.7 1.7a.6.6 0 01-.3-.4m1-.8c-.2.1-.3 0-.3.5m.9.4v.3c-.1.3-.5.3-.6.3m-.9-1.4c0-.3.3-.2.2-.4m1.2-.5c-.3 0-.4-.1-.4-.3"/>
  <use stroke-linecap="round" stroke-linejoin="round" stroke-width="1.4" paint-order="markers stroke fill" transform="rotate(-102.7 381.7 266) scale(.16047 -.14236)" xlink:href="#reuse-0"/>
  <path fill="none" stroke="#484646" stroke-width=".076278" d="M189.8 695.6l-.2-.4c0-.1.1.1 0 0l-.1-.3v-.1-.3m-1.7 1.7a.6.6 0 01-.3-.4m1-.8c-.2.2-.3 0-.3.6m.9.3v.3c0 .4-.4.4-.6.3m-.8-1.4c0-.2.2-.2.1-.4m1.2-.4l-.4-.3"/>
  <use stroke-linecap="round" stroke-linejoin="round" stroke-width="1.4" paint-order="markers stroke fill" transform="matrix(-.03517 -.15656 -.1389 .0312 209 692.3)" xlink:href="#reuse-0"/>
  <path fill="none" stroke="#484646" stroke-width=".076278" d="M193 691.3c-.2 0-.2-.3-.3-.4 0 0 .1.1 0 0l-.1-.3s0 0 0 0v-.4m-1.7 1.8a.6.6 0 01-.3-.4m1-.9c-.2.2-.3.1-.3.6m.9.4v.2c0 .4-.4.4-.6.3m-.8-1.4c0-.2.2-.2.1-.3m1.2-.5c-.3 0-.3-.1-.4-.3"/>
  <use stroke-linecap="round" stroke-linejoin="round" stroke-width="1.4" paint-order="markers stroke fill" transform="rotate(-102.7 360 191.5) scale(.16047 -.14236)" xlink:href="#reuse-0"/>
  <path fill="none" stroke="#484646" stroke-width=".076278" d="M235.9 583.7l-.2-.4c-.1-.1 0 0-.1 0v-.4s0 0 0 0v-.3m-1.7 1.7a.6.6 0 01-.3-.4m1-.8c-.2.2-.3 0-.3.6m.9.3v.3c0 .4-.5.4-.6.3m-.9-1.4c0-.2.3-.2.2-.4m1.2-.4l-.4-.3"/>
  <use stroke-linecap="round" stroke-linejoin="round" stroke-width="1.4" paint-order="markers stroke fill" transform="matrix(-.03517 -.15656 -.1389 .0312 252 588.3)" xlink:href="#reuse-0"/>
  <path fill="none" stroke="#484646" stroke-width=".076278" d="M235.9 587.3l-.2-.4c-.1 0 0 .1-.1 0v-.3s0 0 0 0v-.4m-1.7 1.8a.6.6 0 01-.3-.4m1-.9c-.2.2-.3.1-.3.6m.9.4v.2c0 .4-.5.4-.6.3m-.9-1.4c0-.2.3-.2.2-.3m1.2-.5c-.3 0-.3-.1-.4-.3"/>
  <use stroke-linecap="round" stroke-linejoin="round" stroke-width="1.4" paint-order="markers stroke fill" transform="rotate(-102.7 369 187.9) scale(.16047 -.14236)" xlink:href="#reuse-0"/>
  <path fill="none" stroke="#484646" stroke-width=".076278" d="M250.5 588l-.2-.3c-.1-.2 0 0-.1 0v-.4s0 0 0 0v-.3m-1.7 1.7a.6.6 0 01-.3-.4m1-.8c-.2.1-.3 0-.3.5m.8.4v.3c0 .3-.4.3-.5.3m-.9-1.4c0-.3.3-.2.2-.4m1.2-.5c-.3 0-.4-.1-.4-.3"/>
  <use stroke-linecap="round" stroke-linejoin="round" stroke-width="1.4" paint-order="markers stroke fill" transform="rotate(-102.7 371.6 189.5) scale(.16047 -.14236)" xlink:href="#reuse-0"/>
  <path fill="none" stroke="#484646" stroke-width=".076278" d="M252.1 592.6l-.2-.4c0-.1.1.1 0 0-.2 0-.1-.3-.1-.3v-.1-.3m-1.7 1.7a.6.6 0 01-.3-.4m1-.8c-.2.2-.3 0-.3.6m.9.3v.3c0 .4-.4.4-.6.3m-.8-1.4c-.1-.2.2-.2.1-.4m1.2-.4l-.4-.3"/>
  <use stroke-linecap="round" stroke-linejoin="round" stroke-width="1.4" paint-order="markers stroke fill" transform="matrix(-.03517 -.15656 -.1389 .0312 270 596.7)" xlink:href="#reuse-0"/>
  <path fill="none" stroke="#484646" stroke-width=".076278" d="M254 595.7c-.2-.1-.2-.3-.3-.4 0-.1.1.1 0 0v-.3l-.1-.1v-.3m-1.6 1.7a.6.6 0 01-.4-.4m1-.8c-.2.2-.2 0-.2.6m.8.3v.3c0 .4-.4.4-.5.3m-1-1.4c0-.2.3-.2.3-.4m1.2-.4c-.4-.1-.4-.2-.5-.3"/>
  <use stroke-linecap="round" stroke-linejoin="round" stroke-width="1.4" paint-order="markers stroke fill" transform="matrix(-.03517 -.15656 -.1389 .0312 283 607.6)" xlink:href="#reuse-0"/>
  <path fill="none" stroke="#484646" stroke-width=".076278" d="M266.9 606.6l-.2-.4c-.1 0 0 .1-.1 0v-.3s0 0 0 0v-.4m-1.7 1.8a.6.6 0 01-.3-.4m1-.9c-.2.2-.3.1-.3.6m.8.4v.2c0 .4-.4.4-.5.3m-.9-1.4c0-.2.3-.1.2-.3m1.2-.5c-.3 0-.4-.1-.4-.3"/>
  <use stroke-linecap="round" stroke-linejoin="round" stroke-width="1.4" paint-order="markers stroke fill" transform="matrix(-.03517 -.15656 -.1389 .0312 278 608.9)" xlink:href="#reuse-0"/>
  <path fill="none" stroke="#484646" stroke-width=".076278" d="M262 608l-.3-.5c0-.1.1.1 0 0v-.3l-.1-.1v-.3m-1.6 1.7a.6.6 0 01-.4-.4m1-.8c-.2.2-.2 0-.2.6m.8.3v.3c0 .4-.4.4-.5.3m-.9-1.4l.2-.4m1.2-.4c-.4-.1-.4-.2-.4-.3"/>
  <use stroke-linecap="round" stroke-linejoin="round" stroke-width="1.4" paint-order="markers stroke fill" transform="rotate(-102.7 391.8 182) scale(.16047 -.14236)" xlink:href="#reuse-0"/>
  <path fill="none" stroke="#484646" stroke-width=".076278" d="M284 603.2l-.2-.4c-.1-.1 0 0-.1 0v-.4s0 0 0 0v-.3m-1.7 1.7a.6.6 0 01-.3-.4m1-.8c-.2.2-.3 0-.3.5m.9.4v.3c0 .3-.5.4-.6.3m-.9-1.4c0-.3.3-.2.2-.4m1.2-.5c-.3 0-.3 0-.4-.3"/>
  <use stroke-linecap="round" stroke-linejoin="round" stroke-width="1.4" paint-order="markers stroke fill" transform="rotate(-102.7 401.4 188.8) scale(.16047 -.14236)" xlink:href="#reuse-0"/>
  <path fill="none" stroke="#484646" stroke-width=".076278" d="M289 620.8l-.1-.4c-.1 0 0 .1-.1 0v-.3s0 0 0 0v-.4m-1.7 1.8a.6.6 0 01-.3-.4m1-.9c-.2.2-.3.1-.3.6m.9.4v.2c0 .4-.5.4-.6.3m-.9-1.4c0-.2.3-.1.2-.3m1.2-.5c-.3 0-.3-.1-.4-.3"/>
  <use stroke-linecap="round" stroke-linejoin="round" stroke-width="1.4" paint-order="markers stroke fill" transform="matrix(-.03517 -.15656 -.1389 .0312 304 618.5)" xlink:href="#reuse-0"/>
  <path fill="none" stroke="#484646" stroke-width=".076278" d="M288 617.6l-.2-.4c-.1-.2 0 0-.1 0v-.4s0 0 0 0v-.3m-1.7 1.7a.6.6 0 01-.3-.4m1-.8c-.2.1-.3 0-.3.5m.9.4v.3c0 .3-.5.3-.6.3m-.9-1.4c0-.3.3-.2.2-.4m1.2-.5c-.3 0-.3-.1-.4-.3"/>
  <use stroke-linecap="round" stroke-linejoin="round" stroke-width="1.4" paint-order="markers stroke fill" transform="rotate(-102.7 400 185.3) scale(.16047 -.14236)" xlink:href="#reuse-0"/>
  <path fill="none" stroke="#484646" stroke-width=".076278" d="M291 615.2c-.2-.1-.2-.3-.3-.4 0-.1.1.1 0 0-.2-.1-.1-.3-.1-.3v-.1-.3m-1.7 1.7a.6.6 0 01-.3-.4m1-.8c-.2.2-.3 0-.3.6m.9.3v.3c0 .4-.4.4-.6.3m-.8-1.4c-.1-.2.2-.2.1-.4m1.2-.4l-.4-.3"/>
  <use stroke-linecap="round" stroke-linejoin="round" stroke-width="1.4" paint-order="markers stroke fill" transform="rotate(-102.7 426 180) scale(.16047 -.14236)" xlink:href="#reuse-0"/>
  <path fill="none" stroke="#484646" stroke-width=".076278" d="M327.7 634.3l-.2-.4c0-.1.1 0 0 0-.2-.1-.1-.3-.1-.4 0 0 0 0 0 0v-.3m-1.7 1.7a.6.6 0 01-.3-.4m1-.8c-.2.2-.3 0-.3.6m.9.3v.3c0 .4-.4.4-.6.3m-.8-1.4c-.1-.2.2-.2.1-.4m1.2-.4l-.4-.3"/>
  <use stroke-linecap="round" stroke-linejoin="round" stroke-width="1.4" paint-order="markers stroke fill" transform="rotate(-102.7 427.7 181.5) scale(.16047 -.14236)" xlink:href="#reuse-0"/>
  <path fill="none" stroke="#484646" stroke-width=".076278" d="M328.2 637.6l-.2-.4s.1.1 0 0l-.1-.3s0 0 0 0v-.4m-1.6 1.8a.6.6 0 01-.4-.4m1-.9c-.2.2-.3.1-.2.6m.8.4v.2c0 .4-.4.4-.6.3m-.8-1.4c0-.2.2-.1.2-.3m1.2-.5c-.4 0-.4-.1-.5-.3"/>
  <use stroke-linecap="round" stroke-linejoin="round" stroke-width="1.4" paint-order="markers stroke fill" transform="rotate(-102.7 431.2 178.8) scale(.16047 -.14236)" xlink:href="#reuse-0"/>
  <path fill="none" stroke="#484646" stroke-width=".076278" d="M335.2 637.6l-.2-.4c-.1 0 0 .1-.1 0v-.3s0 0 0 0v-.4m-1.7 1.8a.6.6 0 01-.3-.4m1-.9c-.2.2-.3.1-.3.6m.9.4v.2c-.1.4-.5.4-.6.3m-.9-1.4c0-.2.3-.1.2-.3m1.2-.5c-.3 0-.4-.1-.4-.3"/>
  <use stroke-linecap="round" stroke-linejoin="round" stroke-width="1.4" paint-order="markers stroke fill" transform="rotate(-102.7 440.5 184.4) scale(.16047 -.14236)" xlink:href="#reuse-0"/>
  <path fill="none" stroke="#484646" stroke-width=".076278" d="M341.1 653.6l-.2-.4c0-.1.1.1 0 0-.2 0-.1-.3-.1-.3v-.1-.3m-1.7 1.7a.6.6 0 01-.3-.4m1-.8c-.2.2-.3 0-.3.6m.9.3v.3c0 .4-.4.4-.6.3m-.8-1.4c-.1-.2.2-.2.1-.4m1.2-.4l-.4-.3"/>
  <use stroke-linecap="round" stroke-linejoin="round" stroke-width="1.4" paint-order="markers stroke fill" transform="rotate(-102.7 449 169.5) scale(.16047 -.14236)" xlink:href="#reuse-0"/>
  <path fill="none" stroke="#484646" stroke-width=".076278" d="M366 643.8l-.3-.4c0-.1.1 0 0 0-.1-.1 0-.3 0-.4h-.1v-.3m-1.6 1.7a.6.6 0 01-.4-.4m1-.8c-.2.2-.2 0-.2.6m.8.3v.3c0 .4-.4.4-.5.3m-.9-1.4l.2-.4m1.2-.4c-.4-.1-.4-.2-.4-.3"/>
  <use stroke-linecap="round" stroke-linejoin="round" stroke-width="1.4" paint-order="markers stroke fill" transform="matrix(-.03517 -.15656 -.1389 .0312 381 646.4)" xlink:href="#reuse-0"/>
  <path fill="none" stroke="#484646" stroke-width=".076278" d="M364.9 645.4l-.3-.4s.2.1 0 0v-.3h-.1v-.4m-1.6 1.8a.6.6 0 01-.4-.4m1-.9c-.2.2-.2.1-.2.6m.8.4v.2c0 .4-.4.4-.5.3m-.9-1.4c0-.2.3-.2.2-.3m1.2-.5c-.4 0-.4-.1-.4-.3"/>
  <use stroke-linecap="round" stroke-linejoin="round" stroke-width="1.4" paint-order="markers stroke fill" transform="rotate(-102.7 451.2 173.3) scale(.16047 -.14236)" xlink:href="#reuse-0"/>
  <path fill="none" stroke="#484646" stroke-width=".076278" d="M365 650.5s0-.3-.2-.4c0 0 .1.1 0 0v-.3h-.1v-.4m-1.6 1.8a.6.6 0 01-.4-.4m1-.9c-.2.2-.2.1-.2.6m.8.4v.2c0 .4-.4.4-.5.3m-1-1.4c0-.2.3-.2.3-.3m1.2-.5c-.4 0-.4-.1-.5-.3"/>
  <use stroke-linecap="round" stroke-linejoin="round" stroke-width="1.4" paint-order="markers stroke fill" transform="rotate(-102.7 471.3 167) scale(.16047 -.14236)" xlink:href="#reuse-0"/>
  <path fill="none" stroke="#484646" stroke-width=".076278" d="M395.6 662.4c0-.2 0-.3-.2-.4 0-.1.1 0 0 0-.1-.1-.1-.3 0-.4h-.1v-.3m-1.6 1.7a.6.6 0 01-.4-.4m1-.8c-.2.2-.2 0-.2.5m.8.4v.3c0 .3-.4.4-.5.3m-1-1.4c0-.3.3-.2.3-.4m1.2-.5c-.4 0-.4 0-.5-.3"/>
  <use stroke-linecap="round" stroke-linejoin="round" stroke-width="1.4" paint-order="markers stroke fill" transform="matrix(-.03517 -.15656 -.1389 .0312 420.5 643)" xlink:href="#reuse-0"/>
  <path fill="none" stroke="#484646" stroke-width=".076278" d="M404.5 642.1l-.3-.4s.2.1 0 0v-.3h-.1v-.4m-1.6 1.7a.6.6 0 01-.4-.4m1-.8c-.2.2-.2 0-.2.6m.8.3v.3c0 .4-.4.4-.5.3m-.9-1.4c0-.2.3-.2.2-.3m1.2-.5c-.4-.1-.4-.1-.4-.3"/>
  <use stroke-linecap="round" stroke-linejoin="round" stroke-width="1.4" paint-order="markers stroke fill" transform="rotate(-102.7 465 154.8) scale(.16047 -.14236)" xlink:href="#reuse-0"/>
  <path fill="none" stroke="#484646" stroke-width=".076278" d="M399.8 641.4l-.2-.4c-.1 0 0 .1-.1 0v-.3s0 0 0 0v-.4m-1.7 1.8a.6.6 0 01-.3-.4m1-.9c-.2.2-.3.1-.3.6m.9.4v.2c0 .4-.5.4-.6.3m-.9-1.4c0-.2.3-.2.2-.3m1.2-.5c-.3 0-.3-.1-.4-.3"/>
  <use stroke-linecap="round" stroke-linejoin="round" stroke-width="1.4" paint-order="markers stroke fill" transform="rotate(-102.7 464 152.7) scale(.16047 -.14236)" xlink:href="#reuse-0"/>
  <path fill="none" stroke="#484646" stroke-width=".076278" d="M400.6 637.8l-.2-.4s.1.1 0 0v-.3h-.1v-.4m-1.6 1.8a.6.6 0 01-.4-.4m1-.9c-.2.2-.2.1-.2.6m.8.4v.2c0 .4-.4.4-.5.3m-1-1.4c0-.2.3-.1.3-.3m1.2-.5c-.4 0-.4-.1-.5-.3"/>
  <g>
    <use stroke-linecap="round" stroke-linejoin="round" stroke-width="1.4" paint-order="markers stroke fill" transform="rotate(-166.2 246.6 300.8) scale(.20949 -.18585)" xlink:href="#reuse-0"/>
    <path fill="none" stroke="#484646" stroke-width=".099582" d="M404.3 669.8h-.7c-.1.1-.3 0-.4 0v-.1l-.4-.2m1 3l-.6.1m-.4-1.6c.1.3 0 .3.5.6m1-.8l.3.1c.4.3.2.8 0 .9m-2.2.2c-.3 0 0-.4-.3-.4m.2-1.7c-.3.3-.4.3-.6.3"/>
  </g>
  <g>
    <use stroke-linecap="round" stroke-linejoin="round" stroke-width="1.4" paint-order="markers stroke fill" transform="rotate(-102.7 487.6 166.7) scale(.2319 -.20573)" xlink:href="#reuse-0"/>
    <path fill="none" stroke="#484646" stroke-width=".110235" d="M408.7 677.6l-.3-.6c-.2-.1.1.2-.2 0v-.5s0 0 0 0v-.5m-2.4 2.5a1 1 0 01-.5-.6m1.5-1.2c-.3.3-.4.2-.4.9m1.2.5c0 .1.1.3 0 .4 0 .5-.6.5-.8.4m-1.2-2c-.1-.3.3-.3.2-.5m1.8-.7c-.5-.1-.6-.2-.7-.4"/>
  </g>
  <g>
    <use stroke-linecap="round" stroke-linejoin="round" stroke-width="1.4" paint-order="markers stroke fill" transform="matrix(.54539 .31755 .28172 -.48385 345 760.7)" xlink:href="#reuse-0"/>
    <path fill="none" stroke="#484646" stroke-width=".3" d="M390.7 717c.6 0 1.1.4 1.7.5.6 0-.6 0 .4-.2.3 0 .8.6 1 .7l.2.1c.3.4.2.7.7 1m-.5-9.5c.8-.2 1.3-.2 2 .1m-.2 5.1c0-1 .5-1-1-2.3m-3.3 1.5c-.3-.2-.7-.3-.9-.6-.8-1.3.1-2.4.7-2.5m6.4 1.2c.8.5-.2 1.2.6 1.5m-2 4.7c1.3-.7 1.5-.7 2-.4"/>
  </g>
  <g>
    <use stroke-linecap="round" stroke-linejoin="round" stroke-width="1.4" paint-order="markers stroke fill" transform="matrix(-.36172 .51715 .4588 .3209 374.2 645.8)" xlink:href="#reuse-0"/>
    <path fill="none" stroke="#484646" stroke-width=".3" d="M414 695c-.2.6-.6 1.1-.7 1.7 0 .5 0-.6.1.3 0 .4-.6.8-.8 1v.2c-.5.2-.8.1-1 .6m9.4.3c.2.8 0 1.3-.3 2m-5-.6c1 0 .9.5 2.3-.8m-1.2-3.5c.2-.2.4-.6.7-.7 1.3-.8 2.3.2 2.4.8m-1.7 6.3c-.6.8-1.2-.3-1.6.4m-4.5-2.2c.7 1.2.6 1.4.3 2"/>
  </g>
  <g>
    <use stroke-linecap="round" stroke-linejoin="round" stroke-width="1.4" paint-order="markers stroke fill" transform="matrix(-.47173 -.11497 -.13225 .32277 454.7 640.3)" xlink:href="#reuse-0"/>
    <use stroke-width=".3" transform="matrix(-.74747 -.18218 -.23621 .57649 733.7 413)" xlink:href="#reuse-1"/>
  </g>
  <g>
    <use stroke-linecap="round" stroke-linejoin="round" stroke-width="1.4" paint-order="markers stroke fill" transform="matrix(-.54414 -.31969 -.28362 .48274 438 640.2)" xlink:href="#reuse-0"/>
    <path fill="none" stroke="#484646" stroke-width=".3" d="M392 683.7c-.6 0-1.2-.4-1.8-.5-.5 0 .6 0-.3.1-.3.1-.8-.5-1-.7h-.2c-.3-.4-.2-.7-.7-1m.5 9.4c-.8.3-1.4.3-2.1 0m.3-5.1c0 1-.5 1 1 2.2m3.3-1.5l.8.7c.8 1.2-.1 2.3-.7 2.5m-6.3-1.3c-.9-.4 0-1.2-.6-1.5m1.9-4.6c-1.2.7-1.4.6-2 .4"/>
  </g>
  <g>
    <use stroke-linecap="round" stroke-linejoin="round" stroke-width="1.4" paint-order="markers stroke fill" transform="matrix(-.13834 -.61575 -.54627 .12273 463.2 676.3)" xlink:href="#reuse-0"/>
    <path fill="none" stroke="#484646" stroke-width=".3" d="M400 672.5c-.3-.5-.4-1.1-.8-1.6-.3-.4.4.4-.3-.1-.3-.2-.2-1-.2-1.2v-.3c0-.4.3-.6 0-1.1m-6.4 6.8c-.8-.4-1.1-.8-1.4-1.6m4-3.3c-.8.8-1.1.3-1 2.3m3.3 1.4c0 .4.2.7.1 1a1.6 1.6 0 01-2.3 1.3m-3.4-5.5c-.3-1 1-.8.7-1.5m4.7-1.8c-1.4-.4-1.4-.5-1.7-1.2"/>
  </g>
  <g>
    <use stroke-linecap="round" stroke-linejoin="round" stroke-width="1.4" paint-order="markers stroke fill" transform="matrix(-.71377 -.12841 -.1898 .3801 426.6 627)" xlink:href="#reuse-0"/>
    <use stroke-width=".3" transform="matrix(-1.131 -.20347 -.33899 .67888 840.1 356.8)" xlink:href="#reuse-1"/>
  </g>
  <g>
    <use stroke-linecap="round" stroke-linejoin="round" stroke-width="1.4" paint-order="markers stroke fill" transform="matrix(.79834 .09563 .08484 -.70826 322.3 712)" xlink:href="#reuse-0"/>
    <path fill="none" stroke="#484646" stroke-width=".382212" d="M353.8 637.8c.7-.2 1.5 0 2.3-.3.6-.2-.7.3.3-.3.3-.3 1.2.2 1.5.3h.3c.5.2.6.6 1.3.6m-5.4-10.6c.8-.8 1.5-1 2.5-1m2.3 6c-.6-1.2 0-1.3-2.3-2m-3.1 3.4c-.5-.2-1-.1-1.4-.4a2 2 0 01-.4-3.3m8-1.7c1.3.1.5 1.4 1.5 1.5m.1 6.4c1-1.5 1.3-1.5 2.2-1.5"/>
  </g>
  <g>
    <use stroke-linecap="round" stroke-linejoin="round" stroke-width="1.4" paint-order="markers stroke fill" transform="matrix(-.52193 -.35479 -.31475 .46304 388.4 601.3)" xlink:href="#reuse-0"/>
    <path fill="none" stroke="#484646" stroke-width=".3" d="M339.7 641.7c-.6 0-1.1-.5-1.7-.6-.5 0 .6 0-.4.1-.3 0-.7-.5-.9-.7l-.2-.1c-.3-.4-.2-.7-.7-1m0 9.4c-1 .2-1.5.2-2.2-.2m.7-5c0 1-.6.9.8 2.3m3.4-1.3l.8.7c.8 1.3-.3 2.3-.9 2.5m-6.2-1.7c-.8-.6.2-1.2-.5-1.6m2.2-4.5c-1.2.6-1.4.6-2 .3"/>
  </g>
  <g>
    <use stroke-linecap="round" stroke-linejoin="round" stroke-width="1.4" paint-order="markers stroke fill" transform="matrix(-.13834 -.61575 -.54627 .12273 362.6 631.6)" xlink:href="#reuse-0"/>
    <path fill="none" stroke="#484646" stroke-width=".3" d="M299.4 627.8c-.3-.5-.4-1.1-.8-1.6-.3-.4.4.4-.3-.1-.3-.2-.2-1-.2-1.2v-.3c0-.4.3-.6.1-1.1m-6.5 6.8c-.7-.4-1.1-.8-1.4-1.6m4-3.3c-.8.8-1 .3-1 2.3m3.3 1.4c0 .4.2.7.1 1a1.6 1.6 0 01-2.3 1.3m-3.4-5.5c-.2-1 1-.8.7-1.5m4.7-1.8c-1.4-.4-1.4-.5-1.7-1.2"/>
  </g>
  <g>
    <use stroke-linecap="round" stroke-linejoin="round" stroke-width="1.4" paint-order="markers stroke fill" transform="matrix(-.6311 0 0 .55989 442.2 434.8)" xlink:href="#reuse-0"/>
    <path fill="none" stroke="#484646" stroke-width=".3" d="M424.7 495.6c-.6.3-1.2.2-1.8.5-.5.2.5-.4-.2.3-.2.2-1 0-1.2-.2 0 0-.2.1-.2 0-.4 0-.5-.4-1.1-.3m5.2 7.8c-.6.6-1 .9-1.9 1m-2.3-4.5c.6.9 0 1 2 1.4m2.1-3c.4.1.7 0 1 .2 1.4.6 1.1 2 .7 2.5m-6 2.1c-1 0-.6-1-1.4-1m-.7-5c-.6 1.3-.8 1.3-1.5 1.4"/>
  </g>
  <g>
    <use stroke-linecap="round" stroke-linejoin="round" stroke-width="1.4" paint-order="markers stroke fill" transform="matrix(-.34173 0 0 .30317 423.1 524.2)" xlink:href="#reuse-0"/>
    <path fill="none" stroke="#484646" stroke-width=".16244399999999998" d="M413.6 557c-.3.2-.6.2-1 .3-.2.2.3-.1 0 .2h-.7-.1c-.3-.1-.3-.3-.6-.3m2.8 4.3c-.3.3-.6.5-1 .5m-1.3-2.4c.4.4 0 .5 1.1.7m1.2-1.6l.5.1c.8.4.6 1.1.4 1.4m-3.3 1.1c-.6 0-.3-.6-.7-.5m-.4-2.7c-.4.6-.5.7-.8.7"/>
  </g>
  <g>
    <use stroke-linecap="round" stroke-linejoin="round" stroke-width="1.4" paint-order="markers stroke fill" transform="rotate(-143.9 307.3 194) scale(.6311 -.55989)" xlink:href="#reuse-0"/>
    <path fill="none" stroke="#484646" stroke-width=".3" d="M391.2 570.6c-.6-.2-1.1-.6-1.7-.7-.5 0 .6 0-.3.1-.4 0-.8-.6-1-.8l-.1-.1c-.3-.4-.2-.7-.7-1m-.4 9.4c-.8.2-1.4.1-2-.3m.7-5c0 1-.6 1 .7 2.3m3.5-1.1l.8.7c.7 1.3-.4 2.3-1 2.5m-6.1-2c-.9-.5.2-1.1-.5-1.5m2.4-4.4c-1.3.6-1.5.5-2 .1"/>
  </g>
  <g>
    <use stroke-linecap="round" stroke-linejoin="round" stroke-width="1.4" paint-order="markers stroke fill" transform="matrix(-.35108 0 0 .31147 393 527.1)" xlink:href="#reuse-0"/>
    <path fill="none" stroke="#484646" stroke-width=".16689" d="M383.2 561c-.3 0-.6 0-1 .2-.2.1.3-.2 0 .1-.2.2-.6 0-.7 0h-.2c-.2 0-.3-.3-.6-.2m3 4.3c-.4.4-.7.5-1.1.6m-1.3-2.5c.3.5 0 .6 1.1.8m1.2-1.7l.6.1c.7.4.6 1.2.3 1.4m-3.4 1.2c-.5 0-.2-.6-.7-.6m-.4-2.7c-.3.6-.4.7-.8.7"/>
  </g>
  <g>
    <use stroke-linecap="round" stroke-linejoin="round" stroke-width="1.4" paint-order="markers stroke fill" transform="matrix(.3988 .09688 .08595 -.3538 322.5 592)" xlink:href="#reuse-0"/>
    <path fill="none" stroke="#484646" stroke-width=".19508399999999998" d="M342.9 556.3h1.2c.3 0-.4.1.1-.1.2-.1.7.1.8.2h.1c.3.2.3.4.7.4m-2.1-5.7c.4-.3.8-.4 1.3-.3m.8 3.2c-.3-.7 0-.7-1-1.2m-1.8 1.5l-.7-.2a1 1 0 010-1.7m4.2-.4c.6.1.1.7.6.8m-.3 3.2c.6-.6.7-.6 1.2-.6"/>
  </g>
  <g>
    <use stroke-linecap="round" stroke-linejoin="round" stroke-width="1.4" paint-order="markers stroke fill" transform="matrix(-.28783 0 0 .21833 345.2 527.1)" xlink:href="#reuse-0"/>
    <use stroke-width=".3" transform="matrix(-.45608 0 0 .38996 448.3 345.5)" xlink:href="#reuse-1"/>
  </g>
  <g>
    <use stroke-linecap="round" stroke-linejoin="round" stroke-width="1.4" paint-order="markers stroke fill" transform="matrix(-.13834 -.61575 -.54627 .12273 391.2 568.1)" xlink:href="#reuse-0"/>
    <path fill="none" stroke="#484646" stroke-width=".3" d="M328 564.3c-.3-.5-.4-1.1-.8-1.6-.3-.4.5.4-.3-.2-.3-.2-.2-1-.1-1.1l-.1-.3c0-.4.3-.6.1-1.1m-6.5 6.7c-.7-.4-1-.8-1.3-1.5m3.9-3.3c-.8.8-1 .3-1 2.3m3.3 1.4c0 .3.2.7.1 1a1.6 1.6 0 01-2.3 1.2m-3.4-5.4c-.2-1 1-.8.7-1.5m4.7-1.8c-1.3-.4-1.4-.6-1.6-1.2"/>
  </g>
  <g>
    <use stroke-linecap="round" stroke-linejoin="round" stroke-width="1.4" paint-order="markers stroke fill" transform="matrix(-.50132 .38336 .3401 .44476 403 514.3)" xlink:href="#reuse-0"/>
    <path fill="none" stroke="#484646" stroke-width=".3" d="M426 573.2c-.3.6-.9 1-1.2 1.5-.2.5.2-.6 0 .3 0 .4-.8.6-1 .7l-.2.1c-.4.2-.6 0-1 .4m8.8 3c0 1-.3 1.4-.8 2m-4.7-2.2c1 .3.8.8 2.5 0m-.1-3.7c.3-.2.6-.5 1-.5 1.4-.4 2 1 2 1.5m-3.6 5.4c-.8.7-1-.5-1.6 0m-3.6-3.5c.2 1.4 0 1.5-.4 2"/>
  </g>
  <g>
    <use stroke-linecap="round" stroke-linejoin="round" stroke-width="1.4" paint-order="markers stroke fill" transform="rotate(124.6 51.2 381.3) scale(.13169 -.11684)" xlink:href="#reuse-0"/>
    <path fill="none" stroke="#484646" stroke-width=".06260399999999999" d="M402.5 566l-.2.4V566.7h-.1c0 .1-.2 0-.2.2m2 0l-.1.5m-1-.2c.2 0 .1.1.4-.1m-.2-.8l.1-.1c.3-.2.5 0 .5.2m-.3 1.3c-.1.1-.3 0-.4 0m-.9-.4c.1.2.1.3 0 .4"/>
  </g>
  <g>
    <use stroke-linecap="round" stroke-linejoin="round" stroke-width="1.4" paint-order="markers stroke fill" transform="matrix(-.03556 .09723 .08626 .03154 391.3 561.8)" xlink:href="#reuse-0"/>
    <path fill="none" stroke="#484646" stroke-width=".049215" d="M399.7 568v.2c0 .1 0 0 0 0v.2h-.1l-.1.2m1.5-.3v.3m-.8.1c.2 0 .2 0 .3-.2m-.3-.5v-.2h.5m0 1.1c0 .2-.2 0-.2.2m-.9-.2l.2.3"/>
  </g>
  <g>
    <use stroke-linecap="round" stroke-linejoin="round" stroke-width="1.4" paint-order="markers stroke fill" transform="matrix(-.11436 0 0 .10145 404.8 552.7)" xlink:href="#reuse-0"/>
    <path fill="none" stroke="#484646" stroke-width=".05436" d="M401.6 563.7h-.3v.1h-.3s0 0 0 0h-.2m1 1.3l-.4.2m-.4-.8c.1.2 0 .2.3.3m.4-.6h.2c.3.2.2.4.1.5m-1 .4c-.2 0-.1-.2-.3-.2m-.1-.9l-.3.3"/>
  </g>
  <g>
    <use stroke-linecap="round" stroke-linejoin="round" stroke-width="1.4" paint-order="markers stroke fill" transform="rotate(59.1 -310 624.9) scale(.12823 -.11376)" xlink:href="#reuse-0"/>
    <path fill="none" stroke="#484646" stroke-width=".060953999999999994" d="M397.8 566.3l.2.2c.1 0 0 0 0 0 .2 0 .2.2.2.3 0 0 0 0 0 0v.2m.9-1.7c.2 0 .3 0 .4.2m-.6.9c.1-.2.2-.1 0-.5m-.7 0v-.3c-.1-.3.2-.4.3-.3m1 .8v.3m-.8.7l.4.1"/>
  </g>
  <g>
    <use stroke-linecap="round" stroke-linejoin="round" stroke-width="1.4" paint-order="markers stroke fill" transform="matrix(-.15326 0 0 .10979 399.2 552)" xlink:href="#reuse-0"/>
    <use stroke-width=".3" transform="matrix(-.24284 0 0 .19609 454 460.7)" xlink:href="#reuse-1"/>
  </g>
  <g>
    <use stroke-linecap="round" stroke-linejoin="round" stroke-width="1.4" paint-order="markers stroke fill" transform="matrix(-.28783 0 0 .21833 322.1 527)" xlink:href="#reuse-0"/>
    <use stroke-width=".3" transform="matrix(-.45608 0 0 .38996 425.2 345.4)" xlink:href="#reuse-1"/>
  </g>
  <g>
    <use stroke-linecap="round" stroke-linejoin="round" stroke-width="1.4" paint-order="markers stroke fill" transform="matrix(-.04922 .23975 .18187 .03734 285.8 536.4)" xlink:href="#reuse-0"/>
    <use stroke-width=".3" transform="matrix(-.07799 .3799 .32483 .06668 152.1 419.4)" xlink:href="#reuse-1"/>
  </g>
  <g>
    <use stroke-linecap="round" stroke-linejoin="round" stroke-width="1.4" paint-order="markers stroke fill" transform="matrix(-.1586 0 0 .1203 305.8 533.8)" xlink:href="#reuse-0"/>
    <use stroke-width=".3" transform="matrix(-.25131 0 0 .21488 362.6 433.8)" xlink:href="#reuse-1"/>
  </g>
  <g>
    <use stroke-linecap="round" stroke-linejoin="round" stroke-width="1.4" paint-order="markers stroke fill" transform="matrix(-.5387 -.32876 -.29167 .47792 342.9 561.6)" xlink:href="#reuse-0"/>
    <path fill="none" stroke="#484646" stroke-width=".3" d="M296.2 604.4c-.6-.1-1.1-.5-1.7-.6-.6 0 .6 0-.4.2-.3 0-.8-.6-1-.8h-.1c-.3-.4-.2-.7-.8-1m.4 9.4c-.8.3-1.4.2-2.1 0m.4-5.2c0 1.1-.5 1 .9 2.3m3.4-1.4c.2.2.6.3.8.6.8 1.3-.2 2.4-.7 2.5m-6.4-1.3c-.8-.5.2-1.2-.5-1.6m2-4.6c-1.3.7-1.4.7-2 .4"/>
  </g>
  <g>
    <use stroke-linecap="round" stroke-linejoin="round" stroke-width="1.4" paint-order="markers stroke fill" transform="matrix(-.10925 -.44973 -.70675 .05472 276.3 732.7)" xlink:href="#reuse-0"/>
    <use stroke-width=".3" transform="matrix(-.17311 -.71262 -1.2623 .09773 903.4 848.3)" xlink:href="#reuse-1"/>
  </g>
  <g>
    <use stroke-linecap="round" stroke-linejoin="round" stroke-width="1.4" paint-order="markers stroke fill" transform="matrix(-.78692 .16527 .14662 .69813 304.1 790.2)" xlink:href="#reuse-0"/>
    <path fill="none" stroke="#484646" stroke-width=".38223" d="M298.2 870.6c-.7.5-1.5.6-2.1 1-.5.5.5-.5-.2.5-.3.3-1.2.2-1.5.2h-.3c-.6 0-.8-.4-1.5-.1m8.5 8.4c-.5.9-1 1.3-2 1.7m-4-5c.9 1 .3 1.3 2.8 1.2m1.8-4.2c.5 0 1-.2 1.4-.1a2 2 0 011.5 3m-7 4.2c-1.3.3-1-1.3-2-1m-2.1-6c-.6 1.7-.8 1.8-1.6 2.1"/>
  </g>
  <g>
    <use stroke-linecap="round" stroke-linejoin="round" stroke-width="1.4" paint-order="markers stroke fill" transform="rotate(-139.2 308.3 342.1) scale(.80407 -.71334)" xlink:href="#reuse-0"/>
    <path fill="none" stroke="#484646" stroke-width=".382221" d="M250.1 846.5c-.8-.2-1.3-.8-2-1-.7-.2.7 0-.5 0-.4 0-1-.8-1-1l-.3-.2c-.3-.5-.2-.9-.8-1.3m-1.5 11.8c-1 .2-1.7 0-2.6-.5m1.5-6.3c-.1 1.3-.8 1 .7 3m4.6-1c.3.3.7.5.9 1a2 2 0 01-1.5 3m-7.6-3.1c-1-.8.4-1.5-.4-2m3.4-5.4c-1.7.6-1.9.5-2.6 0"/>
  </g>
  <g>
    <use stroke-linecap="round" stroke-linejoin="round" stroke-width="1.4" paint-order="markers stroke fill" transform="matrix(.72488 -.34793 -.30867 -.64309 220.8 947.8)" xlink:href="#reuse-0"/>
    <path fill="none" stroke="#484646" stroke-width=".38221499999999997" d="M207.4 868.3c.5-.6 1.3-1 1.8-1.5.4-.5-.4.6 0-.5.2-.3 1.2-.4 1.5-.5l.3-.1c.5-.1.8.2 1.4-.2m-10.2-6.1c.2-1 .7-1.6 1.5-2.2m5.2 4c-1.2-.8-.7-1.2-3-.6m-.9 4.5c-.4.2-.8.5-1.3.5a2 2 0 01-2.1-2.6m5.8-5.8c1.1-.5 1.2 1 2 .5m3.6 5.3c.1-1.8.3-2 1-2.4"/>
  </g>
  <g>
    <use stroke-linecap="round" stroke-linejoin="round" stroke-width="1.4" paint-order="markers stroke fill" transform="matrix(-.69408 -.4059 -.3601 .61577 257 805.5)" xlink:href="#reuse-0"/>
    <path fill="none" stroke="#484646" stroke-width=".382218" d="M198.5 861c-.8 0-1.5-.5-2.2-.6-.7 0 .7 0-.5.2-.4 0-1-.7-1.2-.9l-.3-.1c-.3-.5-.2-.9-1-1.2m.8 12c-1 .3-1.8.3-2.7-.1m.3-6.5c.1 1.4-.6 1.2 1.3 2.9m4.2-2c.4.4.8.5 1.1 1a2 2 0 01-.9 3.1m-8-1.6c-1.2-.6.1-1.5-.8-2m2.4-5.8c-1.5.9-1.8.8-2.5.5"/>
  </g>
  <g>
    <use stroke-linecap="round" stroke-linejoin="round" stroke-width="1.4" paint-order="markers stroke fill" transform="matrix(.31421 .74015 .65664 -.27876 170.2 818.8)" xlink:href="#reuse-0"/>
    <path fill="none" stroke="#484646" stroke-width=".382233" d="M250.2 809c.6.6.9 1.4 1.4 2 .6.4-.6-.5.5 0 .4.2.4 1.2.4 1.5l.2.3c0 .5-.3.8 0 1.4m6.7-10c1 .4 1.6.8 2 1.7m-4 5c.7-1.1 1.1-.6.6-3m-4.5-1c-.1-.5-.4-1-.4-1.4a2 2 0 012.6-2m5.6 6c.5 1.3-1 1.2-.6 2.1m-5.5 3.3c1.8.2 2 .4 2.4 1.1"/>
  </g>
  <g>
    <use stroke-linecap="round" stroke-linejoin="round" stroke-width="1.4" paint-order="markers stroke fill" transform="matrix(.24643 .47606 .51498 -.1793 270 879.6)" xlink:href="#reuse-0"/>
    <use stroke-width=".3" transform="matrix(.39048 .75433 .91979 -.32024 -246.7 858.3)" xlink:href="#reuse-1"/>
  </g>
  <g>
    <use stroke-linecap="round" stroke-linejoin="round" stroke-width="1.4" paint-order="markers stroke fill" transform="rotate(-178.1 152.6 415.3) scale(.3259 -.28913)" xlink:href="#reuse-0"/>
    <path fill="none" stroke="#484646" stroke-width=".15491999999999997" d="M281.6 866.4c-.3.1-.6 0-1 .2-.2.1.3-.2 0 .1h-.7s0 0 0 0c-.3-.1-.3-.3-.6-.3m2.5 4.2c-.3.3-.5.4-1 .4m-1-2.3c.2.5 0 .5 1 .8m1-1.5h.6c.7.4.5 1.1.3 1.4m-3.2 1c-.5 0-.2-.6-.6-.6m-.3-2.6c-.4.7-.5.7-.8.7"/>
  </g>
  <g>
    <use stroke-linecap="round" stroke-linejoin="round" stroke-width="1.4" paint-order="markers stroke fill" transform="rotate(-42.6 1300.4 47) scale(.3259 -.28913)" xlink:href="#reuse-0"/>
    <path fill="none" stroke="#484646" stroke-width=".15491999999999997" d="M297.5 864.2l.5-.8c.1-.3 0 .3 0-.2 0-.2.4-.3.5-.4 0 0 0 0 0 0 .3-.1.4 0 .6-.3m-4.7-1.2c0-.4 0-.7.3-1m2.5 1c-.5-.2-.4-.4-1.2 0m.2 2c-.2 0-.3.2-.5.3a.8.8 0 01-1.1-.8m1.6-2.9c.3-.4.6.2.8 0m2 1.6c-.1-.7 0-.8.1-1"/>
  </g>
  <g>
    <use stroke-linecap="round" stroke-linejoin="round" stroke-width="1.4" paint-order="markers stroke fill" transform="rotate(-177 174.3 413.9) scale(.3259 -.28913)" xlink:href="#reuse-0"/>
    <path fill="none" stroke="#484646" stroke-width=".15491999999999997" d="M315.8 867.2l-1 .2c-.2.1.3-.1 0 .2l-.7-.1h-.1c-.2-.1-.2-.3-.5-.3m2.4 4.2c-.3.3-.5.5-1 .5m-1-2.4c.2.5 0 .5 1 .8m1.1-1.5l.6.1c.6.4.5 1.1.2 1.3m-3.2 1c-.5 0-.2-.6-.6-.6m-.2-2.6c-.4.6-.5.6-.9.7"/>
  </g>
  <g>
    <use stroke-linecap="round" stroke-linejoin="round" stroke-width="1.4" paint-order="markers stroke fill" transform="matrix(-.70128 .53373 .43805 .7768 318.7 790.9)" xlink:href="#reuse-0"/>
    <use stroke-width=".3" transform="matrix(-1.1112 .84572 .78238 1.3874 205.4 -46.5)" xlink:href="#reuse-1"/>
  </g>
  <g>
    <use stroke-linecap="round" stroke-linejoin="round" stroke-width="1.4" paint-order="markers stroke fill" transform="matrix(-.73504 -.07768 -.06892 .6521 411.3 798.4)" xlink:href="#reuse-0"/>
    <path fill="none" stroke="#484646" stroke-width=".351357" d="M383.4 867c-.7.3-1.5.2-2.1.4-.6.2.6-.3-.3.3-.3.2-1.2-.2-1.4-.3h-.3c-.4-.2-.5-.6-1.2-.6m5 9.8a3 3 0 01-2.2.9m-2.1-5.6c.5 1.2 0 1.3 2 2m3-3.2c.3 0 .8 0 1.1.3a2 2 0 01.5 3m-7.4 1.7c-1.1 0-.4-1.3-1.3-1.3m-.2-6c-1 1.4-1.2 1.5-2 1.5"/>
  </g>
  <g>
    <use stroke-linecap="round" stroke-linejoin="round" stroke-width="1.4" paint-order="markers stroke fill" transform="matrix(.25976 .5368 .54284 -.20217 310.1 890.9)" xlink:href="#reuse-0"/>
    <use stroke-width=".3" transform="matrix(.4116 .85057 .96954 -.36109 -234.5 866.8)" xlink:href="#reuse-1"/>
  </g>
  <g>
    <use stroke-linecap="round" stroke-linejoin="round" stroke-width="1.4" paint-order="markers stroke fill" transform="matrix(-.51047 -.14847 -.15625 .38176 450 856)" xlink:href="#reuse-0"/>
    <use stroke-width=".3" transform="matrix(-.80885 -.23526 -.27908 .68185 762.8 591.6)" xlink:href="#reuse-1"/>
  </g>
  <g>
    <use stroke-linecap="round" stroke-linejoin="round" stroke-width="1.4" paint-order="markers stroke fill" transform="matrix(.12736 .3 .26614 -.11299 378.8 907)" xlink:href="#reuse-0"/>
    <path fill="none" stroke="#484646" stroke-width=".154923" d="M411.3 903l.5.8c.2.2-.2-.1.2 0 .2.2.2.6.2.7 0 0 0 0 0 0l.1.7m2.7-4c.4 0 .6.2.8.6m-1.7 2c.3-.4.5-.2.3-1.2m-1.8-.4l-.2-.6c0-.7.8-.9 1.1-.8m2.2 2.5c.3.5-.4.5-.2.8m-2.2 1.3c.7.1.8.2 1 .5"/>
  </g>
  <g>
    <use stroke-linecap="round" stroke-linejoin="round" stroke-width="1.4" paint-order="markers stroke fill" transform="rotate(178.7 189.7 433) scale(.3259 -.28913)" xlink:href="#reuse-0"/>
    <path fill="none" stroke="#484646" stroke-width=".154923" d="M381.3 893c-.3 0-.7 0-1 .2-.2 0 .3-.2 0 .1h-.7-.1l-.6-.2m2.8 4c-.3.3-.5.5-1 .5m-1.2-2.3c.3.5 0 .6 1 .7m1.1-1.5h.6c.7.3.6 1 .3 1.3m-3 1.2c-.6 0-.4-.6-.8-.5m-.4-2.6c-.3.7-.4.7-.8.7"/>
  </g>
  <g stroke-linecap="round" stroke-linejoin="round" paint-order="markers stroke fill">
    <g stroke="red" stroke-width=".1">
      <path fill="#3771c8" stroke-width=".067948" d="M412.5 601.9a27.2 28 0 0110.1 37.9 27.2 28 0 01-36.8 10.7 27.2 28 0 01-10.8-37.7 27.2 28 0 0136.7-11.4"/>
      <path fill="#b7bec8" stroke-width=".067948" d="M397.8 597.2h.4l2 .6 1 .3h1.2c.7 0 1.3.1 1.8.3l1.6 1 1.2-.1 1.6 1.2h.1l.6.2h.1l.7.2s0 0 0 0l.4.2.1-.1.4.2c.3 0 1.3.6 1.7.8l3.6 2.6 1.4 1.4-1.6-1-.3-.4v.5s0 0 0 0h-.2c-.3.2-1.3 0-1.6-.1l-.8-.2.8.6c-.2 0-.3-.1-.4 0h-.1 0s0 0 0 0h-.5l-.3-.2-.7-.5-.2-.2s0 0 0 0c-.2 0-.3-.2-.4-.3 0 0 0 0 0 0l.3.3s0 0 0 0l-.3-.2c-.4 0-.7.2-1 .3l-2 .3H407c-.3 0-.5 0-.8-.2l-1-.5-.3-.1-.7-.4-1-.5-1.2-.4a5 5 0 00-1-.3h-1.9-.3s0 0 0 0l-1.6 1c.4.1.8.4 1 .7l.5.6.4.6a3.4 3.4 0 001 1s0 0 0 0c.5.2.8.2 1.2.2.6 0 1.2-.1 1.7-.3h2.3c.4 0 .8.1 1.1.3.8.4 1.7.8 2.3 1.5l.4.4.6 1.2.7 1.7-1.1-.6v-.1l-.4-.8-.3-.7-.7-1.2c0-.2-.2-.2-.3-.4l-.2-.2-.2-.1-.9-.3h-2.3c-.5.2-1 .2-1.6.3a3 3 0 01-1.2 0l-2.1-1.2-.7-.6-.5-.6a4 4 0 00-.4-.6l-.3-.4s0 0 0 0l-.4-.2-1.5.7-1.8 1.1-1.6 1-1.4 1c-.4.2-.8.5-1 1l-1 1.2-1 1.1-1.3 1-1.7 1-.2-.2v.1l-.8-.5-1.1 1-1.4-.8-.2.6c0 .4-.2.7-.3 1v.1l.4.2 1 .4.8.2h2.2l1 .8h-2l.3.1.2.2h.5c.4 0 .8.2 1.1.4l.1-.3.8.4.3.2.8-.4.2-.2.5.3h.3l.5-.2c.4-.2.2-.1 1 .4l.2-.1c.3-.2.7-.4 1-.3h1.7l.4-.2.9-.2h1l1.1.7c.2 0 0 .2 0 .3h-.7l.3.3c-.4 0-.8.2-1.2.4l-.7.3-1.7.8a5 5 0 01-1.3.3l-1 .1-1.6.3-.8.2h-.6l-1.9.1-1.3-.1-1.2-.3-.8-.3s0 0 0 0c-.9-.2-1.6-.7-2.3-1.1a2 2 0 01-.3-.3l-.4-.2-1.2-.9-.6-.5-.2-.3-.1-.1-.2-.3-.2-.5-.2-1-.2-.9a21 21 0 00-.3-.9c0-.2-.1-.5-.3-.7l-.3-.7v-.6c.1 0 .3-.2.4-.1l.6.3-.4-.3.4-.7.4-.6.6-.7.6-.9c.1-.2.2-.5.5-.7l.8-.7.7-.8.9-1c.5-.4 1-.9 1.6-1.1l.9-.5h-.1l1-.8 1.8-.8 1.9-.6 2.2-.7 1.8-.6 2-.6c.7-.3 1.5-.6 2.2-.7h1.4zm14 7.3s0 0 0 0l.2.2s0 0 0 0l-.3-.2zm2.2.9c.3 0 .5.3 0 0zm-17.3-6.2h-.2.2zm4 2.4l-.4.1-.2.1.8.1-.3-.3zm3 .4l.9.1h.5s0 0 0 0l-1.4-.1zm6.7.2s0 0 0 0 0 0 0 0 0 0 0 0zm-8.5 0s0 0 0 0l.4.2 2 1s0 0 0 0l1 .5c.3.1.5.3.8.2a47 47 0 002.7-.2l-2.4-.3c-.9-.2-1.3-.3-2-1l-2.1-.2-.4-.1zm11.4.6v.2h.3s-.2 0-.3-.2zm1 .7l.1.2.4.2-.5-.4zm-31.7 4.1l-.1.1.1.1.1-.1zm-5.5 2.8l.2.2s0 0 0 0 0 0 0 0zm40.3 1.3l2.8.1 1.2 1.3a7 7 0 00-4.3 0c-.4 0-.8.3-1.2.6a6 6 0 00-2 1.9l-1.6 2.4-1.3 1.6-.7.5c-.6.6-1.4 1-2.3 1.2l-2.3.4c-1.3 0-2.4-1.2-3.4-2l-1.5-1.4c-.5-.5-.8-1-1.2-1.6l-.4-.5 1.5.9.3.5a14.2 14.2 0 002.2 2.5c.4.2 1 .5 1.3.4.8 0 1.6 0 2.3-.3.8-.2 1.6-.6 2.3-1l.7-.6 1.2-1.6c.6-.7 1-1.6 1.7-2.4.5-.8 1-1.5 2-2 .8-.5 1.7-.9 2.7-1zM382 615l.1.2.2.2h.1l.1-.2-.4-.1-.1-.1zm-1.5 0v.1s0 0 0 0 0 0 0 0zm2 .3l.2.1s0 0 0 0h-.1zm.9 1.1v.1s0 0 0 0 0 0 0 0 0 0 0 0zm-3.2.3s0 0 0 0h.2s0 0 0 0h-.2zm-7.5 1l1.2.5v.2l.2.5.4.7.7.7 1 1h.1l.4.1.4.3H377.8l1 .8h-.7l-.8-.4s0 0 0 0c-.8-.4-1.6-.8-2.2-1.3l-1.1-1a5 5 0 01-.7-.7l-.4-.8-.2-.5v-.2zm12.5.2s0 0 0 0 0 0 0 0 0 0 0 0zm-3.6 0l.2.3h.4l-.4-.2h-.2zm3.2.2s0 0 0 0 0 0 0 0 0 0 0 0zm35.8 2.2c1 0 2 1 2.7 1.5.6.6 1 1.3 1.4 2.1l.8 2.5.4 1.8-1.5-1-.3-1.7-.1-.4-.2-.8-.5-1.3-.8-1.3-.6-.2-.5.1c-.4.5-.6 1.2-.7 1.8l-.2 2c0 .4 0 .8-.3 1.2l-.5.5c-.5.5-1.2.7-2 .9-1.4 0-2-.7-3.1-1.6a8.3 8.3 0 01-1.4-2 4 4 0 00-.6 0l-1.2-1.2c.4 0 .8 0 1.3.3 1.3 1 1.6 1 2.2 2.3l.7 1h.9c.7 0 1.4-.2 2-.7.5-.5.6-1 .6-1.7a12.7 12.7 0 01.8-3.7l.2-.2.5-.2zm-32.6 3h2.2l2.2.4c.4.2.9.4 1.3.4h.5l1 .7h-.5c-.5 0-.9-.2-1.3-.3-.7-.3-1.5-.3-2.3-.4H389c-.6 0-1.2 0-1.8.2l-1.4.5-1.2.4-1 .2-.5.1h-1.1c-.6 0-1-.2-1.5-.3l-1.2-.6-1-.8 1.2.6c.5.2 1 .4 1.4.4h1.2c.5 0 1-.1 1.4-.3l1.2-.4 1.5-.5 1.8-.3zm20.9.9l1 .7a3 3 0 00-.8.1l-1.5.3-2 .5-2.2.5-1.5.5-1.6.2-2.1.2c-.5 0-1 0-1.5-.2l-.6-.1c-.8-.3-1.6-.8-2.3-1.3l-.7-.4-.4-.3-.1-.1 1.1.4.2.2.8.5a5.4 5.4 0 001.4.5h3.2c.5-.2 1-.3 1.6-.3l1.5-.4a51.4 51.4 0 004.3-1l1.4-.4.8-.1zM377 631l1 .8a11.9 11.9 0 00-3.4.7l-.9.2a2 2 0 01-.7 0l-.4-.2-1-.8.4.2h1.5c.5-.2.9-.4 1.3-.4l2.2-.5zm6.9 1.2h.6c.5 0 1 0 1.5.2 1 .4 2 .9 2.8 1.6l.6.7.4.8 1 1.5.2.3-1-.5 1 .8-1.2-.8s0-.2-.2-.3l-.2-.3-.7-1.1-.4-.9a5 5 0 00-.6-.7l-.2-.1-.5-.2a6 6 0 00-1.5-.2h-1.2l-1 .2-1.7.2h-1.2l-1-.7a34.6 34.6 0 002.8-.2l1-.2h.7zm29.2 1.4l1.4.9.4.5.4.5c.6.3 1.2.5 2 .4.6-.2 1.2-.6 1.7-1 .7-.5 1.1-.8 2-1 .6.1 1.2.3 1.7.6 1 .5 1.8 1 2.4 2l-.8-.5c.2 0 0 0-.4-.3-.5-.3-1-.5-1.7-.5s-1.3.3-2 .7c-.5.5-1 .9-1.7 1.1-.7.2-1.4 0-2-.4a11 11 0 01-3-2.4l-.4-.6zm-10.3 1.6l1.8.1c.8.3.4.1 1.7.9l.2.2.8.8c.4.5.9 1.1 1.1 1.8l-1.1-.6-1.1-1.7-.6-.6s0 0 0 0c-.8-.2-1.6-.2-2.4-.2-.5 0-1 .1-1.4.3-.3 0-.4.1-.7.3-.8.3-1.5.8-2.3 1.3l-1.1 1-1.2.8a4.2 4.2 0 01-2 .4l-1-.7h.6c.5 0 1-.1 1.4-.3a7 7 0 001.1-.8l1.2-1a21.3 21.3 0 013.4-1.8l1-.2h.6zm-26.5 6.7h2.7c.7 0 1.4.2 2 .5l1 .5c.8.7 1.5 1 2 1.9a8 8 0 011.2 2.4l-1.4-1c-.2-.8-.6-1.6-1.1-2.2l-.2-.3-.4-.1c-.5-.3-1.2-.4-1.8-.5h-2.8zm40 0c1.3 0 1.8.6 3 1.5.3.3.3.7.4 1.2l-1.5-1v-.4h-.6c-.7 0-1.2.3-1.7.6l-1.7 1.5c-.8.6-1.7.7-2.6 1l-3.8 1c-1 .4-2.1.6-3.2.7l-1.1-1.1c1 0 2.1-.2 3.2-.5 1.2-.4 2.4-.9 3.7-1.2.8-.3 1.7-.5 2.5-1l1.8-1.4c.4-.4 1-.8 1.6-.8zm-4.2 8.3a6 14 89.5 01-12.8 3.8 6 14 89.5 01-13-3.5z"/>
    </g>
    <g stroke="red" stroke-width=".1" transform="matrix(-1 0 0 1 668.3 -31)">
      <circle cx="511.4" cy="617.7" r="14" fill="#5500d4"/>
      <path fill="#e5d5ff" d="M560 610a173.7 173.7 0 01-38.4 16c-15 4.8-32.1 9.3-45.3 11.8-14.6 2.7-23.7 3-25 1-1.8-2.4 7.3-7.9 23.8-14.3 6.3-2.4 14.2-5.1 22-7.6.6-.2-.1 3.1.5 3 11.6-3.4 19.2-7 26.6-7.8.7-.2-1.8-2.1-1.1-2.3 15-3.6 27.7-5.6 34.3-5.5 6.7.1 7.4 2.2 2.5 5.6zm-12.5 2.9a11 11 0 001.5-1.2c2.8-2.8-2.3-3.5-13-1.9-3.9 1.2-7.9 1.6-11.8 2.3-14 2.3-23 7.5-26.7 7.5a146 146 0 00-31.6 12.6c-4 3 .3 4 10.6 2.6 10.2-1.3 26.1-5.1 40.4-9.6 14-4.3 26-9.2 30.6-12.3z" opacity=".5"/>
    </g>
    <g transform="matrix(-1 0 0 1 668.3 -31)">
      <ellipse cx="295" cy="513.2" fill="#0968b3" stroke="#0029ff" stroke-width="1.3" rx="7" ry="7.1"/>
      <path fill="#72c177" stroke="#00ff8b" stroke-width=".2" d="M295 506.2a6 4.1 0 00-.4 0 6 4.1 0 00-5.4 3.5l5.8.6 5.7-1.1a6 4.1 0 00-5.6-3zm0 4.1a1.8 2.3 0 001.7 2 1.8 2.3 0 001.9-1.7l-1.8-.6zm-5 1.8a1.8 2.3 4.9 00-1.3.7 1.8 2.3 4.9 00-.2 2.9l2.4-3.4a1.8 2.3 4.9 00-.8-.2zm11.1 2l-2.4 3.3a1.8 2.3 4.9 002.3-.6 1.8 2.3 4.9 00.1-2.8zm-10.3 4.7a2 4.3 84 003.4 1.5 2 4.3 84 004.8-1.4z"/>
      <path fill="#dbe2e3" stroke="#0029ff" stroke-width="1.3" d="M285.7 515.8a2.3 2.3 0 01.9 3 2.3 2.3 0 01-3.1 1 2.3 2.3 0 01-.9-3.1 2.3 2.3 0 013-1M309.4 522a2.3 2.3 0 01.9 3.1 2.3 2.3 0 01-3.1 1 2.3 2.3 0 01-1-3.2 2.3 2.3 0 013.1-.9"/>
    </g>
    <g stroke="#0029ff">
      <path fill="#abc837" stroke-width="2.4" d="M316.1 513.7a.8 26.7-85.9 00-10 .3.8 26.7-85.9 0036.1 3 .8 26.7-85.9 0010.7-.4.8 26.7-85.9 00-35.9-2.9m5.9-9a11.7 11.7 0 00-5.5 15.5 11.7 11.7 0 0015.4 5.6 11.7 11.7 0 005.8-15.4 11.7 11.7 0 00-15.3-5.9"/>
      <path fill="#fff" stroke-width="1.3" d="M327.2 503.7h.7a14.8 14.8 0 014.6 1.3l1.3.6 1.1.7 1 .5.7.6-1.1-.5-1.2-.7-1.3-.6a11.5 11.5 0 00-4.5-1.3H327a4 4 0 00-1.3.3l-1.5.7-1.7.8c-.4.1-.8.3-1 .7l-1 .7-.5.3-.6-.6.5-.2.9-.8v-.1l1.1-.6c.6-.2 1.2-.4 1.7-.8l1.5-.6a3.8 3.8 0 012-.4zm9.7 4.1l.8.6-.2.2h-.1l-.5.4-1.2.4h-3.6a27.2 27.2 0 00-3.5-.2 3 3 0 00-1.2.5l-.6 1-.5.5-.6.6c-.4.3-.9.5-1.4.6l-1.1.2c-.5 0-.8 0-1.2-.2-.6-.3-1-.7-1.5-1.1l-.8-.8-.1-.1-.2-.2c-.3-.2-.6-.4-1-.4h-.1l-.6-.7h.1l1.1.5a6 6 0 011.6 1.4l.7.7s0 0 0 0h.2c.3.2.7.3 1.1.3l1.2-.1c.5-.1 1-.3 1.4-.7a4 4 0 001-1c.2-.4.4-.8.7-1l1.2-.6h1.7l1.9.2c.6.1 1.3.2 2 .1l1.5-.1c.4 0 .8-.2 1.2-.4l.5-.4v-.1l.1-.1zm-17.6 8.2h.4c.4 0 .7.2 1 .3l1.1.6 1.3.8 1.8 1.5.3.2.5.3.5.2c.5.2 1 .2 1.5.2.7 0 1.5 0 2.2-.3l1.8-.6 1.6-.7h.4c.3-.2.7-.1 1-.1.4 0 .7 0 1 .3.6.4 1.2.8 1.6 1.4.3.2.6.5.8.9l-.8-.5-.7-.9a3 3 0 00-.4-.4l-.9-.2c-.5-.1-1 0-1.4.1l-1.6.6-1.8.7h-.3l-.7.1-1.3.1-1.4-.1-.5-.2c-.8-.4-1.4-1-2-1.5l-.5-.4h-.2c-.3-.4-.8-.6-1.2-.9l-1.1-.6-1-.2h-.7a9 9 0 00-1 .7l-.9.7c-.2 0-.4.2-.5.3h-.2-.1l-.2.2-.7-.6h.2l.3-.2h.1l.4-.3 1-.7 1-.6.3-.2zm1 5.4a8.2 8.2 0 012.5.6l1.2.6 1.2.4.5.2c.3 0 .5 0 .8.2l1.1.2 1.3-.1 1.3-.3 1-.4 1.3-.3h.5l1 .3.4.2 1.4 1-.8-.4s0 0 0 0l-.2-.1-.3-.2-1-.3h-.4l-1.3.4a73 73 0 01-2.3.6l-1.2.2a66.4 66.4 0 00-3.7-1l-1.1-.5-1.4-.5-1-.2a3 3 0 00-1.1.2l-.9.4-.6-.6.8-.3 1-.3z"/>
    </g>
    <path fill="#fff" stroke="#0029ff" stroke-width=".5" d="M97 452.2a8.7 9.4 90 018 4.3 4 24.3 90 0116.2 2.8 4 24.3 90 01-15.5 4.7 8.7 9.4 90 01-8.8 5.5 8.7 9.4 90 01-8.8-5.6 4 24.3 90 01-14.1-2.7 4 24.3 90 0114.7-4.6 8.7 9.4 90 018.2-4.4 8.7 9.4 90 01.1 0zm9 6a8.7 9.4 90 01.4 2.7 8.7 9.4 90 01-.2 1.4 2.5 14.4-89.8 005.3-2.6 2.5 14.4-89.8 00-5.6-1.4zm-18.1.2a2.5 14.4-89.8 00-4.2 2.4 2.5 14.4-89.8 003.9 1.2 8.7 9.4 90 010-1.1 8.7 9.4 90 01.3-2.5z"/>
  </g>
  <g fill="#fff" stroke="#0029ff" stroke-linecap="round" stroke-linejoin="round" stroke-width=".2" paint-order="markers stroke fill" transform="matrix(-1 0 0 1 668.3 -31)">
    <circle cx="510.4" cy="411" r="1.6"/>
    <circle cx="549.3" cy="379.6" r="1.6"/>
    <circle cx="528.6" cy="392.7" r="1.6"/>
    <circle cx="531.9" cy="431.3" r="1.6"/>
    <circle cx="542.8" cy="460.5" r="1.6"/>
    <circle cx="561.7" cy="398.2" r="1.6"/>
    <circle cx="572.3" cy="422.2" r="1.6"/>
    <circle cx="578.1" cy="443.3" r="1.6"/>
    <circle cx="542.8" cy="320.9" r="1.6"/>
    <circle cx="486" cy="297.6" r="1.6"/>
    <circle cx="472.1" cy="331.1" r="1.6"/>
    <circle cx="469.6" cy="381.4" r="1.6"/>
    <circle cx="511.8" cy="374.9" r="1.6"/>
    <circle cx="572.7" cy="301.6" r="1.6"/>
    <circle cx="533.3" cy="288.1" r="1.6"/>
    <circle cx="569" cy="341" r="1.6"/>
    <circle cx="596" cy="393.4" r="1.6"/>
    <circle cx="257.9" cy="223.7" r="1.6"/>
    <circle cx="280.5" cy="218.6" r="1.6"/>
    <circle cx="307.5" cy="214.2" r="1.6"/>
    <circle cx="308.9" cy="231.7" r="1.6"/>
    <circle cx="309.6" cy="255" r="1.6"/>
    <circle cx="488.4" cy="185.1" r="1.6"/>
    <circle cx="431.8" cy="183" r="1.6"/>
    <circle cx="452.4" cy="218.1" r="1.6"/>
    <circle cx="463.7" cy="143.9" r="1.6"/>
    <circle cx="622.4" cy="660.1" r="1.6"/>
    <circle cx="579.1" cy="801.2" r="1.6"/>
    <circle cx="555.4" cy="713.7" r="1.6"/>
    <circle cx="634.8" cy="772.4" r="1.6"/>
    <circle cx="617.2" cy="867.2" r="1.6"/>
    <circle cx="590.4" cy="750.8" r="1.6"/>
    <circle cx="312.3" cy="623" r="1.6"/>
    <circle cx="245.3" cy="475.6" r="1.6"/>
    <circle cx="305" cy="468.4" r="1.6"/>
    <circle cx="251.5" cy="440.6" r="1.6"/>
    <circle cx="420.4" cy="592.1" r="1.6"/>
    <circle cx="378.2" cy="713.7" r="1.6"/>
    <circle cx="246.3" cy="798.1" r="1.6"/>
    <circle cx="254.6" cy="862" r="1.6"/>
    <circle cx="447.2" cy="957.9" r="1.6"/>
    <circle cx="561.6" cy="886.8" r="1.6"/>
    <circle cx="516.3" cy="974.3" r="1.6"/>
    <circle cx="588.4" cy="982.6" r="1.6"/>
    <circle cx="616.2" cy="915.6" r="1.6"/>
    <circle cx="352.4" cy="1022.8" r="1.6"/>
    <circle cx="446.2" cy="1034.1" r="1.6"/>
    <circle cx="366.9" cy="976.4" r="1.6"/>
    <circle cx="597.7" cy="590" r="1.6"/>
    <circle cx="635.8" cy="496.3" r="1.6"/>
    <circle cx="617.2" cy="464.3" r="1.6"/>
    <circle cx="368.9" cy="294.3" r="1.6"/>
    <circle cx="383.3" cy="240.7" r="1.6"/>
    <circle cx="356.6" cy="237.6" r="1.6"/>
    <circle cx="390.6" cy="277.8" r="1.6"/>
    <circle cx="451.4" cy="260.3" r="1.6"/>
    <circle cx="558.5" cy="234.6" r="1.6"/>
    <circle cx="349.3" cy="178.9" r="1.6"/>
    <circle cx="287.5" cy="149" r="1.6"/>
    <circle cx="373" cy="131.5" r="1.6"/>
    <circle cx="388.5" cy="175.8" r="1.6"/>
    <circle cx="548.2" cy="156.2" r="1.6"/>
    <circle cx="278.3" cy="249" r="1.6"/>
    <circle cx="258.7" cy="281.9" r="1.6"/>
  </g>
  <g>
    <g paint-order="markers stroke fill">
      <path fill="#faff01" stroke="#000" stroke-linecap="round" stroke-linejoin="round" stroke-width="2.2" d="M430.7 263.2C395 287 338.2 324 292.2 358c-20.3 15-47.1 35-66 49.8-17.3 13.7-40.8 24.2-46 42.8-9.5 34.8-32.4 59.2-62.2 86.8l66.4 5.7 247.3-172.1z"/>
      <path fill="#a00" d="M431.2 268.4c-88.5 55.6-174.8 113-248.3 180.8l6.1 84A2698 2698 0 01431.2 357z"/>
      <path fill="navy" d="M430.7 277.7c-88.5 41.8-175.3 126.8-248.9 177.8l4.7 60.2C251 476.6 327.7 405.9 431.2 350z"/>
    </g>
    <path stroke="#0005ff" stroke-linecap="round" stroke-linejoin="round" stroke-width=".3" d="M430.3 337.3l-41.4 25.8c-7 5.4-22.1 19.2-27.8 25.5-6.3 7-15.1 15.6-26.9 40.7-14.7 3-31.3 3.1-43.1 10.9l-21.9 12.3-60 48.3c-7.7 6.2-15.5 17-23.2 41.7a274.5 274.5 0 00-41.8 12.5l-17.8 17.5c-4-1.1-4-.3-5.3 0L99.3 592v-34.5l70-73 15-37 35-32.9 43.4-37.1 18.2-16.6c18.3-4.9 27-6.1 48.3-11.8 33.4-22.3 66-45.3 101.5-64.8z" paint-order="markers stroke fill"/>
    <path fill="#fff" stroke="#000" stroke-width=".3" d="M430.1 284.2v48.3c-49.9 29.1-101.2 62.9-143.7 96.8a1587.2 1587.2 0 00-129 108.4c-20 18.4-40 37.5-58.1 57.3l-2 2.1c0-13.5-.7-21.8-.7-35.3 23.2-23.6 49.5-52.6 72.3-76.6l14.8-35.9c18.2-19.2 37-37.3 57.2-54.3 13-11 27.3-22 40.2-33l31.9-7.9c3.7-.5 11.8-3.2 15.5-3.7 16.8-11 30.9-21.3 47.7-32.3 15.4-10 31.2-19.9 46.9-29.5 7.1-6.4 10-4 7-4.4zM366 378.6c-11.6 17-26.1 34-31.7 50.7-16.5 2-32.3 2.7-52.4 11.7l26.1-21.7 23.1-7.8c2.1-4.3 9-2.4 7.5 1.2l11-22.3zM202.6 502c-7.5 11.5-14 25.2-17.3 39.6-.2-3.6-8.4-4.5-6.9 1.4-11.1 1.2-21 5.5-31 9.4l15.8-15.8c4.7-2.5 10.5-5 16.7-5 .1-3.8 3.6-2.7 3.2-.7 1-5.4 2.1-10.6 3.6-15.2 6-5.5 11.3-10.2 15.9-13.7z"/>
    <path fill="none" stroke="#000" stroke-linecap="round" stroke-linejoin="round" stroke-width=".5" d="M170.4 533.6l-17 16.6m21.9-18.4l-17.6 17m20.8-12.1c-7.2.8-14.2 2.7-21 5.8m25.6-11.5l3.6-15.2 15.9-13.7c-8.1 13.2-15 26.3-17.3 39.6m-5.4-10c.6-4.2 3.2-2 3.2-.7.1 1.2 2.2 10.7 2.2 10.7-3-6.7-8.5-1.2-6.9 1.4m0 0c-1.2-2.8 1-7.7 1.5-11.5-6.2-.6-11.4 2.2-16.7 5.1l-15.8 15.8c10.3-3.5 20.4-8.8 31-9.4zm132.8-124.6l-24 20.1m28.8-21.5l-10.6 8.4m17.7-11l-13.3 10.3-15.5 11.8m32-14.7l-27 5m32-16.1c-2.1 6-8.4 14-3.6 18.7-5-8.5 6.3-7.8 6.5-.2m18.3-40.8l-3 2-12.7 26.2c5.1-8.7-4.3-9.7-5.8-5.2l-23 7.8-24.6 20.8a165 165 0 0150.8-10.8m31.7-50.7a65.4 65.4 0 00-13.4 10l-15.7 28.1a87.1 87.1 0 00-2.6 12.6c8.2-19.4 20.6-35.4 31.7-50.7zm-83.2 50.3l1.8 1.7 4.4-3.6-1.5-1.3c46.7-36.8 94.5-68.5 143-96.7m-29 8.4c-1-1.4-4.8-.7-5.4 1m4.9 1.4c-1.6-.8-2.7-.5-4 .5l-1 6.5c1-4.3 1.9-4.6 3.8-4.5.7 0 .7 2.1 1.4 2.5zm29.6-43.2l-.1 32.4m-141.5 98c75.3-57 94.5-64.6 141.2-94.5l.3-3.5m-333 264.5v3.6c19.3-22 41.7-41.8 63-62.5 42.3-38.8 82.7-69.4 124-104M342 373l-4.2 15.6m52.4-35.3l2-13.6a1438 1438 0 00-101.3 71.7m-8.1 17.5c-42.9 32.3-84 65.6-122 100.8l2.4 2.5-2.7 2.4-2-2.7m-32.6 21.5l-1.1 10.7m33.7-32.2c-20.1 19.7-39.3 35.9-61 61.6m62.6-72.7a1284 1284 0 00-63 62.3m-.4-21.3l.7 35.3m70.8-108.6l.3 5m-2.3 1.3l.9 3m-1 4l-.8-3m0 10.1l-1.4-4.4m.9 14l-2.8 3.5m2.9-4l-2.1-8.2m0 0l-.8 12.2-2-1.3m6.2-25.9l-69.4 71.4m71.1-76.4l-71 73m70.6-71.4L96.6 564m71.5-75.5l-71.5 73.3m63.4-41.1l-1.6 11.2 2.4-2.2-.8-9 5-21.1 4.5-15.5 4.5-10.4m-4.5 10.4l-72.9 77.7.1 6.5 68.5-69.6m16.8-23.3c.7-.8 1-1.6.4-1.8-.5-.2-1.6.2-2.4 1s-1 1.6-.4 1.9c.5.2 1.6-.3 2.3-1m38.3-61.4L183 449.2l-8.9 24.5m36-33.9l-36 33.9-4.3 16 32.2-29.2m54.5-58.9l1.2-2.4 15.6-30-53 45-10.1 25.6c10.4-9.3 29-25.2 46.3-38.2zM210 439.8l-8.2 20.7c8.4-7.7 20.1-17.7 28.9-24.6.5-2.5 4.1-14 5.4-18.2m-2.8 8.8l-2.7 9.5 14.5-12 5.4-11m5.7-11.4l-5.7 11.5-17.2 13.4 3.1-9.4m38.2 6.8c0-6-86.7 51.1-110 94.7 1.4-9.4-.5-15.4 5-28.8 24-21.7 46.6-42.1 75.5-65.9a96.2 96.2 0 0129.5 0zm-26.3-19.4c1.4-.7 2.3-1.8 2-2.5-.2-.7-1.5-.7-3 0-1.3.7-2.3 1.8-2 2.5.3.7 1.6.7 3 0m2.7-6.7c1.3-.7 2-1.7 1.7-2.1-.3-.5-1.7-.4-3 .3s-2 1.6-1.7 2c.3.6 1.6.4 3-.2m3.2-7.4c.5-.4.8-1.1.6-1.5-.2-.4-.8-.5-1.4 0s-.9 1-.7 1.5c.3.4.9.4 1.5 0m16.5 17.6l-3.1.1m3.8-2.6c-2.6-.2-2.6 0-2.6 0m6-2.4l-5.2-.3m6.7-4.6h-7.6m7.6-9.5l-6.8.4-.8 9.1c1.7-7 2.7-6.9 5.6-6.6 1 .1 1 6 2 6.6zm1 23.4c-1-.3-2-.6-3.2-.4-.3 0 0-.5-.4-.5-5.1-.9-12.3-.9-18.4-.3-.3 0 .4.8.2.8-.9 0-2.3.4-3.1.4m25-11c-1-.2-2.2-.6-3.5-.3v-.5c.3-.3-9.6-1-12.6 0l.4.6h-3.4m19.6-36l-.7 57.6c-1.1-.3-1.4-.8-4.3-.6l.7-1c-6.7-.3-13-1-21-.3l.4.8c-2-.4-3.3 0-4.8.2l4.2-9.5 24.1-46.1zm3.4-3c.7 21-.5 40.7-1.1 61m2.2-26.6l10-2.3m-10-8.2l-1.2 37 3.1-.6m27.9-67.9l15.8-3.8-17.6 12.5-13 20.2m14.8-28.9l-1.8 8.7-14.7 19.5-13.5-20.5zm118.1-60a1174.5 1174.5 0 00-128 82.5m128-84.6a1130.1 1130.1 0 00-126 81m125.8-82.7A1097 1097 0 00306 370.3m124-81.9c-31.6 17.3-83 49.2-122.5 79.4m122.9-71.2l-.4-12.4c-43.6 25.8-81.3 52.3-119.6 78.8-3 5-10 17-9.1 16.2 8.8-8.4 125.4-84.9 129-82.6zM281.3 422.8l-1 .1m17.2-39.7l-10 42.5-4.8 3.2 13.1-46.4-.5 1.4-12.8 2-.2-24h-1m-36 62c.4-1 .5-2 3-2.3" paint-order="markers stroke fill"/>
    <path d="M397.1 340.4c.6-.8 3-1.2 3.8-.6 0 .7.3 3.2-.2 3.9-.4-.2-1.2-1.7-1.7-1.6-.8 0-1.9 1.2-2.4 1.7-.4-.3.2-2 .2-2.4.1-.4 0-.7.3-1zm-143.5 48.8c.4-.5 1.3-.1 1 .5-.3.3-1.1.9-1.5.4 0-.4.3-.7.5-1zM249 397c1-.7 2.2-1.5 3.4-1.2.6.4-.4.9-.7 1.2-.9.6-2 1.2-3.2 1 0-.5.3-.8.5-1zm-2.4 6.2c.9-1 2.3-1.6 3.6-1.2.3.8-.8 1.4-1.3 1.8-.9.6-2 1-3 .8-.2-.7.2-1 .7-1.4zM181.3 474c.3-.2 1-.5 1 0a3 3 0 01-2.2 2c-.5.2-.6-.3-.3-.6.3-.6.9-1.1 1.5-1.4zm65-50c7.5-1 15.3-1.3 22.9-.5.3.1 1.5 0 1.3.6-3.3 1.8-6.6 3.5-9.7 5.5a427.8 427.8 0 00-54.9 41.1 250.5 250.5 0 00-32.4 33.8c-2.5 3.3-4.8 6.7-7.1 10.1-.2.5-1 .8-.8 0 .2-6.2.4-12.5 2.3-18.6.6-2 1.3-4 2.2-6 8-7.6 16.4-14.9 24.7-22.3 16.5-14.9 33.4-29.4 50.5-43.5l1-.2zM276 389l.1 8.1c-.2 0-.2-1-.3-1.2-.2-1.2-.3-2.5-.7-3.7-.1-.4-.4-.8-.8-.8-.9-.1-1.8-.2-2.6 0-1 .4-1.5 1.4-1.9 2.3l-.4 1.2c-.4 1.4 0-.4 0-.5 0-1.7.2-3.3.4-5 1-.6 4.6-.4 6.2-.4z" paint-order="markers stroke fill"/>
    <path fill="url(#d)" d="M165.2 466.6l51.4 170.2-44.1-170.2c.8-7.6-5.7-6.5-7.3 0zm0 0L233.4 697l-60.8-234.2c-1.5-4.6-7.8-.1-7.4 3.8z" paint-order="markers stroke fill" transform="matrix(-1 0 0 1 499.2 -37.5)"/>
    <path fill="url(#e)" d="M313.6 580.6l51.3 170.1-44-170c.7-7.7-5.8-6.6-7.3-.1zm0 0L381.7 811 321 576.7c-1.5-4.5-7.7 0-7.3 3.9z" paint-order="markers stroke fill" transform="matrix(-1 0 0 1 499.2 -37.5)"/>
    <g stroke-width=".1">
      <path stroke="#000" d="M352.4 278.9l-.6 7.1-3.6 7c-39.7 14.6-44.2 23.5-62 41.1l-6.5 2.6-30.3 10.3 39.5-31.1 2.5-8.6c3.7-6.4 8.7-9.9 14.5-12 5.3-1 10.5-.8 15.6.7z"/>
      <path fill="#e6e6e6" stroke="#f2eded" d="M280.1 334.3c-1.6.4-7-3-7-3l-2.7 2 9.3 3.4zm4.6-1.3c-3.5 1.6-4.6 1.3-4.6 1.3l-.4 2.4 6.6-2.6zm6-6.4l-4.4 7.5-8-5.1c12-.7 9-2 12.5-2.4zM305 296l-4 6.1-9.4 6c2-4 6.3-9 13.4-12.1zm6.9 5.6l9.2-5.5a32.8 32.8 0 00-15.2-.6l-4.2 6.2c3-.5 6.4-.8 10.2-.1zm40.6-22.7c-17 9.9-32.5 17-51.7 30.3l9.3-6.7-6-.3c-2.9 1.6-6.2 2.8-8 5.3l-1.1 4.5-3.4 2.2v-.3l3.1-2.1 1-4.2c-2.3 1.5-5 2.6-6 6l-.7 2.2a662.3 662.3 0 00-39.5 31.2c34.2-22.1 67.1-44.8 102.8-66.3zm-5 14.7l-7 4.3c-3.3-1.2-5.5-3-8.1-4.8l1.9-1.2 4.3 3.1c2.5-.2 3-.4 5.8-3.7zm4.8-13l-11.7 7.3 7.2 5.5.5-.5 3.6-6.9z"/>
    </g>
  </g>
</svg>
