<svg xmlns="http://www.w3.org/2000/svg" xmlns:xlink="http://www.w3.org/1999/xlink" viewBox="0 0 169.3 51.2">
  <defs>
    <path id="reuse-4" fill="none" stroke="#484646" stroke-width=".3" d="M243.6 526.6l1.7.4c.5.3-.5-.3.3.3.2.2 1 0 1.1 0h.3c.4-.2.5-.5 1-.5m-5 7.9c.5.6 1 .9 1.7 1m2.4-4.6c-.6 1-.1 1.1-2 1.5m-2.1-3c-.4 0-.8 0-1 .2-1.4.6-1.2 2-.8 2.5m6.1 2.1c1 0 .5-1.1 1.3-1m.7-5c.7 1.2.9 1.3 1.6 1.4"/>
    <path id="reuse-3" fill="#9e9e9e" stroke="#000" stroke-linecap="round" stroke-linejoin="round" stroke-width="1.4" d="M37 124.8c-1.8 1.4.2.3-1.9 1.2-2.1 1-1 .4-3.4.7-2.2.2-.2.3-2.5 0-2.3-.5-.5.7-2.6-.4-2-1-.3-.2-2-1.8-1.8-1.5-.3-.5-1.4-2.6-1.2-2-.5-.3-.9-2.6-.4-2.3-.8.2-.7-2.1.1-2.3-.5-.8.3-3 .8-2.3.2-.4 1.4-2.4 1.3-2 .4-.6 2.2-2 1.8-1.5.1-.6 2.3-1.5 2-1 .6-.4 3-.5 2.3 0 .2-.8 2.5-.2 2.2.6 0 0 2 1.1 2.1 1.1 1 .2 2.7 1.7 1.7 1.6.2.3 1.4 2.4 1 2.1 1.1 0 1.6 2.2.5 2.3 0 0 0 2.5 0 2.3-.2.9-1 3-.6 2.3.6.4-.9 2.3-1.4 1.8-.3.6-2.1 2z" paint-order="markers stroke fill"/>
    <path id="reuse-2" fill="#f9f9f9" stroke="#000" stroke-width="1.3" d="M418.3 435.3c-3.2-2-2.5-3-2.6-4.3-1-1-.5-2.3-.6-3.5-1.4.1-2.1-2.4-2-7-1.4 0-2.3-7.9-.8-5.6-.2-1.5 0-2.8 0-4.2-2 0-2.6-4.8-1.6-5.6-1.5-1.6-.5-2.4-2-4.7-1.8-2.4-5.8-7-3.8-6.9-1.4-1.3-2.7-1.1-4.4-5.2-1.8.3-3.5.5-4.5-4.3-1.3.1-2.6.5-2.5-2.6-2-.3-5-7-5.4-7.4-.2-.5 2-1.5 2.7-1.8 0 0 .4 0 0 0-2.2.6-2.4 1.6-2.8 1l-1.4-1.9c-.7-.7 1.3 1.9 1.4 2.2 0 .2-.5.7-3 .5 1.6.2 1.7.2 3 0l1.7 3v.2c-1.9-1.4-6.8 2.8-5.6-4.2-2.4.4-3-2-3.7-4 .5 1 .4 1.7 1.3 3.3-2-.4-3.2.4-4.6-3 .2.6 1.4 1.7.4 3.2-1 1.2-2.9.6-3.1 1.6-1.3 5.5-3.7 3.5-4.1 10.2-1.3 2.8-2-2-5.3 2.6-1.3 2.5-1.3 2.1-2.8 2.5-1 1.7-2 2.3-3 2.7-.9 1-.8.2-2.3 1.6-2.1 0-3.3 4.1-4.4 6.5.8-2.7 1.7-5.4 4.1-7.2 2.1-1 2.5-2.3 3.5-3.6.5-.7.6-1.6 2.3-2 0-1 0-2 .8-2.5.3-1.2 1.1-1.5 2-1.8.3-.8 0-1.9 1.1-2.3 0-2.4 0-5 3.2-6.6 1.8-.9 2.8-1.7 3.3-3 .6-2 1-3.9 2.8-5-1.3-2.2-2-4.1-.2-5-2.2.5-2-3-3-4.6-3.9.6-3.6-2.1-4.7-3.4-6.6 2.4-5.7-.3-7.7-1-1.8.5-3.6.1-5.4-.3-1.7 1.3-3.6 1.1-5.4 1.3-1.6.8-2.2 2.3-3.2 2.6-1.2.3-2.2 0-3.3.2-2.8.5-3.2 2-4.7 3-2.2 2.1-3.5.6-5.1.9-.4-.5.4-2 4.6-2.1.6-1.7 2.5-2.2 3.8-3.3 2.6-1 3.3-2.2 4.9-3.3.7-.8 1.5-1.5 3.2-.7.3-1.5 1.3-1.8 2.5-2a7 7 0 014 .2c3-2.2 4.6-.6 5 0 1.6-.7 3.5-.2 5.4-.1.8.4 1.2 1 1.3 1.6 3.2-.7 5.3.2 6.3 1l.4 1.4c2.7-.3 5.2-.3 4.7 2.3 2.5-3.9 6.9-3.7 1.5 1.4.5-.2 1.2-1.9 2.4-2.7.5-.4 1.2.3 2-.2-3.3.5-.5-4.8 2.5-4-4.6-.2-.7-3.4 1.1-4.6-3 .7-.2-5.6 1-6.9-1-4.7 1-5.4 1.5-8-.3-1.6.5-1.6 1-2-2.3 1.3-.6-3.6-1-5.6-1.6.7-1.1-3-1.7-4.5-.4-4.3.5-4.2 1-5.2-.8-.3-.8-1.5-.6-2.8.7-4.8 2.1-17.3-.4-14.3.1-2.7-1-7.3 1-7.3-.4-2-.3-2.8 1.3-3.9.6-.4-.3-2 .5-3.4 1-1.5.4-3.5.4-6.5-.5-3.4.7-3.8 1-5.1.4-2.3 1-4.4 1-6.6.3-4.7-.3-13.3.6-14.1 2 1.6 2.6 13.6.5 19.8v14.4l-1.5 4c0 2.5-2 3.2-.4 5.3 3.4 4.5-.2 9.2.3 14.6-.2 1 .5 4.6-.3 3.8 0 1.5.1 7.8-.4 6 0 1.6.4 4.2-.6 3 1.6 2.8 2.2 1.7 2.8 3-.9-.2-.3 6.3-.3 4.1-.1-2 1.2 5.3.4 3.5-.5.4-.7-.5-1.7 2.2.2 2 .6 5.6 0 3.2-.5-1.5-.5 0-.7.3-1.1 1.5-.5 1.9 0 5.8 0 1-.5.8-.9 1 .6 2.4.3 3.5.2 5.1-1.4 3.3 1 4.1-2.5 5.7.3 0 .5-.2.8-.3 3.4-1.8 3.2.5 4 1.2-.7-3.1 2.1-1.9 3-.9 0-1.4 1.6-1.5 3-1.7.4-1.3 1.6-1.9 2.8-2.5 2.1-2.9 4.4-5.5 7.7-6-.4.1.6-3.6.5-2 0 .5 4.3-6.4 3.1-6-1 .1.8-6 2.7-5.7-4-.7 4.8-6 7.2-9 2-1.4 3.7-3 5.1-4.9 6-4 8.7-7 10.2-11.7.7-3 2.4-5.8 5.8-8.6 5.7-5 9.4-11.8 12.3-19.3 1 7-3.3 15-10 20-2.3 5.7-4.3 6.7-6.5 10-.8 4-3.6 6.4-5.4 8-.3.4 0-1-.3-.6.5 2.7-4.3 5-6.5 7.5-1.3 3.6-3 5-5 5-2.5 6.2-3.4 5-4.8 6.1-6.1 22-4.2 8.5-6.2 12.2-.3 6.6-5.2 6.5-8 9.4-.4 2.2-1 4.1-3 4.2-.4 1.4-.3 3.4-2 3.7 2.3-.4 4.5-1 5.8 1 3.4-3.4 6.5-3.8 9.2-1.8 3.1-2.2 4 .2 5.7 1 5.1-3.2 9-2.7 9.4-1.5.8.1.6.2 2.8.3.4-1.4 4-1.8 7.7-3.3 1.4-.6 2-2 3.4-2.7 2.2-1.2-1 2.4 6.6-2.7 1.8-2.2 3.3-.2 5-.2 1 .3 2 .3 3 .1.8-2.6 15.2-2.7 13.3-1.2-.6.5 0 .6 2.5.1-2.4 1.7-1.2 4-10.3 2.5-.4 1.7-2.3 1.2-3.6 1.7-1.3.6-2.4-.3-3.5-1 .1.7-.7.8-1.6.9-.8.2-1.6.4-1.8-.8-2 .7-2.3 3-3.7 3-4-.5-5 2.4-7.7 3.6-2.6 1-5 2.9-8 2-2.1.5-2.7 1.4-3.5 2.4 1.2 3.2-7.4-1.4-5.6-.2.5 2.3-.4.1-2.1-.4 1.1 1 4.4 2.5-1.8 1.5-3 .7-5.7 1-6-1.5-3 .8-12.5 8.3-8.5 1.8l-1-.2c-3.2 4.7-7.8 2.2-7.8.6-.5 1.9.1 5-1.5 5.5 2.4-.6 1.6 2.5 1.5 4.7 2.4-.8 1.8 3.7 2.7 5.6 4.3 2.5 6.1 4.5 6.7 9.3.8.5.8 1.6 1 2.8 1.7 1.5 2 2.5 2.6 4 .8 2 1.6 3.3 1.2 6 .8.8 3-.2 3.4 5.5.4 2.5.7 5-.4 7.2 1.4.5 1.5 2.1 1.5 3.7.7 1.2.2 2.3.1 3.4.8.3 1.1 1.6.8 3.8.6.5 1 1.2 1 2.4.1 2-.3 3.4-.7 5z" opacity=".9"/>
    <path id="reuse-1" fill="#d30009" stroke="#d30009" stroke-width="2.8" d="M398.5 407.1a48 47.5 0 01-55.3-38.8 48 47.5 0 0139-54.8 48 47.5 0 0155.5 38.6 48 47.5 0 01-39 55"/>
    <path id="reuse-0" fill="#ff0" stroke="#d30009" stroke-width="2.7" d="M395.7 392.3a30.9 32.5 0 01-35.7-26.5 30.9 32.5 0 0125.2-37.5 30.9 32.5 0 0135.7 26.4 30.9 32.5 0 01-25 37.6"/>
  </defs>
  <defs>
    <linearGradient id="c">
      <stop offset="0" stop-color="#00ffe9"/>
      <stop offset="1" stop-color="#00ffe9" stop-opacity="0"/>
    </linearGradient>
    <linearGradient id="b">
      <stop offset="0" stop-color="#0056e9"/>
      <stop offset="1" stop-color="#f9f9f9" stop-opacity="0"/>
    </linearGradient>
    <linearGradient id="k" x1="168.6" x2="242" y1="460.6" y2="707.1" gradientUnits="userSpaceOnUse" xlink:href="#a"/>
    <linearGradient id="a">
      <stop offset="0" stop-color="#fa0"/>
      <stop offset="1" stop-color="#fa0" stop-opacity="0"/>
    </linearGradient>
    <linearGradient id="l" x1="168.6" x2="242" y1="460.6" y2="707.1" gradientTransform="translate(148.3 114)" gradientUnits="userSpaceOnUse" xlink:href="#a"/>
    <linearGradient id="i" x1="462" x2="406.1" y1="-14.9" y2="365.9" gradientUnits="userSpaceOnUse" xlink:href="#b"/>
    <linearGradient id="j" x1="187.9" x2="502.6" y1="676.6" y2="231.2" gradientUnits="userSpaceOnUse" xlink:href="#c"/>
    <filter id="g" width="1" height="1" x="0" y="0" color-interpolation-filters="sRGB">
      <feGaussianBlur result="result8"/>
      <feTurbulence numOctaves="2" result="result7" seed="20" type="fractalNoise"/>
      <feComposite in="SourceGraphic" in2="result8" operator="in" result="result6"/>
      <feComposite in="result6" in2="result7" k3="1" operator="arithmetic" result="result2"/>
      <feComposite in="result2" in2="result6" operator="in" result="fbSourceGraphic"/>
      <feComposite in="fbSourceGraphic" in2="fbSourceGraphic" k2="2.5" operator="arithmetic"/>
    </filter>
    <filter id="e" width="1.2" height="1.2" x="-.1" y="-.1" color-interpolation-filters="sRGB">
      <feGaussianBlur result="blur" stdDeviation="15.8"/>
      <feComposite in="SourceGraphic" in2="blur" operator="atop" result="composite1"/>
      <feComposite in2="composite1" operator="in" result="composite2"/>
      <feComposite in2="composite2" operator="in" result="composite3"/>
      <feTurbulence baseFrequency="0.151142 0.151142" result="turbulence" seed="14" type="fractalNoise"/>
      <feDisplacementMap in="blur" in2="turbulence" result="map" scale="30" xChannelSelector="R" yChannelSelector="G"/>
      <feColorMatrix result="colormatrix" values="1 0 0 0 0 0 1 0 0 0 0 0 1 0 0 0 0 0 1 -0"/>
      <feComposite in="composite3" in2="colormatrix" operator="atop" result="fbSourceGraphic"/>
      <feColorMatrix in="fbSourceGraphic" result="fbSourceGraphicAlpha" values="0 0 0 -1 0 0 0 0 -1 0 0 0 0 -1 0 0 0 0 1 0"/>
      <feGaussianBlur in="fbSourceGraphic" result="blur" stdDeviation="3.15 17.3396"/>
      <feComposite in="fbSourceGraphic" in2="blur" operator="atop" result="composite1"/>
      <feComposite in2="composite1" operator="in" result="composite2"/>
      <feComposite in2="composite2" operator="in" result="composite3"/>
      <feTurbulence baseFrequency="0.151142 0.151142" result="turbulence" seed="14" type="fractalNoise"/>
      <feDisplacementMap in="blur" in2="turbulence" result="map" scale="30" xChannelSelector="R" yChannelSelector="G"/>
      <feColorMatrix result="colormatrix" values="1 0 0 0 0 0 1 0 0 0 0 0 1 0 0 0 0 0 1 -0"/>
      <feComposite in="composite3" in2="colormatrix" operator="atop" result="fbSourceGraphic"/>
      <feColorMatrix in="fbSourceGraphic" result="fbSourceGraphicAlpha" values="0 0 0 -1 0 0 0 0 -1 0 0 0 0 -1 0 0 0 0 1 0"/>
      <feGaussianBlur in="fbSourceGraphic" result="blur" stdDeviation="3.15 17.3396"/>
      <feComposite in="fbSourceGraphic" in2="blur" operator="atop" result="composite1"/>
      <feComposite in2="composite1" operator="in" result="composite2"/>
      <feComposite in2="composite2" operator="in" result="composite3"/>
      <feTurbulence baseFrequency="0.151142 0.151142" result="turbulence" seed="14" type="fractalNoise"/>
      <feDisplacementMap in="blur" in2="turbulence" result="map" scale="30" xChannelSelector="R" yChannelSelector="G"/>
      <feColorMatrix result="colormatrix" values="1 0 0 0 0 0 1 0 0 0 0 0 1 0 0 0 0 0 1 -0"/>
      <feComposite in="composite3" in2="colormatrix" operator="atop" result="composite4"/>
    </filter>
    <filter id="h" width="1.1" height="1.1" x="0" y="0" color-interpolation-filters="sRGB">
      <feGaussianBlur result="result8" stdDeviation=".1"/>
      <feTurbulence numOctaves="2" result="result7" seed="20" type="fractalNoise"/>
      <feComposite in="SourceGraphic" in2="result8" operator="in" result="result6"/>
      <feComposite in="result6" in2="result7" k3="1.7" operator="arithmetic" result="result2"/>
      <feComposite in="result2" in2="result6" operator="in" result="fbSourceGraphic"/>
      <feComposite in="fbSourceGraphic" in2="SourceGraphic" k2="1.5" k3=".3" operator="arithmetic" result="result9"/>
    </filter>
    <clipPath id="f" clipPathUnits="userSpaceOnUse">
      <path fill="#0f0" stroke="#0029ff" stroke-linecap="round" stroke-linejoin="round" stroke-width=".2" d="M13.3-106.8h610.5V77.7H13.3z" opacity=".5" paint-order="markers stroke fill"/>
    </clipPath>
    <clipPath id="d" clipPathUnits="userSpaceOnUse">
      <path fill="#014fbc" stroke="#0029ff" stroke-linecap="round" stroke-linejoin="round" stroke-width=".2" d="M166.7 1023.6h363.4V855.5H166.7z" paint-order="markers stroke fill"/>
    </clipPath>
  </defs>
  <path stroke="#0029ff" stroke-linecap="round" stroke-linejoin="round" stroke-width=".1" d="M0 0h169.4v51.2H0z" paint-order="markers stroke fill"/>
  <path fill="#0050ff" stroke="#ff00ce" stroke-width=".4" d="M234.3 848.2l280.6 171.4 29.8-1.5 3.3-387.8-310.4-111.6z" clip-path="url(#d)" filter="url(#e)" transform="matrix(.50604 0 0 -.30436 -99.7 311.6)"/>
  <g clip-path="url(#f)" transform="translate(-4 29.3) scale(.27724)">
    <g stroke="#0029ff" stroke-linecap="round" stroke-linejoin="round" paint-order="markers stroke fill" transform="matrix(.66236 0 0 .66236 115.2 -101.5)">
      <circle cx="257" cy="41.3" r="7.8" fill="#0050ff" stroke-width=".3"/>
      <path fill="#e6e6e6" stroke-width=".31749599999999994" d="M259.8 33.8a5.4 2.2 0 00-5.6 0 5.4 2.2 0 00-2.4 2l10.8-.1a5.4 2.2 0 00-2.8-2zm2.4 2.8a1.5.9 31.8 00-.7.4 1.5.9 31.8 000 0 1.3.5 33.4 00-.8-.2 1.3.5 33.4 000 .7 1.3.5 33.4 001.2.9h0a1.3.5 33.4 00.8 0l-.2.2a1.8.4 32 001.6.6 1.8.4 32 00-.1-.6 1.8.4 32 000 0 1.5.9 31.8 000-1 1.5.9 31.8 00-1.4-1 1.5.9 31.8 00-.4 0zm-10.1.9a.6 1.1 46.9 00-.8.3.6 1.1 46.9 00-.5.9v-.4a.5 1.4 57.6 00-1.2 1 .5 1.4 57.6 00.2.6.5 1.4 57.6 000 0 .8 1.5 28.7 00.3 1 .8 1.5 28.7 001.2-.4.8 1.5 28.7 00.6-1.6.8 1.5 28.7 000-.1.6 1.1 46.9 00.5-.6.6 1.1 46.9 00-.1-.7.6 1.1 46.9 00-.2 0zm10.7.2l.4.3a1.8.4 32 00-.5-.3zm-.4.3l.4.2v.1l-.5-.2zm-11.3.6v.2l-.4.2v-.2zm-.2.9v.1h-.4a.5 1.4 57.6 00.4-.1zm4 1.8a.7 1 39.5 00-.2 0 .7 1 39.5 00-.8.7.7 1 39.5 00.1.7l-.2-.2a.6 1.2 39.5 00-.5 1.1.6 1.2 39.5 00.7.3.6 1.2 39.5 000 0 1.2 1 55.2 001.2.6 1.2 1 55.2 00.8-.9 1.2 1 55.2 00-.6-1.2 1.2 1 55.2 000 0 .7 1 39.5 000-.7.7 1 39.5 00-.6-.4zm6.5 1.1a1.2.6 53.3 00-.3.6 1.2.6 53.3 000 0 1 1.2 69 00-.8 1 1 1.2 69 00.6 1 1 1.2 69 001.3-.3 1 1.2 69 00.1 0 1 .7 53.3 00.6.3 1 .7 53.3 00.5-.7 1 .7 53.3 00-.4-.9 1 .7 53.3 00-.8 0l.3-.2a1.2.6 53.3 00-1-.8 1.2.6 53.3 000 0zm-7 .2h0l-.2.3h0zm.4.6h0l-.2.3a.6 1.2 39.5 00.2-.3zm7.3.2l.2.3h-.1l-.2-.2zm-.7.3a1.2.6 53.3 00.2.3h-.1zm-9.8 3.1a5.4 2.2 0 002.5 2 5.4 2.2 0 005.5 0 5.4 2.2 0 002.8-1.8z"/>
    </g>
    <g stroke="#0029ff" stroke-linecap="round" stroke-linejoin="round" paint-order="markers stroke fill" transform="translate(242.6 -12.2)">
      <path fill="#f9f9f9" stroke-width=".6" d="M316.8 36.5A20.6 20.6 0 00296.3 57a20.6 20.6 0 0020.5 20.6A20.6 20.6 0 00337.4 57a20.6 20.6 0 00-20.6-20.5zm0 7.8a12.9 12.6 0 0113 12.6 12.9 12.6 0 01-13 12.6A12.9 12.6 0 01304 56.9a12.9 12.6 0 0113-12.6z" opacity=".5"/>
      <ellipse cx="316.6" cy="56.6" fill="#2424b9" stroke-width=".3" filter="url(#g)" rx="11.1" ry="11.3" style="mix-blend-mode:normal"/>
    </g>
    <g stroke="#0029ff" stroke-linecap="round" stroke-linejoin="round" paint-order="markers stroke fill" transform="translate(294.4 -37.4) scale(1.47249)">
      <path fill="#f9f9f9" stroke-width=".26458" d="M-130.4-6.8A6.5 6.5 0 00-137-.3a6.5 6.5 0 006.5 6.5 6.5 6.5 0 006.6-6.5 6.5 6.5 0 00-6.6-6.5 6.5 6.5 0 000 0zm0 1a5.6 5.7 0 010 0A5.6 5.7 0 01-125-.3a5.6 5.7 0 01-5.5 5.7A5.6 5.7 0 01-136-.2a5.6 5.7 0 015.5-5.7z"/>
      <ellipse cx="-130.4" cy="-.3" fill="teal" stroke-width=".3" filter="url(#h)" rx="3.9" ry="4.2"/>
    </g>
    <path fill="#b3b3b3" stroke="#0029ff" stroke-width=".3" d="M356.9-74.5l-2.5 2.5-64.7.3s-29 1.6-43.3 3.7c-9 1.4-26.9 5.6-26.9 5.6-31 9.4-21.7 16.7 3.9 22.6 9.9 2 19.8 3.6 29.7 5.8 111.7 24.8 221 62.7 336.7 59.9l36.2 1.5-.7 42.7-186-50.6L208.7-41c-18.7-5-10.4-16.7 0-19.4l28.5-7.5-29.7 2-18.5 4.6c-21.2 8.3-26.2 17.7-22 23.5 5.1 6.8 15.7 11.2 26.7 16.6A1232.6 1232.6 0 00525.5 86H400.4C328 46.9 236.8 20.3 170.5-27.8c-13-9.4-7.7-19.9 0-26.3 4-3.6 10.5-7.3 30.7-11.3l-21.3 3.6-18.9 4.5c-19.8 6.4-28.4 11.5-31 16-5.8 10.3 10.7 46.2 27.8 62.8 35.8 34.8 57.5 46.6 115.3 64.8l-45.4-.4c-31-15.7-103-66.4-104.3-115.4-.1-5.7.2-10.5 10.7-17.6 10.4-7 13.8-6.7 19.4-8.8l19.9-5.7 21.6-4s-20.1 3-30.1 5c-5 1-10 2-15 3.3-7.3 2-14.6 4.7-21.8 7.3-5.6 2-16.7 6.5-16.7 6.5C68-22.7 72.5-8.7 70.4 6c-4.2 28.6 5 54 27 79.6l-23.7-.1S40 38.4 70.5-17.2c8.8-9.1 12.8-14 31.3-23l16.4-7.7a285.6 285.6 0 0164-17l-30 3.8-26 4.8-20.4 5.1-28 8.2-23.1 7.8-40 17.6.3-4.9C61.4-41.7 59-39.4 81.3-46.1c16.7-5 50.8-12.4 50.8-12.4l24.7-4 36-4.4-38.5 3.3-29.9 3.8s-23.4 3.8-35 6.4C74.8-50.1 56.8-45 45.9-42l-30.1 8v-4.2l64.7-15c12.2-2.6 36.8-6.7 36.8-6.7l50.7-6 30.3-2.7 40.3-2.8 34.4-2 36.2-.8z" opacity=".5"/>
    <g stroke-linecap="round" stroke-linejoin="round" paint-order="markers stroke fill">
      <path fill="url(#i)" stroke="#1e3241" stroke-width="2.4" d="M399.8 416a55.8 56.6 0 01-64.3-46.1 55.8 56.6 0 0145.4-65.4 55.8 56.6 0 0164.5 46 55.8 56.6 0 01-45.3 65.5" transform="matrix(.83857 0 0 .72924 59 -315)"/>
      <path fill="#8a4405" stroke="#d30009" stroke-width="2.8" d="M398.5 407.1a48 47.5 0 01-55.3-38.8 48 47.5 0 0139-54.8 48 47.5 0 0155.5 38.6 48 47.5 0 01-39 55" transform="matrix(.83857 0 0 .72924 59 -315)"/>
      <use stroke-width="2.7" transform="matrix(.83857 0 0 .72924 59 -315)" xlink:href="#reuse-0"/>
      <use stroke-width="1.3" opacity=".9" transform="matrix(.83857 0 0 .72924 59 -315)" xlink:href="#reuse-2"/>
    </g>
    <g stroke-linecap="round" stroke-linejoin="round" paint-order="markers stroke fill">
      <path fill="url(#j)" stroke="#0092ff" stroke-width="2.4" d="M399.8 416a55.8 56.6 0 01-64.3-46.1 55.8 56.6 0 0145.4-65.4 55.8 56.6 0 0164.5 46 55.8 56.6 0 01-45.3 65.5" transform="matrix(.6797 -.18061 .15707 .59108 -114.6 -96.5)"/>
      <use stroke-width="2.8" transform="matrix(.6797 -.18061 .15707 .59108 -114.6 -96.5)" xlink:href="#reuse-1"/>
      <use stroke-width="2.7" transform="matrix(.6797 -.18061 .15707 .59108 -114.6 -96.5)" xlink:href="#reuse-0"/>
      <path fill="#ececec" stroke="#000" stroke-width="1.3" d="M418.3 435.3c-3.2-2-2.5-3-2.6-4.3-1-1-.5-2.3-.6-3.5-1.4.1-2.1-2.4-2-7-1.4 0-2.3-7.9-.8-5.6-.2-1.5 0-2.8 0-4.2-2 0-2.6-4.8-1.6-5.6-1.5-1.6-.5-2.4-2-4.7-1.8-2.4-5.8-7-3.8-6.9-1.4-1.3-2.7-1.1-4.4-5.2-1.8.3-3.5.5-4.5-4.3-1.3.1-2.6.5-2.5-2.6-2-.3-5-7-5.4-7.4-.2-.5 2-1.5 2.7-1.8 0 0 .4 0 0 0-2.2.6-2.4 1.6-2.8 1l-1.4-1.9c-.7-.7 1.3 1.9 1.4 2.2 0 .2-.5.7-3 .5 1.6.2 1.7.2 3 0l1.7 3v.2c-1.9-1.4-6.8 2.8-5.6-4.2-2.4.4-3-2-3.7-4 .5 1 .4 1.7 1.3 3.3-2-.4-3.2.4-4.6-3 .2.6 1.4 1.7.4 3.2-1 1.2-2.9.6-3.1 1.6-1.3 5.5-3.7 3.5-4.1 10.2-1.3 2.8-2-2-5.3 2.6-1.3 2.5-1.3 2.1-2.8 2.5-1 1.7-2 2.3-3 2.7-.9 1-.8.2-2.3 1.6-2.1 0-3.3 4.1-4.4 6.5.8-2.7 1.7-5.4 4.1-7.2 2.1-1 2.5-2.3 3.5-3.6.5-.7.6-1.6 2.3-2 0-1 0-2 .8-2.5.3-1.2 1.1-1.5 2-1.8.3-.8 0-1.9 1.1-2.3 0-2.4 0-5 3.2-6.6 1.8-.9 2.8-1.7 3.3-3 .6-2 1-3.9 2.8-5-1.3-2.2-2-4.1-.2-5-2.2.5-2-3-3-4.6-3.9.6-3.6-2.1-4.7-3.4-6.6 2.4-5.7-.3-7.7-1-1.8.5-3.6.1-5.4-.3-1.7 1.3-3.6 1.1-5.4 1.3-1.6.8-2.2 2.3-3.2 2.6-1.2.3-2.2 0-3.3.2-2.8.5-3.2 2-4.7 3-2.2 2.1-3.5.6-5.1.9-.4-.5.4-2 4.6-2.1.6-1.7 2.5-2.2 3.8-3.3 2.6-1 3.3-2.2 4.9-3.3.7-.8 1.5-1.5 3.2-.7.3-1.5 1.3-1.8 2.5-2a7 7 0 014 .2c3-2.2 4.6-.6 5 0 1.6-.7 3.5-.2 5.4-.1.8.4 1.2 1 1.3 1.6 3.2-.7 5.3.2 6.3 1l.4 1.4c2.7-.3 5.2-.3 4.7 2.3 2.5-3.9 6.9-3.7 1.5 1.4.5-.2 1.2-1.9 2.4-2.7.5-.4 1.2.3 2-.2-3.3.5-.5-4.8 2.5-4-4.6-.2-.7-3.4 1.1-4.6-3 .7-.2-5.6 1-6.9-1-4.7 1-5.4 1.5-8-.3-1.6.5-1.6 1-2-2.3 1.3-.6-3.6-1-5.6-1.6.7-1.1-3-1.7-4.5-.4-4.3.5-4.2 1-5.2-.8-.3-.8-1.5-.6-2.8.7-4.8 2.1-17.3-.4-14.3.1-2.7-1-7.3 1-7.3-.4-2-.3-2.8 1.3-3.9.6-.4-.3-2 .5-3.4 1-1.5.4-3.5.4-6.5-.5-3.4.7-3.8 1-5.1.4-2.3 1-4.4 1-6.6.3-4.7-.3-13.3.6-14.1 2 1.6 2.6 13.6.5 19.8v14.4l-1.5 4c0 2.5-2 3.2-.4 5.3 3.4 4.5-.2 9.2.3 14.6-.2 1 .5 4.6-.3 3.8 0 1.5.1 7.8-.4 6 0 1.6.4 4.2-.6 3 1.6 2.8 2.2 1.7 2.8 3-.9-.2-.3 6.3-.3 4.1-.1-2 1.2 5.3.4 3.5-.5.4-.7-.5-1.7 2.2.2 2 .6 5.6 0 3.2-.5-1.5-.5 0-.7.3-1.1 1.5-.5 1.9 0 5.8 0 1-.5.8-.9 1 .6 2.4.3 3.5.2 5.1-1.4 3.3 1 4.1-2.5 5.7.3 0 .5-.2.8-.3 3.4-1.8 3.2.5 4 1.2-.7-3.1 2.1-1.9 3-.9 0-1.4 1.6-1.5 3-1.7.4-1.3 1.6-1.9 2.8-2.5 2.1-2.9 4.4-5.5 7.7-6-.4.1.6-3.6.5-2 0 .5 4.3-6.4 3.1-6-1 .1.8-6 2.7-5.7-4-.7 4.8-6 7.2-9 2-1.4 3.7-3 5.1-4.9 6-4 8.7-7 10.2-11.7.7-3 2.4-5.8 5.8-8.6 5.7-5 9.4-11.8 12.3-19.3 1 7-3.3 15-10 20-2.3 5.7-4.3 6.7-6.5 10-.8 4-3.6 6.4-5.4 8-.3.4 0-1-.3-.6.5 2.7-4.3 5-6.5 7.5-1.3 3.6-3 5-5 5-2.5 6.2-3.4 5-4.8 6.1-6.1 22-4.2 8.5-6.2 12.2-.3 6.6-5.2 6.5-8 9.4-.4 2.2-1 4.1-3 4.2-.4 1.4-.3 3.4-2 3.7 2.3-.4 4.5-1 5.8 1 3.4-3.4 6.5-3.8 9.2-1.8 3.1-2.2 4 .2 5.7 1 5.1-3.2 9-2.7 9.4-1.5.8.1.6.2 2.8.3.4-1.4 4-1.8 7.7-3.3 1.4-.6 2-2 3.4-2.7 2.2-1.2-1 2.4 6.6-2.7 1.8-2.2 3.3-.2 5-.2 1 .3 2 .3 3 .1.8-2.6 15.2-2.7 13.3-1.2-.6.5 0 .6 2.5.1-2.4 1.7-1.2 4-10.3 2.5-.4 1.7-2.3 1.2-3.6 1.7-1.3.6-2.4-.3-3.5-1 .1.7-.7.8-1.6.9-.8.2-1.6.4-1.8-.8-2 .7-2.3 3-3.7 3-4-.5-5 2.4-7.7 3.6-2.6 1-5 2.9-8 2-2.1.5-2.7 1.4-3.5 2.4 1.2 3.2-7.4-1.4-5.6-.2.5 2.3-.4.1-2.1-.4 1.1 1 4.4 2.5-1.8 1.5-3 .7-5.7 1-6-1.5-3 .8-12.5 8.3-8.5 1.8l-1-.2c-3.2 4.7-7.8 2.2-7.8.6-.5 1.9.1 5-1.5 5.5 2.4-.6 1.6 2.5 1.5 4.7 2.4-.8 1.8 3.7 2.7 5.6 4.3 2.5 6.1 4.5 6.7 9.3.8.5.8 1.6 1 2.8 1.7 1.5 2 2.5 2.6 4 .8 2 1.6 3.3 1.2 6 .8.8 3-.2 3.4 5.5.4 2.5.7 5-.4 7.2 1.4.5 1.5 2.1 1.5 3.7.7 1.2.2 2.3.1 3.4.8.3 1.1 1.6.8 3.8.6.5 1 1.2 1 2.4.1 2-.3 3.4-.7 5z" transform="matrix(.6797 -.18061 .15707 .59108 -114.6 -96.5)"/>
    </g>
    <g stroke-linecap="round" stroke-linejoin="round" paint-order="markers stroke fill">
      <path fill="#253f53" stroke="#1e3241" stroke-width="2.4" d="M399.8 416a55.8 56.6 0 01-64.3-46.1 55.8 56.6 0 0145.4-65.4 55.8 56.6 0 0164.5 46 55.8 56.6 0 01-45.3 65.5" transform="matrix(.55088 0 0 .47906 71.3 -96.1)"/>
      <use stroke-width="2.8" transform="matrix(.55088 0 0 .47906 71.3 -96.1)" xlink:href="#reuse-1"/>
      <use stroke-width="2.7" transform="matrix(.55088 0 0 .47906 71.3 -96.1)" xlink:href="#reuse-0"/>
      <use stroke-width="1.3" opacity=".8" transform="matrix(.55088 0 0 .47906 71.3 -96.1)" xlink:href="#reuse-2"/>
    </g>
    <path stroke="#000" d="M9.2 434.8l78.2-132.7 55.4.4 2.7 11.9c10.6-7 35.4-22.4 65.2-9.2V303h238a49.7 49.7 0 0126.3 10.6 59.2 59.2 0 0127.8-11.5c10.1-2 21.7-1.8 34.4.6 6.1 1.4 12 4 17.7 7.3l1.2-7.5h100c11.3 2 21.4 5.7 28.7 13.4 7-6 14-12.2 28-14 10-2.5 19.8-1 29.7-.8 38.3 10 40 31.2 42 39v28.7h-6.6c13.6 62.2-58.5 86.4-104 54a56.8 56.8 0 01-31.4 11.6H525.9c-13.2 6.6-26.1 4.5-39 .3l-68.2.5-3.3-5v5.2h-206l1.8-6.4c-17.3 12-34.2 8.7-51.2 7H95l-2-14h-2l-8 14z" transform="matrix(.46665 -.10496 .11265 .43482 -20.1 -121.7)"/>
    <path fill="#ff0321" stroke="red" d="M727 306.8c-3 0-6 .1-8.8.6-12.3 2.2-24.3 4.4-33.2 16.8-14.7-13.5-22.9-13.9-31.2-14.4h-92.3l-2.1 11.8a51.3 51.3 0 00-23.2-12.4 72.7 72.7 0 00-32.9 0c-13.7 2.7-19.9 8.3-28.3 13.4-12.5-12.1-19-12-27-12.7H216v3.2c-6-2-12-4.7-18.3-5a96 96 0 00-21 0c-10.8 2.2-25 1.6-36.2 22.4l-4-21H90.3L21 428.2h1l57.2.8 7.6-13.6h13.3v13.8l59.2 1c21 .3 42.7 4.6 61.7-15.7l-2.4 14.4h190.7l6.9-34.2h1.7c0 11.7-4.3 24.5 5 33.5h54l-1.6-5.4c19.8 9.3 40.5 12.3 62.9 1l-1.4 5.1h101.6a59.8 59.8 0 0036.2-15.1 46 46 0 0021.6 14.5c18.6 5.2 49.3 4.8 64.9-12.3 9.7-10.6 21.6-30.8 5-54.2H778v-18.8c-2.4-30.4-29.5-33.6-36.6-35-3.9-.6-9.2-1.3-14.3-1.3zm-210.3 47.7c3 .3 2.3 9.4 1.3 14-1.1 5.3-3.4 14.8-8.1 14.3-4.7-.6-3.4-7.4-3.1-11.3.4-5.7 2.7-11.7 6.8-15.8a5 5 0 012.5-1.1c.2 0 .5-.2.6 0 0 0 0 0 0 0zm123.8 3.5c6 0 3.6 6.7 3 10.2-1.6 8.1-3.8 12.6-8.3 11.4-4.1-1-2.1-10.5-1.5-12.6 1.1-4.3 1.9-9 6.8-9z" transform="matrix(.46665 -.10496 .11265 .43482 -20.1 -121.7)"/>
    <path fill="#ff0" stroke="#000" stroke-width="4" d="M727.8 319.5c-4.2 0-8.2.3-12.1 1-8.5 2-22.9 8.3-26.3 18.7a29.4 29.4 0 000 20.6c2.5 6.3 3.4 13.4 35.1 20.5 5.4 2 16.4 12 0 17h-11.4c-8-2.6-6-8.7-7-13.7h-24c6-15.8 13-52-28.7-62.6h-50l-19 95h56.3c11.6-2.9 22.8-3.6 36.9-23.7 19 45 78 25.6 83.9-1.1 3.1-14.2-4.6-31.3-38.3-36.6-8.3-1.3-13-9 0-14.4h8.4c3.1 1.2 6.3 2.3 7 10h27.8c-1-9.7-.4-23.5-25.8-29.7-4.4-.7-8.7-1-12.8-1zM627.9 346h17c20.4 0 8.5 43.8-6.8 45.8l-19.4-.5zm-56.4-25l29.6.2-19.5 95.7-30.2-.6zm-52.3-1.4c-5.2 0-10.2.5-15.2 1.7a46.4 46.4 0 00-34 28.8c.6-27-14.7-27-21.1-27.9h-59l-19.6 94H399l7-32.7h17c3 .7 4.6.5 7.5 7.4-.4 8.6-3.2 17.8 0 25.5h27.6a9.5 9.5 0 01-1.5-4.7v-28c0-7.2-3.5-10-8.5-11 6.7-.8 11.7-5.1 16.6-9.8l-.8 21.6c1.2 12.9 3.8 29.6 36 33.8 4 .3 8 .7 13.6 0 5.5-1.4 32.8-1.1 45.1-40.5 2.9-9.1 3.4-22 .1-32.8-2.7-9.2-6.4-18-23.7-23.7-5.4-1.1-10.7-1.7-15.9-1.7zm-2.9 23.7c1.3 0 2.6.1 3.8.5 9.7 2.8 14.2 16.6 10 30.9-4.1 14.2-15.5 23.5-25.2 20.7-9.8-2.9-14.3-16.7-10.1-31 3.6-12.1 12.6-21 21.5-21.1zm-102.1 1h19.6c10.5 0 10.5 18.4-3.9 18.2l-19.4-.2zm-226.7-24.9c-3.8 0-7.7.5-11.5 1.1-8.5 1.5-23.6 5.3-28.7 23.9a26 26 0 000 12.7 22 22 0 0010.2 13.8c7.5 5.3 17.4 6.4 26.4 9.8 15.8 5.7 7.8 15.6 0 16.8-5 .7-8.4.6-11.1 0-8.2-2.5-6.7-7.9-7.7-12.4h-28.7l-9.6-63.6H97l-55 95.3 30 .5 8-13.8h30.3l1.3 13.9h29.8l-3.2-22.7c14.4 38.1 63.3 23 72.7 13.3 11.6-12.1 15.9-28.1-.5-43.2-5.7-5.3-16.2-7.6-29.2-10.5-9.2-2.8-9.4-9.4-.2-13.5l.2-.1a18.2 18.2 0 0111.7.2c4.3 1.6 5.1 5.9 4.9 9.5h27l.1-4.2h22.6l-14.2 70.4H263l14.6-70.4 25-.3-14.8 70.7h80.4l5-24.8h-50.9l3-11.3h44.9l6.1-23h-46.9l3-11h49.9l5.2-24.8H226.6l-2.6 14.7h-1.9c-2.5-6.7-9-12.4-23.1-15.9a55 55 0 00-11.5-1zm-82.3 36.1l3.8 27.5-18.5-.3z" transform="matrix(.46665 -.10496 .11265 .43482 -20.1 -121.7)"/>
    <g paint-order="markers stroke fill">
      <path fill="#faff01" stroke="#000" stroke-linecap="round" stroke-linejoin="round" stroke-width="2.2" d="M321.4 338.4c34.7 26.3 17 12.8 63 46.7 20.2 15 39.1 28.8 56.5 46.5 19 19.3 41.2 41.7 45.6 56.1 12.6 41.5 19 47.4 23.5 59l-27.5 26.6-199-152.6z" transform="matrix(-.991 -.44145 -.43678 .62826 1086 -127)"/>
      <path fill="#a00" d="M619.9-52.2c-65.7-3.2-220.1 5.6-226.3 18.8l-27.3 49.6C453 12 481.8 7.2 621 10.8z"/>
      <path fill="navy" d="M620.2-48.3c-73-.3-129-1-226.6 14.9L372.5 4.8c81 4 118.3-1.6 248-1l-.3-52.1z"/>
    </g>
    <g stroke-width=".1">
      <path stroke="#000" d="M291.9 306.7l.6 7.2 3.6 6.9c39.7 14.7 44.2 23.6 62 41.2l6.5 2.5 30.3 10.3-39.5-31.1-2.5-8.6a26.4 26.4 0 00-14.4-12c-5.3-1-10.6-.8-15.7.8z" transform="matrix(-.54704 -.40158 -.36805 .65646 854.8 -152.6)"/>
      <path fill="#e6e6e6" stroke="#f2eded" d="M364.2 362.1c1.6.4 7-2.9 7-2.9l2.7 2-9.3 3.3zm-4.6-1.2c3.5 1.5 4.6 1.2 4.6 1.2l.4 2.4-6.6-2.5zm-6-6.5l4.4 7.6 8-5.2c-12-.7-9-1.9-12.5-2.4zm-14.2-30.6l4 6.2 9.4 6c-2-4-6.3-9-13.4-12.2zm-6.9 5.6l-9.2-5.4c4.6-1.4 8.5-1.6 15.2-.6l4.2 6.2c-3-.5-6.4-.9-10.2-.2zm-40.6-22.7c17 9.9 32.5 17 51.7 30.4l-9.3-6.8 6-.3c2.9 1.7 6.2 2.8 8 5.4l1.1 4.4 3.4 2.3v-.4l-3.1-2-1-4.2c2.3 1.5 5 2.5 6 6l.7 2.2a662.1 662.1 0 0139.5 31.1c-34.2-22.1-67.1-44.8-102.8-66.3zm5 14.7l7 4.3c3.3-1.2 5.5-3 8.1-4.8l-1.9-1.2-4.3 3.2c-2.5-.3-3-.4-5.8-3.7zm-4.8-12.9l11.7 7.3-7.2 5.4-.5-.4-3.6-7z" transform="matrix(-.54704 -.40158 -.36805 .65646 854.8 -152.6)"/>
    </g>
    <path stroke="#0005ff" stroke-linecap="round" stroke-linejoin="round" stroke-width=".3" d="M69 374.9l41.3 25.7c7.1 5.4 22.2 19.3 27.8 25.5 6.3 7 15.2 15.6 26.9 40.8 14.8 3 31.3 3 43.1 10.8L230 490l60 48.3c7.8 6.2 15.5 17 23.3 41.7 13.6 2.8 27.5 7.1 41.7 12.5l17.8 17.5c4.1-1.1 4.1-.3 5.3 0l21.8 19.6.1-34.6-70-73-15-37-35-32.8-43.4-37.2-18.3-16.5c-18.3-5-27-6.2-48.3-11.9-33.3-22.2-66-45.3-101.5-64.8z" paint-order="markers stroke fill" transform="matrix(-.6595 -.45929 -.5015 .71218 846.2 -236.9)"/>
    <path fill="#fff" stroke="#000" stroke-width=".3" d="M69.1 321.7V370c50 29.1 101.3 63 143.8 96.9a1586.6 1586.6 0 01129 108.4c20 18.3 40 37.5 58 57.2l2 2.1c0-13.4.7-21.7.7-35.2-23.1-23.7-49.5-52.6-72.3-76.6l-14.8-36a675.9 675.9 0 00-57.2-54.3c-13-10.9-27.2-21.9-40.1-32.9l-32-8c-3.6-.5-11.8-3.1-15.4-3.6-16.8-11-31-21.4-47.8-32.4-15.4-10-31.1-19.8-46.8-29.5-7.2-6.4-10-4-7-4.4zm64.2 94.4c11.6 17 26.2 34 31.7 50.8 16.5 2 32.4 2.7 52.4 11.7l-26-21.7-23.2-7.8c-2-4.4-8.9-2.5-7.5 1.2l-11-22.3zm163.4 123.6c7.5 11.4 13.9 25.2 17.2 39.6.2-3.7 8.4-4.6 7 1.3 11 1.2 21 5.5 31 9.4L336 574.2c-4.7-2.5-10.5-5-16.7-5 0-3.7-3.5-2.6-3.2-.7-1-5.3-2-10.6-3.6-15.2a209.3 209.3 0 00-15.8-13.6z" transform="matrix(-.6595 -.45929 -.5015 .71218 846.2 -236.9)"/>
    <path fill="none" stroke="#000" stroke-linecap="round" stroke-linejoin="round" stroke-width=".5" d="M328.9 571.2l17 16.5m-22-18.4l17.6 17m-20.8-12c7.2.8 14.2 2.6 21 5.7M316 568.5l-3.6-15.2-15.8-13.6c8 13.1 15 26.3 17.2 39.6m5.4-10.1c-.6-4.1-3.1-2-3.2-.7 0 1.2-2.2 10.8-2.2 10.8 3-6.7 8.6-1.2 7 1.3m0 0c1.2-2.8-1-7.6-1.6-11.4 6.2-.7 11.5 2.2 16.7 5l15.9 15.8c-10.3-3.4-20.5-8.7-31-9.4zM188 456.1c9.2 7.5 24 20 24 20m-28.8-21.5l10.7 8.5M176 452l13.3 10.3 15.5 11.8m-32-14.7l27.1 5m-32-16.1c2 6.1 8.3 14 3.5 18.8 5-8.6-6.2-7.9-6.5-.2M146.7 426l3 2 12.7 26.2c-5-8.7 4.4-9.7 5.8-5.1l23.1 7.8 24.6 20.7a165 165 0 00-50.9-10.7M133.3 416c3.3 1.6 8.6 5.5 13.4 10l15.7 28.1A87.1 87.1 0 01165 467c-8.2-19.5-20.5-35.4-31.7-50.8zm83.3 50.4l-1.8 1.6-4.5-3.6 1.5-1.3a1227.9 1227.9 0 00-143-96.7m29.1 8.4c1-1.3 4.8-.7 5.3 1m-4.9 1.4c1.7-.8 2.7-.4 4 .6l1.1 6.5c-1-4.3-2-4.7-3.9-4.6-.7 0-.7 2.2-1.3 2.5zm-29.5-43.2v32.4m141.5 98C135 407.5 116 400 69.2 370l-.3-3.5m333 264.6v3.5c-19.4-22-41.8-41.8-63-62.5-42.3-38.7-82.8-69.3-124.1-104m-57.4-57.6l4 15.7m-52.2-35.3l-2.2-13.6c34.7 21.8 68.2 46.4 101.4 71.7m8.2 17.5c42.8 32.3 83.9 65.6 121.9 100.7l-2.4 2.5 2.7 2.4 2-2.6m32.6 21.5l1.2 10.6m-33.8-32.1c20.2 19.6 39.3 35.8 61 61.6m-62.6-72.8a1284 1284 0 0163 62.3m.4-21.2l-.7 35.2m-70.8-108.5l-.2 5m2.2 1.3l-.9 3m1 4l.8-3.1m0 10.2l1.4-4.5m-.9 14.1l2.8 3.4m-2.8-3.9l2-8.3m0 0l.8 12.2 2-1.3m-6.2-25.8l69.4 71.3m-71.1-76.4l71 73M332 528.9l70.7 72.6M331 526.1l71.5 73.3m-63.4-41.2l1.6 11.3-2.3-2.3.7-8.9-4.9-21.2-4.6-15.4-4.5-10.5m4.5 10.5l73 77.7-.2 6.4-68.5-69.5M317.3 513c-.8-.8-1-1.7-.5-1.9.5-.2 1.6.3 2.4 1 .8.8 1 1.7.5 1.9-.6.2-1.6-.2-2.4-1M279 451.7l37.4 35 8.8 24.5m-36-33.8l36 33.8 4.3 16.1-32.2-29.3m-54.4-58.9l-1.3-2.4-15.5-30 52.9 45 10.1 25.7C278.7 468 260.2 452 243 439zm46.2 38.3l8.2 20.6a519.3 519.3 0 00-28.8-24.6c-.6-2.5-4.2-14-5.5-18.1m2.9 8.7l2.7 9.6-14.6-12.2-5.3-10.8m-5.8-11.5l5.8 11.5 17.2 13.4-3.2-9.4m-38.2 6.8c0-5.9 86.7 51.2 110 94.7-1.4-9.3.5-15.3-5-28.8-24-21.7-46.6-42-75.5-65.9a96.2 96.2 0 00-29.5 0zm26.3-19.4c-1.4-.7-2.3-1.8-2-2.5.2-.6 1.6-.6 3 0 1.4.7 2.3 1.8 2 2.5-.2.7-1.6.7-3 0m-2.6-6.7c-1.3-.7-2.1-1.6-1.8-2.1.4-.5 1.7-.4 3 .3s2 1.6 1.8 2.1c-.4.5-1.7.4-3-.3m-3.2-7.4c-.6-.4-.9-1-.7-1.5.2-.4.9-.4 1.4 0 .6.4 1 1 .7 1.5-.2.4-.9.4-1.4 0m-16.6 17.7h3.2m-3.8-2.6c2.5-.2 2.5 0 2.5 0m-6-2.4l5.2-.2m-6.6-4.6h7.6m-7.6-9.6l6.7.5.9 9c-1.8-7-2.8-6.9-5.7-6.5-1 0-1 5.9-2 6.6zm-1.1 23.4c1-.2 2-.5 3.2-.4.3.1 0-.4.4-.5 5.1-.8 12.3-.8 18.5-.2.2 0-.5.8-.2.8.8 0 2.2.4 3 .4m-25-11.1c1-.2 2.2-.6 3.5-.2v-.6c-.3-.2 9.6-.9 12.6 0l-.4.7 3.5-.1m-19.7-36l.7 57.6c1.2-.3 1.4-.8 4.3-.6l-.7-.9c6.7-.4 13-1.1 21-.4l-.3.8c1.9-.3 3.2 0 4.7.2l-4.1-9.4-24.2-46.2zm-3.3-3c-.7 21 .5 40.8 1 61m-2.1-26.6l-10-2.3m9.9-8.1l1.3 37-3.2-.6m-27.8-68L171 388l17.7 12.5 13 20.3m-14.8-29l1.8 8.7 14.6 19.6 13.5-20.6zm-118.2-60c31.7 17.2 88.4 52.4 128 82.6m-128-84.7c31.7 17.3 86.4 50.8 126 81M69 328c31.6 17.3 84.5 49.5 124 79.7M69.1 326c31.6 17.3 83 49.2 122.6 79.4m-123-71.2l.4-12.4c43.7 25.8 81.3 52.3 119.7 78.8 3 5 10 17 9 16.2-8.8-8.3-125.3-84.8-129-82.6zM218 460.4h1m-17.2-39.6l10 42.4 4.8 3.3-13.2-46.4.6 1.3 12.7 2 .2-23.9 1-.1m36.1 62c-.4-.9-.6-2-3-2.3" paint-order="markers stroke fill" transform="matrix(-.6595 -.45929 -.5015 .71218 846.2 -236.9)"/>
    <path d="M589.3-14.6c.9-.3 2.6.5 2.9 1.3-.4.5-1.5 2.4-2.1 2.7-.2-.3 0-1.8-.4-2-.4-.4-1.8 0-2.4.1-.1-.3 1.2-1.2 1.4-1.5.2-.3.3-.6.6-.6zm-119-31.2c.5-.2.9.5.3.8-.3.1-1.1.2-1.1-.3.1-.3.5-.4.8-.5zm-7 3.4c1 0 2.1 0 2.8.7.1.6-.7.5-1 .6-1 0-2-.1-2.7-.8.2-.4.6-.4.8-.5zm-4.8 3.3c1-.2 2.4 0 3 .8-.2.8-1.2.7-1.8.8-.8 0-1.7-.3-2.3-1 .2-.4.6-.6 1.1-.6zM380-18.5c.3 0 1 .1.6.5-.7.6-1.7.7-2.5.4-.3-.1-.1-.5.2-.6.5-.3 1.1-.4 1.7-.3zm67.9-5.8A71 71 0 01463.3-14c.1.2 1 .7.5 1l-9-.6c-19-.2-38 1.3-57 4.1C385-7.5 372-4.9 359.6-.4c-3.3 1.2-6.5 2.6-9.8 4-.3.2-1 0-.5-.4 3.3-4.4 6.6-8.8 10.9-12.2l4.5-3.3c9.1-1.7 18.3-3 27.4-4.5 18.4-3 36.8-5.6 55.2-7.8l.7.3zm37.3-11.3l-4 5.9c-.2-.1.3-1 .4-1l1.4-3c0-.4.1-.8-.2-1-.5-.5-1-1-1.7-1.1-.8-.2-1.6.3-2.3.7l-1 .7c-.9.8.2-.4.3-.4l2.8-3.4c1 .1 3.2 1.8 4.3 2.6z" paint-order="markers stroke fill"/>
    <path fill="url(#k)" d="M165.2 466.6l51.4 170.2-44.1-170.2c.8-7.6-5.7-6.5-7.3 0zm0 0L233.4 697l-60.8-234.2c-1.5-4.6-7.8-.1-7.4 3.8z" paint-order="markers stroke fill" transform="matrix(-.6595 -.45929 -.5015 .71218 846.2 -236.9)"/>
    <path fill="url(#l)" d="M313.6 580.6l51.3 170.1-44-170c.7-7.7-5.8-6.6-7.3-.1zm0 0L381.7 811 321 576.8c-1.5-4.6-7.7-.1-7.3 3.8z" paint-order="markers stroke fill" transform="matrix(-.6595 -.45929 -.5015 .71218 846.2 -236.9)"/>
    <use stroke-linecap="round" stroke-linejoin="round" stroke-width="1.4" paint-order="markers stroke fill" transform="matrix(.38295 0 0 .33975 384.4 32.9)" xlink:href="#reuse-3"/>
    <path fill="none" stroke="#484646" stroke-width=".18204" d="M395 69.8c.4.1.8 0 1 .2.4.2-.2-.2.2.2H397.1c.2-.1.3-.3.7-.3m-3.2 4.8c.3.3.6.5 1.1.6m1.4-2.8c-.3.6 0 .7-1.2.9m-1.3-1.8h-.6a1 1 0 00-.4 1.6m3.7 1.3c.6 0 .3-.7.8-.6m.4-3c.4.7.5.7 1 .8"/>
    <use stroke-linecap="round" stroke-linejoin="round" stroke-width="1.4" paint-order="markers stroke fill" transform="matrix(.16698 0 0 .14814 403.8 43.3)" xlink:href="#reuse-3"/>
    <path fill="none" stroke="#484646" stroke-width=".07937399999999999" d="M408.4 59.4l.5.1c.1 0-.1 0 0 0 .1.1.3 0 .4 0 0 0 0 0 0 0h.3m-1.3 2c.1.2.2.3.5.3m.6-1.2c-.2.2 0 .3-.6.4m-.5-.8h-.3c-.4.2-.3.6-.2.7m1.6.5c.3 0 .2-.2.4-.2m.2-1.3c.2.3.2.3.4.3"/>
    <use stroke-linecap="round" stroke-linejoin="round" stroke-width="1.4" paint-order="markers stroke fill" transform="matrix(0 -.16698 .14814 0 369.7 64.2)" xlink:href="#reuse-3"/>
    <path fill="none" stroke="#484646" stroke-width=".07937399999999999" d="M385.8 59.6c.1-.2 0-.3.2-.5 0-.1-.1.1 0 0v-.4s0 0 0 0l-.1-.3m2 1.4c.2-.2.3-.3.3-.5m-1.2-.7c.3.2.3 0 .4.6m-.8.5v.3c.2.4.6.3.7.2m.6-1.6c0-.3-.3-.2-.3-.4m-1.3-.1c.3-.2.4-.3.4-.5"/>
    <use stroke-linecap="round" stroke-linejoin="round" stroke-width="1.4" paint-order="markers stroke fill" transform="matrix(.16698 0 0 .14814 360.5 43.5)" xlink:href="#reuse-3"/>
    <path fill="none" stroke="#484646" stroke-width=".07937399999999999" d="M365.2 59.6l.4.1c.2 0-.1 0 0 0 .2.1.3 0 .4 0 0 0 0 0 0 0h.4m-1.4 2c.1.2.3.3.5.3m.6-1.2c-.2.2 0 .3-.5.4m-.6-.8h-.3c-.3.2-.3.6-.2.7m1.7.6c.2 0 0-.3.3-.3m.2-1.3c.2.3.2.3.4.3"/>
    <use stroke-linecap="round" stroke-linejoin="round" stroke-width="1.4" paint-order="markers stroke fill" transform="rotate(145.7 182.7 100.6) scale(.42811 .37981)" xlink:href="#reuse-3"/>
    <path fill="none" stroke="#484646" stroke-width=".203508" d="M357.3 53.4c-.4 0-.7.3-1.1.4h-.3c-.2-.1-.5.3-.6.4l-.2.1c-.1.3 0 .5-.4.6m-.1-6.3c-.6-.2-1-.1-1.4.1m.4 3.5c0-.8-.3-.7.6-1.6m2.3.8l.5-.4c.5-1-.1-1.6-.5-1.7m-4.3 1.1c-.5.4.2.8-.3 1m1.5 3.1c-.9-.4-1-.3-1.4-.1"/>
    <use stroke-linecap="round" stroke-linejoin="round" stroke-width="1.4" paint-order="markers stroke fill" transform="matrix(.16698 0 0 .14814 342.1 23.8)" xlink:href="#reuse-3"/>
    <path fill="none" stroke="#484646" stroke-width=".07937399999999999" d="M346.8 39.8l.4.2c.2 0-.1-.1 0 0 .2.1.3 0 .4 0 0 0 0 0 0 0 .2 0 .2-.1.4 0m-1.4 2c.1.2.3.2.5.2m.6-1.1c-.2.2 0 .2-.5.3m-.6-.7h-.3c-.3.2-.3.5-.2.7m1.7.5c.2 0 0-.3.3-.3m.2-1.3c.2.4.2.4.4.4"/>
    <use stroke-linecap="round" stroke-linejoin="round" stroke-width="1.4" paint-order="markers stroke fill" transform="matrix(.16698 0 0 .14814 313.6 16.3)" xlink:href="#reuse-3"/>
    <path fill="none" stroke="#484646" stroke-width=".07937399999999999" d="M318.2 32.4c.2.1.3 0 .5.2.1 0-.2-.1 0 0h.4s0 0 0 0l.3-.1m-1.4 2c.2.2.3.3.5.3m.6-1.2c-.1.3 0 .3-.5.4m-.5-.8h-.3c-.4.2-.3.6-.2.7m1.6.6c.3 0 .1-.3.3-.3m.2-1.3l.4.4"/>
    <use stroke-linecap="round" stroke-linejoin="round" stroke-width="1.4" paint-order="markers stroke fill" transform="matrix(.16698 0 0 .14814 294.3 17.2)" xlink:href="#reuse-3"/>
    <path fill="none" stroke="#484646" stroke-width=".07937399999999999" d="M299 33.3h.4c.1.1-.1 0 0 .2h.4s0 0 0 0l.3-.2m-1.3 2.1c.1.2.2.2.4.3m.7-1.2c-.2.2 0 .3-.6.4m-.5-.8h-.3c-.4.2-.3.6-.2.7m1.6.5c.3 0 .2-.3.4-.2m.2-1.3c.1.3.2.3.4.3"/>
    <use stroke-linecap="round" stroke-linejoin="round" stroke-width="1.4" paint-order="markers stroke fill" transform="matrix(-.11564 -.50063 .44414 -.1026 341.6 57.4)" xlink:href="#reuse-3"/>
    <path fill="none" stroke="#484646" stroke-width=".244248" d="M386.6 32.3v-1.5c.2-.4 0 .5.3-.2.1-.2-.2-.8-.3-1v-.1c-.3-.3-.5-.3-.6-.8m7.2 2.7c.4-.6.5-1 .4-1.7m-4-1c.8.3.9-.1 1.5 1.3m-2 2.2l.4.9c.7 1 1.8.4 2 0m.7-5.2c-.2-.8-1-.2-1-.8m-4.2.3c.9-.8.9-.9.8-1.4"/>
    <use stroke-linecap="round" stroke-linejoin="round" stroke-width="1.4" paint-order="markers stroke fill" transform="matrix(.30016 -.34027 .30407 .26822 364.5 13)" xlink:href="#reuse-3"/>
    <use stroke-width=".3" transform="matrix(.47562 -.53918 .54308 .47906 4 -88.3)" xlink:href="#reuse-4"/>
    <use stroke-linecap="round" stroke-linejoin="round" stroke-width="1.4" paint-order="markers stroke fill" transform="matrix(.04284 .23042 -.26754 .04975 448.6 11.2)" xlink:href="#reuse-3"/>
    <use stroke-width=".3" transform="matrix(.06789 .36511 -.47784 .08885 655.8 -112.7)" xlink:href="#reuse-4"/>
    <use stroke-linecap="round" stroke-linejoin="round" stroke-width="1.4" paint-order="markers stroke fill" transform="matrix(.26004 0 0 .23325 420.4 10.3)" xlink:href="#reuse-3"/>
    <use stroke-width=".3" transform="matrix(.41204 0 0 .4166 327.2 -183.8)" xlink:href="#reuse-4"/>
    <use stroke-linecap="round" stroke-linejoin="round" stroke-width="1.4" paint-order="markers stroke fill" transform="matrix(.30191 0 0 .20715 412.5 6)" xlink:href="#reuse-3"/>
    <use stroke-width=".3" transform="matrix(.4784 0 0 .36998 304.4 -166.4)" xlink:href="#reuse-4"/>
    <use stroke-linecap="round" stroke-linejoin="round" stroke-width="1.4" paint-order="markers stroke fill" transform="matrix(.16698 0 0 .14814 427 4.8)" xlink:href="#reuse-3"/>
    <path fill="none" stroke="#484646" stroke-width=".07937399999999999" d="M431.6 21h.4c.2 0-.1 0 0 .1h.4s0 0 0 0l.4-.1m-1.4 2c.1.2.3.3.5.3m.6-1.2c-.2.3 0 .3-.5.4m-.6-.8h-.3c-.3.2-.3.6-.2.7m1.7.6c.2 0 0-.3.3-.3m.2-1.3c.2.3.2.3.4.3"/>
    <use stroke-linecap="round" stroke-linejoin="round" stroke-width="1.4" paint-order="markers stroke fill" transform="matrix(.16698 0 0 .14814 429 5.7)" xlink:href="#reuse-3"/>
    <path fill="none" stroke="#484646" stroke-width=".07937399999999999" d="M433.7 21.8l.5.1c.1 0-.2 0 0 .1h.4l.3-.1m-1.4 2c.2.2.3.3.5.3m.6-1.2c-.1.2 0 .3-.5.4m-.6-.8h-.2c-.4.2-.3.6-.2.7m1.6.6c.3 0 .1-.3.3-.3m.2-1.3c.2.3.3.3.4.3"/>
    <use stroke-linecap="round" stroke-linejoin="round" stroke-width="1.4" paint-order="markers stroke fill" transform="matrix(.16698 0 0 .14814 421.4 10.8)" xlink:href="#reuse-3"/>
    <path fill="none" stroke="#484646" stroke-width=".07937399999999999" d="M426 26.9h.5c.2.1-.1 0 .1.2h.3s0 0 0 0l.4-.2m-1.4 2.1c.1.2.3.2.5.3m.6-1.2c-.2.2 0 .3-.5.4m-.6-.8h-.3c-.3.2-.3.6-.1.7m1.6.5c.2 0 .1-.3.3-.2m.2-1.3c.2.3.2.3.4.3"/>
    <use stroke-linecap="round" stroke-linejoin="round" stroke-width="1.4" paint-order="markers stroke fill" transform="matrix(.16698 0 0 .14814 419 15.7)" xlink:href="#reuse-3"/>
    <path fill="none" stroke="#484646" stroke-width=".07937399999999999" d="M423.7 31.8h.5c0 .2-.2 0 0 .2h.4c.1 0 .1-.2.3-.2m-1.4 2.1c.2.2.3.3.5.3m.6-1.2c-.1.2 0 .3-.5.4m-.6-.8h-.2c-.4.2-.3.6-.2.7m1.6.5c.3 0 .1-.3.3-.2m.2-1.3c.2.3.3.3.4.3"/>
    <use stroke-linecap="round" stroke-linejoin="round" stroke-width="1.4" paint-order="markers stroke fill" transform="matrix(.16698 0 0 .14814 415 25.2)" xlink:href="#reuse-3"/>
    <path fill="none" stroke="#484646" stroke-width=".07937399999999999" d="M419.6 41.3h.4c.2.1 0 0 .1.2h.3s0 0 0 0l.4-.2m-1.4 2.1l.5.3m.6-1.2c-.1.2 0 .3-.5.4m-.6-.8h-.3c-.3.2-.2.6-.1.7m1.6.5c.2 0 .1-.3.3-.2m.2-1.3c.2.3.2.3.4.3"/>
    <use stroke-linecap="round" stroke-linejoin="round" stroke-width="1.4" paint-order="markers stroke fill" transform="matrix(-.19225 -.11271 .11692 -.19943 422.5 74.5)" xlink:href="#reuse-3"/>
    <use stroke-width=".3" transform="matrix(-.30463 -.1786 .20883 -.3562 394 280.8)" xlink:href="#reuse-4"/>
    <use stroke-linecap="round" stroke-linejoin="round" stroke-width="1.4" paint-order="markers stroke fill" transform="rotate(75.4 192.4 308) scale(.16698 .14814)" xlink:href="#reuse-3"/>
    <path fill="none" stroke="#484646" stroke-width=".07937399999999999" d="M427.4 52.5v.5c0 .2 0-.1 0 0-.1.2 0 .3 0 .4 0 0 0 0 0 0l.2.3m-2.3-.8c-.2.2-.2.3-.2.5m1.4.3c-.3 0-.3 0-.5-.4m.6-.7l-.1-.3a.4.4 0 00-.7 0m-.2 1.7c.1.3.4 0 .4.3m1.3-.2c-.3.3-.3.3-.2.5"/>
    <use stroke-linecap="round" stroke-linejoin="round" stroke-width="1.4" paint-order="markers stroke fill" transform="matrix(.2097 0 0 -.16459 399.2 69.4)" xlink:href="#reuse-3"/>
    <use stroke-width=".3" transform="matrix(.3323 0 0 -.29396 324.1 206.3)" xlink:href="#reuse-4"/>
    <use stroke-linecap="round" stroke-linejoin="round" stroke-width="1.4" paint-order="markers stroke fill" transform="matrix(0 .16698 -.14814 0 413.1 50.4)" xlink:href="#reuse-3"/>
    <path fill="none" stroke="#484646" stroke-width=".07937399999999999" d="M397 55v.5c-.1.2 0-.1-.2 0v.4s0 0 0 0l.2.4m-2.1-1.4c-.2.1-.2.3-.3.5m1.2.6c-.2-.2-.3 0-.4-.5m.8-.6v-.3a.4.4 0 00-.7-.2m-.5 1.7c0 .2.3.1.2.3m1.4.2c-.4.2-.4.2-.4.4"/>
    <use stroke-linecap="round" stroke-linejoin="round" stroke-width="1.4" paint-order="markers stroke fill" transform="matrix(.33695 0 0 .14814 382.2 29.5)" xlink:href="#reuse-3"/>
    <use stroke-width=".3" transform="matrix(.53392 0 0 .26458 261.5 -93.8)" xlink:href="#reuse-4"/>
    <use stroke-linecap="round" stroke-linejoin="round" stroke-width="1.4" paint-order="markers stroke fill" transform="matrix(.16698 0 0 .14814 388.7 32.7)" xlink:href="#reuse-3"/>
    <path fill="none" stroke="#484646" stroke-width=".07937399999999999" d="M393.4 48.8l.5.1s-.2 0 0 0h.3s0 0 0 0h.4m-1.4 2c.2.2.3.3.5.3m.6-1.2c-.1.2 0 .3-.5.4m-.6-.8h-.3c-.3.2-.2.6-.1.7m1.6.6c.2 0 .1-.3.3-.3m.2-1.3c.2.3.2.3.4.3"/>
    <use stroke-linecap="round" stroke-linejoin="round" stroke-width="1.4" paint-order="markers stroke fill" transform="matrix(.1891 -.1441 .1125 .14762 390.4 53.7)" xlink:href="#reuse-3"/>
    <use stroke-width=".3" transform="matrix(.29963 -.22833 .20092 .26366 229.1 -17.5)" xlink:href="#reuse-4"/>
    <use stroke-linecap="round" stroke-linejoin="round" stroke-width="1.4" paint-order="markers stroke fill" transform="matrix(.16503 .15896 -.15935 .16544 425 46.4)" xlink:href="#reuse-3"/>
    <use stroke-width=".3" transform="matrix(.26149 .25188 -.28462 .29548 498.5 -148.2)" xlink:href="#reuse-4"/>
    <use stroke-linecap="round" stroke-linejoin="round" stroke-width="1.4" paint-order="markers stroke fill" transform="matrix(0 -.57883 .46105 0 366.3 80.9)" xlink:href="#reuse-3"/>
    <use stroke-width=".3" transform="matrix(0 -.91718 .82346 0 -17.2 288.2)" xlink:href="#reuse-4"/>
    <g>
      <use stroke-linecap="round" stroke-linejoin="round" stroke-width="1.4" paint-order="markers stroke fill" transform="matrix(.1504 -.2227 -.08965 -.06054 440.3 76.6)" xlink:href="#reuse-3"/>
      <use stroke-width=".3" transform="matrix(.23832 -.35289 -.16011 -.10813 461 206.7)" xlink:href="#reuse-4"/>
    </g>
    <g>
      <use stroke-linecap="round" stroke-linejoin="round" stroke-width="1.4" paint-order="markers stroke fill" transform="matrix(.16698 0 0 .14814 426.8 42.8)" xlink:href="#reuse-3"/>
      <path fill="none" stroke="#484646" stroke-width=".07937399999999999" d="M431.4 58.9l.5.1c.1 0-.2 0 0 0h.7m-1.4 2c.2.2.3.3.5.3m.6-1.2c-.1.2 0 .3-.5.4m-.6-.8h-.2c-.4.2-.3.6-.2.7m1.6.5c.3 0 .1-.2.3-.2m.2-1.3c.2.3.3.3.4.3"/>
    </g>
    <g>
      <use stroke-linecap="round" stroke-linejoin="round" stroke-width="1.4" paint-order="markers stroke fill" transform="matrix(.2708 0 0 .24025 447.5 38.1)" xlink:href="#reuse-3"/>
      <path fill="none" stroke="#484646" stroke-width=".128733" d="M455 64.2l.8.2c.2.1-.2-.1 0 .2l.6-.1s0 0 0 0c.3 0 .3-.2.5-.2m-2.2 3.4c.3.3.5.4.8.4m1-2c-.2.5 0 .5-.8.7m-1-1.3l-.4.1c-.6.3-.5.9-.3 1m2.6 1c.5 0 .2-.5.6-.4m.3-2.2c.3.5.4.6.6.6"/>
    </g>
    <g>
      <use stroke-linecap="round" stroke-linejoin="round" stroke-width="1.4" paint-order="markers stroke fill" transform="matrix(.46781 0 0 .41503 442.7 21.7)" xlink:href="#reuse-3"/>
      <path fill="none" stroke="#484646" stroke-width=".222381" d="M455.7 66.8l1.3.4c.3.1-.4-.3.1.2.2.1.8 0 1-.1h.1c.3-.1.4-.3.8-.3m-3.8 5.8c.4.5.7.7 1.3.7m1.8-3.3c-.5.7-.1.8-1.5 1m-1.6-2.1h-.8c-1 .5-.8 1.6-.5 2m4.6 1.5c.7 0 .3-.8 1-.7m.4-3.7c.5.9.7 1 1.2 1"/>
    </g>
    <g>
      <use stroke-linecap="round" stroke-linejoin="round" stroke-width="1.4" paint-order="markers stroke fill" transform="matrix(.48231 0 0 -.22498 433 97.2)" xlink:href="#reuse-3"/>
      <use stroke-width=".3" transform="matrix(.76425 0 0 -.40182 260.2 284.4)" xlink:href="#reuse-4"/>
    </g>
    <g>
      <use stroke-linecap="round" stroke-linejoin="round" stroke-width="1.4" paint-order="markers stroke fill" transform="matrix(0 .34463 -.21824 0 451 61.5)" xlink:href="#reuse-3"/>
      <use stroke-width=".3" transform="matrix(0 .54608 -.3898 0 632.6 -62)" xlink:href="#reuse-4"/>
    </g>
    <g>
      <use stroke-linecap="round" stroke-linejoin="round" stroke-width="1.4" paint-order="markers stroke fill" transform="matrix(0 .45374 .38091 0 331.6 56.9)" xlink:href="#reuse-3"/>
      <use stroke-width=".3" transform="matrix(0 .71896 .68033 0 14.7 -105.6)" xlink:href="#reuse-4"/>
    </g>
    <g>
      <use stroke-linecap="round" stroke-linejoin="round" stroke-width="1.4" paint-order="markers stroke fill" transform="matrix(.16698 0 0 .14814 278.1 23.2)" xlink:href="#reuse-3"/>
      <path fill="none" stroke="#484646" stroke-width=".07937399999999999" d="M282.8 39.3c.1.1.3 0 .4.2.2 0 0-.1.1 0h.3s0 0 0 0l.4-.1m-1.4 2c.1.2.3.3.5.3m.6-1.2c-.2.3 0 .3-.5.4m-.6-.8h-.3c-.3.2-.2.6-.1.7m1.6.6c.2 0 .1-.3.3-.3m.2-1.3c.2.3.2.4.4.4"/>
    </g>
    <g>
      <use stroke-linecap="round" stroke-linejoin="round" stroke-width="1.4" paint-order="markers stroke fill" transform="matrix(.16698 0 0 .14814 265.9 31.8)" xlink:href="#reuse-3"/>
      <path fill="none" stroke="#484646" stroke-width=".07937399999999999" d="M270.5 48h.5c.1.1-.1 0 0 .1h.4s0 0 0 0l.3-.1m-1.3 2c.1.2.2.3.4.3m.7-1.2c-.2.3 0 .3-.6.4m-.5-.8h-.3c-.4.2-.3.6-.2.7m1.6.6c.3 0 .2-.3.4-.3m.2-1.3c.1.3.2.4.4.4"/>
    </g>
    <g>
      <use stroke-linecap="round" stroke-linejoin="round" stroke-width="1.4" paint-order="markers stroke fill" transform="matrix(.16698 0 0 .14814 342.6 46.5)" xlink:href="#reuse-3"/>
      <path fill="none" stroke="#484646" stroke-width=".07937399999999999" d="M347.2 62.5l.5.2c.1 0-.1-.1 0 0s.3 0 .4 0c0 0 0 0 0 0h.3m-1.3 2c.1.2.2.2.4.2m.7-1.1c-.2.2 0 .2-.6.3m-.5-.7h-.3c-.4.2-.3.5-.2.7m1.6.5c.3 0 .2-.3.4-.3m.2-1.3c.1.4.2.4.4.4"/>
    </g>
    <g>
      <use stroke-linecap="round" stroke-linejoin="round" stroke-width="1.4" paint-order="markers stroke fill" transform="matrix(.16698 0 0 .14814 75 51.7)" xlink:href="#reuse-3"/>
      <path fill="none" stroke="#484646" stroke-width=".07937399999999999" d="M79.7 67.8l.5.1c.1 0-.2 0 0 .1h.4l.3-.1m-1.4 2c.2.2.3.3.5.3m.6-1.2c-.1.3 0 .3-.5.4m-.6-.8h-.2c-.4.2-.3.6-.2.7m1.6.6c.3 0 .1-.3.3-.3m.2-1.3l.4.4"/>
    </g>
    <g>
      <use stroke-linecap="round" stroke-linejoin="round" stroke-width="1.4" paint-order="markers stroke fill" transform="matrix(.16698 0 0 .14814 60.5 45)" xlink:href="#reuse-3"/>
      <path fill="none" stroke="#484646" stroke-width=".07937399999999999" d="M65.1 61l.5.1c0 .1-.2 0 0 .1h.4l.3-.1m-1.4 2c.2.2.3.3.5.3m.6-1.2c-.1.3 0 .3-.5.4m-.6-.8h-.2c-.4.2-.3.6-.2.7m1.6.6c.3 0 .1-.3.3-.3m.2-1.3l.4.4"/>
    </g>
    <g>
      <use stroke-linecap="round" stroke-linejoin="round" stroke-width="1.4" paint-order="markers stroke fill" transform="matrix(.16698 0 0 .14814 73.2 45.9)" xlink:href="#reuse-3"/>
      <path fill="none" stroke="#484646" stroke-width=".07937399999999999" d="M77.8 62l.5.1c.1 0-.2 0 0 0h.7m-1.4 2c.2.2.3.3.5.3m.6-1.2c-.1.2 0 .3-.5.4m-.6-.8h-.2c-.4.2-.3.6-.2.7m1.6.6c.3 0 .1-.3.3-.3m.2-1.3c.2.3.3.3.4.3"/>
    </g>
    <g>
      <use stroke-linecap="round" stroke-linejoin="round" stroke-width="1.4" paint-order="markers stroke fill" transform="matrix(.16698 0 0 .14814 163.5 45.7)" xlink:href="#reuse-3"/>
      <path fill="none" stroke="#484646" stroke-width=".07937399999999999" d="M168.2 61.8h.4c.2.1-.1 0 0 .2h.4s0 0 0 0l.4-.2M168 64c.1.2.3.2.5.3m.6-1.2c-.2.2 0 .2-.5.3m-.6-.7h-.3c-.3.2-.3.5-.2.7m1.7.5c.2 0 .1-.3.3-.2m.2-1.4c.2.4.2.4.4.4"/>
    </g>
    <g>
      <use stroke-linecap="round" stroke-linejoin="round" stroke-width="1.4" paint-order="markers stroke fill" transform="matrix(.16698 0 0 .14814 172.7 56)" xlink:href="#reuse-3"/>
      <path fill="none" stroke="#484646" stroke-width=".07937399999999999" d="M177.4 72.1l.4.1.1.1h.3s0 0 0 0l.4-.1m-1.4 2c.1.2.3.3.5.3m.6-1.2c-.2.3 0 .3-.5.4m-.6-.8h-.3c-.3.2-.2.6-.1.7m1.6.6c.2 0 .1-.3.3-.3m.2-1.3l.4.4"/>
    </g>
    <g>
      <use stroke-linecap="round" stroke-linejoin="round" stroke-width="1.4" paint-order="markers stroke fill" transform="matrix(.16698 0 0 .14814 250.5 27)" xlink:href="#reuse-3"/>
      <path fill="none" stroke="#484646" stroke-width=".07937399999999999" d="M255.1 43l.5.1c.1 0-.2 0 0 .1h.4l.3-.1m-1.4 2c.2.2.3.3.5.3m.6-1.2c-.1.3 0 .3-.5.4m-.6-.8h-.2c-.4.2-.3.6-.2.7m1.6.6c.3 0 .1-.3.3-.3m.2-1.3c.2.3.3.3.4.3"/>
    </g>
    <g>
      <use stroke-linecap="round" stroke-linejoin="round" stroke-width="1.4" paint-order="markers stroke fill" transform="matrix(.16698 0 0 .14814 268.3 19.8)" xlink:href="#reuse-3"/>
      <path fill="none" stroke="#484646" stroke-width=".07937399999999999" d="M273 35.8l.4.2c.2 0 0-.1.1 0h.3s0 0 0 0c.2 0 .2-.1.4 0m-1.4 2c.1.2.3.2.5.2m.6-1.2c-.2.3 0 .3-.5.4m-.6-.8h-.3c-.3.3-.3.6-.1.7m1.6.6c.2 0 .1-.3.3-.3m.2-1.3c.2.4.2.4.4.4"/>
    </g>
    <g>
      <use stroke-linecap="round" stroke-linejoin="round" stroke-width="1.4" paint-order="markers stroke fill" transform="matrix(.16698 0 0 .14814 255.8 12.7)" xlink:href="#reuse-3"/>
      <path fill="none" stroke="#484646" stroke-width=".07937399999999999" d="M260.5 28.8l.4.1c.1.1-.1 0 0 .1h.4s0 0 0 0l.3-.1m-1.3 2c.1.2.2.3.5.3m.6-1.2c-.2.3 0 .3-.5.4m-.6-.8h-.3c-.3.2-.3.6-.2.7m1.6.6c.3 0 .2-.3.4-.3m.2-1.3l.4.4"/>
    </g>
    <g>
      <use stroke-linecap="round" stroke-linejoin="round" stroke-width="1.4" paint-order="markers stroke fill" transform="matrix(.2806 .3543 -.3015 .23879 618.7 9.6)" xlink:href="#reuse-3"/>
      <use stroke-width=".3" transform="matrix(.44462 .5614 -.5385 .42648 769 -316)" xlink:href="#reuse-4"/>
    </g>
    <g>
      <use stroke-linecap="round" stroke-linejoin="round" stroke-width="1.4" paint-order="markers stroke fill" transform="matrix(.16698 0 0 .14814 585.7 27.8)" xlink:href="#reuse-3"/>
      <path fill="none" stroke="#484646" stroke-width=".07937399999999999" d="M590.3 44h.5c.1.1-.1 0 0 .1h.4s0 0 0 0l.3-.1m-1.4 2c.2.2.3.3.5.3m.7-1.2c-.2.3 0 .3-.6.4m-.5-.8h-.3c-.4.2-.3.6-.2.7m1.6.6c.3 0 .2-.3.4-.3m.1-1.3c.2.3.3.3.5.4"/>
    </g>
    <g>
      <use stroke-linecap="round" stroke-linejoin="round" stroke-width="1.4" paint-order="markers stroke fill" transform="matrix(.00159 -.32434 .48011 .00235 557.5 53.2)" xlink:href="#reuse-3"/>
      <use stroke-width=".3" transform="matrix(.00252 -.51394 .8575 .0042 157.6 167.5)" xlink:href="#reuse-4"/>
    </g>
    <g>
      <use stroke-linecap="round" stroke-linejoin="round" stroke-width="1.4" paint-order="markers stroke fill" transform="matrix(.16698 0 0 .14814 612 24.3)" xlink:href="#reuse-3"/>
      <path fill="none" stroke="#484646" stroke-width=".07937399999999999" d="M616.6 40.3l.5.2c.1 0-.2-.1 0 0h.7m-1.4 2c.2.2.3.2.5.2m.6-1.2c-.1.3 0 .3-.5.4m-.6-.8h-.2c-.4.3-.3.6-.2.7m1.6.6c.3 0 .1-.3.3-.3m.2-1.3c.2.4.3.4.4.4"/>
    </g>
    <g>
      <use stroke-linecap="round" stroke-linejoin="round" stroke-width="1.4" paint-order="markers stroke fill" transform="matrix(.2349 0 0 .16389 597 9.9)" xlink:href="#reuse-3"/>
      <use stroke-width=".3" transform="matrix(.37222 0 0 .2927 512.9 -126.5)" xlink:href="#reuse-4"/>
    </g>
    <g>
      <use stroke-linecap="round" stroke-linejoin="round" stroke-width="1.4" paint-order="markers stroke fill" transform="matrix(.35192 0 0 .1924 494.1 5.3)" xlink:href="#reuse-3"/>
      <use stroke-width=".3" transform="matrix(.55764 0 0 .34363 368 -154.7)" xlink:href="#reuse-4"/>
    </g>
    <g>
      <use stroke-linecap="round" stroke-linejoin="round" stroke-width="1.4" paint-order="markers stroke fill" transform="matrix(.16698 0 0 .14814 475.2 7)" xlink:href="#reuse-3"/>
      <path fill="none" stroke="#484646" stroke-width=".07937399999999999" d="M479.9 23.2h.4l.1.2h.3s0 0 0 0l.4-.2m-1.4 2.1c.1.2.3.2.5.3m.6-1.2c-.2.2 0 .3-.5.4m-.6-.8h-.3c-.3.2-.3.6-.1.7m1.6.5c.2 0 .1-.3.3-.2m.2-1.3c.2.3.2.3.4.3"/>
    </g>
    <g>
      <use stroke-linecap="round" stroke-linejoin="round" stroke-width="1.4" paint-order="markers stroke fill" transform="matrix(.21927 -.16116 .14298 .19453 442 7.8)" xlink:href="#reuse-3"/>
      <path fill="none" stroke="#484646" stroke-width=".129357" d="M463.7 24.4c.3 0 .5-.2.7-.3h.2l.4-.3s0 0 0 0l.3-.4m.2 4l1-.1M466 25c0 .5.2.4-.3 1m-1.5-.5l-.4.3c-.3.6.2 1 .4 1m2.7-.7c.4-.3 0-.5.2-.7m-1-2c.5.3.6.3.9.2"/>
    </g>
    <g>
      <use stroke-linecap="round" stroke-linejoin="round" stroke-width="1.4" paint-order="markers stroke fill" transform="matrix(.27422 .30138 -.20815 .1894 508.2 39.5)" xlink:href="#reuse-3"/>
      <use stroke-width=".3" transform="matrix(.43451 .47755 -.37177 .33827 583.1 -226)" xlink:href="#reuse-4"/>
    </g>
    <circle cx="473.4" cy="-98.1" r=".4" fill="#fff" stroke="#0029ff" stroke-linecap="round" stroke-linejoin="round" stroke-width=".1" paint-order="markers stroke fill"/>
    <circle cx="456.4" cy="-92.8" r=".4" fill="#fff" stroke="#0029ff" stroke-linecap="round" stroke-linejoin="round" stroke-width=".1" paint-order="markers stroke fill"/>
    <circle cx="444" cy="-81" r=".4" fill="#fff" stroke="#0029ff" stroke-linecap="round" stroke-linejoin="round" stroke-width=".1" paint-order="markers stroke fill"/>
    <circle cx="489.9" cy="-89.8" r=".4" fill="#fff" stroke="#0029ff" stroke-linecap="round" stroke-linejoin="round" stroke-width=".1" paint-order="markers stroke fill"/>
    <circle cx="315.6" cy="-92.2" r=".4" fill="#fff" stroke="#0029ff" stroke-linecap="round" stroke-linejoin="round" stroke-width=".1" paint-order="markers stroke fill"/>
    <circle cx="217.3" cy="-76.9" r=".4" fill="#fff" stroke="#0029ff" stroke-linecap="round" stroke-linejoin="round" stroke-width=".1" paint-order="markers stroke fill"/>
    <circle cx="161.9" cy="-92.8" r=".4" fill="#fff" stroke="#0029ff" stroke-linecap="round" stroke-linejoin="round" stroke-width=".1" paint-order="markers stroke fill"/>
    <circle cx="265" cy="-92.8" r=".4" fill="#fff" stroke="#0029ff" stroke-linecap="round" stroke-linejoin="round" stroke-width=".1" paint-order="markers stroke fill"/>
    <circle cx="224.9" cy="-96.9" r=".4" fill="#fff" stroke="#0029ff" stroke-linecap="round" stroke-linejoin="round" stroke-width=".1" paint-order="markers stroke fill"/>
    <circle cx="252.6" cy="-79.2" r=".4" fill="#fff" stroke="#0029ff" stroke-linecap="round" stroke-linejoin="round" stroke-width=".1" paint-order="markers stroke fill"/>
    <circle cx="79.5" cy="-76.9" r=".4" fill="#fff" stroke="#0029ff" stroke-linecap="round" stroke-linejoin="round" stroke-width=".1" paint-order="markers stroke fill"/>
    <circle cx="47.7" cy="-95.1" r=".4" fill="#fff" stroke="#0029ff" stroke-linecap="round" stroke-linejoin="round" stroke-width=".1" paint-order="markers stroke fill"/>
    <circle cx="106.6" cy="-91" r=".4" fill="#fff" stroke="#0029ff" stroke-linecap="round" stroke-linejoin="round" stroke-width=".1" paint-order="markers stroke fill"/>
    <circle cx="136" cy="-74.5" r=".4" fill="#fff" stroke="#0029ff" stroke-linecap="round" stroke-linejoin="round" stroke-width=".1" paint-order="markers stroke fill"/>
    <circle cx="54.1" cy="-59.2" r=".4" fill="#fff" stroke="#0029ff" stroke-linecap="round" stroke-linejoin="round" stroke-width=".1" paint-order="markers stroke fill"/>
    <circle cx="65.3" cy="-26.2" r=".4" fill="#fff" stroke="#0029ff" stroke-linecap="round" stroke-linejoin="round" stroke-width=".1" paint-order="markers stroke fill"/>
    <circle cx="98.3" cy="-19.1" r=".4" fill="#fff" stroke="#0029ff" stroke-linecap="round" stroke-linejoin="round" stroke-width=".1" paint-order="markers stroke fill"/>
    <circle cx="148.4" cy="-36.8" r=".4" fill="#fff" stroke="#0029ff" stroke-linecap="round" stroke-linejoin="round" stroke-width=".1" paint-order="markers stroke fill"/>
    <circle cx="160.1" cy="-50.4" r=".4" fill="#fff" stroke="#0029ff" stroke-linecap="round" stroke-linejoin="round" stroke-width=".1" paint-order="markers stroke fill"/>
    <circle cx="189" cy="-50.4" r=".4" fill="#fff" stroke="#0029ff" stroke-linecap="round" stroke-linejoin="round" stroke-width=".1" paint-order="markers stroke fill"/>
    <circle cx="186.1" cy="-40.3" r=".4" fill="#fff" stroke="#0029ff" stroke-linecap="round" stroke-linejoin="round" stroke-width=".1" paint-order="markers stroke fill"/>
    <circle cx="243.8" cy="-48.6" r=".4" fill="#fff" stroke="#0029ff" stroke-linecap="round" stroke-linejoin="round" stroke-width=".1" paint-order="markers stroke fill"/>
    <circle cx="223.2" cy="-61.5" r=".4" fill="#fff" stroke="#0029ff" stroke-linecap="round" stroke-linejoin="round" stroke-width=".1" paint-order="markers stroke fill"/>
    <circle cx="261.4" cy="-63.3" r=".4" fill="#fff" stroke="#0029ff" stroke-linecap="round" stroke-linejoin="round" stroke-width=".1" paint-order="markers stroke fill"/>
    <circle cx="293.2" cy="-58" r=".4" fill="#fff" stroke="#0029ff" stroke-linecap="round" stroke-linejoin="round" stroke-width=".1" paint-order="markers stroke fill"/>
    <circle cx="328" cy="-68.6" r=".4" fill="#fff" stroke="#0029ff" stroke-linecap="round" stroke-linejoin="round" stroke-width=".1" paint-order="markers stroke fill"/>
    <circle cx="338" cy="-79.2" r=".4" fill="#fff" stroke="#0029ff" stroke-linecap="round" stroke-linejoin="round" stroke-width=".1" paint-order="markers stroke fill"/>
    <circle cx="350.4" cy="-96.9" r=".4" fill="#fff" stroke="#0029ff" stroke-linecap="round" stroke-linejoin="round" stroke-width=".1" paint-order="markers stroke fill"/>
    <circle cx="486.4" cy="-59.8" r=".4" fill="#fff" stroke="#0029ff" stroke-linecap="round" stroke-linejoin="round" stroke-width=".1" paint-order="markers stroke fill"/>
    <circle cx="494.1" cy="53.3" r=".4" fill="#fff" stroke="#0029ff" stroke-linecap="round" stroke-linejoin="round" stroke-width=".1" paint-order="markers stroke fill"/>
    <circle cx="371" cy="32.1" r=".4" fill="#fff" stroke="#0029ff" stroke-linecap="round" stroke-linejoin="round" stroke-width=".1" paint-order="markers stroke fill"/>
    <circle cx="442.2" cy="30.3" r=".4" fill="#fff" stroke="#0029ff" stroke-linecap="round" stroke-linejoin="round" stroke-width=".1" paint-order="markers stroke fill"/>
    <circle cx="519.4" cy="58.6" r=".4" fill="#fff" stroke="#0029ff" stroke-linecap="round" stroke-linejoin="round" stroke-width=".1" paint-order="markers stroke fill"/>
    <circle cx="345.7" cy="72.1" r=".4" fill="#fff" stroke="#0029ff" stroke-linecap="round" stroke-linejoin="round" stroke-width=".1" paint-order="markers stroke fill"/>
    <circle cx="252.6" cy="63.3" r=".4" fill="#fff" stroke="#0029ff" stroke-linecap="round" stroke-linejoin="round" stroke-width=".1" paint-order="markers stroke fill"/>
    <circle cx="172.5" cy="59.8" r=".4" fill="#fff" stroke="#0029ff" stroke-linecap="round" stroke-linejoin="round" stroke-width=".1" paint-order="markers stroke fill"/>
    <circle cx="148.4" cy="46.2" r=".4" fill="#fff" stroke="#0029ff" stroke-linecap="round" stroke-linejoin="round" stroke-width=".1" paint-order="markers stroke fill"/>
    <circle cx="114.2" cy="62.7" r=".4" fill="#fff" stroke="#0029ff" stroke-linecap="round" stroke-linejoin="round" stroke-width=".1" paint-order="markers stroke fill"/>
    <circle cx="147.8" cy="68.6" r=".4" fill="#fff" stroke="#0029ff" stroke-linecap="round" stroke-linejoin="round" stroke-width=".1" paint-order="markers stroke fill"/>
    <circle cx="28.8" cy="61.5" r=".4" fill="#fff" stroke="#0029ff" stroke-linecap="round" stroke-linejoin="round" stroke-width=".1" paint-order="markers stroke fill"/>
    <circle cx="30.6" cy="11.5" r=".4" fill="#fff" stroke="#0029ff" stroke-linecap="round" stroke-linejoin="round" stroke-width=".1" paint-order="markers stroke fill"/>
    <circle cx="45.9" cy="-13.3" r=".4" fill="#fff" stroke="#0029ff" stroke-linecap="round" stroke-linejoin="round" stroke-width=".1" paint-order="markers stroke fill"/>
    <circle cx="43.5" cy="7.4" r=".4" fill="#fff" stroke="#0029ff" stroke-linecap="round" stroke-linejoin="round" stroke-width=".1" paint-order="markers stroke fill"/>
    <circle cx="30.6" cy="-61" r=".4" fill="#fff" stroke="#0029ff" stroke-linecap="round" stroke-linejoin="round" stroke-width=".1" paint-order="markers stroke fill"/>
    <circle cx="25.3" cy="-91" r=".4" fill="#fff" stroke="#0029ff" stroke-linecap="round" stroke-linejoin="round" stroke-width=".1" paint-order="markers stroke fill"/>
  </g>
</svg>
