<svg xmlns="http://www.w3.org/2000/svg" xmlns:xlink="http://www.w3.org/1999/xlink" viewBox="0 0 168.65 50.468"><defs><path id="reuse-4" fill="none" stroke="#484646" stroke-width=".3" d="M243.58 526.59c.573.248 1.218.209 1.762.462.48.225-.497-.327.226.286.246.208.977-.05 1.181-.123.08-.03.175.058.256.03.415-.152.512-.46 1.083-.395m-5.181 7.83c.557.638 1.039.898 1.83.989m2.337-4.528c-.589.906-.083 1.074-1.983 1.457m-2.12-2.967c-.352.046-.734-.013-1.054.138-1.36.645-1.092 2.077-.679 2.515m6.108 2.13c.994.015.501-1.11 1.284-1.019m.703-4.975c.687 1.227.864 1.266 1.53 1.343"/><path id="reuse-3" fill="#9e9e9e" stroke="#000" stroke-linecap="round" stroke-linejoin="round" stroke-width="1.427" d="M36.969 124.82c-1.814 1.423.255.273-1.867 1.182-2.122.908-1.084.412-3.356.662s-.29.31-2.571-.06-.441.746-2.552-.303c-2.111-1.05-.363-.19-2.068-1.771s-.26-.538-1.398-2.618-.478-.297-.861-2.592-.825.157-.706-2.147c.119-2.303-.452-.825.34-3.032.793-2.206.153-.37 1.418-2.326 1.265-1.957.371-.643 2.16-2.063 1.79-1.42.119-.597 2.25-1.499 2.133-.902.611-.354 2.974-.439 2.363-.085.304-.824 2.525-.238 2.222.586.095.088 2.131 1.154 2.037 1.065.833.136 2.58 1.704 1.748 1.568.272.26 1.386 2.367 1.113 2.106 1.178-.092 1.664 2.2.486 2.292-.098.088-.098 2.465-.001 2.377-.138.89-.854 3.099-.715 2.207.514.327-.936 2.192-1.45 1.866-.347.64-2.161 2.063z" paint-order="markers stroke fill"/><path id="reuse-2" fill="#f9f9f9" stroke="#000" stroke-width="1.279" d="M418.32 435.34c-3.246-2.12-2.527-3.12-2.58-4.336-.964-1.039-.552-2.289-.659-3.459-1.378.055-2.107-2.47-1.948-7.026-1.441-.006-2.347-7.87-.796-5.654-.249-1.472-.104-2.786 0-4.117-2.121-.087-2.662-4.856-1.647-5.653-1.52-1.593-.444-2.414-2.077-4.74-1.66-2.366-5.742-6.96-3.742-6.843-1.416-1.351-2.643-1.147-4.39-5.214-1.748.356-3.471.538-4.502-4.337-1.26.177-2.6.55-2.474-2.575-1.928-.287-5.085-6.894-5.387-7.398-.265-.442 2.076-1.5 2.713-1.817.059-.03.392-.057 0 0-2.185.59-2.416 1.655-2.825 1.116-.372-.49-1.004-1.613-1.36-1.97-.718-.717 1.306 1.862 1.388 2.23.035.16-.522.69-2.978.424 1.525.249 1.638.19 2.933.02l1.683 3.087.068.175c-1.937-1.42-6.874 2.779-5.675-4.256-2.411.364-2.933-1.995-3.648-4.075.44 1.125.368 1.824 1.32 3.376-2.014-.407-3.25.359-4.678-3.046.195.663 1.433 1.758.456 3.26-1.04 1.149-2.915.593-3.138 1.586-1.244 5.55-3.702 3.536-4.087 10.166-1.252 2.851-2.006-2.03-5.27 2.607-1.312 2.545-1.347 2.13-2.8 2.525-.94 1.72-1.994 2.279-3.073 2.745-.808.871-.73.17-2.219 1.556-2.126.092-3.36 4.108-4.423 6.513.824-2.68 1.665-5.393 4.113-7.16 2.134-.999 2.508-2.365 3.517-3.6.499-.767.594-1.615 2.305-2.14.027-.906-.054-1.858.769-2.415.312-1.194 1.1-1.532 1.92-1.812.371-.78.007-1.847 1.209-2.305.059-2.347-.015-4.964 3.128-6.532 1.825-.91 2.813-1.72 3.294-3.129.678-1.985.982-3.777 2.854-4.995-1.276-2.12-2.06-4.049-.164-4.94-2.204.525-1.977-3.038-2.965-4.556-3.968.629-3.675-2.161-4.775-3.459-6.591 2.439-5.738-.28-7.685-.878-1.793.437-3.586.04-5.38-.384-1.756 1.298-3.634 1.145-5.489 1.262-1.577.879-2.125 2.366-3.183 2.635-1.192.304-2.161.04-3.294.22-2.818.447-3.147 1.94-4.72 2.91-2.19 2.22-3.423.696-5.106.932-.306-.468.487-2.026 4.666-2.086.596-1.669 2.519-2.201 3.788-3.293 2.578-.907 3.316-2.148 4.885-3.239.742-.805 1.528-1.535 3.184-.768.357-1.45 1.327-1.782 2.499-1.909 1.194-.369 2.916-.339 4.088.097 2.92-2.145 4.527-.55 4.885.11 1.666-.76 3.582-.305 5.483-.174.757.434 1.2 1.062 1.243 1.65 3.264-.77 5.322.15 6.284.994l.494 1.373c2.69-.294 5.125-.356 4.61 2.25 2.533-3.818 6.92-3.673 1.538 1.482.478-.223 1.228-1.93 2.41-2.76.541-.38 1.235.36 1.926-.149-3.273.507-.42-4.804 2.58-4.007-4.612-.21-.745-3.385 1.098-4.61-3.045.67-.177-5.61.933-6.917-1.011-4.654.992-5.432 1.592-8.014-.376-1.554.44-1.586.933-2.031-2.315 1.377-.597-3.548-.878-5.6-1.68.753-1.21-2.997-1.812-4.5-.391-4.22.522-4.132 1.098-5.16-.913-.272-.871-1.454-.659-2.8.726-4.76 2.096-17.276-.407-14.26.113-2.749-.964-7.298.956-7.313-.358-2-.275-2.843 1.36-3.929.552-.366-.287-1.962.509-3.356.89-1.559.336-3.551.4-6.506-.57-3.477.628-3.845.881-5.134.45-2.289 1.04-4.444 1.132-6.6.203-4.73-.375-13.301.549-14.106 1.933 1.637 2.642 13.639.494 19.816v14.382l-1.537 4.007c.077 2.475-1.987 3.23-.387 5.34 3.389 4.468-.146 9.18.332 14.53-.215 1.064.538 4.657-.302 3.816.053 1.539.104 7.86-.357 5.956.037 1.68.392 4.262-.604 3.019 1.603 2.85 2.169 1.76 2.745 2.964-.884-.08-.252 6.4-.317 4.178-.062-2.078 1.238 5.304.427 3.507-.466.373-.648-.476-1.647 2.196.156 1.98.593 5.584 0 3.238-.51-1.507-.566.02-.714.22-1.152 1.56-.525 1.91 0 5.818-.075 1.016-.573.832-.933 1.043.623 2.41.266 3.492.156 5.102-1.34 3.226.986 4.075-2.406 5.657.273-.05.477-.149.737-.286 3.39-1.794 3.223.475 4.093 1.183-.734-3.104 2.02-1.846 2.854-.842.12-1.437 1.653-1.516 3.074-1.702.435-1.307 1.606-1.927 2.8-2.525 2.133-2.889 4.384-5.535 7.74-5.928-.398.04.583-3.644.43-2.175-.066.642 4.335-6.269 3.161-5.998-1.026.237.75-5.964 2.666-5.605-3.955-.655 4.794-6.038 7.191-9.057 1.947-1.396 3.74-2.925 5.105-4.83 5.926-4.056 8.675-7.111 10.21-11.747.722-2.888 2.41-5.749 5.764-8.564 5.742-4.965 9.392-11.809 12.296-19.322.972 6.936-3.29 15.006-9.936 20.036-2.304 5.66-4.359 6.7-6.532 9.936-.846 4.08-3.6 6.43-5.392 8.109-.34.319-.038-1.132-.344-.699.514 2.72-4.3 5.014-6.45 7.52-1.279 3.575-2.985 5.06-4.995 5.05-2.486 6.135-3.427 5.03-4.83 6.093-6.122 21.91-4.21 8.453-6.203 12.186-.275 6.57-5.2 6.515-8.07 9.387-.356 2.182-.893 4.136-2.909 4.227-.439 1.42-.34 3.411-1.921 3.622 2.189-.36 4.442-.882 5.709 1.098 3.413-3.414 6.467-3.866 9.222-1.866 3.087-2.21 3.95.243 5.653.933 5.147-3.085 9.043-2.585 9.442-1.372.812.079.621.206 2.8.22.346-1.324 3.943-1.774 7.728-3.306 1.321-.535 2.053-1.934 3.357-2.655 2.174-1.203-1.01 2.38 6.644-2.658 1.71-2.195 3.297-.238 4.94-.22 1.007.242 2.013.235 3.02.11.802-2.62 15.243-2.751 13.339-1.207-.64.52-.108.608 2.47.11-2.374 1.674-1.212 3.897-10.32 2.415-.392 1.791-2.315 1.285-3.623 1.702-1.308.687-2.36-.244-3.458-.879.086.583-.664.748-1.592.824-.853.23-1.66.367-1.866-.769-1.967.712-2.246 3.041-3.698 2.9-3.889-.382-5.013 2.446-7.61 3.687-2.598 1.037-5.034 2.861-8.014 2.031-2.132.413-2.724 1.396-3.513 2.306 1.143 3.22-7.396-1.387-5.599-.187.455 2.317-.456.18-2.141-.417 1.17.982 4.394 2.509-1.812 1.537-2.991.697-5.713 1.065-6.038-1.482-3.014.79-12.404 8.259-8.453 1.756l-1.043-.164c-3.105 4.693-7.759 2.219-7.74.603-.487 1.861.142 5.086-1.537 5.49 2.477-.604 1.602 2.507 1.537 4.72 2.447-.791 1.794 3.732 2.69 5.6 4.286 2.462 6.149 4.49 6.697 9.331.795.43.849 1.603.933 2.745 1.778 1.538 2.046 2.545 2.662 4.034.788 1.907 1.602 3.31 1.235 6.066.768.741 2.96-.254 3.348 5.434.4 2.53.724 5.037-.384 7.136 1.466.5 1.5 2.145 1.537 3.787.65 1.135.196 2.27.11 3.404.823.274 1.098 1.537.823 3.787.54.51.923 1.195.879 2.36.217 1.923-.267 3.356-.604 4.94z" opacity=".894"/><path id="reuse-1" fill="#d30009" stroke="#d30009" stroke-width="2.812" d="M398.52 407.14a47.934 47.531 0 01-55.301-38.799 47.934 47.531 0 0139.055-54.888 47.934 47.531 0 0155.404 38.655 47.934 47.531 0 01-38.909 54.99"/><path id="reuse-0" fill="#ff0" stroke="#d30009" stroke-width="2.67" d="M395.66 392.31a30.879 32.486 0 01-35.625-26.518 30.879 32.486 0 0125.159-37.514 30.879 32.486 0 0135.691 26.419 30.879 32.486 0 01-25.065 37.583"/></defs><defs><linearGradient id="i" x1="168.62" x2="241.97" y1="460.57" y2="707.08" gradientUnits="userSpaceOnUse" xlink:href="#a"/><linearGradient id="a"><stop offset="0" stop-color="#fa0"/><stop offset="1" stop-color="#fa0" stop-opacity="0"/></linearGradient><linearGradient id="j" x1="168.62" x2="241.97" y1="460.57" y2="707.08" gradientTransform="translate(148.34 113.98)" gradientUnits="userSpaceOnUse" xlink:href="#a"/><linearGradient id="g" x1="461.97" x2="406.13" y1="-14.933" y2="365.9" gradientUnits="userSpaceOnUse"><stop offset="0" stop-color="#0056e9"/><stop offset="1" stop-color="#f9f9f9" stop-opacity="0"/></linearGradient><linearGradient id="h" x1="187.92" x2="502.64" y1="676.55" y2="231.16" gradientUnits="userSpaceOnUse"><stop offset="0" stop-color="#00ffe9"/><stop offset="1" stop-color="#00ffe9" stop-opacity="0"/></linearGradient><filter id="e" width="1" height="1" x="0" y="0" color-interpolation-filters="sRGB"><feGaussianBlur result="result8"/><feTurbulence baseFrequency=".015" numOctaves="2" result="result7" seed="20" type="fractalNoise"/><feComposite in="SourceGraphic" in2="result8" operator="in" result="result6"/><feComposite in="result6" in2="result7" k3="1" operator="arithmetic" result="result2"/><feComposite in="result2" in2="result6" operator="in" result="fbSourceGraphic"/><feComposite in="fbSourceGraphic" in2="fbSourceGraphic" k2="2.5" operator="arithmetic"/></filter><filter id="d" width="1.241" height="1.151" x="-.121" y="-.076" color-interpolation-filters="sRGB"><feGaussianBlur result="blur" stdDeviation="15.767"/><feComposite in="SourceGraphic" in2="blur" operator="atop" result="composite1"/><feComposite in2="composite1" operator="in" result="composite2"/><feComposite in2="composite2" operator="in" result="composite3"/><feTurbulence baseFrequency="0.151142 0.151142" result="turbulence" seed="14" type="fractalNoise"/><feDisplacementMap in="blur" in2="turbulence" result="map" scale="30" xChannelSelector="R" yChannelSelector="G"/><feColorMatrix result="colormatrix" values="1 0 0 0 0 0 1 0 0 0 0 0 1 0 0 0 0 0 1 -0"/><feComposite in="composite3" in2="colormatrix" operator="atop" result="fbSourceGraphic"/><feColorMatrix in="fbSourceGraphic" result="fbSourceGraphicAlpha" values="0 0 0 -1 0 0 0 0 -1 0 0 0 0 -1 0 0 0 0 1 0"/><feGaussianBlur in="fbSourceGraphic" result="blur" stdDeviation="3.15 17.3396"/><feComposite in="fbSourceGraphic" in2="blur" operator="atop" result="composite1"/><feComposite in2="composite1" operator="in" result="composite2"/><feComposite in2="composite2" operator="in" result="composite3"/><feTurbulence baseFrequency="0.151142 0.151142" result="turbulence" seed="14" type="fractalNoise"/><feDisplacementMap in="blur" in2="turbulence" result="map" scale="30" xChannelSelector="R" yChannelSelector="G"/><feColorMatrix result="colormatrix" values="1 0 0 0 0 0 1 0 0 0 0 0 1 0 0 0 0 0 1 -0"/><feComposite in="composite3" in2="colormatrix" operator="atop" result="fbSourceGraphic"/><feColorMatrix in="fbSourceGraphic" result="fbSourceGraphicAlpha" values="0 0 0 -1 0 0 0 0 -1 0 0 0 0 -1 0 0 0 0 1 0"/><feGaussianBlur in="fbSourceGraphic" result="blur" stdDeviation="3.15 17.3396"/><feComposite in="fbSourceGraphic" in2="blur" operator="atop" result="composite1"/><feComposite in2="composite1" operator="in" result="composite2"/><feComposite in2="composite2" operator="in" result="composite3"/><feTurbulence baseFrequency="0.151142 0.151142" result="turbulence" seed="14" type="fractalNoise"/><feDisplacementMap in="blur" in2="turbulence" result="map" scale="30" xChannelSelector="R" yChannelSelector="G"/><feColorMatrix result="colormatrix" values="1 0 0 0 0 0 1 0 0 0 0 0 1 0 0 0 0 0 1 -0"/><feComposite in="composite3" in2="colormatrix" operator="atop" result="composite4"/></filter><filter id="f" width="1.059" height="1.054" x="-.03" y="-.027" color-interpolation-filters="sRGB"><feGaussianBlur result="result8" stdDeviation=".096"/><feTurbulence baseFrequency=".015" numOctaves="2" result="result7" seed="20" type="fractalNoise"/><feComposite in="SourceGraphic" in2="result8" operator="in" result="result6"/><feComposite in="result6" in2="result7" k3="1.7" operator="arithmetic" result="result2"/><feComposite in="result2" in2="result6" operator="in" result="fbSourceGraphic"/><feComposite in="fbSourceGraphic" in2="SourceGraphic" k2="1.5" k3=".3" operator="arithmetic" result="result9"/></filter><clipPath id="c"><path fill="#014fbc" stroke="#0029ff" stroke-linecap="round" stroke-linejoin="round" stroke-width=".195" d="M166.72 1023.6h363.42V855.51H166.72z" paint-order="markers stroke fill"/></clipPath><clipPath id="b"><rect width="608.32" height="182.04" x="14.547" y="-105.78" fill="#c34141" stroke="#0092ff" stroke-linecap="round" stroke-linejoin="round" stroke-width=".47" opacity=".548" paint-order="markers stroke fill" ry="0"/></clipPath></defs><g clip-path="url(#b)" transform="translate(-4.033 29.327) scale(.27724)"><path stroke="#0029ff" stroke-linecap="round" stroke-linejoin="round" stroke-width=".269" d="M5.435-109.24h620.86V77.3H5.435z" paint-order="markers stroke fill" transform="matrix(.98403 0 0 1 7.133 0)"/><path fill="#0050ff" stroke="#ff00ce" stroke-width=".405" d="M234.29 848.18l280.57 171.44 29.843-1.486 3.278-387.81-310.39-111.65z" clip-path="url(#c)" filter="url(#d)" transform="matrix(1.31358 0 0 -.88921 -72.949 838.05)"/><path fill="#b3b3b3" stroke="#0029ff" stroke-width=".265" d="M356.85-74.467l-2.486 2.5-64.68.267s-28.963 1.642-43.297 3.742c-9.059 1.327-26.892 5.582-26.892 5.582-30.965 9.375-21.743 16.722 3.874 22.584 9.916 1.977 19.862 3.566 29.766 5.764 111.65 24.781 220.88 62.702 336.69 59.881l36.18 1.54-.756 42.711-185.96-50.649-230.57-60.476c-18.717-4.91-10.442-16.63 0-19.37l28.443-7.466-29.671 1.984-18.521 4.536c-21.147 8.324-26.194 17.723-21.91 23.504 5.063 6.83 15.668 11.274 26.635 16.656 102.78 50.443 222.23 89.244 331.77 107.16h-125.11c-72.29-39.103-163.56-65.684-229.81-113.77-12.998-9.434-7.797-19.912 0-26.269 3.935-3.643 10.469-7.343 30.616-11.339L179.9-61.804l-18.871 4.492c-19.851 6.445-28.396 11.516-30.945 15.997-5.867 10.314 10.58 46.228 27.705 62.855 35.804 34.762 57.479 46.538 115.32 64.746l-45.396-.392c-31.081-15.649-103.02-66.403-104.27-115.36-.146-5.698.148-10.487 10.69-17.64 10.364-7.03 13.79-6.639 19.378-8.82l19.87-5.689 21.64-4.063s-20.142 3.15-30.144 5.103c-5.003.977-10.017 1.948-14.93 3.307-7.392 2.045-14.615 4.67-21.828 7.276-5.628 2.034-16.725 6.52-16.725 6.52-43.396 20.77-38.885 34.803-41.01 49.42-4.149 28.524 4.92 53.97 27.016 79.568l-23.695-.11s-33.752-47.087-3.18-102.58c8.784-9.17 12.803-14.06 31.27-22.985l16.437-7.751c20.84-7.45 41.798-14.417 63.877-16.905l-29.867 3.675-26.059 4.81-20.379 5.146-28.063 8.151-23.043 7.874-40.065 17.576.378-4.914C61.404-41.703 58.86-39.393 81.346-46.121 98.026-51.111 132.09-58.5 132.09-58.5l24.663-4.063 36.002-4.347-38.459 3.307-29.86 3.78s-23.46 3.842-35.057 6.426c-14.623 3.258-32.533 8.414-43.467 11.434s-30.144 7.937-30.144 7.937v-4.157s45.626-10.662 64.728-14.93c12.191-2.724 36.853-6.804 36.853-6.804l50.65-5.953 30.332-2.74 40.254-2.74 34.396-1.985 36.191-.85z" opacity=".548" transform="matrix(.98403 0 0 1 7.133 0)"/><g stroke="#0029ff" stroke-linecap="round" stroke-linejoin="round" paint-order="markers stroke fill"><g transform="translate(115.22 -101.54) scale(.66236)"><circle cx="257.04" cy="41.343" r="7.791" fill="#0050ff" stroke-width=".265"/><path fill="#e6e6e6" stroke-width=".31670226" d="M259.778 33.79a5.436 2.175 0 00-5.548.082 5.436 2.175 0 00-2.474 1.988l10.857-.161a5.436 2.175 0 00-2.835-1.91zm2.43 2.793a1.465.866 31.839 00-.707.429 1.465.866 31.839 00-.015.07 1.319.523 33.421 00-.75-.238 1.319.523 33.421 00-.011.677 1.319.523 33.421 001.188.873h0a1.319.523 33.421 00.747.004l-.124.165a1.767.417 31.927 001.55.664 1.767.417 31.927 00-.096-.603 1.767.417 31.927 00-.065-.063 1.465.866 31.839 00-.001-1.027 1.465.866 31.839 00-1.372-.914 1.465.866 31.839 00-.345-.037zm-10.116.883a.612 1.127 46.857 00-.82.372.612 1.127 46.857 00-.504.813l.044-.316a.516 1.43 57.585 00-1.207.971.516 1.43 57.585 00.21.552.516 1.43 57.585 00.06-.003.829 1.532 28.736 00.25 1.118.829 1.532 28.736 001.147-.501.829 1.532 28.736 00.614-1.576.829 1.532 28.736 00-.008-.093.612 1.127 46.857 00.564-.56.612 1.127 46.857 00-.156-.75.612 1.127 46.857 00-.194-.027zm10.712.184l.387.341a1.767.417 31.927 00-.46-.282zm-.418.335l.402.243-.065.087-.426-.259zm-11.29.642l-.044.176-.33.173.023-.166zm-.209.853l-.035.144-.344.05a.516 1.43 57.585 00.379-.194zm3.959 1.818a.747.922 39.508 00-.128.011.747.922 39.508 00-.789.663.747.922 39.508 00.1.735l-.196-.217a.595 1.239 39.508 00-.507 1.145.595 1.239 39.508 00.645.26.595 1.239 39.508 00.06-.029 1.25 1.016 55.154 001.122.602 1.25 1.016 55.154 00.807-.82 1.25 1.016 55.154 00-.576-1.27 1.25 1.016 55.154 00-.08-.057.747.922 39.508 00.155-.604.747.922 39.508 00-.613-.419zm6.583 1.124a1.239.595 53.286 00-.341.57 1.239.595 53.286 00.012.066 1.016 1.25 68.932 00-.852.947 1.016 1.25 68.932 00.605.979 1.016 1.25 68.932 001.372-.258 1.016 1.25 68.932 00.073-.063.922.747 53.286 00.55.294.922.747 53.286 00.573-.623.922.747 53.286 00-.457-.924.922.747 53.286 00-.737-.079l.257-.137a1.239.595 53.286 00-.991-.766 1.239.595 53.286 00-.064-.006zm-7.075.13l.09.13-.21.255-.103-.116zm.44.633l.076.108-.32.182a.595 1.239 39.508 00.245-.29zm7.298.218l.209.28-.149.058-.197-.264zm-.735.252a1.239.595 53.286 00.223.306l-.122.048zm-9.768 3.152a5.436 2.175 0 002.474 1.989 5.436 2.175 0 005.548.082 5.436 2.175 0 002.835-1.91z"/></g><g transform="translate(242.6 -12.241)"><path fill="#f9f9f9" stroke-width=".563" d="M316.83 36.481a20.557 20.557 0 00-20.557 20.557 20.557 20.557 0 0020.557 20.557 20.557 20.557 0 0020.557-20.557 20.557 20.557 0 00-20.557-20.557zm-.005 7.772a12.88 12.624 0 0112.88 12.624 12.88 12.624 0 01-12.88 12.624 12.88 12.624 0 01-12.88-12.624 12.88 12.624 0 0112.88-12.624z" opacity=".506"/><ellipse cx="316.58" cy="56.649" stroke-width=".325" rx="11.071" ry="11.309" style="mix-blend-mode:normal" fill="#2424b9" filter="url(#e)"/></g><g transform="translate(294.42 -37.421) scale(1.4725)"><path fill="#f9f9f9" stroke-width=".26510915999999995" d="M-130.442-6.807A6.516 6.516 0 00-136.88-.29a6.516 6.516 0 006.516 6.516 6.516 6.516 0 006.516-6.516 6.516 6.516 0 00-6.516-6.516 6.516 6.516 0 00-.078 0zm-.035.915a5.581 5.702 0 01.026 0 5.581 5.702 0 015.582 5.702 5.581 5.702 0 01-5.582 5.703 5.581 5.702 0 01-5.58-5.703 5.581 5.702 0 015.554-5.702z"/><ellipse cx="-130.36" cy="-.289" fill="teal" stroke-width=".326" filter="url(#f)" rx="3.89" ry="4.229"/></g></g><g stroke-linecap="round" stroke-linejoin="round" paint-order="markers stroke fill"><path fill="url(#g)" stroke="#1e3241" stroke-width="2.392" d="M399.85 416.06a55.808 56.58 0 01-64.385-46.186 55.808 56.58 0 0145.47-65.338 55.808 56.58 0 0164.505 46.014 55.808 56.58 0 01-45.3 65.459" transform="matrix(.83857 0 0 .72924 58.941 -314.93)"/><path fill="#8a4405" stroke="#d30009" stroke-width="2.812" d="M398.52 407.14a47.934 47.531 0 01-55.301-38.799 47.934 47.531 0 0139.055-54.888 47.934 47.531 0 0155.404 38.655 47.934 47.531 0 01-38.909 54.99" transform="matrix(.83857 0 0 .72924 58.941 -314.93)"/><use stroke-width="2.67" transform="matrix(.83857 0 0 .72924 58.941 -314.93)" xlink:href="#reuse-0"/><use stroke-width="1.279" opacity=".894" transform="matrix(.83857 0 0 .72924 58.941 -314.93)" xlink:href="#reuse-2"/><g><path fill="url(#h)" stroke="#0092ff" stroke-width="2.392" d="M399.85 416.06a55.808 56.58 0 01-64.385-46.186 55.808 56.58 0 0145.47-65.338 55.808 56.58 0 0164.505 46.014 55.808 56.58 0 01-45.3 65.459" transform="matrix(.67969 -.18061 .15707 .59108 -114.65 -96.461)"/><use stroke-width="2.812" transform="matrix(.67969 -.18061 .15707 .59108 -114.65 -96.461)" xlink:href="#reuse-1"/><use stroke-width="2.67" transform="matrix(.67969 -.18061 .15707 .59108 -114.65 -96.461)" xlink:href="#reuse-0"/><path fill="#ececec" stroke="#000" stroke-width="1.279" d="M418.32 435.34c-3.246-2.12-2.527-3.12-2.58-4.336-.964-1.039-.552-2.289-.659-3.459-1.378.055-2.107-2.47-1.948-7.026-1.441-.006-2.347-7.87-.796-5.654-.249-1.472-.104-2.786 0-4.117-2.121-.087-2.662-4.856-1.647-5.653-1.52-1.593-.444-2.414-2.077-4.74-1.66-2.366-5.742-6.96-3.742-6.843-1.416-1.351-2.643-1.147-4.39-5.214-1.748.356-3.471.538-4.502-4.337-1.26.177-2.6.55-2.474-2.575-1.928-.287-5.085-6.894-5.387-7.398-.265-.442 2.076-1.5 2.713-1.817.059-.03.392-.057 0 0-2.185.59-2.416 1.655-2.825 1.116-.372-.49-1.004-1.613-1.36-1.97-.718-.717 1.306 1.862 1.388 2.23.035.16-.522.69-2.978.424 1.525.249 1.638.19 2.933.02l1.683 3.087.068.175c-1.937-1.42-6.874 2.779-5.675-4.256-2.411.364-2.933-1.995-3.648-4.075.44 1.125.368 1.824 1.32 3.376-2.014-.407-3.25.359-4.678-3.046.195.663 1.433 1.758.456 3.26-1.04 1.149-2.915.593-3.138 1.586-1.244 5.55-3.702 3.536-4.087 10.166-1.252 2.851-2.006-2.03-5.27 2.607-1.312 2.545-1.347 2.13-2.8 2.525-.94 1.72-1.994 2.279-3.073 2.745-.808.871-.73.17-2.219 1.556-2.126.092-3.36 4.108-4.423 6.513.824-2.68 1.665-5.393 4.113-7.16 2.134-.999 2.508-2.365 3.517-3.6.499-.767.594-1.615 2.305-2.14.027-.906-.054-1.858.769-2.415.312-1.194 1.1-1.532 1.92-1.812.371-.78.007-1.847 1.209-2.305.059-2.347-.015-4.964 3.128-6.532 1.825-.91 2.813-1.72 3.294-3.129.678-1.985.982-3.777 2.854-4.995-1.276-2.12-2.06-4.049-.164-4.94-2.204.525-1.977-3.038-2.965-4.556-3.968.629-3.675-2.161-4.775-3.459-6.591 2.439-5.738-.28-7.685-.878-1.793.437-3.586.04-5.38-.384-1.756 1.298-3.634 1.145-5.489 1.262-1.577.879-2.125 2.366-3.183 2.635-1.192.304-2.161.04-3.294.22-2.818.447-3.147 1.94-4.72 2.91-2.19 2.22-3.423.696-5.106.932-.306-.468.487-2.026 4.666-2.086.596-1.669 2.519-2.201 3.788-3.293 2.578-.907 3.316-2.148 4.885-3.239.742-.805 1.528-1.535 3.184-.768.357-1.45 1.327-1.782 2.499-1.909 1.194-.369 2.916-.339 4.088.097 2.92-2.145 4.527-.55 4.885.11 1.666-.76 3.582-.305 5.483-.174.757.434 1.2 1.062 1.243 1.65 3.264-.77 5.322.15 6.284.994l.494 1.373c2.69-.294 5.125-.356 4.61 2.25 2.533-3.818 6.92-3.673 1.538 1.482.478-.223 1.228-1.93 2.41-2.76.541-.38 1.235.36 1.926-.149-3.273.507-.42-4.804 2.58-4.007-4.612-.21-.745-3.385 1.098-4.61-3.045.67-.177-5.61.933-6.917-1.011-4.654.992-5.432 1.592-8.014-.376-1.554.44-1.586.933-2.031-2.315 1.377-.597-3.548-.878-5.6-1.68.753-1.21-2.997-1.812-4.5-.391-4.22.522-4.132 1.098-5.16-.913-.272-.871-1.454-.659-2.8.726-4.76 2.096-17.276-.407-14.26.113-2.749-.964-7.298.956-7.313-.358-2-.275-2.843 1.36-3.929.552-.366-.287-1.962.509-3.356.89-1.559.336-3.551.4-6.506-.57-3.477.628-3.845.881-5.134.45-2.289 1.04-4.444 1.132-6.6.203-4.73-.375-13.301.549-14.106 1.933 1.637 2.642 13.639.494 19.816v14.382l-1.537 4.007c.077 2.475-1.987 3.23-.387 5.34 3.389 4.468-.146 9.18.332 14.53-.215 1.064.538 4.657-.302 3.816.053 1.539.104 7.86-.357 5.956.037 1.68.392 4.262-.604 3.019 1.603 2.85 2.169 1.76 2.745 2.964-.884-.08-.252 6.4-.317 4.178-.062-2.078 1.238 5.304.427 3.507-.466.373-.648-.476-1.647 2.196.156 1.98.593 5.584 0 3.238-.51-1.507-.566.02-.714.22-1.152 1.56-.525 1.91 0 5.818-.075 1.016-.573.832-.933 1.043.623 2.41.266 3.492.156 5.102-1.34 3.226.986 4.075-2.406 5.657.273-.05.477-.149.737-.286 3.39-1.794 3.223.475 4.093 1.183-.734-3.104 2.02-1.846 2.854-.842.12-1.437 1.653-1.516 3.074-1.702.435-1.307 1.606-1.927 2.8-2.525 2.133-2.889 4.384-5.535 7.74-5.928-.398.04.583-3.644.43-2.175-.066.642 4.335-6.269 3.161-5.998-1.026.237.75-5.964 2.666-5.605-3.955-.655 4.794-6.038 7.191-9.057 1.947-1.396 3.74-2.925 5.105-4.83 5.926-4.056 8.675-7.111 10.21-11.747.722-2.888 2.41-5.749 5.764-8.564 5.742-4.965 9.392-11.809 12.296-19.322.972 6.936-3.29 15.006-9.936 20.036-2.304 5.66-4.359 6.7-6.532 9.936-.846 4.08-3.6 6.43-5.392 8.109-.34.319-.038-1.132-.344-.699.514 2.72-4.3 5.014-6.45 7.52-1.279 3.575-2.985 5.06-4.995 5.05-2.486 6.135-3.427 5.03-4.83 6.093-6.122 21.91-4.21 8.453-6.203 12.186-.275 6.57-5.2 6.515-8.07 9.387-.356 2.182-.893 4.136-2.909 4.227-.439 1.42-.34 3.411-1.921 3.622 2.189-.36 4.442-.882 5.709 1.098 3.413-3.414 6.467-3.866 9.222-1.866 3.087-2.21 3.95.243 5.653.933 5.147-3.085 9.043-2.585 9.442-1.372.812.079.621.206 2.8.22.346-1.324 3.943-1.774 7.728-3.306 1.321-.535 2.053-1.934 3.357-2.655 2.174-1.203-1.01 2.38 6.644-2.658 1.71-2.195 3.297-.238 4.94-.22 1.007.242 2.013.235 3.02.11.802-2.62 15.243-2.751 13.339-1.207-.64.52-.108.608 2.47.11-2.374 1.674-1.212 3.897-10.32 2.415-.392 1.791-2.315 1.285-3.623 1.702-1.308.687-2.36-.244-3.458-.879.086.583-.664.748-1.592.824-.853.23-1.66.367-1.866-.769-1.967.712-2.246 3.041-3.698 2.9-3.889-.382-5.013 2.446-7.61 3.687-2.598 1.037-5.034 2.861-8.014 2.031-2.132.413-2.724 1.396-3.513 2.306 1.143 3.22-7.396-1.387-5.599-.187.455 2.317-.456.18-2.141-.417 1.17.982 4.394 2.509-1.812 1.537-2.991.697-5.713 1.065-6.038-1.482-3.014.79-12.404 8.259-8.453 1.756l-1.043-.164c-3.105 4.693-7.759 2.219-7.74.603-.487 1.861.142 5.086-1.537 5.49 2.477-.604 1.602 2.507 1.537 4.72 2.447-.791 1.794 3.732 2.69 5.6 4.286 2.462 6.149 4.49 6.697 9.331.795.43.849 1.603.933 2.745 1.778 1.538 2.046 2.545 2.662 4.034.788 1.907 1.602 3.31 1.235 6.066.768.741 2.96-.254 3.348 5.434.4 2.53.724 5.037-.384 7.136 1.466.5 1.5 2.145 1.537 3.787.65 1.135.196 2.27.11 3.404.823.274 1.098 1.537.823 3.787.54.51.923 1.195.879 2.36.217 1.923-.267 3.356-.604 4.94z" transform="matrix(.67969 -.18061 .15707 .59108 -114.65 -96.461)"/></g><g><path fill="#253f53" stroke="#1e3241" stroke-width="2.392" d="M399.85 416.06a55.808 56.58 0 01-64.385-46.186 55.808 56.58 0 0145.47-65.338 55.808 56.58 0 0164.505 46.014 55.808 56.58 0 01-45.3 65.459" transform="matrix(.55088 0 0 .47906 71.308 -96.132)"/><use stroke-width="2.812" transform="matrix(.55088 0 0 .47906 71.308 -96.132)" xlink:href="#reuse-1"/><use stroke-width="2.67" transform="matrix(.55088 0 0 .47906 71.308 -96.132)" xlink:href="#reuse-0"/><use stroke-width="1.279" opacity=".782" transform="matrix(.55088 0 0 .47906 71.308 -96.132)" xlink:href="#reuse-2"/></g></g><g><path stroke="#000" d="M9.236 434.85l78.118-132.76 55.414.385 2.693 11.929c10.635-6.921 35.445-22.373 65.286-9.228v-2.177h237.96c8.631 1.464 17.272 3.11 26.26 10.612 6.887-4.898 14.478-9.483 27.8-11.522 10.178-2.04 21.724-1.736 34.441.577 6.103 1.427 11.961 4.076 17.702 7.312l1.155-7.504h100.05c11.279 1.984 21.366 5.701 28.669 13.469 7.046-6.073 13.975-12.216 28.092-14.046 9.877-2.48 19.754-.937 29.63-.77 38.262 10.052 40.064 31.16 41.946 39.06v28.668h-6.542c13.562 62.19-58.519 86.366-104.09 53.875-9.069 5.896-18.377 11.443-31.363 11.641l-116.6.096c-13.17 6.506-26.056 4.485-38.867.193l-68.306.577-3.271-5.003v5.146h-205.93l1.708-6.374c-17.311 11.925-34.234 8.728-51.194 7h-65l-2-14h-2l-8.083 14z" transform="matrix(.46665 -.10496 .11265 .43482 -20.137 -121.71)"/><path fill="#ff0321" stroke="red" d="M727.08 306.77c-3.099-.034-6.158.14-8.861.623-12.308 2.201-24.271 4.4-33.184 16.756-14.703-13.469-22.933-13.849-31.225-14.354h-92.328l-2.108 11.812c-6.494-5.293-12.605-10.142-23.13-12.445-14.223-3.113-23.792-1.857-32.927 0-13.69 2.784-19.887 8.363-28.297 13.48-12.56-12.163-19.034-11.97-27.01-12.786H215.97v3.236c-6.05-2.018-12.009-4.682-18.299-5.03-8.403-.947-14.829-.574-20.953 0-10.768 2.252-24.983 1.678-36.186 22.458l-3.949-21.088H90.188l-69.145 118.87.998-.002 57.143.817 7.62-13.605h13.25v13.758l59.267 1.087c21.018.283 42.682 4.559 61.633-15.797l-2.375 14.42h190.68l6.928-34.152h1.73c-.095 11.664-4.274 24.494 5.004 33.48h54.066l-1.732-5.387c19.872 9.297 40.519 12.272 62.918.96l-1.373 5.126h101.62c14.808-1.378 26.809-6.498 36.174-15.131 7.752 8.552 15.023 12.66 21.656 14.518 18.526 5.187 49.212 4.828 64.818-12.262 9.734-10.66 21.628-30.826 4.99-54.225h11.904v-18.775c-2.377-30.467-29.412-33.677-36.53-34.965-3.914-.708-9.186-1.337-14.35-1.393zM516.7 354.543c2.903.259 2.286 9.323 1.318 13.863-1.146 5.378-3.46 14.931-8.12 14.359s-3.384-7.37-3.124-11.254c.384-5.726 2.742-11.744 6.774-15.828.653-.662 1.642-.93 2.55-1.13.196-.044.46-.152.602-.01 0 0 0 0 0 0zm123.77 3.445c6.063 0 3.658 6.721 2.994 10.203-1.548 8.123-3.745 12.618-8.3 11.43-4.11-1.072-2.066-10.536-1.498-12.655 1.138-4.248 1.928-8.978 6.804-8.978z" transform="matrix(.46665 -.10496 .11265 .43482 -20.137 -121.71)"/><path fill="#ff0" stroke="#000" stroke-width="4" d="M727.75 319.52a75.426 75.426 0 00-12.064.96c-8.524 2.028-22.847 8.3-26.27 18.77-2.128 6.51-2.81 13.295 0 20.544 2.44 6.293 3.401 13.37 35.09 20.555 5.368 1.92 16.428 11.92 0 17.004h-11.428c-8.048-2.673-6.01-8.705-6.936-13.75h-24.08c6.128-15.85 12.957-51.911-28.689-62.61h-49.932l-19.076 94.98h56.326c11.568-2.827 22.835-3.54 36.88-23.664 19.048 44.977 77.982 25.559 83.917-1.131 3.158-14.2-4.62-31.297-38.33-36.543-8.285-1.369-12.939-8.97.004-14.42h8.436c3.128 1.194 6.31 2.253 6.937 9.943h27.891c-1.025-9.659-.39-23.452-25.842-29.676-4.408-.648-8.685-.964-12.834-.96zm-99.828 26.426h16.932c20.458 0 8.556 43.8-6.746 45.795l-19.434-.582zm-56.454-24.962l29.66.145-19.483 95.64-30.204-.552zm-52.241-1.5c-5.186-.024-10.257.508-15.209 1.673-17.827 4.193-27.868 14.54-34.064 28.879.653-27.058-14.678-27.1-21.062-27.904h-59.068L370.267 416.1h28.861l6.936-32.7h17.125c2.82.75 4.521.533 7.41 7.41-.448 8.612-3.238 17.808 0 25.499h27.6c-.845-1.357-1.44-2.879-1.518-4.746v-27.96c.06-7.204-3.492-10.024-8.492-11.09 6.667-.706 11.68-5.055 16.566-9.683l-.775 21.549c1.258 12.926 3.808 29.673 35.97 33.779 4.066.325 8.014.728 13.66 0 5.51-1.335 32.792-1.069 45.093-40.441 2.851-9.128 3.416-22.001.136-32.85-2.77-9.167-6.474-17.958-23.709-23.711-5.413-1.066-10.716-1.647-15.902-1.672zm-2.902 23.714a12.873 12.873 0 013.738.498c9.76 2.816 14.272 16.645 10.078 30.887-4.194 14.24-15.504 23.5-25.264 20.686-9.76-2.817-14.272-16.645-10.078-30.887 3.6-12.226 12.59-21.074 21.525-21.184zm-102.17.953h19.627c10.49 0 10.506 18.429-3.854 18.283l-19.434-.198zm-226.65-24.812c-3.833.028-7.666.42-11.496 1.094-8.492 1.493-23.635 5.284-28.662 23.863-1.098 4.056-1.007 8.294 0 12.699 1.609 7.044 5.639 10.74 10.104 13.852 7.553 5.263 17.437 6.405 26.46 9.712 15.746 5.77 7.802 15.645 0 16.838-4.935.755-8.403.642-11.16 0-8.179-2.532-6.614-7.846-7.699-12.404h-28.668l-9.63-63.547h-29.77L42.01 416.66l29.947.561 7.964-13.797h30.4l1.248 13.861h29.822l-3.168-22.682c14.335 38.137 63.222 23.093 72.646 13.285 11.64-12.112 15.878-28.124-.46-43.213-5.725-5.287-16.205-7.601-29.167-10.488-9.213-2.738-9.415-9.433-.199-13.533l.2-.088c2.22-.97 6.486-1.207 10.894 0 .279.076.546.162.8.258 4.238 1.602 5.06 5.84 4.85 9.527h26.939l.193-4.226h22.607L233.27 416.55h29.727l14.645-70.418 24.916-.282-14.74 70.635h80.332l5.01-24.799h-50.832l3.021-11.27h44.803l6.163-23.003h-46.898l2.931-10.943h49.93l5.192-24.89h-160.86l-2.594 14.72h-1.926c-2.51-6.746-8.998-12.376-23.092-15.867-3.832-.785-7.664-1.121-11.496-1.093zM105.2 355.407l3.8 27.484-18.502-.278z" transform="matrix(.46665 -.10496 .11265 .43482 -20.137 -121.71)"/></g><g><g paint-order="markers stroke fill"><path fill="#faff01" stroke="#000" stroke-linecap="round" stroke-linejoin="round" stroke-width="2.2" d="M321.4 338.38c34.69 26.286 16.927 12.828 62.976 46.751 20.258 14.924 39.134 28.76 56.519 46.467 18.973 19.325 41.237 41.688 45.628 56.133 12.617 41.506 18.889 47.342 23.435 58.907l-27.45 26.695-199.03-152.6z" transform="matrix(-.991 -.44145 -.43678 .62826 1086.05 -126.948)"/><path fill="#a00" d="M619.89-52.21c-65.745-3.208-220.128 5.587-226.26 18.793l-27.303 49.564c86.674-4.088 115.424-9.027 254.54-5.314z"/><path fill="navy" d="M620.24-48.309c-73.103-.303-129.056-1.048-226.61 14.892L372.494 4.807c81.074 3.967 118.346-1.574 248.016-.988.037-12.21-.267-52.129-.267-52.129z"/></g><g stroke-width=".1"><path stroke="#000" d="M291.89 306.73l.644 7.148 3.606 6.89c39.62 14.697 44.145 23.59 61.885 41.19l6.62 2.56 30.28 10.28-39.54-31.104-2.447-8.564c-3.689-6.37-8.745-9.891-14.489-11.978-5.302-1.063-10.517-.805-15.649.708z" transform="matrix(-.54704 -.40158 -.36805 .65646 854.77 -152.558)"/><path fill="#e6e6e6" stroke="#f2eded" d="M364.18 362.14c1.609.362 7.011-2.91 7.011-2.91l2.703 1.938-9.244 3.346zm-4.586-1.254c3.54 1.518 4.586 1.254 4.586 1.254l.47 2.374-6.62-2.56zm-6.049-6.463l4.485 7.531 8.02-5.149c-12.063-.696-9.012-1.91-12.505-2.382zm-14.109-30.617l3.959 6.152 9.374 6.044c-1.946-4.044-6.268-9.026-13.333-12.196zm-6.939 5.59l-9.24-5.442c4.615-1.31 8.562-1.568 15.243-.577l4.172 6.211c-3.018-.502-6.386-.887-10.175-.193zm-40.602-22.669c17.09 9.873 32.49 17.033 51.711 30.331l-9.337-6.761 6.053-.258c2.832 1.624 6.173 2.779 7.985 5.345l1.095 4.443 3.413 2.254v-.354l-3.156-2.125-1.046-4.154c2.408 1.515 5.175 2.553 6.118 6.022l.66 2.221c14.655 10.477 27.158 20.795 39.54 31.104-34.27-22.095-67.133-44.769-102.82-66.28zm4.953 14.673l7.104 4.326c3.216-1.21 5.412-3.062 8.06-4.827l-1.868-1.184-4.371 3.142c-2.486-.23-3.06-.403-5.804-3.675zm-4.736-12.887l11.657 7.24-7.184 5.458-.44-.446-3.606-6.89z" transform="matrix(-.54704 -.40158 -.36805 .65646 854.77 -152.558)"/></g><path stroke="#0005ff" stroke-linecap="round" stroke-linejoin="round" stroke-width=".3" d="M68.957 374.88l41.377 25.748c7.084 5.387 22.151 19.255 27.803 25.512 6.282 6.955 15.143 15.612 26.864 40.735 14.75 3.003 31.302 3.076 43.138 10.818l21.862 12.311 60 48.309c7.777 6.234 15.544 16.958 23.28 41.691 13.657 2.841 27.552 7.112 41.72 12.514l17.831 17.486c4.081-1.117 4.09-.27 5.299 0l21.808 19.55.062-34.55-70-73.036-15-36.964-35-32.837-43.428-37.163-18.281-16.525c-18.291-4.901-27.022-6.17-48.291-11.87-33.326-22.252-66.045-45.294-101.49-64.785z" paint-order="markers stroke fill" transform="matrix(-.65949 -.45929 -.5015 .71218 846.24 -236.868)"/><path fill="#fff" stroke="#000" stroke-width=".3" d="M69.121 321.72c-.048 16.133.091 32.14.042 48.272 49.88 29.142 101.19 62.929 143.72 96.863 3.384 2.318 6.31 4.675 9.508 7.234 42.255 31.605 80.938 66.009 119.47 101.21 20.07 18.337 39.954 37.459 58.105 57.224l1.96 2.109c.025-13.482.676-21.773.702-35.255-23.168-23.681-49.48-52.62-72.318-76.62-5.395-12.958-9.378-22.952-14.774-35.91-18.173-19.258-36.949-37.35-57.207-54.348-13-10.872-27.256-21.884-40.15-32.886-11.13-2.775-20.794-5.236-31.93-7.979-3.678-.525-11.815-3.153-15.494-3.678-16.798-11.033-30.884-21.35-47.716-32.328-15.44-10.066-31.157-19.866-46.87-29.503-7.148-6.425-9.992-3.992-7.05-4.407zm64.223 94.399c11.561 16.956 26.132 34.028 31.656 50.752 16.525 2.014 32.374 2.695 52.436 11.688l-26.129-21.697-23.067-7.797c-2.107-4.37-8.938-2.425-7.524 1.186l-11.022-22.273zm163.32 123.54c7.508 11.458 13.934 25.226 17.273 39.613.185-3.676 8.395-4.585 6.898 1.355 11.105 1.197 20.994 5.488 31.047 9.362l-15.879-15.754c-4.676-2.538-10.459-5.092-16.71-5.073-.077-3.68-3.54-2.592-3.192-.658-1.005-5.33-2.079-10.555-3.564-15.166-5.902-5.507-11.302-10.236-15.873-13.68z" transform="matrix(-.65949 -.45929 -.5015 .71218 846.24 -236.868)"/><path fill="none" stroke="#000" stroke-linecap="round" stroke-linejoin="round" stroke-width=".5" d="M328.87 571.16l17.057 16.556m-21.97-18.392l17.584 16.993m-20.837-12.108c7.205.868 14.212 2.712 20.961 5.824m-25.562-11.53l-3.564-15.167-15.873-13.68c8.117 13.142 14.95 26.318 17.273 39.613m5.355-10.109c-.545-4.084-3.11-1.885-3.191-.658-.082 1.227-2.164 10.768-2.164 10.768 3.038-6.686 8.547-1.2 6.898 1.355m0 0c1.236-2.833-1.027-7.642-1.543-11.465 6.235-.613 11.475 2.22 16.711 5.073l15.879 15.754c-10.323-3.429-20.49-8.705-31.047-9.362zm-132.83-124.57c9.154 7.553 23.98 20.11 23.98 20.11m-28.753-21.562c.494.406 10.627 8.449 10.627 8.449m-17.75-11.062l13.286 10.343 15.514 11.766m-31.92-14.65l27.025 4.923m-32.05-16.072c2.097 6.1 8.355 14.087 3.583 18.756 5-8.568-6.276-7.833-6.544-.184m-18.282-40.83l2.975 1.935 12.71 26.258c-5.065-8.724 4.36-9.715 5.835-5.17l23.067 7.797 24.554 20.742c-16.079-5.378-33.302-10.658-50.86-10.732m-31.656-50.752c3.252 1.568 8.59 5.482 13.375 9.923l15.685 28.192c1.664 6.64 2.517 10.814 2.597 12.637-8.165-19.439-20.52-35.42-31.656-50.752zm83.237 50.36l-1.803 1.651-4.432-3.59 1.46-1.302c-46.687-36.815-94.45-68.482-142.93-96.733m29.026 8.442c1.02-1.38 4.746-.757 5.309.953m-4.867 1.407c1.64-.81 2.697-.447 4.02.574l1.029 6.502c-1.027-4.315-1.953-4.668-3.884-4.538-.685.046-.712 2.11-1.342 2.497zM68.774 334.11l.106 32.396m141.47 98.037c-75.31-57.044-94.478-64.638-141.18-94.55l-.284-3.487m333.01 264.55l.037 3.576c-19.427-21.973-41.84-41.841-63.081-62.534-42.285-38.735-82.713-69.314-124.07-103.97m-57.401-57.596l4.117 15.62m-52.314-35.285l-2.138-13.607c34.627 21.88 68.164 46.425 101.4 71.703m8.14 17.514c42.829 32.283 83.922 65.588 121.88 100.74l-2.321 2.492 2.712 2.391 1.989-2.625m32.61 21.478l1.134 10.636m-33.744-32.113c20.117 19.665 39.282 35.844 61.056 61.583m-62.647-72.727c21.58 20.209 42.907 40.666 63.032 62.305m.354-21.258l-.703 35.255m-70.791-108.58l-.28 4.95m2.253 1.348l-.873 3.074m.916 3.985l.88-3.152m-.087 10.194l1.47-4.447m-.87 14.108l2.782 3.425m-2.848-3.936l2.05-8.307m0 0l.798 12.243 1.917-1.305m-6.135-25.882l69.438 71.374m-71.16-76.386l71.081 72.932m-70.592-71.344l70.706 72.567m-71.447-75.44l71.494 73.323m-63.386-41.144l1.59 11.24-2.378-2.258.788-8.885-4.922-21.195-4.61-15.463-4.49-10.44m4.49 10.44l72.917 77.706-.113 6.43-68.484-69.549m-16.758-23.3c-.78-.794-.983-1.618-.455-1.843.528-.224 1.589.237 2.37 1.03s.988 1.62.461 1.846c-.526.226-1.586-.232-2.369-1.025M279 451.65l37.39 35.096 8.844 24.486m-36.078-33.882l36.078 33.882 4.272 16.095-32.197-29.28m-54.418-58.913l-1.294-2.393-15.521-29.989 52.926 44.9 10.156 25.7c-10.451-9.274-28.922-25.237-46.267-38.217zm46.267 38.216l8.151 20.697c-8.344-7.757-20.114-17.757-28.843-24.628-.568-2.521-4.124-14.005-5.408-18.154m2.808 8.748l2.716 9.567-14.55-12.138-5.355-10.847m-5.786-11.462l5.786 11.462 17.19 13.417-3.172-9.386m-38.171 6.764c0-5.87 86.732 51.164 110.03 94.723-1.423-9.334.475-15.336-5.05-28.787-24.038-21.689-46.587-42.123-75.475-65.884-9.892-1.486-19.731-1.6-29.507-.05zm26.297-19.39c-1.4-.686-2.322-1.788-2.06-2.461.263-.674 1.61-.665 3.011.02s2.326 1.787 2.067 2.462c-.258.675-1.603.669-3.005-.014m-2.661-6.716c-1.305-.666-2.083-1.607-1.739-2.102.344-.496 1.68-.359 2.985.306s2.087 1.606 1.746 2.103c-.34.498-1.674.363-2.98-.3m-3.212-7.389c-.57-.41-.857-1.082-.64-1.501.216-.419.854-.427 1.425-.017s.86 1.081.644 1.501c-.215.42-.852.43-1.424.021m-16.548 17.659c3.091.005 3.156.07 3.156.07m-3.795-2.647c2.512-.189 2.511.069 2.511.069m-5.92-2.458l5.152-.248m-6.659-4.608l7.604-.002m-7.603-9.525l6.728.448.875 9.076c-1.782-7.009-2.74-6.908-5.66-6.585-1.035.114-1.01 5.917-1.944 6.588zm-1.11 23.415c1.09-.285 2.117-.576 3.231-.397.328.053.103-.49.437-.543 5.118-.827 12.315-.849 18.44-.225.252.026-.454.792-.204.8.865.028 2.281.387 3.107.388m-25.082-11.089c1.11-.14 2.217-.541 3.506-.197l-.05-.574c-.235-.236 9.65-.878 12.668.062l-.398.621 3.467-.084m-19.692-35.955l.705 57.54c1.169-.257 1.456-.756 4.348-.54l-.756-.922c6.731-.4 13.057-1.157 21.076-.427l-.388.837c1.906-.375 3.261.017 4.765.201l-4.169-9.473-24.134-46.15zm-3.315-3.074c-.699 21.084.489 40.79 1.085 61.102m-2.18-26.645l-10.015-2.294m9.941-8.18l1.257 37.024-3.141-.598m-27.841-67.896l-15.84-3.852 17.629 12.458 13.006 20.289m-14.795-28.895l1.789 8.606 14.646 19.564 13.514-20.56zm-118.15-60.144c31.687 17.304 88.377 52.424 127.94 82.624m-127.94-84.627c31.687 17.304 86.384 50.747 125.95 80.946m-125.72-82.63c31.687 17.304 84.518 49.584 124.08 79.784m-124.09-81.905c31.687 17.304 83.038 49.195 122.6 79.395M68.776 334.11l.348-12.388c43.646 25.793 81.28 52.327 119.64 78.772 3.027 5.1 10.01 17.072 9.077 16.193-8.825-8.316-125.37-84.821-129.07-82.576zm149.18 126.27l.997.095m-17.185-39.694l10.035 42.457 4.776 3.242-13.171-46.424.544 1.367 12.747 1.934.223-23.86.946-.123m36.15 62.07c-.456-.927-.572-1.95-3.085-2.306" paint-order="markers stroke fill" transform="matrix(-.65949 -.45929 -.5015 .71218 846.24 -236.868)"/><path d="M589.343-14.619c.816-.27 2.555.478 2.815 1.293-.316.567-1.459 2.44-2.069 2.712-.18-.288.018-1.768-.354-1.916-.485-.423-1.817-.002-2.443.076-.105-.378 1.16-1.259 1.36-1.56.253-.244.336-.565.69-.605zm-119.09-31.155c.514-.195.944.515.343.756-.344.13-1.138.178-1.127-.317.152-.285.498-.402.784-.439zm-7.013 3.387c.984-.062 2.174-.01 2.848.739.143.547-.738.424-1.047.503-.93.074-2.002-.087-2.603-.8.134-.304.52-.395.802-.442zm-4.716 3.264c1.051-.176 2.337-.012 2.969.859-.193.748-1.186.653-1.76.719-.887.012-1.774-.262-2.375-.903.242-.493.682-.618 1.166-.675zm-78.517 20.586c.265.008.9.173.616.562-.701.578-1.733.678-2.509.369-.353-.11-.163-.54.141-.607a3.2 3.2 0 011.752-.323zm67.868-5.726c5.507 2.758 10.78 6.043 15.389 10.127.171.253 1.028.729.546 1.04-3.02-.247-6.048-.547-9.106-.552-18.887-.24-37.915 1.233-56.827 4.098-12.906 2.049-25.838 4.69-38.355 9.15-3.298 1.205-6.541 2.601-9.784 3.97-.338.237-1.058.06-.506-.392 3.277-4.338 6.601-8.733 10.852-12.146 1.45-1.161 2.925-2.358 4.5-3.294 9.134-1.718 18.304-3.062 27.456-4.572a1368.656 1368.656 0 0155.128-7.75l.707.32zm37.336-11.335c-1.209 1.756-2.829 4.117-4.038 5.872-.152-.09.368-.897.402-1.018.478-.987 1.034-1.946 1.396-2.98.112-.33.165-.757-.128-.977-.515-.456-1.05-.953-1.743-1.116-.82-.16-1.647.282-2.355.734-.263.151-.608.545-.884.665-.96.816.165-.341.2-.399.933-1.107 1.851-2.237 2.788-3.338.976.058 3.26 1.794 4.362 2.557z" paint-order="markers stroke fill"/><path fill="url(#i)" d="M165.24 466.59l51.343 170.17-44.079-170.12c.769-7.656-5.717-6.567-7.264-.051zm0 0l68.14 230.44-60.769-234.26c-1.529-4.523-7.771-.095-7.37 3.82z" paint-order="markers stroke fill" transform="matrix(-.65949 -.45929 -.5015 .71218 846.24 -236.868)"/><path fill="url(#j)" d="M313.57 580.57l51.343 170.17-44.079-170.12c.769-7.656-5.717-6.567-7.264-.051zm0 0l68.14 230.44-60.769-234.26c-1.529-4.523-7.771-.095-7.37 3.82z" paint-order="markers stroke fill" transform="matrix(-.65949 -.45929 -.5015 .71218 846.24 -236.868)"/></g><g><use stroke-linecap="round" stroke-linejoin="round" stroke-width="1.427" paint-order="markers stroke fill" transform="matrix(.38295 0 0 .33974 384.365 32.855)" xlink:href="#reuse-3"/><path fill="none" stroke="#484646" stroke-width=".18204" d="M395.014 69.755c.348.15.74.126 1.07.28.291.136-.302-.198.137.174.149.126.592-.03.716-.075.05-.018.107.036.156.018.251-.092.31-.28.657-.24m-3.144 4.752c.338.387.63.545 1.11.6m1.419-2.747c-.358.55-.05.651-1.203.884m-1.288-1.8c-.213.027-.445-.01-.639.083a.998.998 0 00-.412 1.526m3.706 1.292c.604.01.305-.673.78-.618m.426-3.019c.417.745.525.769.929.815"/><use stroke-linecap="round" stroke-linejoin="round" stroke-width="1.427" paint-order="markers stroke fill" transform="matrix(.16698 0 0 .14814 403.803 43.287)" xlink:href="#reuse-3"/><path fill="none" stroke="#484646" stroke-width=".07937399999999999" d="M408.446 59.376c.152.066.323.055.467.123.127.059-.132-.087.06.075.064.055.258-.013.312-.033.021-.007.046.016.068.008.11-.04.135-.121.286-.104m-1.37 2.072a.674.674 0 00.484.261m.618-1.198c-.156.24-.022.284-.525.386m-.56-.785c-.094.012-.195-.004-.28.036a.435.435 0 00-.18.666m1.617.563c.263.004.132-.293.34-.27m.185-1.316c.182.325.23.335.405.356"/><use stroke-linecap="round" stroke-linejoin="round" stroke-width="1.427" paint-order="markers stroke fill" transform="matrix(0 -.16698 .14814 0 369.746 64.217)" xlink:href="#reuse-3"/><path fill="none" stroke="#484646" stroke-width=".07937399999999999" d="M385.835 59.574c.066-.152.055-.323.123-.467.059-.127-.087.132.075-.06.055-.064-.013-.258-.033-.312-.007-.021.016-.046.008-.068-.04-.11-.121-.135-.104-.286m2.072 1.37a.674.674 0 00.261-.484m-1.198-.618c.24.156.284.022.386.525m-.785.56c.012.094-.004.195.036.28.17.36.55.288.666.18m.563-1.617c.004-.263-.293-.132-.27-.34m-1.316-.185c.325-.182.335-.23.356-.405"/><use stroke-linecap="round" stroke-linejoin="round" stroke-width="1.427" paint-order="markers stroke fill" transform="matrix(.16698 0 0 .14814 360.523 43.5)" xlink:href="#reuse-3"/><path fill="none" stroke="#484646" stroke-width=".07937399999999999" d="M365.166 59.588c.152.066.323.055.467.123.127.059-.132-.087.06.075.064.055.258-.013.312-.033.021-.007.046.016.068.008.11-.04.135-.121.286-.104m-1.37 2.072a.674.674 0 00.484.261m.618-1.198c-.156.24-.022.284-.525.386m-.56-.785c-.094.012-.195-.004-.28.036a.435.435 0 00-.18.666m1.617.563c.263.004.132-.293.34-.27m.185-1.316c.182.325.23.335.405.356"/><use stroke-linecap="round" stroke-linejoin="round" stroke-width="1.427" paint-order="markers stroke fill" transform="matrix(-.35375 .24112 -.21391 -.31384 390.387 80.753)" xlink:href="#reuse-3"/><path fill="none" stroke="#484646" stroke-width=".203505" d="M357.317 53.373c-.416.08-.762.348-1.164.414-.355.058.403-.007-.236-.074-.217-.023-.529.4-.615.52-.034.048-.12.034-.155.082-.175.243-.11.453-.456.634m-.087-6.368c-.556-.145-.926-.106-1.404.145m.42 3.43c-.016-.732-.364-.633.554-1.574m2.323.853c.18-.16.416-.272.538-.48.516-.88-.182-1.58-.58-1.669m-4.238 1.14c-.563.372.143.813-.33 1.062m1.506 3.057c-.853-.425-.968-.38-1.37-.168"/><use stroke-linecap="round" stroke-linejoin="round" stroke-width="1.427" paint-order="markers stroke fill" transform="matrix(.16698 0 0 .14814 342.113 23.757)" xlink:href="#reuse-3"/><path fill="none" stroke="#484646" stroke-width=".07937399999999999" d="M346.756 39.846c.152.066.323.055.467.123.127.059-.132-.087.06.075.064.055.258-.013.312-.033.021-.007.046.016.068.008.11-.04.135-.121.286-.104m-1.37 2.072a.674.674 0 00.484.261m.618-1.198c-.156.24-.022.284-.525.386m-.56-.785c-.094.012-.195-.004-.28.036a.435.435 0 00-.18.666m1.617.563c.263.004.132-.293.34-.27m.185-1.316c.182.325.23.335.405.356"/><use stroke-linecap="round" stroke-linejoin="round" stroke-width="1.427" paint-order="markers stroke fill" transform="matrix(.16698 0 0 .14814 313.573 16.346)" xlink:href="#reuse-3"/><path fill="none" stroke="#484646" stroke-width=".07937399999999999" d="M318.216 32.435c.152.066.323.055.467.123.127.059-.132-.087.06.075.064.055.258-.013.312-.033.021-.007.046.016.068.008.11-.04.135-.121.286-.104m-1.37 2.072a.674.674 0 00.484.261m.618-1.198c-.156.24-.022.284-.525.386m-.56-.785c-.094.012-.195-.004-.28.036a.435.435 0 00-.18.666m1.617.563c.263.004.132-.293.34-.27m.185-1.316c.182.325.23.335.405.356"/><use stroke-linecap="round" stroke-linejoin="round" stroke-width="1.427" paint-order="markers stroke fill" transform="matrix(.16698 0 0 .14814 294.283 17.176)" xlink:href="#reuse-3"/><path fill="none" stroke="#484646" stroke-width=".07937399999999999" d="M298.926 33.265c.152.066.323.055.467.123.127.059-.132-.087.06.075.064.055.258-.013.312-.033.021-.007.046.016.068.008.11-.04.135-.121.286-.104m-1.37 2.072a.674.674 0 00.484.261m.618-1.198c-.156.24-.022.284-.525.386m-.56-.785c-.094.012-.195-.004-.28.036a.435.435 0 00-.18.666m1.617.563c.263.004.132-.293.34-.27m.185-1.316c.182.325.23.335.405.356"/><use stroke-linecap="round" stroke-linejoin="round" stroke-width="1.427" paint-order="markers stroke fill" transform="matrix(-.11564 -.50063 .44414 -.1026 341.63 57.388)" xlink:href="#reuse-3"/><path fill="none" stroke="#484646" stroke-width=".244248" d="M386.652 32.323c.092-.5-.057-1.005.044-1.482.09-.423-.168.454.185-.232.12-.233-.217-.766-.314-.915-.038-.058.015-.15-.023-.208-.196-.301-.459-.321-.511-.787m7.16 2.675c.404-.558.522-.988.45-1.633m-4.02-1.024c.826.301.867-.13 1.519 1.306m-1.965 2.226c.1.27.123.585.302.81.76.961 1.847.486 2.12.078m.57-5.235c-.17-.792-.972-.194-1.044-.832m-4.075.354c.847-.77.846-.917.785-1.46"/><use stroke-linecap="round" stroke-linejoin="round" stroke-width="1.427" paint-order="markers stroke fill" transform="matrix(.30016 -.34028 .30407 .26822 364.475 12.932)" xlink:href="#reuse-3"/><use stroke-width=".3" transform="matrix(.47562 -.53918 .54308 .47906 4.014 -88.334)" xlink:href="#reuse-4"/><use stroke-linecap="round" stroke-linejoin="round" stroke-width="1.427" paint-order="markers stroke fill" transform="matrix(.04284 .23042 -.26754 .04975 448.566 11.18)" xlink:href="#reuse-3"/><use stroke-width=".3" transform="matrix(.06789 .36511 -.47784 .08885 655.79 -112.73)" xlink:href="#reuse-4"/><use stroke-linecap="round" stroke-linejoin="round" stroke-width="1.427" paint-order="markers stroke fill" transform="matrix(.26004 0 0 .23324 420.373 10.28)" xlink:href="#reuse-3"/><use stroke-width=".3" transform="matrix(.41204 0 0 .41659 327.24 -183.76)" xlink:href="#reuse-4"/><use stroke-linecap="round" stroke-linejoin="round" stroke-width="1.427" paint-order="markers stroke fill" transform="matrix(.30191 0 0 .20715 412.54 5.91)" xlink:href="#reuse-3"/><use stroke-width=".3" transform="matrix(.47839 0 0 .36998 304.41 -166.42)" xlink:href="#reuse-4"/><use stroke-linecap="round" stroke-linejoin="round" stroke-width="1.427" paint-order="markers stroke fill" transform="matrix(.16698 0 0 .14814 426.913 4.816)" xlink:href="#reuse-3"/><path fill="none" stroke="#484646" stroke-width=".07937399999999999" d="M431.556 20.905c.152.066.323.055.467.123.127.059-.132-.087.06.075.064.055.258-.013.312-.033.021-.007.046.016.068.008.11-.04.135-.121.286-.104m-1.37 2.072a.674.674 0 00.484.261m.618-1.198c-.156.24-.022.284-.525.386m-.56-.785c-.094.012-.195-.004-.28.036a.435.435 0 00-.18.666m1.617.563c.263.004.132-.293.34-.27m.185-1.316c.182.325.23.335.405.356"/><use stroke-linecap="round" stroke-linejoin="round" stroke-width="1.427" paint-order="markers stroke fill" transform="matrix(.16698 0 0 .14814 429.063 5.716)" xlink:href="#reuse-3"/><path fill="none" stroke="#484646" stroke-width=".07937399999999999" d="M433.706 21.805c.152.066.323.055.467.123.127.059-.132-.087.06.075.064.055.258-.013.312-.033.021-.007.046.016.068.008.11-.04.135-.121.286-.104m-1.37 2.072a.674.674 0 00.484.261m.618-1.198c-.156.24-.022.284-.525.386m-.56-.785c-.094.012-.195-.004-.28.036a.435.435 0 00-.18.666m1.617.563c.263.004.132-.293.34-.27m.185-1.316c.182.325.23.335.405.356"/><use stroke-linecap="round" stroke-linejoin="round" stroke-width="1.427" paint-order="markers stroke fill" transform="matrix(.16698 0 0 .14814 421.423 10.776)" xlink:href="#reuse-3"/><path fill="none" stroke="#484646" stroke-width=".07937399999999999" d="M426.066 26.865c.152.066.323.055.467.123.127.059-.132-.087.06.075.064.055.258-.013.312-.033.021-.007.046.016.068.008.11-.04.135-.121.286-.104m-1.37 2.072a.674.674 0 00.484.261m.618-1.198c-.156.24-.022.284-.525.386m-.56-.785c-.094.012-.195-.004-.28.036a.435.435 0 00-.18.666m1.617.563c.263.004.132-.293.34-.27m.185-1.316c.182.325.23.335.405.356"/><use stroke-linecap="round" stroke-linejoin="round" stroke-width="1.427" paint-order="markers stroke fill" transform="matrix(.16698 0 0 .14814 419.053 15.686)" xlink:href="#reuse-3"/><path fill="none" stroke="#484646" stroke-width=".07937399999999999" d="M423.696 31.775c.152.066.323.055.467.123.127.059-.132-.087.06.075.064.055.258-.013.312-.033.021-.007.046.016.068.008.11-.04.135-.121.286-.104m-1.37 2.072a.674.674 0 00.484.261m.618-1.198c-.156.24-.022.284-.525.386m-.56-.785c-.094.012-.195-.004-.28.036a.435.435 0 00-.18.666m1.617.563c.263.004.132-.293.34-.27m.185-1.316c.182.325.23.335.405.356"/><use stroke-linecap="round" stroke-linejoin="round" stroke-width="1.427" paint-order="markers stroke fill" transform="matrix(.16698 0 0 .14814 414.933 25.176)" xlink:href="#reuse-3"/><path fill="none" stroke="#484646" stroke-width=".07937399999999999" d="M419.576 41.265c.152.066.323.055.467.123.127.059-.132-.087.06.075.064.055.258-.013.312-.033.021-.007.046.016.068.008.11-.04.135-.121.286-.104m-1.37 2.072a.674.674 0 00.484.261m.618-1.198c-.156.24-.022.284-.525.386m-.56-.785c-.094.012-.195-.004-.28.036a.435.435 0 00-.18.666m1.617.563c.263.004.132-.293.34-.27m.185-1.316c.182.325.23.335.405.356"/><use stroke-linecap="round" stroke-linejoin="round" stroke-width="1.427" paint-order="markers stroke fill" transform="matrix(-.19225 -.11271 .11692 -.19943 422.503 74.55)" xlink:href="#reuse-3"/><use stroke-width=".3" transform="matrix(-.30463 -.1786 .20883 -.3562 394.09 280.83)" xlink:href="#reuse-4"/><use stroke-linecap="round" stroke-linejoin="round" stroke-width="1.427" paint-order="markers stroke fill" transform="matrix(.04217 .16157 -.14334 .0374 441.778 43.979)" xlink:href="#reuse-3"/><path fill="none" stroke="#484646" stroke-width=".07937699999999999" d="M427.382 52.535c-.025.163.028.326 0 .482-.025.138.05-.15-.058.077-.037.077.078.247.11.294.013.019-.003.049.01.068.066.096.152.1.173.25m-2.35-.803a.674.674 0 00-.131.535m1.315.296c-.271-.09-.28.05-.506-.41m.618-.742c-.035-.087-.045-.189-.106-.26a.435.435 0 00-.689-.006m-.137 1.706c.063.255.318.054.347.26m1.32-.152c-.268.258-.266.306-.241.482"/><use stroke-linecap="round" stroke-linejoin="round" stroke-width="1.427" paint-order="markers stroke fill" transform="matrix(.2097 0 0 -.16459 399.238 69.4)" xlink:href="#reuse-3"/><use stroke-width=".3" transform="matrix(.33229 0 0 -.29396 324.13 206.32)" xlink:href="#reuse-4"/><use stroke-linecap="round" stroke-linejoin="round" stroke-width="1.427" paint-order="markers stroke fill" transform="matrix(0 .16698 -.14814 0 413.124 50.423)" xlink:href="#reuse-3"/><path fill="none" stroke="#484646" stroke-width=".07937399999999999" d="M397.035 55.066c-.066.152-.055.322-.123.466-.059.128.087-.131-.075.06-.055.065.013.259.033.313.007.021-.016.046-.008.067.04.11.121.136.104.287m-2.072-1.37a.674.674 0 00-.261.483m1.198.619c-.24-.156-.284-.022-.386-.525m.785-.561c-.012-.093.004-.194-.036-.279a.435.435 0 00-.666-.18m-.563 1.616c-.004.264.293.133.27.34m1.316.186c-.325.182-.335.229-.356.405"/><use stroke-linecap="round" stroke-linejoin="round" stroke-width="1.427" paint-order="markers stroke fill" transform="matrix(.33696 0 0 .14814 382.172 29.474)" xlink:href="#reuse-3"/><use stroke-width=".3" transform="matrix(.53392 0 0 .26458 261.49 -93.762)" xlink:href="#reuse-4"/><use stroke-linecap="round" stroke-linejoin="round" stroke-width="1.427" paint-order="markers stroke fill" transform="matrix(.16698 0 0 .14814 388.743 32.696)" xlink:href="#reuse-3"/><path fill="none" stroke="#484646" stroke-width=".07937399999999999" d="M393.386 48.785c.152.066.323.055.467.123.127.059-.132-.087.06.075.064.055.258-.013.312-.033.021-.007.046.016.068.008.11-.04.135-.121.286-.104m-1.37 2.072a.674.674 0 00.484.261m.618-1.198c-.156.24-.022.284-.525.386m-.56-.785c-.094.012-.195-.004-.28.036a.435.435 0 00-.18.666m1.617.563c.263.004.132-.293.34-.27m.185-1.316c.182.325.23.335.405.356"/><use stroke-linecap="round" stroke-linejoin="round" stroke-width="1.427" paint-order="markers stroke fill" transform="matrix(.1891 -.1441 .1125 .14762 390.41 53.72)" xlink:href="#reuse-3"/><use stroke-width=".3" transform="matrix(.29963 -.22833 .20092 .26366 229.1 -17.479)" xlink:href="#reuse-4"/><use stroke-linecap="round" stroke-linejoin="round" stroke-width="1.427" paint-order="markers stroke fill" transform="matrix(.16503 .15896 -.15936 .16544 425.004 46.391)" xlink:href="#reuse-3"/><use stroke-width=".3" transform="matrix(.26149 .25188 -.28462 .29548 498.47 -148.17)" xlink:href="#reuse-4"/><use stroke-linecap="round" stroke-linejoin="round" stroke-width="1.427" paint-order="markers stroke fill" transform="matrix(0 -.57883 .46105 0 366.32 80.9)" xlink:href="#reuse-3"/><use stroke-width=".3" transform="matrix(0 -.91718 .82346 0 -17.232 288.21)" xlink:href="#reuse-4"/><g><use stroke-linecap="round" stroke-linejoin="round" stroke-width="1.427" paint-order="markers stroke fill" transform="matrix(.1504 -.2227 -.08964 -.06054 440.251 76.581)" xlink:href="#reuse-3"/><use stroke-width=".3" transform="matrix(.23832 -.35289 -.16011 -.10813 460.96 206.71)" xlink:href="#reuse-4"/></g><g><use stroke-linecap="round" stroke-linejoin="round" stroke-width="1.427" paint-order="markers stroke fill" transform="matrix(.16698 0 0 .14814 426.763 42.786)" xlink:href="#reuse-3"/><path fill="none" stroke="#484646" stroke-width=".07937399999999999" d="M431.406 58.875c.152.066.323.055.467.123.127.059-.132-.087.06.075.064.055.258-.013.312-.033.021-.007.046.016.068.008.11-.04.135-.121.286-.104m-1.37 2.072a.674.674 0 00.484.261m.618-1.198c-.156.24-.022.284-.525.386m-.56-.785c-.094.012-.195-.004-.28.036a.435.435 0 00-.18.666m1.617.563c.263.004.132-.293.34-.27m.185-1.316c.182.325.23.335.405.356"/></g><g><use stroke-linecap="round" stroke-linejoin="round" stroke-width="1.427" paint-order="markers stroke fill" transform="matrix(.27081 0 0 .24025 447.482 38.14)" xlink:href="#reuse-3"/><path fill="none" stroke="#484646" stroke-width=".128733" d="M455.013 64.235c.246.107.522.09.756.198.206.097-.214-.14.097.123.105.09.419-.021.507-.053.034-.013.075.025.11.013.177-.065.219-.198.464-.17m-2.223 3.36c.239.274.446.386.785.425m1.003-1.943c-.253.389-.036.46-.85.625m-.911-1.273c-.15.02-.315-.006-.452.06a.706.706 0 00-.291 1.078m2.62.914c.427.007.216-.476.551-.437m.302-2.135c.295.527.371.544.657.577"/></g><g><use stroke-linecap="round" stroke-linejoin="round" stroke-width="1.427" paint-order="markers stroke fill" transform="matrix(.46782 0 0 .41503 442.65 21.739)" xlink:href="#reuse-3"/><path fill="none" stroke="#484646" stroke-width=".222381" d="M455.659 66.815c.424.185.902.155 1.306.343.356.166-.369-.242.167.212.182.154.724-.037.876-.092.06-.021.13.044.19.022.307-.112.379-.34.802-.292m-3.84 5.804c.412.473.77.666 1.357.733m1.732-3.356c-.437.671-.062.796-1.47 1.08m-1.572-2.2c-.26.035-.544-.01-.781.103-1.008.478-.81 1.54-.503 1.864m4.527 1.579c.737.011.372-.822.952-.755m.52-3.688c.51.91.642.939 1.135.995"/></g><g><use stroke-linecap="round" stroke-linejoin="round" stroke-width="1.427" paint-order="markers stroke fill" transform="matrix(.48232 0 0 -.22497 432.923 97.25)" xlink:href="#reuse-3"/><use stroke-width=".3" transform="matrix(.76425 0 0 -.40182 260.18 284.41)" xlink:href="#reuse-4"/></g><g><use stroke-linecap="round" stroke-linejoin="round" stroke-width="1.427" paint-order="markers stroke fill" transform="matrix(0 .34463 -.21825 0 451.069 61.491)" xlink:href="#reuse-3"/><use stroke-width=".3" transform="matrix(0 .54608 -.3898 0 632.63 -61.939)" xlink:href="#reuse-4"/></g><g><use stroke-linecap="round" stroke-linejoin="round" stroke-width="1.427" paint-order="markers stroke fill" transform="matrix(0 .45374 .38091 0 331.57 56.897)" xlink:href="#reuse-3"/><use stroke-width=".3" transform="matrix(0 .71896 .68033 0 14.686 -105.61)" xlink:href="#reuse-4"/></g><g><use stroke-linecap="round" stroke-linejoin="round" stroke-width="1.427" paint-order="markers stroke fill" transform="matrix(.16698 0 0 .14814 278.133 23.244)" xlink:href="#reuse-3"/><path fill="none" stroke="#484646" stroke-width=".07937399999999999" d="M282.776 39.333c.152.066.323.055.467.123.127.059-.132-.087.06.075.064.055.258-.013.312-.033.021-.007.046.016.068.008.11-.04.135-.121.286-.104m-1.37 2.072a.674.674 0 00.484.261m.618-1.198c-.156.24-.022.284-.525.386m-.56-.785c-.094.012-.195-.004-.28.036a.435.435 0 00-.18.666m1.617.563c.263.004.132-.293.34-.27m.185-1.316c.182.325.23.335.405.356"/></g><g><use stroke-linecap="round" stroke-linejoin="round" stroke-width="1.427" paint-order="markers stroke fill" transform="matrix(.16698 0 0 .14814 265.893 31.841)" xlink:href="#reuse-3"/><path fill="none" stroke="#484646" stroke-width=".07937399999999999" d="M270.536 47.93c.152.066.323.055.467.123.127.059-.132-.087.06.075.064.055.258-.013.312-.033.021-.007.046.016.068.008.11-.04.135-.121.286-.104m-1.37 2.072a.674.674 0 00.484.261m.618-1.198c-.156.24-.022.284-.525.386m-.56-.785c-.094.012-.195-.004-.28.036a.435.435 0 00-.18.666m1.617.563c.263.004.132-.293.34-.27m.185-1.316c.182.325.23.335.405.356"/></g><g><use stroke-linecap="round" stroke-linejoin="round" stroke-width="1.427" paint-order="markers stroke fill" transform="matrix(.16698 0 0 .14814 342.583 46.456)" xlink:href="#reuse-3"/><path fill="none" stroke="#484646" stroke-width=".07937399999999999" d="M347.226 62.545c.152.066.323.055.467.123.127.059-.132-.087.06.075.064.055.258-.013.312-.033.021-.007.046.016.068.008.11-.04.135-.121.286-.104m-1.37 2.072a.674.674 0 00.484.261m.618-1.198c-.156.24-.022.284-.525.386m-.56-.785c-.094.012-.195-.004-.28.036a.435.435 0 00-.18.666m1.617.563c.263.004.132-.293.34-.27m.185-1.316c.182.325.23.335.405.356"/></g><g><use stroke-linecap="round" stroke-linejoin="round" stroke-width="1.427" paint-order="markers stroke fill" transform="matrix(.16698 0 0 .14814 75.064 51.723)" xlink:href="#reuse-3"/><path fill="none" stroke="#484646" stroke-width=".07937399999999999" d="M79.707 67.812c.152.066.323.055.467.123.127.059-.132-.087.06.075.064.055.258-.013.312-.033.021-.007.046.016.068.008.11-.04.135-.121.286-.104m-1.37 2.072a.674.674 0 00.484.261m.618-1.198c-.156.24-.022.284-.525.386m-.56-.785c-.094.012-.195-.004-.28.036a.435.435 0 00-.18.666m1.617.563c.263.004.132-.293.34-.27m.185-1.316c.182.325.23.335.405.356"/></g><g><use stroke-linecap="round" stroke-linejoin="round" stroke-width="1.427" paint-order="markers stroke fill" transform="matrix(.16698 0 0 .14814 60.456 44.924)" xlink:href="#reuse-3"/><path fill="none" stroke="#484646" stroke-width=".07937399999999999" d="M65.1 61.013c.151.066.322.055.466.123.127.059-.132-.087.06.075.065.055.258-.013.312-.033.022-.007.047.016.068.008.11-.04.135-.121.286-.104m-1.37 2.072a.674.674 0 00.484.261m.618-1.198c-.156.24-.022.284-.524.386m-.562-.785c-.092.012-.194-.004-.278.036a.435.435 0 00-.18.666m1.616.563c.263.004.133-.293.34-.27m.186-1.316c.182.325.229.335.405.356"/></g><g><use stroke-linecap="round" stroke-linejoin="round" stroke-width="1.427" paint-order="markers stroke fill" transform="matrix(.16698 0 0 .14814 73.162 45.903)" xlink:href="#reuse-3"/><path fill="none" stroke="#484646" stroke-width=".07937399999999999" d="M77.805 61.992c.152.066.323.055.467.123.127.059-.132-.087.06.075.064.055.258-.013.312-.033.021-.007.046.016.068.008.11-.04.135-.121.286-.104m-1.37 2.072a.674.674 0 00.484.261m.618-1.198c-.156.24-.022.284-.525.386m-.56-.785c-.094.012-.195-.004-.28.036a.435.435 0 00-.18.666m1.617.563c.263.004.132-.293.34-.27m.185-1.316c.182.325.23.335.405.356"/></g><g><use stroke-linecap="round" stroke-linejoin="round" stroke-width="1.427" paint-order="markers stroke fill" transform="matrix(.16698 0 0 .14814 163.523 45.668)" xlink:href="#reuse-3"/><path fill="none" stroke="#484646" stroke-width=".07937399999999999" d="M168.166 61.757c.152.066.323.055.467.123.127.059-.132-.087.06.075.064.055.258-.013.312-.033.021-.007.046.016.068.008.11-.04.135-.121.286-.104m-1.37 2.072a.674.674 0 00.484.261m.618-1.198c-.156.24-.022.284-.525.386m-.56-.785c-.094.012-.195-.004-.28.036a.435.435 0 00-.18.666m1.617.563c.263.004.132-.293.34-.27m.185-1.316c.182.325.23.335.405.356"/></g><g><use stroke-linecap="round" stroke-linejoin="round" stroke-width="1.427" paint-order="markers stroke fill" transform="matrix(.16698 0 0 .14814 172.733 56.033)" xlink:href="#reuse-3"/><path fill="none" stroke="#484646" stroke-width=".07937399999999999" d="M177.376 72.122c.152.066.323.055.467.123.127.059-.132-.087.06.075.064.055.258-.013.312-.033.021-.007.046.016.068.008.11-.04.135-.121.286-.104m-1.37 2.072a.674.674 0 00.484.261m.618-1.198c-.156.24-.022.284-.525.386m-.56-.785c-.094.012-.195-.004-.28.036a.435.435 0 00-.18.666m1.617.563c.263.004.132-.293.34-.27m.185-1.316c.182.325.23.335.405.356"/></g><g><use stroke-linecap="round" stroke-linejoin="round" stroke-width="1.427" paint-order="markers stroke fill" transform="matrix(.16698 0 0 .14814 250.463 26.92)" xlink:href="#reuse-3"/><path fill="none" stroke="#484646" stroke-width=".07937399999999999" d="M255.106 43.008c.152.066.323.055.467.123.127.059-.132-.087.06.075.064.055.258-.013.312-.033.021-.007.046.016.068.008.11-.04.135-.121.286-.104m-1.37 2.072a.674.674 0 00.484.261m.618-1.198c-.156.24-.022.284-.525.386m-.56-.785c-.094.012-.195-.004-.28.036a.435.435 0 00-.18.666m1.617.563c.263.004.132-.293.34-.27m.185-1.316c.182.325.23.335.405.356"/></g><g><use stroke-linecap="round" stroke-linejoin="round" stroke-width="1.427" paint-order="markers stroke fill" transform="matrix(.16698 0 0 .14814 268.333 19.756)" xlink:href="#reuse-3"/><path fill="none" stroke="#484646" stroke-width=".07937399999999999" d="M272.976 35.845c.152.066.323.055.467.123.127.059-.132-.087.06.075.064.055.258-.013.312-.033.021-.007.046.016.068.008.11-.04.135-.121.286-.104m-1.37 2.072a.674.674 0 00.484.261m.618-1.198c-.156.24-.022.284-.525.386m-.56-.785c-.094.012-.195-.004-.28.036a.435.435 0 00-.18.666m1.617.563c.263.004.132-.293.34-.27m.185-1.316c.182.325.23.335.405.356"/></g><g><use stroke-linecap="round" stroke-linejoin="round" stroke-width="1.427" paint-order="markers stroke fill" transform="matrix(.16698 0 0 .14814 255.803 12.736)" xlink:href="#reuse-3"/><path fill="none" stroke="#484646" stroke-width=".07937399999999999" d="M260.446 28.825c.152.066.323.055.467.123.127.059-.132-.087.06.075.064.055.258-.013.312-.033.021-.007.046.016.068.008.11-.04.135-.121.286-.104m-1.37 2.072a.674.674 0 00.484.261m.618-1.198c-.156.24-.022.284-.525.386m-.56-.785c-.094.012-.195-.004-.28.036a.435.435 0 00-.18.666m1.617.563c.263.004.132-.293.34-.27m.185-1.316c.182.325.23.335.405.356"/></g><g><use stroke-linecap="round" stroke-linejoin="round" stroke-width="1.427" paint-order="markers stroke fill" transform="matrix(.2806 .3543 -.3015 .23878 618.705 9.58)" xlink:href="#reuse-3"/><use stroke-width=".3" transform="matrix(.44462 .5614 -.5385 .42648 769.03 -315.96)" xlink:href="#reuse-4"/></g><g><use stroke-linecap="round" stroke-linejoin="round" stroke-width="1.427" paint-order="markers stroke fill" transform="matrix(.16698 0 0 .14814 585.683 27.825)" xlink:href="#reuse-3"/><path fill="none" stroke="#484646" stroke-width=".07937399999999999" d="M590.326 43.914c.152.066.323.055.467.123.127.059-.132-.087.06.075.064.055.258-.013.312-.033.021-.007.046.016.068.008.11-.04.135-.121.286-.104m-1.37 2.072a.674.674 0 00.484.261m.618-1.198c-.156.24-.022.284-.525.386m-.56-.785c-.094.012-.195-.004-.28.036a.435.435 0 00-.18.666m1.617.563c.263.004.132-.293.34-.27m.185-1.316c.182.325.23.335.405.356"/></g><g><use stroke-linecap="round" stroke-linejoin="round" stroke-width="1.427" paint-order="markers stroke fill" transform="matrix(.00159 -.32435 .4801 .00235 557.535 53.24)" xlink:href="#reuse-3"/><use stroke-width=".3" transform="matrix(.00252 -.51394 .8575 .0042 157.56 167.45)" xlink:href="#reuse-4"/></g><g><use stroke-linecap="round" stroke-linejoin="round" stroke-width="1.427" paint-order="markers stroke fill" transform="matrix(.16698 0 0 .14814 611.963 24.252)" xlink:href="#reuse-3"/><path fill="none" stroke="#484646" stroke-width=".07937399999999999" d="M616.606 40.341c.152.066.323.055.467.123.127.059-.132-.087.06.075.064.055.258-.013.312-.033.021-.007.046.016.068.008.11-.04.135-.121.286-.104m-1.37 2.072a.674.674 0 00.484.261m.618-1.198c-.156.24-.022.284-.525.386m-.56-.785c-.094.012-.195-.004-.28.036a.435.435 0 00-.18.666m1.617.563c.263.004.132-.293.34-.27m.185-1.316c.182.325.23.335.405.356"/></g><g><use stroke-linecap="round" stroke-linejoin="round" stroke-width="1.427" paint-order="markers stroke fill" transform="matrix(.2349 0 0 .16389 597.033 9.888)" xlink:href="#reuse-3"/><use stroke-width=".3" transform="matrix(.37222 0 0 .29271 512.9 -126.45)" xlink:href="#reuse-4"/></g><g><use stroke-linecap="round" stroke-linejoin="round" stroke-width="1.427" paint-order="markers stroke fill" transform="matrix(.35193 0 0 .1924 494.123 5.326)" xlink:href="#reuse-3"/><use stroke-width=".3" transform="matrix(.55764 0 0 .34363 368.08 -154.73)" xlink:href="#reuse-4"/></g><g><use stroke-linecap="round" stroke-linejoin="round" stroke-width="1.427" paint-order="markers stroke fill" transform="matrix(.16698 0 0 .14814 475.233 7.076)" xlink:href="#reuse-3"/><path fill="none" stroke="#484646" stroke-width=".07937399999999999" d="M479.876 23.165c.152.066.323.055.467.123.127.059-.132-.087.06.075.064.055.258-.013.312-.033.021-.007.046.016.068.008.11-.04.135-.121.286-.104m-1.37 2.072a.674.674 0 00.484.261m.618-1.198c-.156.24-.022.284-.525.386m-.56-.785c-.094.012-.195-.004-.28.036a.435.435 0 00-.18.666m1.617.563c.263.004.132-.293.34-.27m.185-1.316c.182.325.23.335.405.356"/></g><g><use stroke-linecap="round" stroke-linejoin="round" stroke-width="1.427" paint-order="markers stroke fill" transform="matrix(.21927 -.16116 .14298 .19453 442.088 7.767)" xlink:href="#reuse-3"/><path fill="none" stroke="#484646" stroke-width=".129357" d="M463.715 24.413c.262-.06.476-.238.73-.289.224-.045-.256.013.151.041.139.01.327-.266.38-.344.02-.03.075-.024.096-.055.105-.158.06-.29.275-.413m.2 4.043c.356.08.59.047.888-.124m-.344-2.17c.027.465.245.395-.317 1.013m-1.495-.49c-.11.106-.258.183-.33.318-.308.57.15 1 .406 1.047m2.666-.82c.35-.249-.109-.513.186-.682m-1.026-1.908c.552.25.623.22.875.076"/></g><g><use stroke-linecap="round" stroke-linejoin="round" stroke-width="1.427" paint-order="markers stroke fill" transform="matrix(.27422 .30138 -.20815 .1894 508.2 39.45)" xlink:href="#reuse-3"/><use stroke-width=".3" transform="matrix(.43451 .47755 -.37177 .33827 583.15 -226.05)" xlink:href="#reuse-4"/></g></g><g fill="#fff" stroke="#0029ff" stroke-linecap="round" stroke-linejoin="round" stroke-width=".056" paint-order="markers stroke fill" transform="matrix(1.2446 0 0 .99996 -16.521 -2.088)"><circle cx="473.44" cy="-98.052" r=".415"/><circle cx="456.36" cy="-92.752" r=".415"/><circle cx="444" cy="-80.974" r=".415"/><circle cx="489.93" cy="-89.808" r=".415"/><circle cx="315.62" cy="-92.163" r=".415"/><circle cx="217.27" cy="-76.852" r=".415"/><circle cx="161.92" cy="-92.752" r=".415"/><circle cx="264.97" cy="-92.752" r=".415"/><circle cx="224.93" cy="-96.874" r=".415"/><circle cx="252.61" cy="-79.208" r=".415"/><circle cx="79.471" cy="-76.852" r=".415"/><circle cx="47.671" cy="-95.108" r=".415"/><circle cx="106.56" cy="-90.985" r=".415"/><circle cx="136.01" cy="-74.496" r=".415"/><circle cx="54.149" cy="-59.185" r=".415"/><circle cx="65.338" cy="-26.207" r=".415"/><circle cx="98.316" cy="-19.14" r=".415"/><circle cx="148.37" cy="-36.807" r=".415"/><circle cx="160.15" cy="-50.352" r=".415"/><circle cx="189.01" cy="-50.352" r=".415"/><circle cx="186.06" cy="-40.341" r=".415"/><circle cx="243.77" cy="-48.585" r=".415"/><circle cx="223.16" cy="-61.541" r=".415"/><circle cx="261.44" cy="-63.307" r=".415"/><circle cx="293.24" cy="-58.007" r=".415"/><circle cx="327.98" cy="-68.607" r=".415"/><circle cx="338" cy="-79.208" r=".415"/><circle cx="350.36" cy="-96.874" r=".415"/><circle cx="486.4" cy="-59.774" r=".415"/><circle cx="494.05" cy="53.294" r=".415"/><circle cx="370.97" cy="32.093" r=".415"/><circle cx="442.23" cy="30.327" r=".415"/><circle cx="519.38" cy="58.594" r=".415"/><circle cx="345.65" cy="72.138" r=".415"/><circle cx="252.61" cy="63.305" r=".415"/><circle cx="172.52" cy="59.771" r=".415"/><circle cx="148.37" cy="46.227" r=".415"/><circle cx="114.22" cy="62.716" r=".415"/><circle cx="147.78" cy="68.605" r=".415"/><circle cx="28.826" cy="61.538" r=".415"/><circle cx="30.593" cy="11.482" r=".415"/><circle cx="45.904" cy="-13.251" r=".415"/><circle cx="43.549" cy="7.36" r=".415"/><circle cx="30.593" cy="-60.952" r=".415"/><circle cx="25.293" cy="-90.985" r=".415"/></g></g></svg>