<?xml version="1.0" encoding="UTF-8"?>
<svg width="110.57mm" height="108.52mm" version="1.1" viewBox="0 0 110.57 108.52" xmlns="http://www.w3.org/2000/svg">
 <title>Large Asteroid Icon Vector Graphic</title>
 <g transform="translate(-72.291 -22.288)">
  <path id="icon-largeAsteroid" transform="translate(94.875 42.188)" d="m47.056 84.216c-11.663 3.9792-2.5587 2.4115-15.362 2.1353-12.803-0.27612-2.4182 2.8198-14.505-0.63568-12.087-3.4555-2.0154-0.81657-12.647-7.3506-10.631-6.534-5.158-3.0089-13.374-12.425-8.2162-9.4159-2.3773 1.7706-8.0982-9.5511-5.7209-11.322-1.1188-3.9176-3.1332-16.445-2.0144-12.527-1.3755-1.2487 0.11084-13.492 1.4864-12.244-0.14872-2.1406 4.8775-13.958 5.0262-11.817 1.9949-5.3334 10.128-14.813 8.1326-9.48-2.1168-1.1481 8.7573-7.2229 10.874-6.0749 5.2452-2.9353 17.288-5.8557 12.043-2.9204-1.7226-3.8714 11.102-2.8512 12.825 1.0202 5.885 1.5421 18.086 5.5093 12.201 3.9672 1.1265-4.531 11.338 2.4696 10.212 7.0007 4.672 0.60379 12.453 10.281s1.8883 2.9642 6.991 14.513c5.1028 11.549 2.4291-0.20109 4.311 12.331s1.93 3.5987-0.35788 15.96 0.14235 4.7575-4.6304 16.58c-4.7728 11.823-1.2803-0.41687-10.203 8.4795-8.9227 8.8964 0.63 4.6134-10.593 10.518-11.223 5.9047-0.87617 1.8442-12.539 5.8234z" fill="none" stroke="#BADA55" stroke-linecap="round" stroke-linejoin="round" stroke-width="3.5082" style="paint-order:markers stroke fill"/>
 </g>
</svg>
